solid OpenSCAD_Model
  facet normal -1 0 0
    outer loop
      vertex 0 61 1
      vertex 0 41 5
      vertex 0 61 5
    endloop
  endfacet
  facet normal -1 -0 0
    outer loop
      vertex 0 41 5
      vertex 0 37.7321 1
      vertex 0 41 7
    endloop
  endfacet
  facet normal -1 0 0
    outer loop
      vertex 0 37.7321 1
      vertex 0 41 5
      vertex 0 61 1
    endloop
  endfacet
  facet normal -1 0 0
    outer loop
      vertex 0 41 7
      vertex 0 61 11
      vertex 0 61 7
    endloop
  endfacet
  facet normal -1 0 0
    outer loop
      vertex 0 41 7
      vertex 0 37.7321 11
      vertex 0 61 11
    endloop
  endfacet
  facet normal -1 0 0
    outer loop
      vertex 0 37.7321 1
      vertex 0 37.7321 11
      vertex 0 41 7
    endloop
  endfacet
  facet normal -1 0 0
    outer loop
      vertex 0 36 0
      vertex 0 37.7321 11
      vertex 0 37.7321 1
    endloop
  endfacet
  facet normal -1 0 0
    outer loop
      vertex 0 36 0
      vertex 0 36 12
      vertex 0 37.7321 11
    endloop
  endfacet
  facet normal -1 0 0
    outer loop
      vertex 0 30 0
      vertex 0 36 12
      vertex 0 36 0
    endloop
  endfacet
  facet normal -1 -0 0
    outer loop
      vertex 0 36 12
      vertex 0 30 0
      vertex 0 30 12
    endloop
  endfacet
  facet normal -0 0 1
    outer loop
      vertex 0 61 11
      vertex 35 37.7321 11
      vertex 35 61 11
    endloop
  endfacet
  facet normal 0 0 1
    outer loop
      vertex 35 37.7321 11
      vertex 0 61 11
      vertex 0 37.7321 11
    endloop
  endfacet
  facet normal 1 0 0
    outer loop
      vertex 35 61 11
      vertex 35 41 7
      vertex 35 61 7
    endloop
  endfacet
  facet normal 1 0 0
    outer loop
      vertex 35 41 7
      vertex 35 37.7321 11
      vertex 35 41 5
    endloop
  endfacet
  facet normal 1 -0 0
    outer loop
      vertex 35 37.7321 11
      vertex 35 41 7
      vertex 35 61 11
    endloop
  endfacet
  facet normal 1 -0 0
    outer loop
      vertex 35 41 5
      vertex 35 61 1
      vertex 35 61 5
    endloop
  endfacet
  facet normal 1 0 0
    outer loop
      vertex 35 41 5
      vertex 35 37.7321 1
      vertex 35 61 1
    endloop
  endfacet
  facet normal 1 0 0
    outer loop
      vertex 35 37.7321 11
      vertex 35 37.7321 1
      vertex 35 41 5
    endloop
  endfacet
  facet normal 1 0 0
    outer loop
      vertex 35 36 12
      vertex 35 37.7321 1
      vertex 35 37.7321 11
    endloop
  endfacet
  facet normal 1 0 0
    outer loop
      vertex 35 36 12
      vertex 35 36 0
      vertex 35 37.7321 1
    endloop
  endfacet
  facet normal 1 -0 0
    outer loop
      vertex 35 30 12
      vertex 35 36 0
      vertex 35 36 12
    endloop
  endfacet
  facet normal 1 0 0
    outer loop
      vertex 35 36 0
      vertex 35 30 12
      vertex 35 30 0
    endloop
  endfacet
  facet normal 0 1 -0
    outer loop
      vertex 35 61 7
      vertex 0 61 11
      vertex 35 61 11
    endloop
  endfacet
  facet normal 0 1 0
    outer loop
      vertex 0 61 11
      vertex 35 61 7
      vertex 0 61 7
    endloop
  endfacet
  facet normal 0 1 -0
    outer loop
      vertex 35 61 1
      vertex 0 61 5
      vertex 35 61 5
    endloop
  endfacet
  facet normal 0 1 0
    outer loop
      vertex 0 61 5
      vertex 35 61 1
      vertex 0 61 1
    endloop
  endfacet
  facet normal 0 0 -1
    outer loop
      vertex 0 37.7321 1
      vertex 35 61 1
      vertex 35 37.7321 1
    endloop
  endfacet
  facet normal -0 0 -1
    outer loop
      vertex 35 61 1
      vertex 0 37.7321 1
      vertex 0 61 1
    endloop
  endfacet
  facet normal 0 1 -0
    outer loop
      vertex 35 41 5
      vertex 0 41 7
      vertex 35 41 7
    endloop
  endfacet
  facet normal 0 1 0
    outer loop
      vertex 0 41 7
      vertex 35 41 5
      vertex 0 41 5
    endloop
  endfacet
  facet normal 0 0 -1
    outer loop
      vertex 0 41 7
      vertex 35 61 7
      vertex 35 41 7
    endloop
  endfacet
  facet normal -0 0 -1
    outer loop
      vertex 35 61 7
      vertex 0 41 7
      vertex 0 61 7
    endloop
  endfacet
  facet normal -0 0 1
    outer loop
      vertex 0 61 5
      vertex 35 41 5
      vertex 35 61 5
    endloop
  endfacet
  facet normal 0 0 1
    outer loop
      vertex 35 41 5
      vertex 0 61 5
      vertex 0 41 5
    endloop
  endfacet
  facet normal -0 0 1
    outer loop
      vertex 0 36 12
      vertex 35 30 12
      vertex 35 36 12
    endloop
  endfacet
  facet normal 0 0 1
    outer loop
      vertex 35 30 12
      vertex 0 36 12
      vertex 0 30 12
    endloop
  endfacet
  facet normal 0 0 -1
    outer loop
      vertex 0 30 0
      vertex 35 36 0
      vertex 35 30 0
    endloop
  endfacet
  facet normal -0 0 -1
    outer loop
      vertex 35 36 0
      vertex 0 30 0
      vertex 0 36 0
    endloop
  endfacet
  facet normal -0 0.5 0.866026
    outer loop
      vertex 0 37.7321 11
      vertex 35 36 12
      vertex 35 37.7321 11
    endloop
  endfacet
  facet normal 0 0.5 0.866026
    outer loop
      vertex 35 36 12
      vertex 0 37.7321 11
      vertex 0 36 12
    endloop
  endfacet
  facet normal 0 0.5 -0.866026
    outer loop
      vertex 0 36 0
      vertex 35 37.7321 1
      vertex 35 36 0
    endloop
  endfacet
  facet normal 0 0.5 -0.866026
    outer loop
      vertex 35 37.7321 1
      vertex 0 36 0
      vertex 0 37.7321 1
    endloop
  endfacet
  facet normal 0 -1 0
    outer loop
      vertex 0 30 0
      vertex 35 30 12
      vertex 0 30 12
    endloop
  endfacet
  facet normal 0 -1 -0
    outer loop
      vertex 35 30 12
      vertex 0 30 0
      vertex 35 30 0
    endloop
  endfacet
endsolid OpenSCAD_Model
