999
Inkscape export via OpenSCAD DXF Export
  0
SECTION
  2
HEADER
  9
$ACADVER
  1
AC1014
  9
$HANDSEED
  5
FFFF
  9
$MEASUREMENT
 70
     1
  0
ENDSEC
  0
SECTION
  2
TABLES
  0
TABLE
  2
VPORT
  5
8
330
0
100
AcDbSymbolTable
 70
     4
  0
VPORT
  5
2E
330
8
100
AcDbSymbolTableRecord
100
AcDbViewportTableRecord
  2
*ACTIVE
 70
     0
 10
0.0
 20
0.0
 11
1.0
 21
1.0
 12
210.0
 22
148.5
 13
0.0
 23
0.0
 14
10.0
 24
10.0
 15
10.0
 25
10.0
 16
0.0
 26
0.0
 36
1.0
 17
0.0
 27
0.0
 37
0.0
 40
341.0
 41
1.24
 42
50.0
 43
0.0
 44
0.0
 50
0.0
 51
0.0
 71
     0
 72
   100
 73
     1
 74
     3
 75
     0
 76
     0
 77
     0
 78
     0
  0
ENDTAB
  0
TABLE
  2
LTYPE
  5
5
330
0
100
AcDbSymbolTable
 70
     1
  0
LTYPE
  5
14
330
5
100
AcDbSymbolTableRecord
100
AcDbLinetypeTableRecord
  2
BYBLOCK
 70
     0
  3

 72
    65
 73
     0
 40
0.0
  0
LTYPE
  5
15
330
5
100
AcDbSymbolTableRecord
100
AcDbLinetypeTableRecord
  2
BYLAYER
 70
     0
  3

 72
    65
 73
     0
 40
0.0
  0
LTYPE
  5
16
330
5
100
AcDbSymbolTableRecord
100
AcDbLinetypeTableRecord
  2
CONTINUOUS
 70
     0
  3
Solid line
 72
    65
 73
     0
 40
0.0
  0
ENDTAB
  0
TABLE
0
TABLE
2
LAYER
5
2
330
0
100
AcDbSymbolTable
70
1
0
LAYER
5
10
330
2
100
AcDbSymbolTableRecord
100
AcDbLayerTableRecord
2
Layer_1
70
0
62
7
6
CONTINUOUS
0
ENDTAB
0
ENDSEC
  0
ENDTAB
  0
TABLE
  2
STYLE
  5
3
330
0
100
AcDbSymbolTable
 70
     1
  0
STYLE
  5
11
330
3
100
AcDbSymbolTableRecord
100
AcDbTextStyleTableRecord
  2
STANDARD
 70
     0
 40
0.0
 41
1.0
 50
0.0
 71
     0
 42
2.5
  3
txt
  4

  0
ENDTAB
  0
TABLE
  2
VIEW
  5
6
330
0
100
AcDbSymbolTable
 70
     0
  0
ENDTAB
  0
TABLE
  2
UCS
  5
7
330
0
100
AcDbSymbolTable
 70
     0
  0
ENDTAB
  0
TABLE
  2
APPID
  5
9
330
0
100
AcDbSymbolTable
 70
     2
  0
APPID
  5
12
330
9
100
AcDbSymbolTableRecord
100
AcDbRegAppTableRecord
  2
ACAD
 70
     0
  0
ENDTAB
  0
TABLE
  2
DIMSTYLE
  5
A
330
0
100
AcDbSymbolTable
 70
     1
  0
DIMSTYLE
105
27
330
A
100
AcDbSymbolTableRecord
100
AcDbDimStyleTableRecord
  2
ISO-25
 70
     0
  3

  4

  5

  6

  7

 40
1.0
 41
2.5
 42
0.625
 43
3.75
 44
1.25
 45
0.0
 46
0.0
 47
0.0
 48
0.0
140
2.5
141
2.5
142
0.0
143
0.03937007874016
144
1.0
145
0.0
146
1.0
147
0.625
 71
     0
 72
     0
 73
     0
 74
     0
 75
     0
 76
     0
 77
     1
 78
     8
170
     0
171
     3
172
     1
173
     0
174
     0
175
     0
176
     0
177
     0
178
     0
270
     2
271
     2
272
     2
273
     2
274
     3
340
11
275
     0
280
     0
281
     0
282
     0
283
     0
284
     8
285
     0
286
     0
287
     3
288
     0
  0
ENDTAB
  0
TABLE
  2
BLOCK_RECORD
  5
1
330
0
100
AcDbSymbolTable
 70
     1
  0
BLOCK_RECORD
  5
1F
330
1
100
AcDbSymbolTableRecord
100
AcDbBlockTableRecord
  2
*MODEL_SPACE
  0
BLOCK_RECORD
  5
1B
330
1
100
AcDbSymbolTableRecord
100
AcDbBlockTableRecord
  2
*PAPER_SPACE
  0
ENDTAB
  0
ENDSEC
  0
SECTION
  2
BLOCKS
  0
BLOCK
  5
20
330
1F
100
AcDbEntity
  8
0
100
AcDbBlockBegin
  2
*MODEL_SPACE
 70
     0
 10
0.0
 20
0.0
 30
0.0
  3
*MODEL_SPACE
  1

  0
ENDBLK
  5
21
330
1F
100
AcDbEntity
  8
0
100
AcDbBlockEnd
  0
BLOCK
  5
1C
330
1B
100
AcDbEntity
 67
     1
  8
0
100
AcDbBlockBegin
  2
*PAPER_SPACE
  1

  0
ENDBLK
  5
1D
330
1B
100
AcDbEntity
 67
     1
  8
0
100
AcDbBlockEnd
  0
ENDSEC
  0
SECTION
  2
ENTITIES
0
DIMENSION
5
83
100
AcDbEntity
62
256
370
-1
6
ByLayer
1
total_width
3
Standard
70
0
71
5
72
1
41
1.0
100
AcDbAlignedDimension
13
0.000000
23
0.000000
33
0.0
14
69.991111
24
0.000000
34
0.0
50
0.000000
100
AcDbRotatedDimension
0
DIMENSION
5
83
100
AcDbEntity
62
256
370
-1
6
ByLayer
1
total_height
3
Standard
70
0
71
5
72
1
41
1.0
100
AcDbAlignedDimension
13
0.000000
23
-222.391111
33
0.0
14
0.000000
24
28.222222
34
0.0
50
90.000000
100
AcDbRotatedDimension
0
DIMENSION
8
Layer_1
5
83
100
AcDbEntity
62
256
370
-1
6
ByLayer
1
Layer_1_width
3
Standard
70
0
71
5
72
1
41
1.0
100
AcDbAlignedDimension
13
0.000000
23
0.000000
33
0.0
14
69.991111
24
0.000000
34
0.0
50
0.000000
100
AcDbRotatedDimension
0
DIMENSION
8
Layer_1
5
83
100
AcDbEntity
62
256
370
-1
6
ByLayer
1
Layer_1_height
3
Standard
70
0
71
5
72
1
41
1.0
100
AcDbAlignedDimension
13
0.000000
23
-222.391111
33
0.0
14
0.000000
24
28.222222
34
0.0
50
90.000000
100
AcDbRotatedDimension
62
0
0
LWPOLYLINE
100
AcDbPolyline
8
Layer_1
90
119
70
0
10
0.000000
20
-222.391111
30
0.0
10
69.991111
20
-222.391111
30
0.0
10
69.991111
20
-216.746667
30
0.0
10
67.733333
20
-216.746667
30
0.0
10
67.038802
20
-216.647448
30
0.0
10
66.622083
20
-216.376250
30
0.0
10
66.443490
20
-215.972760
30
0.0
10
66.463333
20
-215.476667
30
0.0
10
66.939583
20
-214.365417
30
0.0
10
67.733333
20
-213.360000
30
0.0
10
68.419045
20
-212.367813
30
0.0
10
68.774028
20
-211.137500
30
0.0
10
68.785052
20
-209.748437
30
0.0
10
68.438889
20
-208.280000
30
0.0
10
67.722309
20
-206.811562
30
0.0
10
66.622083
20
-205.422500
30
0.0
10
65.124983
20
-204.192187
30
0.0
10
63.217778
20
-203.200000
30
0.0
10
59.282101
20
-201.367760
30
0.0
10
55.227361
20
-199.125417
30
0.0
10
53.217355
20
-197.788444
30
0.0
10
51.251997
20
-196.274531
30
0.0
10
49.356092
20
-194.558874
30
0.0
10
47.554444
20
-192.616667
30
0.0
10
45.871860
20
-190.423105
30
0.0
10
44.333142
20
-187.953385
30
0.0
10
42.963097
20
-185.182702
30
0.0
10
41.786528
20
-182.086250
30
0.0
10
40.828240
20
-178.639225
30
0.0
10
40.113038
20
-174.816823
30
0.0
10
39.665727
20
-170.594238
30
0.0
10
39.511111
20
-165.946667
30
0.0
10
38.063930
20
-165.510259
30
0.0
10
36.684755
20
-164.744053
30
0.0
10
35.372139
20
-163.668821
30
0.0
10
34.124635
20
-162.305339
30
0.0
10
32.940797
20
-160.674379
30
0.0
10
31.819178
20
-158.796715
30
0.0
10
29.756806
20
-154.384375
30
0.0
10
27.925944
20
-149.234508
30
0.0
10
26.315017
20
-143.513307
30
0.0
10
24.912450
20
-137.386963
30
0.0
10
23.706667
20
-131.021667
30
0.0
10
22.686092
20
-124.583610
30
0.0
10
21.839149
20
-118.238984
30
0.0
10
20.619861
20
-106.494792
30
0.0
10
19.956198
20
-97.118620
30
0.0
10
19.755556
20
-91.440000
30
0.0
10
22.905200
20
-91.072891
30
0.0
10
26.643542
20
-90.408125
30
0.0
10
30.659696
20
-89.465547
30
0.0
10
34.642778
20
-88.265000
30
0.0
10
38.281901
20
-86.826328
30
0.0
10
41.266181
20
-85.169375
30
0.0
10
42.415602
20
-84.265244
30
0.0
10
43.284731
20
-83.313984
30
0.0
10
43.834706
20
-82.318076
30
0.0
10
44.026667
20
-81.280000
30
0.0
10
43.911463
20
-80.632873
30
0.0
10
43.581285
20
-79.965903
30
0.0
10
42.368611
20
-78.598889
30
0.0
10
40.573854
20
-77.231875
30
0.0
10
38.382222
20
-75.917778
30
0.0
10
35.978924
20
-74.709514
30
0.0
10
33.549167
20
-73.660000
30
0.0
10
29.351111
20
-72.248889
30
0.0
10
30.480000
20
-69.991111
30
0.0
10
28.343490
20
-69.413437
30
0.0
10
26.299583
20
-68.544722
30
0.0
10
24.546719
20
-67.411424
30
0.0
10
23.841439
20
-66.753824
30
0.0
10
23.283333
20
-66.040000
30
0.0
10
22.897207
20
-65.273260
30
0.0
10
22.707865
20
-64.456910
30
0.0
10
22.740111
20
-63.594258
30
0.0
10
23.018750
20
-62.688611
30
0.0
10
23.568587
20
-61.743277
30
0.0
10
24.414427
20
-60.761562
30
0.0
10
25.581074
20
-59.746775
30
0.0
10
27.093333
20
-58.702222
30
0.0
10
23.706667
20
-55.315556
30
0.0
10
25.836287
20
-53.735773
30
0.0
10
27.937795
20
-51.567292
30
0.0
10
29.930163
20
-48.856415
30
0.0
10
31.732361
20
-45.649444
30
0.0
10
33.263362
20
-41.992682
30
0.0
10
34.442135
20
-37.932431
30
0.0
10
35.187654
20
-33.514991
30
0.0
10
35.418889
20
-28.786667
30
0.0
10
35.316328
20
-26.320392
30
0.0
10
35.054811
20
-23.793759
30
0.0
10
34.624209
20
-21.212555
30
0.0
10
34.014392
20
-18.582569
30
0.0
10
33.215234
20
-15.909589
30
0.0
10
32.216604
20
-13.199401
30
0.0
10
31.008374
20
-10.457794
30
0.0
10
29.580417
20
-7.690556
30
0.0
10
27.922602
20
-4.903473
30
0.0
10
26.024803
20
-2.102335
30
0.0
10
23.876889
20
0.707071
30
0.0
10
21.468733
20
3.518958
30
0.0
10
18.790205
20
6.327538
30
0.0
10
15.831178
20
9.127023
30
0.0
10
12.581523
20
11.911624
30
0.0
10
9.031111
20
14.675556
30
0.0
10
11.482917
20
17.197917
30
0.0
10
13.405556
20
19.614444
30
0.0
10
14.003073
20
20.749948
30
0.0
10
14.269861
20
21.819306
30
0.0
10
14.139774
20
22.809288
30
0.0
10
13.546667
20
23.706667
30
0.0
10
12.501563
20
24.548924
30
0.0
10
11.112500
20
25.364722
30
0.0
10
7.620000
20
26.811111
30
0.0
10
3.704167
20
27.834167
30
0.0
10
1.785937
20
28.120799
30
0.0
10
0.000000
20
28.222222
30
0.0
10
0.000000
20
-222.391111
30
0.0
10
0.000000
20
28.222222
30
0.0
  0
ENDSEC
  0
SECTION
  2
OBJECTS
  0
DICTIONARY
  5
C
330
0
100
AcDbDictionary
  3
ACAD_GROUP
350
D
  3
ACAD_MLINESTYLE
350
17
  0
DICTIONARY
  5
D
330
C
100
AcDbDictionary
  0
DICTIONARY
  5
1A
330
C
100
AcDbDictionary
  0
DICTIONARY
  5
17
330
C
100
AcDbDictionary
  3
STANDARD
350
18
  0
DICTIONARY
  5
19
330
C
100
AcDbDictionary
  0
ENDSEC
  0
EOF
