  0
SECTION
  2
HEADER
  9
$ACADVER
  1
AC1009
  9
$EXTMIN
 10
0.0
 20
0.0
 30
0.0
  9
$EXTMAX
 10
1000.0
 20
1000.0
 30
0.0
  9
$FILLMODE
 70
 0
  9
$SPLFRAME
 70
 1
  0
ENDSEC
  0
SECTION
  2
TABLES
  0
TABLE
  2
LAYER
 70
1
  0
LAYER
  2
0
 70
     0
 62
     7
  6
CONTINUOUS
  0
ENDTAB
  0
ENDSEC
  0
SECTION
  2
ENTITIES
  0
LINE
  8
0
 62
     0
 10
0
 20
57.0096
 30
0.0
 11
0
 21
-0.00137804
 31
0.0
  0
LINE
  8
0
 62
     0
 10
0
 20
-0.00137804
 30
0.0
 11
32.2089
 21
0.106109
 31
0.0
  0
LINE
  8
0
 62
     0
 10
32.2089
 20
0.106109
 30
0.0
 11
34.7279
 21
0.115755
 31
0.0
  0
LINE
  8
0
 62
     0
 10
34.7279
 20
0.115755
 30
0.0
 11
42.2892
 21
0.144694
 31
0.0
  0
LINE
  8
0
 62
     0
 10
42.2892
 20
0.144694
 30
0.0
 11
50.0461
 21
0.183279
 31
0.0
  0
LINE
  8
0
 62
     0
 10
50.0461
 20
0.183279
 30
0.0
 11
55.8063
 21
0.23151
 31
0.0
  0
LINE
  8
0
 62
     0
 10
55.8063
 20
0.23151
 30
0.0
 11
59.8964
 21
0.296278
 31
0.0
  0
LINE
  8
0
 62
     0
 10
59.8964
 20
0.296278
 30
0.0
 11
62.6428
 21
0.385851
 31
0.0
  0
LINE
  8
0
 62
     0
 10
62.6428
 20
0.385851
 30
0.0
 11
64.3696
 21
0.508497
 31
0.0
  0
LINE
  8
0
 62
     0
 10
64.3696
 20
0.508497
 30
0.0
 11
65.4057
 21
0.671103
 31
0.0
  0
LINE
  8
0
 62
     0
 10
65.4057
 20
0.671103
 30
0.0
 11
65.913
 21
0.817178
 31
0.0
  0
LINE
  8
0
 62
     0
 10
65.913
 20
0.817178
 30
0.0
 11
66.0756
 21
0.880565
 31
0.0
  0
LINE
  8
0
 62
     0
 10
66.0756
 20
0.880565
 30
0.0
 11
66.5
 21
1.04317
 31
0.0
  0
LINE
  8
0
 62
     0
 10
66.5
 20
1.04317
 30
0.0
 11
67.6755
 21
1.78594
 31
0.0
  0
LINE
  8
0
 62
     0
 10
67.6755
 20
1.78594
 30
0.0
 11
68.7737
 21
3.16673
 31
0.0
  0
LINE
  8
0
 62
     0
 10
68.7737
 20
3.16673
 30
0.0
 11
69.4489
 21
5.16901
 31
0.0
  0
LINE
  8
0
 62
     0
 10
69.4489
 20
5.16901
 30
0.0
 11
69.7399
 21
7.24299
 31
0.0
  0
LINE
  8
0
 62
     0
 10
69.7399
 20
7.24299
 30
0.0
 11
69.7798
 21
7.93612
 31
0.0
  0
LINE
  8
0
 62
     0
 10
69.7798
 20
7.93612
 30
0.0
 11
69.8003
 21
8.39089
 31
0.0
  0
LINE
  8
0
 62
     0
 10
69.8003
 20
8.39089
 30
0.0
 11
69.813
 21
9.75374
 31
0.0
  0
LINE
  8
0
 62
     0
 10
69.813
 20
9.75374
 30
0.0
 11
69.7039
 21
11.3082
 31
0.0
  0
LINE
  8
0
 62
     0
 10
69.7039
 20
11.3082
 30
0.0
 11
69.4186
 21
12.6628
 31
0.0
  0
LINE
  8
0
 62
     0
 10
69.4186
 20
12.6628
 30
0.0
 11
68.9183
 21
13.8865
 31
0.0
  0
LINE
  8
0
 62
     0
 10
68.9183
 20
13.8865
 30
0.0
 11
68.1701
 21
15.0468
 31
0.0
  0
LINE
  8
0
 62
     0
 10
68.1701
 20
15.0468
 30
0.0
 11
67.1354
 21
16.2085
 31
0.0
  0
LINE
  8
0
 62
     0
 10
67.1354
 20
16.2085
 30
0.0
 11
65.7779
 21
17.4391
 31
0.0
  0
LINE
  8
0
 62
     0
 10
65.7779
 20
17.4391
 30
0.0
 11
64.4991
 21
18.4712
 31
0.0
  0
LINE
  8
0
 62
     0
 10
64.4991
 20
18.4712
 30
0.0
 11
64.0652
 21
18.8033
 31
0.0
  0
LINE
  8
0
 62
     0
 10
64.0652
 20
18.8033
 30
0.0
 11
62.6678
 21
19.8741
 31
0.0
  0
LINE
  8
0
 62
     0
 10
62.6678
 20
19.8741
 30
0.0
 11
58.619
 21
23.2654
 31
0.0
  0
LINE
  8
0
 62
     0
 10
58.619
 20
23.2654
 30
0.0
 11
53.2074
 21
28.2222
 31
0.0
  0
LINE
  8
0
 62
     0
 10
53.2074
 20
28.2222
 30
0.0
 11
48.2575
 21
33.2603
 31
0.0
  0
LINE
  8
0
 62
     0
 10
48.2575
 20
33.2603
 30
0.0
 11
45.1626
 21
36.7425
 31
0.0
  0
LINE
  8
0
 62
     0
 10
45.1626
 20
36.7425
 30
0.0
 11
44.2034
 21
37.9596
 31
0.0
  0
LINE
  8
0
 62
     0
 10
44.2034
 20
37.9596
 30
0.0
 11
43.513
 21
38.8359
 31
0.0
  0
LINE
  8
0
 62
     0
 10
43.513
 20
38.8359
 30
0.0
 11
41.5727
 21
41.5671
 31
0.0
  0
LINE
  8
0
 62
     0
 10
41.5727
 20
41.5671
 30
0.0
 11
39.0232
 21
45.5993
 31
0.0
  0
LINE
  8
0
 62
     0
 10
39.0232
 20
45.5993
 30
0.0
 11
36.5799
 21
49.9897
 31
0.0
  0
LINE
  8
0
 62
     0
 10
36.5799
 20
49.9897
 30
0.0
 11
34.276
 21
54.6735
 31
0.0
  0
LINE
  8
0
 62
     0
 10
34.276
 20
54.6735
 30
0.0
 11
32.1386
 21
59.5849
 31
0.0
  0
LINE
  8
0
 62
     0
 10
32.1386
 20
59.5849
 30
0.0
 11
30.1983
 21
64.6603
 31
0.0
  0
LINE
  8
0
 62
     0
 10
30.1983
 20
64.6603
 30
0.0
 11
28.4827
 21
69.8334
 31
0.0
  0
LINE
  8
0
 62
     0
 10
28.4827
 20
69.8334
 30
0.0
 11
27.3554
 21
73.7291
 31
0.0
  0
LINE
  8
0
 62
     0
 10
27.3554
 20
73.7291
 30
0.0
 11
27.0233
 21
75.0369
 31
0.0
  0
LINE
  8
0
 62
     0
 10
27.0233
 20
75.0369
 30
0.0
 11
26.9117
 21
75.4807
 31
0.0
  0
LINE
  8
0
 62
     0
 10
26.9117
 20
75.4807
 30
0.0
 11
26.5906
 21
76.816
 31
0.0
  0
LINE
  8
0
 62
     0
 10
26.5906
 20
76.816
 30
0.0
 11
26.2365
 21
78.4765
 31
0.0
  0
LINE
  8
0
 62
     0
 10
26.2365
 20
78.4765
 30
0.0
 11
25.9416
 21
80.1758
 31
0.0
  0
LINE
  8
0
 62
     0
 10
25.9416
 20
80.1758
 30
0.0
 11
25.6866
 21
82.0745
 31
0.0
  0
LINE
  8
0
 62
     0
 10
25.6866
 20
82.0745
 30
0.0
 11
25.4524
 21
84.3305
 31
0.0
  0
LINE
  8
0
 62
     0
 10
25.4524
 20
84.3305
 30
0.0
 11
25.2209
 21
87.1015
 31
0.0
  0
LINE
  8
0
 62
     0
 10
25.2209
 20
87.1015
 30
0.0
 11
24.9742
 21
90.5482
 31
0.0
  0
LINE
  8
0
 62
     0
 10
24.9742
 20
90.5482
 30
0.0
 11
24.762
 21
93.7577
 31
0.0
  0
LINE
  8
0
 62
     0
 10
24.762
 20
93.7577
 30
0.0
 11
24.6944
 21
94.827
 31
0.0
  0
LINE
  8
0
 62
     0
 10
24.6944
 20
94.827
 30
0.0
 11
24.6214
 21
95.9887
 31
0.0
  0
LINE
  8
0
 62
     0
 10
24.6214
 20
95.9887
 30
0.0
 11
24.3761
 21
99.4696
 31
0.0
  0
LINE
  8
0
 62
     0
 10
24.3761
 20
99.4696
 30
0.0
 11
24.0371
 21
103.814
 31
0.0
  0
LINE
  8
0
 62
     0
 10
24.0371
 20
103.814
 30
0.0
 11
23.7161
 21
107.38
 31
0.0
  0
LINE
  8
0
 62
     0
 10
23.7161
 20
107.38
 30
0.0
 11
23.53
 21
109.178
 31
0.0
  0
LINE
  8
0
 62
     0
 10
23.53
 20
109.178
 30
0.0
 11
23.4597
 21
109.679
 31
0.0
  0
LINE
  8
0
 62
     0
 10
23.4597
 20
109.679
 30
0.0
 11
23.4087
 21
110.036
 31
0.0
  0
LINE
  8
0
 62
     0
 10
23.4087
 20
110.036
 30
0.0
 11
23.2572
 21
111.106
 31
0.0
  0
LINE
  8
0
 62
     0
 10
23.2572
 20
111.106
 30
0.0
 11
23.089
 21
112.329
 31
0.0
  0
LINE
  8
0
 62
     0
 10
23.089
 20
112.329
 30
0.0
 11
22.9733
 21
113.217
 31
0.0
  0
LINE
  8
0
 62
     0
 10
22.9733
 20
113.217
 30
0.0
 11
22.9306
 21
113.527
 31
0.0
  0
LINE
  8
0
 62
     0
 10
22.9306
 20
113.527
 30
0.0
 11
22.9306
 21
113.63
 31
0.0
  0
LINE
  8
0
 62
     0
 10
22.9306
 20
113.63
 30
0.0
 11
22.9306
 21
113.667
 31
0.0
  0
LINE
  8
0
 62
     0
 10
22.9306
 20
113.667
 30
0.0
 11
22.1451
 21
113.775
 31
0.0
  0
LINE
  8
0
 62
     0
 10
22.1451
 20
113.775
 30
0.0
 11
19.8823
 21
113.887
 31
0.0
  0
LINE
  8
0
 62
     0
 10
19.8823
 20
113.887
 30
0.0
 11
16.2774
 21
113.958
 31
0.0
  0
LINE
  8
0
 62
     0
 10
16.2774
 20
113.958
 30
0.0
 11
12.6683
 21
113.983
 31
0.0
  0
LINE
  8
0
 62
     0
 10
12.6683
 20
113.983
 30
0.0
 11
11.4653
 21
113.983
 31
0.0
  0
LINE
  8
0
 62
     0
 10
11.4653
 20
113.983
 30
0.0
 11
0
 21
113.983
 31
0.0
  0
LINE
  8
0
 62
     0
 10
0
 20
113.983
 30
0.0
 11
0
 21
57.0096
 31
0.0
  0
ENDSEC
  0
EOF
