  0
SECTION
  2
HEADER
  9
$ACADVER
  1
AC1009
  9
$EXTMIN
 10
0.0
 20
0.0
 30
0.0
  9
$EXTMAX
 10
1000.0
 20
1000.0
 30
0.0
  9
$FILLMODE
 70
 0
  9
$SPLFRAME
 70
 1
  0
ENDSEC
  0
SECTION
  2
TABLES
  0
TABLE
  2
LAYER
 70
1
  0
LAYER
  2
0
 70
     0
 62
     7
  6
CONTINUOUS
  0
ENDTAB
  0
ENDSEC
  0
SECTION
  2
ENTITIES
  0
LINE
  8
0
 62
     0
 10
122.098
 20
169.268
 30
0.0
 11
120.866
 21
169.041
 31
0.0
  0
LINE
  8
0
 62
     0
 10
120.866
 20
169.041
 30
0.0
 11
117.171
 21
168.374
 31
0.0
  0
LINE
  8
0
 62
     0
 10
117.171
 20
168.374
 30
0.0
 11
110.676
 21
167.218
 31
0.0
  0
LINE
  8
0
 62
     0
 10
110.676
 20
167.218
 30
0.0
 11
103.453
 21
165.95
 31
0.0
  0
LINE
  8
0
 62
     0
 10
103.453
 20
165.95
 30
0.0
 11
98.122
 21
165.023
 31
0.0
  0
LINE
  8
0
 62
     0
 10
98.122
 20
165.023
 30
0.0
 11
96.3454
 21
164.717
 31
0.0
  0
LINE
  8
0
 62
     0
 10
96.3454
 20
164.717
 30
0.0
 11
95.0433
 21
164.492
 31
0.0
  0
LINE
  8
0
 62
     0
 10
95.0433
 20
164.492
 30
0.0
 11
91.138
 21
163.812
 31
0.0
  0
LINE
  8
0
 62
     0
 10
91.138
 20
163.812
 30
0.0
 11
86.2556
 21
162.956
 31
0.0
  0
LINE
  8
0
 62
     0
 10
86.2556
 20
162.956
 30
0.0
 11
81.7714
 21
162.163
 31
0.0
  0
LINE
  8
0
 62
     0
 10
81.7714
 20
162.163
 30
0.0
 11
77.7572
 21
161.446
 31
0.0
  0
LINE
  8
0
 62
     0
 10
77.7572
 20
161.446
 30
0.0
 11
74.2887
 21
160.818
 31
0.0
  0
LINE
  8
0
 62
     0
 10
74.2887
 20
160.818
 30
0.0
 11
71.4361
 21
160.292
 31
0.0
  0
LINE
  8
0
 62
     0
 10
71.4361
 20
160.292
 30
0.0
 11
69.2739
 21
159.883
 31
0.0
  0
LINE
  8
0
 62
     0
 10
69.2739
 20
159.883
 30
0.0
 11
68.224
 21
159.676
 31
0.0
  0
LINE
  8
0
 62
     0
 10
68.224
 20
159.676
 30
0.0
 11
67.8766
 21
159.602
 31
0.0
  0
LINE
  8
0
 62
     0
 10
67.8766
 20
159.602
 30
0.0
 11
67.8106
 21
159.588
 31
0.0
  0
LINE
  8
0
 62
     0
 10
67.8106
 20
159.588
 30
0.0
 11
67.6176
 21
159.53
 31
0.0
  0
LINE
  8
0
 62
     0
 10
67.6176
 20
159.53
 30
0.0
 11
67.4218
 21
159.409
 31
0.0
  0
LINE
  8
0
 62
     0
 10
67.4218
 20
159.409
 30
0.0
 11
67.2772
 21
159.188
 31
0.0
  0
LINE
  8
0
 62
     0
 10
67.2772
 20
159.188
 30
0.0
 11
67.1795
 21
158.817
 31
0.0
  0
LINE
  8
0
 62
     0
 10
67.1795
 20
158.817
 30
0.0
 11
67.116
 21
158.246
 31
0.0
  0
LINE
  8
0
 62
     0
 10
67.116
 20
158.246
 30
0.0
 11
67.0814
 21
157.42
 31
0.0
  0
LINE
  8
0
 62
     0
 10
67.0814
 20
157.42
 30
0.0
 11
67.0676
 21
156.29
 31
0.0
  0
LINE
  8
0
 62
     0
 10
67.0676
 20
156.29
 30
0.0
 11
67.0648
 21
155.177
 31
0.0
  0
LINE
  8
0
 62
     0
 10
67.0648
 20
155.177
 30
0.0
 11
67.0648
 21
154.805
 31
0.0
  0
LINE
  8
0
 62
     0
 10
67.0648
 20
154.805
 30
0.0
 11
67.0648
 21
150.183
 31
0.0
  0
LINE
  8
0
 62
     0
 10
67.0648
 20
150.183
 30
0.0
 11
65.4071
 21
145.738
 31
0.0
  0
LINE
  8
0
 62
     0
 10
65.4071
 20
145.738
 30
0.0
 11
63.748
 21
141.329
 31
0.0
  0
LINE
  8
0
 62
     0
 10
63.748
 20
141.329
 30
0.0
 11
59.6565
 21
137.024
 31
0.0
  0
LINE
  8
0
 62
     0
 10
59.6565
 20
137.024
 30
0.0
 11
59.0684
 21
136.39
 31
0.0
  0
LINE
  8
0
 62
     0
 10
59.0684
 20
136.39
 30
0.0
 11
57.2149
 21
134.568
 31
0.0
  0
LINE
  8
0
 62
     0
 10
57.2149
 20
134.568
 30
0.0
 11
53.8607
 21
131.473
 31
0.0
  0
LINE
  8
0
 62
     0
 10
53.8607
 20
131.473
 30
0.0
 11
49.6743
 21
127.802
 31
0.0
  0
LINE
  8
0
 62
     0
 10
49.6743
 20
127.802
 30
0.0
 11
45.9754
 21
124.656
 31
0.0
  0
LINE
  8
0
 62
     0
 10
45.9754
 20
124.656
 30
0.0
 11
44.734
 21
123.618
 31
0.0
  0
LINE
  8
0
 62
     0
 10
44.734
 20
123.618
 30
0.0
 11
44.1812
 21
123.159
 31
0.0
  0
LINE
  8
0
 62
     0
 10
44.1812
 20
123.159
 30
0.0
 11
42.5319
 21
121.772
 31
0.0
  0
LINE
  8
0
 62
     0
 10
42.5319
 20
121.772
 30
0.0
 11
40.4329
 21
119.987
 31
0.0
  0
LINE
  8
0
 62
     0
 10
40.4329
 20
119.987
 30
0.0
 11
38.4859
 21
118.311
 31
0.0
  0
LINE
  8
0
 62
     0
 10
38.4859
 20
118.311
 30
0.0
 11
36.7386
 21
116.789
 31
0.0
  0
LINE
  8
0
 62
     0
 10
36.7386
 20
116.789
 30
0.0
 11
35.2406
 21
115.463
 31
0.0
  0
LINE
  8
0
 62
     0
 10
35.2406
 20
115.463
 30
0.0
 11
34.0431
 21
114.377
 31
0.0
  0
LINE
  8
0
 62
     0
 10
34.0431
 20
114.377
 30
0.0
 11
33.1914
 21
113.578
 31
0.0
  0
LINE
  8
0
 62
     0
 10
33.1914
 20
113.578
 30
0.0
 11
32.8414
 21
113.234
 31
0.0
  0
LINE
  8
0
 62
     0
 10
32.8414
 20
113.234
 30
0.0
 11
32.7394
 21
113.107
 31
0.0
  0
LINE
  8
0
 62
     0
 10
32.7394
 20
113.107
 30
0.0
 11
32.5713
 21
112.904
 31
0.0
  0
LINE
  8
0
 62
     0
 10
32.5713
 20
112.904
 30
0.0
 11
31.8299
 21
111.952
 31
0.0
  0
LINE
  8
0
 62
     0
 10
31.8299
 20
111.952
 30
0.0
 11
30.2521
 21
109.892
 31
0.0
  0
LINE
  8
0
 62
     0
 10
30.2521
 20
109.892
 30
0.0
 11
28.225
 21
107.218
 31
0.0
  0
LINE
  8
0
 62
     0
 10
28.225
 20
107.218
 30
0.0
 11
26.5286
 21
104.968
 31
0.0
  0
LINE
  8
0
 62
     0
 10
26.5286
 20
104.968
 30
0.0
 11
25.9664
 21
104.215
 31
0.0
  0
LINE
  8
0
 62
     0
 10
25.9664
 20
104.215
 30
0.0
 11
25.2498
 21
103.273
 31
0.0
  0
LINE
  8
0
 62
     0
 10
25.2498
 20
103.273
 30
0.0
 11
23.1359
 21
100.414
 31
0.0
  0
LINE
  8
0
 62
     0
 10
23.1359
 20
100.414
 30
0.0
 11
21.1364
 21
97.5279
 31
0.0
  0
LINE
  8
0
 62
     0
 10
21.1364
 20
97.5279
 30
0.0
 11
19.699
 21
95.1632
 31
0.0
  0
LINE
  8
0
 62
     0
 10
19.699
 20
95.1632
 30
0.0
 11
18.824
 21
93.4942
 31
0.0
  0
LINE
  8
0
 62
     0
 10
18.824
 20
93.4942
 30
0.0
 11
18.5581
 21
92.9266
 31
0.0
  0
LINE
  8
0
 62
     0
 10
18.5581
 20
92.9266
 30
0.0
 11
18.3472
 21
92.4913
 31
0.0
  0
LINE
  8
0
 62
     0
 10
18.3472
 20
92.4913
 30
0.0
 11
17.7202
 21
91.1793
 31
0.0
  0
LINE
  8
0
 62
     0
 10
17.7202
 20
91.1793
 30
0.0
 11
16.8148
 21
89.2665
 31
0.0
  0
LINE
  8
0
 62
     0
 10
16.8148
 20
89.2665
 30
0.0
 11
15.9425
 21
87.4201
 31
0.0
  0
LINE
  8
0
 62
     0
 10
15.9425
 20
87.4201
 30
0.0
 11
15.3913
 21
86.2584
 31
0.0
  0
LINE
  8
0
 62
     0
 10
15.3913
 20
86.2584
 30
0.0
 11
15.2067
 21
85.8711
 31
0.0
  0
LINE
  8
0
 62
     0
 10
15.2067
 20
85.8711
 30
0.0
 11
15.0027
 21
85.4396
 31
0.0
  0
LINE
  8
0
 62
     0
 10
15.0027
 20
85.4396
 30
0.0
 11
13.7942
 21
82.8559
 31
0.0
  0
LINE
  8
0
 62
     0
 10
13.7942
 20
82.8559
 30
0.0
 11
12.6573
 21
80.4125
 31
0.0
  0
LINE
  8
0
 62
     0
 10
12.6573
 20
80.4125
 30
0.0
 11
12.4906
 21
80.0502
 31
0.0
  0
LINE
  8
0
 62
     0
 10
12.4906
 20
80.0502
 30
0.0
 11
12.3142
 21
79.6893
 31
0.0
  0
LINE
  8
0
 62
     0
 10
12.3142
 20
79.6893
 30
0.0
 11
11.7891
 21
78.595
 31
0.0
  0
LINE
  8
0
 62
     0
 10
11.7891
 20
78.595
 30
0.0
 11
10.8272
 21
76.5761
 31
0.0
  0
LINE
  8
0
 62
     0
 10
10.8272
 20
76.5761
 30
0.0
 11
9.72619
 21
74.2668
 31
0.0
  0
LINE
  8
0
 62
     0
 10
9.72619
 20
74.2668
 30
0.0
 11
8.88972
 21
72.5181
 31
0.0
  0
LINE
  8
0
 62
     0
 10
8.88972
 20
72.5181
 30
0.0
 11
8.61
 21
71.9363
 31
0.0
  0
LINE
  8
0
 62
     0
 10
8.61
 20
71.9363
 30
0.0
 11
5.96417
 21
66.4683
 31
0.0
  0
LINE
  8
0
 62
     0
 10
5.96417
 20
66.4683
 30
0.0
 11
3.3886
 21
54.4738
 31
0.0
  0
LINE
  8
0
 62
     0
 10
3.3886
 20
54.4738
 30
0.0
 11
3.19429
 21
53.5781
 31
0.0
  0
LINE
  8
0
 62
     0
 10
3.19429
 20
53.5781
 30
0.0
 11
2.6169
 21
50.8854
 31
0.0
  0
LINE
  8
0
 62
     0
 10
2.6169
 20
50.8854
 30
0.0
 11
2.00918
 21
47.9707
 31
0.0
  0
LINE
  8
0
 62
     0
 10
2.00918
 20
47.9707
 30
0.0
 11
1.5434
 21
45.6008
 31
0.0
  0
LINE
  8
0
 62
     0
 10
1.5434
 20
45.6008
 30
0.0
 11
1.19614
 21
43.6439
 31
0.0
  0
LINE
  8
0
 62
     0
 10
1.19614
 20
43.6439
 30
0.0
 11
0.946711
 21
41.9724
 31
0.0
  0
LINE
  8
0
 62
     0
 10
0.946711
 20
41.9724
 30
0.0
 11
0.773081
 21
40.4551
 31
0.0
  0
LINE
  8
0
 62
     0
 10
0.773081
 20
40.4551
 30
0.0
 11
0.653189
 21
38.9625
 31
0.0
  0
LINE
  8
0
 62
     0
 10
0.653189
 20
38.9625
 30
0.0
 11
0.584288
 21
37.7638
 31
0.0
  0
LINE
  8
0
 62
     0
 10
0.584288
 20
37.7638
 30
0.0
 11
0.566374
 21
37.3641
 31
0.0
  0
LINE
  8
0
 62
     0
 10
0.566374
 20
37.3641
 30
0.0
 11
0.540191
 21
36.8434
 31
0.0
  0
LINE
  8
0
 62
     0
 10
0.540191
 20
36.8434
 30
0.0
 11
0.460266
 21
35.2764
 31
0.0
  0
LINE
  8
0
 62
     0
 10
0.460266
 20
35.2764
 30
0.0
 11
0.362423
 21
33.383
 31
0.0
  0
LINE
  8
0
 62
     0
 10
0.362423
 20
33.383
 30
0.0
 11
0.278364
 21
31.8933
 31
0.0
  0
LINE
  8
0
 62
     0
 10
0.278364
 20
31.8933
 30
0.0
 11
0.230132
 21
31.1822
 31
0.0
  0
LINE
  8
0
 62
     0
 10
0.230132
 20
31.1822
 30
0.0
 11
0.213596
 21
31.0141
 31
0.0
  0
LINE
  8
0
 62
     0
 10
0.213596
 20
31.0141
 30
0.0
 11
0.144694
 21
30.1956
 31
0.0
  0
LINE
  8
0
 62
     0
 10
0.144694
 20
30.1956
 30
0.0
 11
0.0206706
 21
27.7303
 31
0.0
  0
LINE
  8
0
 62
     0
 10
0.0206706
 20
27.7303
 30
0.0
 11
0.0275608
 21
24.8681
 31
0.0
  0
LINE
  8
0
 62
     0
 10
0.0275608
 20
24.8681
 30
0.0
 11
0.232888
 21
22.5213
 31
0.0
  0
LINE
  8
0
 62
     0
 10
0.232888
 20
22.5213
 30
0.0
 11
0.486449
 21
21.2011
 31
0.0
  0
LINE
  8
0
 62
     0
 10
0.486449
 20
21.2011
 30
0.0
 11
0.636655
 21
20.7836
 31
0.0
  0
LINE
  8
0
 62
     0
 10
0.636655
 20
20.7836
 30
0.0
 11
0.744142
 21
20.4694
 31
0.0
  0
LINE
  8
0
 62
     0
 10
0.744142
 20
20.4694
 30
0.0
 11
1.15893
 21
19.5516
 31
0.0
  0
LINE
  8
0
 62
     0
 10
1.15893
 20
19.5516
 30
0.0
 11
1.80385
 21
18.8268
 31
0.0
  0
LINE
  8
0
 62
     0
 10
1.80385
 20
18.8268
 30
0.0
 11
2.77399
 21
18.4726
 31
0.0
  0
LINE
  8
0
 62
     0
 10
2.77399
 20
18.4726
 30
0.0
 11
3.89573
 21
18.361
 31
0.0
  0
LINE
  8
0
 62
     0
 10
3.89573
 20
18.361
 30
0.0
 11
4.27055
 21
18.3499
 31
0.0
  0
LINE
  8
0
 62
     0
 10
4.27055
 20
18.3499
 30
0.0
 11
4.33257
 21
18.3499
 31
0.0
  0
LINE
  8
0
 62
     0
 10
4.33257
 20
18.3499
 30
0.0
 11
4.51997
 21
18.3582
 31
0.0
  0
LINE
  8
0
 62
     0
 10
4.51997
 20
18.3582
 30
0.0
 11
4.77354
 21
18.3996
 31
0.0
  0
LINE
  8
0
 62
     0
 10
4.77354
 20
18.3996
 30
0.0
 11
5.06568
 21
18.507
 31
0.0
  0
LINE
  8
0
 62
     0
 10
5.06568
 20
18.507
 30
0.0
 11
5.42671
 21
18.7069
 31
0.0
  0
LINE
  8
0
 62
     0
 10
5.42671
 20
18.7069
 30
0.0
 11
5.88836
 21
19.0321
 31
0.0
  0
LINE
  8
0
 62
     0
 10
5.88836
 20
19.0321
 30
0.0
 11
6.48367
 21
19.5103
 31
0.0
  0
LINE
  8
0
 62
     0
 10
6.48367
 20
19.5103
 30
0.0
 11
7.24436
 21
20.1717
 31
0.0
  0
LINE
  8
0
 62
     0
 10
7.24436
 20
20.1717
 30
0.0
 11
8.20346
 21
21.0454
 31
0.0
  0
LINE
  8
0
 62
     0
 10
8.20346
 20
21.0454
 30
0.0
 11
9.39133
 21
22.1616
 31
0.0
  0
LINE
  8
0
 62
     0
 10
9.39133
 20
22.1616
 30
0.0
 11
10.8424
 21
23.5507
 31
0.0
  0
LINE
  8
0
 62
     0
 10
10.8424
 20
23.5507
 30
0.0
 11
12.587
 21
25.2429
 31
0.0
  0
LINE
  8
0
 62
     0
 10
12.587
 20
25.2429
 30
0.0
 11
14.6582
 21
27.2659
 31
0.0
  0
LINE
  8
0
 62
     0
 10
14.6582
 20
27.2659
 30
0.0
 11
17.0877
 21
29.6499
 31
0.0
  0
LINE
  8
0
 62
     0
 10
17.0877
 20
29.6499
 30
0.0
 11
19.9071
 21
32.4266
 31
0.0
  0
LINE
  8
0
 62
     0
 10
19.9071
 20
32.4266
 30
0.0
 11
23.1497
 21
35.6235
 31
0.0
  0
LINE
  8
0
 62
     0
 10
23.1497
 20
35.6235
 30
0.0
 11
25.9237
 21
38.3589
 31
0.0
  0
LINE
  8
0
 62
     0
 10
25.9237
 20
38.3589
 30
0.0
 11
26.8483
 21
39.2698
 31
0.0
  0
LINE
  8
0
 62
     0
 10
26.8483
 20
39.2698
 30
0.0
 11
27.3361
 21
39.7549
 31
0.0
  0
LINE
  8
0
 62
     0
 10
27.3361
 20
39.7549
 30
0.0
 11
28.8065
 21
41.2076
 31
0.0
  0
LINE
  8
0
 62
     0
 10
28.8065
 20
41.2076
 30
0.0
 11
30.66
 21
43.0209
 31
0.0
  0
LINE
  8
0
 62
     0
 10
30.66
 20
43.0209
 30
0.0
 11
32.366
 21
44.6733
 31
0.0
  0
LINE
  8
0
 62
     0
 10
32.366
 20
44.6733
 30
0.0
 11
33.8805
 21
46.1229
 31
0.0
  0
LINE
  8
0
 62
     0
 10
33.8805
 20
46.1229
 30
0.0
 11
35.1634
 21
47.3315
 31
0.0
  0
LINE
  8
0
 62
     0
 10
35.1634
 20
47.3315
 30
0.0
 11
36.1692
 21
48.2604
 31
0.0
  0
LINE
  8
0
 62
     0
 10
36.1692
 20
48.2604
 30
0.0
 11
36.8572
 21
48.8668
 31
0.0
  0
LINE
  8
0
 62
     0
 10
36.8572
 20
48.8668
 30
0.0
 11
37.0967
 21
49.0774
 31
0.0
  0
LINE
  8
0
 62
     0
 10
37.0967
 20
49.0774
 30
0.0
 11
37.1849
 21
49.112
 31
0.0
  0
LINE
  8
0
 62
     0
 10
37.1849
 20
49.112
 30
0.0
 11
37.3475
 21
49.174
 31
0.0
  0
LINE
  8
0
 62
     0
 10
37.3475
 20
49.174
 30
0.0
 11
37.9099
 21
49.1684
 31
0.0
  0
LINE
  8
0
 62
     0
 10
37.9099
 20
49.1684
 30
0.0
 11
39.6737
 21
49.2153
 31
0.0
  0
LINE
  8
0
 62
     0
 10
39.6737
 20
49.2153
 30
0.0
 11
42.3263
 21
49.2552
 31
0.0
  0
LINE
  8
0
 62
     0
 10
42.3263
 20
49.2552
 30
0.0
 11
45.7246
 21
49.2855
 31
0.0
  0
LINE
  8
0
 62
     0
 10
45.7246
 20
49.2855
 30
0.0
 11
49.7223
 21
49.3088
 31
0.0
  0
LINE
  8
0
 62
     0
 10
49.7223
 20
49.3088
 30
0.0
 11
54.1708
 21
49.3254
 31
0.0
  0
LINE
  8
0
 62
     0
 10
54.1708
 20
49.3254
 30
0.0
 11
58.9262
 21
49.3339
 31
0.0
  0
LINE
  8
0
 62
     0
 10
58.9262
 20
49.3339
 30
0.0
 11
63.8404
 21
49.3339
 31
0.0
  0
LINE
  8
0
 62
     0
 10
63.8404
 20
49.3339
 30
0.0
 11
68.7698
 21
49.3268
 31
0.0
  0
LINE
  8
0
 62
     0
 10
68.7698
 20
49.3268
 30
0.0
 11
73.5651
 21
49.3116
 31
0.0
  0
LINE
  8
0
 62
     0
 10
73.5651
 20
49.3116
 30
0.0
 11
78.0824
 21
49.2912
 31
0.0
  0
LINE
  8
0
 62
     0
 10
78.0824
 20
49.2912
 30
0.0
 11
82.1739
 21
49.2622
 31
0.0
  0
LINE
  8
0
 62
     0
 10
82.1739
 20
49.2622
 30
0.0
 11
85.6961
 21
49.2263
 31
0.0
  0
LINE
  8
0
 62
     0
 10
85.6961
 20
49.2263
 30
0.0
 11
88.4989
 21
49.1836
 31
0.0
  0
LINE
  8
0
 62
     0
 10
88.4989
 20
49.1836
 30
0.0
 11
90.4392
 21
49.1338
 31
0.0
  0
LINE
  8
0
 62
     0
 10
90.4392
 20
49.1338
 30
0.0
 11
91.1408
 21
49.1134
 31
0.0
  0
LINE
  8
0
 62
     0
 10
91.1408
 20
49.1134
 30
0.0
 11
91.3709
 21
49.0774
 31
0.0
  0
LINE
  8
0
 62
     0
 10
91.3709
 20
49.0774
 30
0.0
 11
91.4961
 21
49.0569
 31
0.0
  0
LINE
  8
0
 62
     0
 10
91.4961
 20
49.0569
 30
0.0
 11
91.8725
 21
48.9825
 31
0.0
  0
LINE
  8
0
 62
     0
 10
91.8725
 20
48.9825
 30
0.0
 11
92.2983
 21
48.8516
 31
0.0
  0
LINE
  8
0
 62
     0
 10
92.2983
 20
48.8516
 30
0.0
 11
92.6952
 21
48.6378
 31
0.0
  0
LINE
  8
0
 62
     0
 10
92.6952
 20
48.6378
 30
0.0
 11
93.1072
 21
48.2974
 31
0.0
  0
LINE
  8
0
 62
     0
 10
93.1072
 20
48.2974
 30
0.0
 11
93.5824
 21
47.782
 31
0.0
  0
LINE
  8
0
 62
     0
 10
93.5824
 20
47.782
 30
0.0
 11
94.1684
 21
47.0489
 31
0.0
  0
LINE
  8
0
 62
     0
 10
94.1684
 20
47.0489
 30
0.0
 11
94.9082
 21
46.0498
 31
0.0
  0
LINE
  8
0
 62
     0
 10
94.9082
 20
46.0498
 30
0.0
 11
95.6151
 21
45.0674
 31
0.0
  0
LINE
  8
0
 62
     0
 10
95.6151
 20
45.0674
 30
0.0
 11
95.8508
 21
44.7379
 31
0.0
  0
LINE
  8
0
 62
     0
 10
95.8508
 20
44.7379
 30
0.0
 11
96.3704
 21
44.0161
 31
0.0
  0
LINE
  8
0
 62
     0
 10
96.3704
 20
44.0161
 30
0.0
 11
99.096
 21
40.6809
 31
0.0
  0
LINE
  8
0
 62
     0
 10
99.096
 20
40.6809
 30
0.0
 11
102.245
 21
37.4177
 31
0.0
  0
LINE
  8
0
 62
     0
 10
102.245
 20
37.4177
 30
0.0
 11
102.978
 21
36.7302
 31
0.0
  0
LINE
  8
0
 62
     0
 10
102.978
 20
36.7302
 30
0.0
 11
103.551
 21
36.1943
 31
0.0
  0
LINE
  8
0
 62
     0
 10
103.551
 20
36.1943
 30
0.0
 11
105.303
 21
34.6136
 31
0.0
  0
LINE
  8
0
 62
     0
 10
105.303
 20
34.6136
 30
0.0
 11
107.051
 21
33.2121
 31
0.0
  0
LINE
  8
0
 62
     0
 10
107.051
 20
33.2121
 30
0.0
 11
108.722
 21
32.1662
 31
0.0
  0
LINE
  8
0
 62
     0
 10
108.722
 20
32.1662
 30
0.0
 11
110.282
 21
31.3697
 31
0.0
  0
LINE
  8
0
 62
     0
 10
110.282
 20
31.3697
 30
0.0
 11
110.809
 21
31.1202
 31
0.0
  0
LINE
  8
0
 62
     0
 10
110.809
 20
31.1202
 30
0.0
 11
111.779
 21
30.6669
 31
0.0
  0
LINE
  8
0
 62
     0
 10
111.779
 20
30.6669
 30
0.0
 11
114.715
 21
29.3467
 31
0.0
  0
LINE
  8
0
 62
     0
 10
114.715
 20
29.3467
 30
0.0
 11
117.661
 21
28.1712
 31
0.0
  0
LINE
  8
0
 62
     0
 10
117.661
 20
28.1712
 30
0.0
 11
120.224
 21
27.3858
 31
0.0
  0
LINE
  8
0
 62
     0
 10
120.224
 20
27.3858
 30
0.0
 11
122.287
 21
26.9145
 31
0.0
  0
LINE
  8
0
 62
     0
 10
122.287
 20
26.9145
 30
0.0
 11
122.98
 21
26.7808
 31
0.0
  0
LINE
  8
0
 62
     0
 10
122.98
 20
26.7808
 30
0.0
 11
123.664
 21
26.6581
 31
0.0
  0
LINE
  8
0
 62
     0
 10
123.664
 20
26.6581
 30
0.0
 11
125.717
 21
26.2806
 31
0.0
  0
LINE
  8
0
 62
     0
 10
125.717
 20
26.2806
 30
0.0
 11
127.468
 21
25.9485
 31
0.0
  0
LINE
  8
0
 62
     0
 10
127.468
 20
25.9485
 30
0.0
 11
128.625
 21
25.7156
 31
0.0
  0
LINE
  8
0
 62
     0
 10
128.625
 20
25.7156
 30
0.0
 11
129.339
 21
25.564
 31
0.0
  0
LINE
  8
0
 62
     0
 10
129.339
 20
25.564
 30
0.0
 11
129.577
 21
25.5116
 31
0.0
  0
LINE
  8
0
 62
     0
 10
129.577
 20
25.5116
 30
0.0
 11
129.709
 21
25.4854
 31
0.0
  0
LINE
  8
0
 62
     0
 10
129.709
 20
25.4854
 30
0.0
 11
130.158
 21
25.4703
 31
0.0
  0
LINE
  8
0
 62
     0
 10
130.158
 20
25.4703
 30
0.0
 11
131.032
 21
25.4992
 31
0.0
  0
LINE
  8
0
 62
     0
 10
131.032
 20
25.4992
 30
0.0
 11
132.077
 21
25.586
 31
0.0
  0
LINE
  8
0
 62
     0
 10
132.077
 20
25.586
 30
0.0
 11
132.901
 21
25.6839
 31
0.0
  0
LINE
  8
0
 62
     0
 10
132.901
 20
25.6839
 30
0.0
 11
133.175
 21
25.7225
 31
0.0
  0
LINE
  8
0
 62
     0
 10
133.175
 20
25.7225
 30
0.0
 11
133.55
 21
25.7859
 31
0.0
  0
LINE
  8
0
 62
     0
 10
133.55
 20
25.7859
 30
0.0
 11
134.679
 21
25.954
 31
0.0
  0
LINE
  8
0
 62
     0
 10
134.679
 20
25.954
 30
0.0
 11
135.631
 21
25.9801
 31
0.0
  0
LINE
  8
0
 62
     0
 10
135.631
 20
25.9801
 30
0.0
 11
136.405
 21
25.7542
 31
0.0
  0
LINE
  8
0
 62
     0
 10
136.405
 20
25.7542
 30
0.0
 11
137.135
 21
25.3669
 31
0.0
  0
LINE
  8
0
 62
     0
 10
137.135
 20
25.3669
 30
0.0
 11
137.374
 21
25.2291
 31
0.0
  0
LINE
  8
0
 62
     0
 10
137.374
 20
25.2291
 30
0.0
 11
137.606
 21
25.0927
 31
0.0
  0
LINE
  8
0
 62
     0
 10
137.606
 20
25.0927
 30
0.0
 11
138.267
 21
24.6187
 31
0.0
  0
LINE
  8
0
 62
     0
 10
138.267
 20
24.6187
 30
0.0
 11
139
 21
23.858
 31
0.0
  0
LINE
  8
0
 62
     0
 10
139
 20
23.858
 30
0.0
 11
139.738
 21
22.7349
 31
0.0
  0
LINE
  8
0
 62
     0
 10
139.738
 20
22.7349
 30
0.0
 11
140.433
 21
21.4616
 31
0.0
  0
LINE
  8
0
 62
     0
 10
140.433
 20
21.4616
 30
0.0
 11
140.654
 21
21.0316
 31
0.0
  0
LINE
  8
0
 62
     0
 10
140.654
 20
21.0316
 30
0.0
 11
140.812
 21
20.7078
 31
0.0
  0
LINE
  8
0
 62
     0
 10
140.812
 20
20.7078
 30
0.0
 11
141.303
 21
19.7404
 31
0.0
  0
LINE
  8
0
 62
     0
 10
141.303
 20
19.7404
 30
0.0
 11
141.883
 21
18.6366
 31
0.0
  0
LINE
  8
0
 62
     0
 10
141.883
 20
18.6366
 30
0.0
 11
142.325
 21
17.8318
 31
0.0
  0
LINE
  8
0
 62
     0
 10
142.325
 20
17.8318
 30
0.0
 11
142.524
 21
17.4859
 31
0.0
  0
LINE
  8
0
 62
     0
 10
142.524
 20
17.4859
 30
0.0
 11
142.559
 21
17.4322
 31
0.0
  0
LINE
  8
0
 62
     0
 10
142.559
 20
17.4322
 30
0.0
 11
142.594
 21
17.3881
 31
0.0
  0
LINE
  8
0
 62
     0
 10
142.594
 20
17.3881
 30
0.0
 11
142.886
 21
16.8576
 31
0.0
  0
LINE
  8
0
 62
     0
 10
142.886
 20
16.8576
 30
0.0
 11
143.59
 21
15.5319
 31
0.0
  0
LINE
  8
0
 62
     0
 10
143.59
 20
15.5319
 30
0.0
 11
144.573
 21
13.6577
 31
0.0
  0
LINE
  8
0
 62
     0
 10
144.573
 20
13.6577
 30
0.0
 11
145.444
 21
11.9903
 31
0.0
  0
LINE
  8
0
 62
     0
 10
145.444
 20
11.9903
 30
0.0
 11
145.734
 21
11.435
 31
0.0
  0
LINE
  8
0
 62
     0
 10
145.734
 20
11.435
 30
0.0
 11
146.388
 21
10.1796
 31
0.0
  0
LINE
  8
0
 62
     0
 10
146.388
 20
10.1796
 30
0.0
 11
148.353
 21
6.41202
 31
0.0
  0
LINE
  8
0
 62
     0
 10
148.353
 20
6.41202
 30
0.0
 11
150.151
 21
2.99586
 31
0.0
  0
LINE
  8
0
 62
     0
 10
150.151
 20
2.99586
 30
0.0
 11
151.249
 21
0.96876
 31
0.0
  0
LINE
  8
0
 62
     0
 10
151.249
 20
0.96876
 30
0.0
 11
151.678
 21
0.227376
 31
0.0
  0
LINE
  8
0
 62
     0
 10
151.678
 20
0.227376
 30
0.0
 11
151.766
 21
0.111621
 31
0.0
  0
LINE
  8
0
 62
     0
 10
151.766
 20
0.111621
 30
0.0
 11
151.823
 21
0.0440972
 31
0.0
  0
LINE
  8
0
 62
     0
 10
151.823
 20
0.0440972
 30
0.0
 11
152.187
 21
0.00137804
 31
0.0
  0
LINE
  8
0
 62
     0
 10
152.187
 20
0.00137804
 30
0.0
 11
153.005
 21
0.12678
 31
0.0
  0
LINE
  8
0
 62
     0
 10
153.005
 20
0.12678
 30
0.0
 11
154.149
 21
0.45751
 31
0.0
  0
LINE
  8
0
 62
     0
 10
154.149
 20
0.45751
 30
0.0
 11
155.545
 21
0.967384
 31
0.0
  0
LINE
  8
0
 62
     0
 10
155.545
 20
0.967384
 30
0.0
 11
157.121
 21
1.62609
 31
0.0
  0
LINE
  8
0
 62
     0
 10
157.121
 20
1.62609
 30
0.0
 11
158.805
 21
2.4033
 31
0.0
  0
LINE
  8
0
 62
     0
 10
158.805
 20
2.4033
 30
0.0
 11
160.525
 21
3.27284
 31
0.0
  0
LINE
  8
0
 62
     0
 10
160.525
 20
3.27284
 30
0.0
 11
161.793
 21
3.96187
 31
0.0
  0
LINE
  8
0
 62
     0
 10
161.793
 20
3.96187
 30
0.0
 11
162.209
 21
4.20303
 31
0.0
  0
LINE
  8
0
 62
     0
 10
162.209
 20
4.20303
 30
0.0
 11
162.625
 21
4.45107
 31
0.0
  0
LINE
  8
0
 62
     0
 10
162.625
 20
4.45107
 30
0.0
 11
163.879
 21
5.1828
 31
0.0
  0
LINE
  8
0
 62
     0
 10
163.879
 20
5.1828
 30
0.0
 11
165.625
 21
6.19291
 31
0.0
  0
LINE
  8
0
 62
     0
 10
165.625
 20
6.19291
 30
0.0
 11
167.233
 21
7.1162
 31
0.0
  0
LINE
  8
0
 62
     0
 10
167.233
 20
7.1162
 30
0.0
 11
168.174
 21
7.65637
 31
0.0
  0
LINE
  8
0
 62
     0
 10
168.174
 20
7.65637
 30
0.0
 11
168.488
 21
7.83689
 31
0.0
  0
LINE
  8
0
 62
     0
 10
168.488
 20
7.83689
 30
0.0
 11
168.775
 21
7.99952
 31
0.0
  0
LINE
  8
0
 62
     0
 10
168.775
 20
7.99952
 30
0.0
 11
169.628
 21
8.49697
 31
0.0
  0
LINE
  8
0
 62
     0
 10
169.628
 20
8.49697
 30
0.0
 11
170.886
 21
9.248
 31
0.0
  0
LINE
  8
0
 62
     0
 10
170.886
 20
9.248
 30
0.0
 11
172.12
 21
10.0004
 31
0.0
  0
LINE
  8
0
 62
     0
 10
172.12
 20
10.0004
 30
0.0
 11
172.916
 21
10.4938
 31
0.0
  0
LINE
  8
0
 62
     0
 10
172.916
 20
10.4938
 30
0.0
 11
173.181
 21
10.6591
 31
0.0
  0
LINE
  8
0
 62
     0
 10
173.181
 20
10.6591
 30
0.0
 11
175.368
 21
12.0702
 31
0.0
  0
LINE
  8
0
 62
     0
 10
175.368
 20
12.0702
 30
0.0
 11
175.402
 21
24.9825
 31
0.0
  0
LINE
  8
0
 62
     0
 10
175.402
 20
24.9825
 30
0.0
 11
175.405
 21
26.6168
 31
0.0
  0
LINE
  8
0
 62
     0
 10
175.405
 20
26.6168
 30
0.0
 11
175.419
 21
31.5171
 31
0.0
  0
LINE
  8
0
 62
     0
 10
175.419
 20
31.5171
 30
0.0
 11
175.45
 21
36.6434
 31
0.0
  0
LINE
  8
0
 62
     0
 10
175.45
 20
36.6434
 30
0.0
 11
175.507
 21
40.5998
 31
0.0
  0
LINE
  8
0
 62
     0
 10
175.507
 20
40.5998
 30
0.0
 11
175.601
 21
43.6231
 31
0.0
  0
LINE
  8
0
 62
     0
 10
175.601
 20
43.6231
 30
0.0
 11
175.741
 21
45.9493
 31
0.0
  0
LINE
  8
0
 62
     0
 10
175.741
 20
45.9493
 30
0.0
 11
175.942
 21
47.818
 31
0.0
  0
LINE
  8
0
 62
     0
 10
175.942
 20
47.818
 30
0.0
 11
176.214
 21
49.4633
 31
0.0
  0
LINE
  8
0
 62
     0
 10
176.214
 20
49.4633
 30
0.0
 11
176.473
 21
50.709
 31
0.0
  0
LINE
  8
0
 62
     0
 10
176.473
 20
50.709
 30
0.0
 11
176.567
 21
51.1224
 31
0.0
  0
LINE
  8
0
 62
     0
 10
176.567
 20
51.1224
 30
0.0
 11
176.667
 21
51.5786
 31
0.0
  0
LINE
  8
0
 62
     0
 10
176.667
 20
51.5786
 30
0.0
 11
176.955
 21
52.9484
 31
0.0
  0
LINE
  8
0
 62
     0
 10
176.955
 20
52.9484
 30
0.0
 11
177.347
 21
54.9243
 31
0.0
  0
LINE
  8
0
 62
     0
 10
177.347
 20
54.9243
 30
0.0
 11
177.692
 21
56.8082
 31
0.0
  0
LINE
  8
0
 62
     0
 10
177.692
 20
56.8082
 30
0.0
 11
177.887
 21
57.967
 31
0.0
  0
LINE
  8
0
 62
     0
 10
177.887
 20
57.967
 30
0.0
 11
177.943
 21
58.3544
 31
0.0
  0
LINE
  8
0
 62
     0
 10
177.943
 20
58.3544
 30
0.0
 11
178.366
 21
61.5294
 31
0.0
  0
LINE
  8
0
 62
     0
 10
178.366
 20
61.5294
 30
0.0
 11
190.643
 21
61.6356
 31
0.0
  0
LINE
  8
0
 62
     0
 10
190.643
 20
61.6356
 30
0.0
 11
202.884
 21
61.7058
 31
0.0
  0
LINE
  8
0
 62
     0
 10
202.884
 20
61.7058
 30
0.0
 11
202.884
 21
66.1155
 31
0.0
  0
LINE
  8
0
 62
     0
 10
202.884
 20
66.1155
 30
0.0
 11
202.884
 21
68.035
 31
0.0
  0
LINE
  8
0
 62
     0
 10
202.884
 20
68.035
 30
0.0
 11
202.191
 21
73.7912
 31
0.0
  0
LINE
  8
0
 62
     0
 10
202.191
 20
73.7912
 30
0.0
 11
200.207
 21
82.0318
 31
0.0
  0
LINE
  8
0
 62
     0
 10
200.207
 20
82.0318
 30
0.0
 11
197.065
 21
90.4102
 31
0.0
  0
LINE
  8
0
 62
     0
 10
197.065
 20
90.4102
 30
0.0
 11
194.058
 21
96.5482
 31
0.0
  0
LINE
  8
0
 62
     0
 10
194.058
 20
96.5482
 30
0.0
 11
192.901
 21
98.5008
 31
0.0
  0
LINE
  8
0
 62
     0
 10
192.901
 20
98.5008
 30
0.0
 11
192.519
 21
99.1376
 31
0.0
  0
LINE
  8
0
 62
     0
 10
192.519
 20
99.1376
 30
0.0
 11
191.323
 21
101.013
 31
0.0
  0
LINE
  8
0
 62
     0
 10
191.323
 20
101.013
 30
0.0
 11
189.672
 21
103.379
 31
0.0
  0
LINE
  8
0
 62
     0
 10
189.672
 20
103.379
 30
0.0
 11
187.81
 21
105.784
 31
0.0
  0
LINE
  8
0
 62
     0
 10
187.81
 20
105.784
 30
0.0
 11
186.16
 21
107.767
 31
0.0
  0
LINE
  8
0
 62
     0
 10
186.16
 20
107.767
 30
0.0
 11
185.598
 21
108.414
 31
0.0
  0
LINE
  8
0
 62
     0
 10
185.598
 20
108.414
 30
0.0
 11
185.201
 21
108.869
 31
0.0
  0
LINE
  8
0
 62
     0
 10
185.201
 20
108.869
 30
0.0
 11
183.997
 21
110.22
 31
0.0
  0
LINE
  8
0
 62
     0
 10
183.997
 20
110.22
 30
0.0
 11
182.568
 21
111.738
 31
0.0
  0
LINE
  8
0
 62
     0
 10
182.568
 20
111.738
 30
0.0
 11
181.174
 21
113.083
 31
0.0
  0
LINE
  8
0
 62
     0
 10
181.174
 20
113.083
 30
0.0
 11
179.675
 21
114.363
 31
0.0
  0
LINE
  8
0
 62
     0
 10
179.675
 20
114.363
 30
0.0
 11
177.932
 21
115.693
 31
0.0
  0
LINE
  8
0
 62
     0
 10
177.932
 20
115.693
 30
0.0
 11
175.809
 21
117.181
 31
0.0
  0
LINE
  8
0
 62
     0
 10
175.809
 20
117.181
 30
0.0
 11
173.166
 21
118.94
 31
0.0
  0
LINE
  8
0
 62
     0
 10
173.166
 20
118.94
 30
0.0
 11
170.691
 21
120.547
 31
0.0
  0
LINE
  8
0
 62
     0
 10
170.691
 20
120.547
 30
0.0
 11
169.864
 21
121.079
 31
0.0
  0
LINE
  8
0
 62
     0
 10
169.864
 20
121.079
 30
0.0
 11
169.475
 21
121.335
 31
0.0
  0
LINE
  8
0
 62
     0
 10
169.475
 20
121.335
 30
0.0
 11
167.024
 21
122.928
 31
0.0
  0
LINE
  8
0
 62
     0
 10
167.024
 20
122.928
 30
0.0
 11
164.572
 21
124.502
 31
0.0
  0
LINE
  8
0
 62
     0
 10
164.572
 20
124.502
 30
0.0
 11
164.185
 21
124.748
 31
0.0
  0
LINE
  8
0
 62
     0
 10
164.185
 20
124.748
 30
0.0
 11
163.09
 21
125.459
 31
0.0
  0
LINE
  8
0
 62
     0
 10
163.09
 20
125.459
 30
0.0
 11
159.518
 21
127.153
 31
0.0
  0
LINE
  8
0
 62
     0
 10
159.518
 20
127.153
 30
0.0
 11
153.393
 21
129.268
 31
0.0
  0
LINE
  8
0
 62
     0
 10
153.393
 20
129.268
 30
0.0
 11
145.874
 21
131.074
 31
0.0
  0
LINE
  8
0
 62
     0
 10
145.874
 20
131.074
 30
0.0
 11
139.242
 21
132.241
 31
0.0
  0
LINE
  8
0
 62
     0
 10
139.242
 20
132.241
 30
0.0
 11
137.021
 21
132.544
 31
0.0
  0
LINE
  8
0
 62
     0
 10
137.021
 20
132.544
 30
0.0
 11
132.54
 21
133.179
 31
0.0
  0
LINE
  8
0
 62
     0
 10
132.54
 20
133.179
 30
0.0
 11
131.906
 21
135.26
 31
0.0
  0
LINE
  8
0
 62
     0
 10
131.906
 20
135.26
 30
0.0
 11
131.838
 21
135.478
 31
0.0
  0
LINE
  8
0
 62
     0
 10
131.838
 20
135.478
 30
0.0
 11
131.665
 21
136.14
 31
0.0
  0
LINE
  8
0
 62
     0
 10
131.665
 20
136.14
 30
0.0
 11
131.499
 21
137.085
 31
0.0
  0
LINE
  8
0
 62
     0
 10
131.499
 20
137.085
 30
0.0
 11
131.415
 21
138.25
 31
0.0
  0
LINE
  8
0
 62
     0
 10
131.415
 20
138.25
 30
0.0
 11
131.415
 21
139.794
 31
0.0
  0
LINE
  8
0
 62
     0
 10
131.415
 20
139.794
 30
0.0
 11
131.504
 21
141.875
 31
0.0
  0
LINE
  8
0
 62
     0
 10
131.504
 20
141.875
 30
0.0
 11
131.681
 21
144.647
 31
0.0
  0
LINE
  8
0
 62
     0
 10
131.681
 20
144.647
 30
0.0
 11
131.955
 21
148.27
 31
0.0
  0
LINE
  8
0
 62
     0
 10
131.955
 20
148.27
 30
0.0
 11
132.234
 21
151.743
 31
0.0
  0
LINE
  8
0
 62
     0
 10
132.234
 20
151.743
 30
0.0
 11
132.329
 21
152.899
 31
0.0
  0
LINE
  8
0
 62
     0
 10
132.329
 20
152.899
 30
0.0
 11
132.37
 21
153.447
 31
0.0
  0
LINE
  8
0
 62
     0
 10
132.37
 20
153.447
 30
0.0
 11
132.459
 21
155.094
 31
0.0
  0
LINE
  8
0
 62
     0
 10
132.459
 20
155.094
 30
0.0
 11
132.571
 21
157.94
 31
0.0
  0
LINE
  8
0
 62
     0
 10
132.571
 20
157.94
 30
0.0
 11
132.651
 21
161.071
 31
0.0
  0
LINE
  8
0
 62
     0
 10
132.651
 20
161.071
 30
0.0
 11
132.681
 21
163.357
 31
0.0
  0
LINE
  8
0
 62
     0
 10
132.681
 20
163.357
 30
0.0
 11
132.681
 21
164.118
 31
0.0
  0
LINE
  8
0
 62
     0
 10
132.681
 20
164.118
 30
0.0
 11
132.681
 21
165.063
 31
0.0
  0
LINE
  8
0
 62
     0
 10
132.681
 20
165.063
 30
0.0
 11
132.667
 21
167.898
 31
0.0
  0
LINE
  8
0
 62
     0
 10
132.667
 20
167.898
 30
0.0
 11
132.592
 21
169.984
 31
0.0
  0
LINE
  8
0
 62
     0
 10
132.592
 20
169.984
 30
0.0
 11
132.413
 21
170.866
 31
0.0
  0
LINE
  8
0
 62
     0
 10
132.413
 20
170.866
 30
0.0
 11
132.161
 21
171.038
 31
0.0
  0
LINE
  8
0
 62
     0
 10
132.161
 20
171.038
 30
0.0
 11
132.082
 21
171.032
 31
0.0
  0
LINE
  8
0
 62
     0
 10
132.082
 20
171.032
 30
0.0
 11
131.836
 21
171.032
 31
0.0
  0
LINE
  8
0
 62
     0
 10
131.836
 20
171.032
 30
0.0
 11
131.097
 21
170.892
 31
0.0
  0
LINE
  8
0
 62
     0
 10
131.097
 20
170.892
 30
0.0
 11
128.888
 21
170.509
 31
0.0
  0
LINE
  8
0
 62
     0
 10
128.888
 20
170.509
 30
0.0
 11
125.78
 21
169.946
 31
0.0
  0
LINE
  8
0
 62
     0
 10
125.78
 20
169.946
 30
0.0
 11
123.017
 21
169.44
 31
0.0
  0
LINE
  8
0
 62
     0
 10
123.017
 20
169.44
 30
0.0
 11
122.098
 21
169.268
 31
0.0
  0
LINE
  8
0
 62
     0
 10
137.691
 20
87.3181
 30
0.0
 11
138.589
 21
87.1456
 31
0.0
  0
LINE
  8
0
 62
     0
 10
138.589
 20
87.1456
 30
0.0
 11
141.238
 21
86.3755
 31
0.0
  0
LINE
  8
0
 62
     0
 10
141.238
 20
86.3755
 30
0.0
 11
144.555
 21
84.9697
 31
0.0
  0
LINE
  8
0
 62
     0
 10
144.555
 20
84.9697
 30
0.0
 11
147.614
 21
83.1275
 31
0.0
  0
LINE
  8
0
 62
     0
 10
147.614
 20
83.1275
 30
0.0
 11
150.381
 21
80.88
 31
0.0
  0
LINE
  8
0
 62
     0
 10
150.381
 20
80.88
 30
0.0
 11
152.829
 21
78.256
 31
0.0
  0
LINE
  8
0
 62
     0
 10
152.829
 20
78.256
 30
0.0
 11
154.924
 21
75.2835
 31
0.0
  0
LINE
  8
0
 62
     0
 10
154.924
 20
75.2835
 30
0.0
 11
156.638
 21
71.9914
 31
0.0
  0
LINE
  8
0
 62
     0
 10
156.638
 20
71.9914
 30
0.0
 11
157.672
 21
69.3222
 31
0.0
  0
LINE
  8
0
 62
     0
 10
157.672
 20
69.3222
 30
0.0
 11
157.94
 21
68.4086
 31
0.0
  0
LINE
  8
0
 62
     0
 10
157.94
 20
68.4086
 30
0.0
 11
158.162
 21
67.6257
 31
0.0
  0
LINE
  8
0
 62
     0
 10
158.162
 20
67.6257
 30
0.0
 11
158.495
 21
65.1813
 31
0.0
  0
LINE
  8
0
 62
     0
 10
158.495
 20
65.1813
 30
0.0
 11
158.631
 21
61.3184
 31
0.0
  0
LINE
  8
0
 62
     0
 10
158.631
 20
61.3184
 30
0.0
 11
158.352
 21
57.4559
 31
0.0
  0
LINE
  8
0
 62
     0
 10
158.352
 20
57.4559
 30
0.0
 11
157.918
 21
55.0058
 31
0.0
  0
LINE
  8
0
 62
     0
 10
157.918
 20
55.0058
 30
0.0
 11
157.659
 21
54.2272
 31
0.0
  0
LINE
  8
0
 62
     0
 10
157.659
 20
54.2272
 30
0.0
 11
157.322
 21
53.2088
 31
0.0
  0
LINE
  8
0
 62
     0
 10
157.322
 20
53.2088
 30
0.0
 11
156.009
 21
50.2528
 31
0.0
  0
LINE
  8
0
 62
     0
 10
156.009
 20
50.2528
 30
0.0
 11
153.847
 21
46.6894
 31
0.0
  0
LINE
  8
0
 62
     0
 10
153.847
 20
46.6894
 30
0.0
 11
151.219
 21
43.5695
 31
0.0
  0
LINE
  8
0
 62
     0
 10
151.219
 20
43.5695
 30
0.0
 11
148.176
 21
40.9332
 31
0.0
  0
LINE
  8
0
 62
     0
 10
148.176
 20
40.9332
 30
0.0
 11
144.767
 21
38.8126
 31
0.0
  0
LINE
  8
0
 62
     0
 10
144.767
 20
38.8126
 30
0.0
 11
141.038
 21
37.247
 31
0.0
  0
LINE
  8
0
 62
     0
 10
141.038
 20
37.247
 30
0.0
 11
137.04
 21
36.2701
 31
0.0
  0
LINE
  8
0
 62
     0
 10
137.04
 20
36.2701
 30
0.0
 11
133.876
 21
35.9255
 31
0.0
  0
LINE
  8
0
 62
     0
 10
133.876
 20
35.9255
 30
0.0
 11
132.822
 21
35.9184
 31
0.0
  0
LINE
  8
0
 62
     0
 10
132.822
 20
35.9184
 30
0.0
 11
131.994
 21
35.9131
 31
0.0
  0
LINE
  8
0
 62
     0
 10
131.994
 20
35.9131
 30
0.0
 11
129.512
 21
36.0317
 31
0.0
  0
LINE
  8
0
 62
     0
 10
129.512
 20
36.0317
 30
0.0
 11
126.609
 21
36.4793
 31
0.0
  0
LINE
  8
0
 62
     0
 10
126.609
 20
36.4793
 30
0.0
 11
123.778
 21
37.3422
 31
0.0
  0
LINE
  8
0
 62
     0
 10
123.778
 20
37.3422
 30
0.0
 11
121.444
 21
38.3328
 31
0.0
  0
LINE
  8
0
 62
     0
 10
121.444
 20
38.3328
 30
0.0
 11
120.687
 21
38.705
 31
0.0
  0
LINE
  8
0
 62
     0
 10
120.687
 20
38.705
 30
0.0
 11
120.223
 21
38.9322
 31
0.0
  0
LINE
  8
0
 62
     0
 10
120.223
 20
38.9322
 30
0.0
 11
118.853
 21
39.66
 31
0.0
  0
LINE
  8
0
 62
     0
 10
118.853
 20
39.66
 30
0.0
 11
117.366
 21
40.6192
 31
0.0
  0
LINE
  8
0
 62
     0
 10
117.366
 20
40.6192
 30
0.0
 11
115.898
 21
41.8303
 31
0.0
  0
LINE
  8
0
 62
     0
 10
115.898
 20
41.8303
 30
0.0
 11
114.559
 21
43.1038
 31
0.0
  0
LINE
  8
0
 62
     0
 10
114.559
 20
43.1038
 30
0.0
 11
114.125
 21
43.5377
 31
0.0
  0
LINE
  8
0
 62
     0
 10
114.125
 20
43.5377
 30
0.0
 11
113.719
 21
43.9441
 31
0.0
  0
LINE
  8
0
 62
     0
 10
113.719
 20
43.9441
 30
0.0
 11
112.529
 21
45.1954
 31
0.0
  0
LINE
  8
0
 62
     0
 10
112.529
 20
45.1954
 30
0.0
 11
111.311
 21
46.6302
 31
0.0
  0
LINE
  8
0
 62
     0
 10
111.311
 20
46.6302
 30
0.0
 11
110.345
 21
48.0176
 31
0.0
  0
LINE
  8
0
 62
     0
 10
110.345
 20
48.0176
 30
0.0
 11
109.697
 21
49.1476
 31
0.0
  0
LINE
  8
0
 62
     0
 10
109.697
 20
49.1476
 30
0.0
 11
109.504
 21
49.5349
 31
0.0
  0
LINE
  8
0
 62
     0
 10
109.504
 20
49.5349
 30
0.0
 11
109.028
 21
50.461
 31
0.0
  0
LINE
  8
0
 62
     0
 10
109.028
 20
50.461
 30
0.0
 11
107.36
 21
54.7522
 31
0.0
  0
LINE
  8
0
 62
     0
 10
107.36
 20
54.7522
 30
0.0
 11
106.504
 21
59.0254
 31
0.0
  0
LINE
  8
0
 62
     0
 10
106.504
 20
59.0254
 30
0.0
 11
106.434
 21
59.9419
 31
0.0
  0
LINE
  8
0
 62
     0
 10
106.434
 20
59.9419
 30
0.0
 11
106.329
 21
61.2842
 31
0.0
  0
LINE
  8
0
 62
     0
 10
106.329
 20
61.2842
 30
0.0
 11
106.618
 21
65.3549
 31
0.0
  0
LINE
  8
0
 62
     0
 10
106.618
 20
65.3549
 30
0.0
 11
107.96
 21
70.6367
 31
0.0
  0
LINE
  8
0
 62
     0
 10
107.96
 20
70.6367
 30
0.0
 11
110.373
 21
75.5551
 31
0.0
  0
LINE
  8
0
 62
     0
 10
110.373
 20
75.5551
 30
0.0
 11
112.816
 21
78.898
 31
0.0
  0
LINE
  8
0
 62
     0
 10
112.816
 20
78.898
 30
0.0
 11
113.772
 21
79.8738
 31
0.0
  0
LINE
  8
0
 62
     0
 10
113.772
 20
79.8738
 30
0.0
 11
114.916
 21
81.0436
 31
0.0
  0
LINE
  8
0
 62
     0
 10
114.916
 20
81.0436
 30
0.0
 11
118.918
 21
83.9996
 31
0.0
  0
LINE
  8
0
 62
     0
 10
118.918
 20
83.9996
 30
0.0
 11
124.752
 21
86.6525
 31
0.0
  0
LINE
  8
0
 62
     0
 10
124.752
 20
86.6525
 30
0.0
 11
131.075
 21
87.7782
 31
0.0
  0
LINE
  8
0
 62
     0
 10
131.075
 20
87.7782
 30
0.0
 11
136.073
 21
87.6254
 31
0.0
  0
LINE
  8
0
 62
     0
 10
136.073
 20
87.6254
 30
0.0
 11
137.691
 21
87.3181
 31
0.0
  0
ENDSEC
  0
EOF
