<?xml version="1.0" standalone="no"?>
<!DOCTYPE svg PUBLIC "-//W3C//DTD SVG 20010904//EN"
 "http://www.w3.org/TR/2001/REC-SVG-20010904/DTD/svg10.dtd">
<svg version="1.0" xmlns="http://www.w3.org/2000/svg"
 width="580.000000pt" height="492.000000pt" viewBox="0 0 580.000000 492.000000"
 preserveAspectRatio="xMidYMid meet">
<metadata>
Created by potrace 1.13, written by Peter Selinger 2001-2015
</metadata>
<g transform="translate(0.000000,492.000000) scale(0.100000,-0.100000)"
fill="#000000" stroke="none">
<path d="M3480 4839 c-146 -27 -474 -85 -730 -129 -404 -70 -732 -129 -807
-145 -22 -5 -23 -9 -23 -136 l0 -131 -47 -126 -47 -125 -116 -122 c-74 -80
-223 -213 -423 -380 -169 -141 -322 -276 -340 -298 -19 -23 -105 -136 -192
-252 -126 -166 -169 -233 -210 -320 -29 -60 -71 -150 -95 -200 -23 -49 -58
-124 -77 -165 -20 -41 -69 -145 -110 -230 l-75 -155 -73 -340 c-65 -300 -74
-357 -80 -485 -4 -80 -8 -161 -10 -180 -11 -131 -7 -237 12 -290 20 -58 34
-67 103 -69 39 0 45 6 640 593 151 150 283 275 293 279 24 9 1479 8 1536 -1
42 -7 47 -11 127 -123 59 -82 119 -149 202 -227 105 -98 129 -115 222 -159
173 -81 230 -101 345 -123 127 -23 150 -28 187 -36 15 -3 61 0 102 6 72 12 74
12 119 -14 39 -23 53 -41 93 -119 25 -51 50 -96 54 -102 4 -5 44 -82 90 -170
116 -223 161 -308 171 -321 15 -18 172 44 296 116 59 35 140 81 178 103 39 22
98 58 133 80 l62 40 1 366 c1 553 3 609 33 741 14 63 32 156 39 205 l12 90
348 3 347 2 0 125 c0 274 -108 623 -283 918 -60 100 -115 175 -207 281 -131
150 -168 180 -446 359 -44 29 -117 76 -161 104 -148 96 -411 172 -770 221
l-127 18 -18 59 c-21 68 -20 108 12 500 5 66 10 209 10 318 0 181 -1 197 -17
196 -10 0 -137 -23 -283 -50z m442 -2323 c276 -53 492 -255 574 -536 29 -102
26 -300 -8 -402 -104 -315 -378 -517 -704 -519 -137 -1 -218 17 -344 79 -80
39 -109 60 -186 137 -69 69 -100 108 -131 170 -54 105 -79 191 -87 295 -16
204 62 416 208 565 179 183 425 259 678 211z"/>
</g>
</svg>
