  0
SECTION
  2
HEADER
  9
$ACADVER
  1
AC1009
  9
$EXTMIN
 10
0.0
 20
0.0
 30
0.0
  9
$EXTMAX
 10
1000.0
 20
1000.0
 30
0.0
  9
$FILLMODE
 70
 0
  9
$SPLFRAME
 70
 1
  0
ENDSEC
  0
SECTION
  2
TABLES
  0
TABLE
  2
LAYER
 70
1
  0
LAYER
  2
0
 70
     0
 62
     7
  6
CONTINUOUS
  0
ENDTAB
  0
ENDSEC
  0
SECTION
  2
ENTITIES
  0
LINE
  8
0
 62
     0
 10
0
 20
352.778
 30
0.0
 11
0
 21
0
 31
0.0
  0
LINE
  8
0
 62
     0
 10
0
 20
0
 30
0.0
 11
227.189
 21
0
 31
0.0
  0
LINE
  8
0
 62
     0
 10
227.189
 20
0
 30
0.0
 11
227.189
 21
31.5378
 31
0.0
  0
LINE
  8
0
 62
     0
 10
227.189
 20
31.5378
 30
0.0
 11
223.978
 21
38.6292
 31
0.0
  0
LINE
  8
0
 62
     0
 10
223.978
 20
38.6292
 30
0.0
 11
222.633
 21
41.578
 31
0.0
  0
LINE
  8
0
 62
     0
 10
222.633
 20
41.578
 30
0.0
 11
218.708
 21
50.4733
 31
0.0
  0
LINE
  8
0
 62
     0
 10
218.708
 20
50.4733
 30
0.0
 11
213.426
 21
62.8978
 31
0.0
  0
LINE
  8
0
 62
     0
 10
213.426
 20
62.8978
 30
0.0
 11
208.166
 21
75.8155
 31
0.0
  0
LINE
  8
0
 62
     0
 10
208.166
 20
75.8155
 30
0.0
 11
202.962
 21
89.1342
 31
0.0
  0
LINE
  8
0
 62
     0
 10
202.962
 20
89.1342
 30
0.0
 11
197.846
 21
102.766
 31
0.0
  0
LINE
  8
0
 62
     0
 10
197.846
 20
102.766
 30
0.0
 11
192.854
 21
116.621
 31
0.0
  0
LINE
  8
0
 62
     0
 10
192.854
 20
116.621
 30
0.0
 11
188.018
 21
130.609
 31
0.0
  0
LINE
  8
0
 62
     0
 10
188.018
 20
130.609
 30
0.0
 11
184.511
 21
141.125
 31
0.0
  0
LINE
  8
0
 62
     0
 10
184.511
 20
141.125
 30
0.0
 11
183.374
 21
144.639
 31
0.0
  0
LINE
  8
0
 62
     0
 10
183.374
 20
144.639
 30
0.0
 11
181.021
 21
151.914
 31
0.0
  0
LINE
  8
0
 62
     0
 10
181.021
 20
151.914
 30
0.0
 11
174.313
 21
173.851
 31
0.0
  0
LINE
  8
0
 62
     0
 10
174.313
 20
173.851
 30
0.0
 11
165.767
 21
203.87
 31
0.0
  0
LINE
  8
0
 62
     0
 10
165.767
 20
203.87
 30
0.0
 11
157.737
 21
234.657
 31
0.0
  0
LINE
  8
0
 62
     0
 10
157.737
 20
234.657
 30
0.0
 11
150.231
 21
266.172
 31
0.0
  0
LINE
  8
0
 62
     0
 10
150.231
 20
266.172
 30
0.0
 11
143.254
 21
298.377
 31
0.0
  0
LINE
  8
0
 62
     0
 10
143.254
 20
298.377
 30
0.0
 11
136.812
 21
331.229
 31
0.0
  0
LINE
  8
0
 62
     0
 10
136.812
 20
331.229
 30
0.0
 11
130.911
 21
364.691
 31
0.0
  0
LINE
  8
0
 62
     0
 10
130.911
 20
364.691
 30
0.0
 11
125.557
 21
398.72
 31
0.0
  0
LINE
  8
0
 62
     0
 10
125.557
 20
398.72
 30
0.0
 11
120.756
 21
433.275
 31
0.0
  0
LINE
  8
0
 62
     0
 10
120.756
 20
433.275
 30
0.0
 11
116.513
 21
468.323
 31
0.0
  0
LINE
  8
0
 62
     0
 10
116.513
 20
468.323
 30
0.0
 11
112.835
 21
503.816
 31
0.0
  0
LINE
  8
0
 62
     0
 10
112.835
 20
503.816
 30
0.0
 11
109.728
 21
539.718
 31
0.0
  0
LINE
  8
0
 62
     0
 10
109.728
 20
539.718
 30
0.0
 11
107.196
 21
575.991
 31
0.0
  0
LINE
  8
0
 62
     0
 10
107.196
 20
575.991
 30
0.0
 11
105.246
 21
612.588
 31
0.0
  0
LINE
  8
0
 62
     0
 10
105.246
 20
612.588
 30
0.0
 11
103.885
 21
649.478
 31
0.0
  0
LINE
  8
0
 62
     0
 10
103.885
 20
649.478
 30
0.0
 11
103.233
 21
677.326
 31
0.0
  0
LINE
  8
0
 62
     0
 10
103.233
 20
677.326
 30
0.0
 11
103.117
 21
686.611
 31
0.0
  0
LINE
  8
0
 62
     0
 10
103.117
 20
686.611
 30
0.0
 11
102.905
 21
705.556
 31
0.0
  0
LINE
  8
0
 62
     0
 10
102.905
 20
705.556
 30
0.0
 11
0
 21
705.556
 31
0.0
  0
LINE
  8
0
 62
     0
 10
0
 20
705.556
 30
0.0
 11
0
 21
352.778
 31
0.0
  0
ENDSEC
  0
EOF
