<?xml version="1.0" standalone="no"?>
<!DOCTYPE svg PUBLIC "-//W3C//DTD SVG 20010904//EN"
 "http://www.w3.org/TR/2001/REC-SVG-20010904/DTD/svg10.dtd">
<svg version="1.0" xmlns="http://www.w3.org/2000/svg"
 width="3291.000000pt" height="864.000000pt" viewBox="0 0 3291.000000 864.000000"
 preserveAspectRatio="xMidYMid meet">
<metadata>
Created by potrace 1.13, written by Peter Selinger 2001-2015
</metadata>
<g transform="translate(0.000000,864.000000) scale(0.100000,-0.100000)"
fill="#000000" stroke="none">
<path d="M9060 7836 c0 -74 -3 -141 -6 -150 -6 -15 -397 -16 -4340 -16 l-4334
0 0 -560 0 -560 11123 0 11124 0 7 -217 c3 -120 9 -278 13 -350 l6 -133 4873
0 4874 0 0 73 c0 39 5 341 11 671 5 329 8 600 6 602 -2 2 -197 22 -433 44
-600 56 -4895 450 -6524 600 l-865 79 -1625 6 c-3643 14 -12920 45 -13397 45
l-513 0 0 -134z"/>
</g>
</svg>
