<?xml version="1.0" standalone="no"?>
<!DOCTYPE svg PUBLIC "-//W3C//DTD SVG 20010904//EN"
 "http://www.w3.org/TR/2001/REC-SVG-20010904/DTD/svg10.dtd">
<svg version="1.0" xmlns="http://www.w3.org/2000/svg"
 width="1416.000000pt" height="1552.000000pt" viewBox="0 0 1416.000000 1552.000000"
 preserveAspectRatio="xMidYMid meet">
<metadata>
Created by potrace 1.13, written by Peter Selinger 2001-2015
</metadata>
<g transform="translate(0.000000,1552.000000) scale(0.100000,-0.100000)"
fill="#000000" stroke="none">
<path d="M3210 15034 c-160 -34 -309 -141 -376 -269 -46 -87 -139 -434 -254
-950 -161 -716 -164 -728 -238 -782 -26 -19 -553 -173 -594 -173 -11 0 -36
-16 -54 -36 l-34 -35 0 -768 0 -767 28 -90 c22 -70 40 -105 82 -158 69 -87
182 -172 295 -221 l90 -38 530 -59 c515 -56 534 -59 665 -99 118 -37 145 -49
230 -108 87 -60 101 -75 165 -171 67 -99 73 -113 108 -245 20 -80 41 -187 47
-250 16 -169 13 -1009 -5 -1285 -8 -129 -19 -320 -24 -425 -11 -217 -28 -299
-90 -431 -93 -197 -251 -359 -446 -457 -74 -37 -201 -74 -312 -92 -301 -48
-849 -299 -1198 -548 -233 -167 -508 -426 -688 -652 -829 -1034 -1008 -2460
-462 -3676 286 -637 773 -1188 1370 -1550 341 -207 750 -361 1148 -434 l138
-25 1594 0 1593 0 144 24 c917 156 1737 633 2303 1341 149 186 270 376 421
660 111 209 2649 4890 2812 5185 47 85 223 405 392 710 737 1332 683 1226
1145 2230 235 511 307 1045 214 1592 -89 525 -355 1040 -737 1426 -409 413
-927 675 -1528 774 l-139 23 -3105 5 -3105 5 -580 234 -580 235 -250 144
c-137 79 -276 155 -309 169 -124 52 -274 66 -406 37z"/>
</g>
</svg>
