  0
SECTION
  2
HEADER
  9
$ACADVER
  1
AC1009
  9
$EXTMIN
 10
0.0
 20
0.0
 30
0.0
  9
$EXTMAX
 10
1000.0
 20
1000.0
 30
0.0
  9
$FILLMODE
 70
 0
  9
$SPLFRAME
 70
 1
  0
ENDSEC
  0
SECTION
  2
TABLES
  0
TABLE
  2
LAYER
 70
1
  0
LAYER
  2
0
 70
     0
 62
     7
  6
CONTINUOUS
  0
ENDTAB
  0
ENDSEC
  0
SECTION
  2
ENTITIES
  0
LINE
  8
0
 62
     0
 10
100.455
 20
521.899
 30
0.0
 11
99.3994
 21
521.677
 31
0.0
  0
LINE
  8
0
 62
     0
 10
99.3994
 20
521.677
 30
0.0
 11
96.333
 21
520.545
 31
0.0
  0
LINE
  8
0
 62
     0
 10
96.333
 20
520.545
 30
0.0
 11
92.5918
 21
518.4
 31
0.0
  0
LINE
  8
0
 62
     0
 10
92.5918
 20
518.4
 30
0.0
 11
89.4652
 21
515.631
 31
0.0
  0
LINE
  8
0
 62
     0
 10
89.4652
 20
515.631
 30
0.0
 11
87.642
 21
513.274
 31
0.0
  0
LINE
  8
0
 62
     0
 10
87.642
 20
513.274
 30
0.0
 11
87.1897
 21
512.41
 31
0.0
  0
LINE
  8
0
 62
     0
 10
87.1897
 20
512.41
 30
0.0
 11
86.9901
 21
512.032
 31
0.0
  0
LINE
  8
0
 62
     0
 10
86.9901
 20
512.032
 30
0.0
 11
86.505
 21
510.836
 31
0.0
  0
LINE
  8
0
 62
     0
 10
86.505
 20
510.836
 30
0.0
 11
85.6753
 21
508.441
 31
0.0
  0
LINE
  8
0
 62
     0
 10
85.6753
 20
508.441
 30
0.0
 11
84.7108
 21
505.259
 31
0.0
  0
LINE
  8
0
 62
     0
 10
84.7108
 20
505.259
 30
0.0
 11
83.6221
 21
501.329
 31
0.0
  0
LINE
  8
0
 62
     0
 10
83.6221
 20
501.329
 30
0.0
 11
82.4191
 21
496.69
 31
0.0
  0
LINE
  8
0
 62
     0
 10
82.4191
 20
496.69
 30
0.0
 11
81.1128
 21
491.381
 31
0.0
  0
LINE
  8
0
 62
     0
 10
81.1128
 20
491.381
 30
0.0
 11
79.7126
 21
485.436
 31
0.0
  0
LINE
  8
0
 62
     0
 10
79.7126
 20
485.436
 30
0.0
 11
78.5936
 21
480.533
 31
0.0
  0
LINE
  8
0
 62
     0
 10
78.5936
 20
480.533
 30
0.0
 11
78.2299
 21
478.896
 31
0.0
  0
LINE
  8
0
 62
     0
 10
78.2299
 20
478.896
 30
0.0
 11
77.9791
 21
477.785
 31
0.0
  0
LINE
  8
0
 62
     0
 10
77.9791
 20
477.785
 30
0.0
 11
77.228
 21
474.444
 31
0.0
  0
LINE
  8
0
 62
     0
 10
77.228
 20
474.444
 30
0.0
 11
76.3446
 21
470.535
 31
0.0
  0
LINE
  8
0
 62
     0
 10
76.3446
 20
470.535
 30
0.0
 11
75.5689
 21
467.134
 31
0.0
  0
LINE
  8
0
 62
     0
 10
75.5689
 20
467.134
 30
0.0
 11
74.888
 21
464.199
 31
0.0
  0
LINE
  8
0
 62
     0
 10
74.888
 20
464.199
 30
0.0
 11
74.2901
 21
461.687
 31
0.0
  0
LINE
  8
0
 62
     0
 10
74.2901
 20
461.687
 30
0.0
 11
73.7651
 21
459.571
 31
0.0
  0
LINE
  8
0
 62
     0
 10
73.7651
 20
459.571
 30
0.0
 11
73.2977
 21
457.8
 31
0.0
  0
LINE
  8
0
 62
     0
 10
73.2977
 20
457.8
 30
0.0
 11
72.8804
 21
456.343
 31
0.0
  0
LINE
  8
0
 62
     0
 10
72.8804
 20
456.343
 30
0.0
 11
72.4972
 21
455.161
 31
0.0
  0
LINE
  8
0
 62
     0
 10
72.4972
 20
455.161
 30
0.0
 11
72.1388
 21
454.216
 31
0.0
  0
LINE
  8
0
 62
     0
 10
72.1388
 20
454.216
 30
0.0
 11
71.7931
 21
453.464
 31
0.0
  0
LINE
  8
0
 62
     0
 10
71.7931
 20
453.464
 30
0.0
 11
71.447
 21
452.871
 31
0.0
  0
LINE
  8
0
 62
     0
 10
71.447
 20
452.871
 30
0.0
 11
71.0904
 21
452.399
 31
0.0
  0
LINE
  8
0
 62
     0
 10
71.0904
 20
452.399
 30
0.0
 11
70.7101
 21
452.007
 31
0.0
  0
LINE
  8
0
 62
     0
 10
70.7101
 20
452.007
 30
0.0
 11
70.2952
 21
451.658
 31
0.0
  0
LINE
  8
0
 62
     0
 10
70.2952
 20
451.658
 30
0.0
 11
69.9491
 21
451.393
 31
0.0
  0
LINE
  8
0
 62
     0
 10
69.9491
 20
451.393
 30
0.0
 11
69.8334
 21
451.309
 31
0.0
  0
LINE
  8
0
 62
     0
 10
69.8334
 20
451.309
 30
0.0
 11
69.6034
 21
451.143
 31
0.0
  0
LINE
  8
0
 62
     0
 10
69.6034
 20
451.143
 30
0.0
 11
68.7282
 21
450.854
 31
0.0
  0
LINE
  8
0
 62
     0
 10
68.7282
 20
450.854
 30
0.0
 11
66.3744
 21
450.074
 31
0.0
  0
LINE
  8
0
 62
     0
 10
66.3744
 20
450.074
 30
0.0
 11
63.1804
 21
449.083
 31
0.0
  0
LINE
  8
0
 62
     0
 10
63.1804
 20
449.083
 30
0.0
 11
59.5535
 21
448.007
 31
0.0
  0
LINE
  8
0
 62
     0
 10
59.5535
 20
448.007
 30
0.0
 11
55.9015
 21
446.959
 31
0.0
  0
LINE
  8
0
 62
     0
 10
55.9015
 20
446.959
 30
0.0
 11
52.6327
 21
446.066
 31
0.0
  0
LINE
  8
0
 62
     0
 10
52.6327
 20
446.066
 30
0.0
 11
50.1551
 21
445.442
 31
0.0
  0
LINE
  8
0
 62
     0
 10
50.1551
 20
445.442
 30
0.0
 11
49.1959
 21
445.206
 31
0.0
  0
LINE
  8
0
 62
     0
 10
49.1959
 20
445.206
 30
0.0
 11
48.8777
 21
445.206
 31
0.0
  0
LINE
  8
0
 62
     0
 10
48.8777
 20
445.206
 30
0.0
 11
48.7839
 21
445.206
 31
0.0
  0
LINE
  8
0
 62
     0
 10
48.7839
 20
445.206
 30
0.0
 11
48.5055
 21
445.107
 31
0.0
  0
LINE
  8
0
 62
     0
 10
48.5055
 20
445.107
 30
0.0
 11
48.0176
 21
444.835
 31
0.0
  0
LINE
  8
0
 62
     0
 10
48.0176
 20
444.835
 30
0.0
 11
47.4832
 21
444.433
 31
0.0
  0
LINE
  8
0
 62
     0
 10
47.4832
 20
444.433
 30
0.0
 11
47.0916
 21
444.066
 31
0.0
  0
LINE
  8
0
 62
     0
 10
47.0916
 20
444.066
 30
0.0
 11
46.9731
 21
443.936
 31
0.0
  0
LINE
  8
0
 62
     0
 10
46.9731
 20
443.936
 30
0.0
 11
45.7743
 21
442.701
 31
0.0
  0
LINE
  8
0
 62
     0
 10
45.7743
 20
442.701
 30
0.0
 11
45.7743
 21
388.549
 31
0.0
  0
LINE
  8
0
 62
     0
 10
45.7743
 20
388.549
 30
0.0
 11
46.761
 21
385.374
 31
0.0
  0
LINE
  8
0
 62
     0
 10
46.761
 20
385.374
 30
0.0
 11
46.8919
 21
384.958
 31
0.0
  0
LINE
  8
0
 62
     0
 10
46.8919
 20
384.958
 30
0.0
 11
47.3315
 21
383.723
 31
0.0
  0
LINE
  8
0
 62
     0
 10
47.3315
 20
383.723
 30
0.0
 11
47.9432
 21
382.362
 31
0.0
  0
LINE
  8
0
 62
     0
 10
47.9432
 20
382.362
 30
0.0
 11
48.6862
 21
381.113
 31
0.0
  0
LINE
  8
0
 62
     0
 10
48.6862
 20
381.113
 30
0.0
 11
49.4012
 21
380.122
 31
0.0
  0
LINE
  8
0
 62
     0
 10
49.4012
 20
380.122
 30
0.0
 11
49.6549
 21
379.801
 31
0.0
  0
LINE
  8
0
 62
     0
 10
49.6549
 20
379.801
 30
0.0
 11
50.1315
 21
379.197
 31
0.0
  0
LINE
  8
0
 62
     0
 10
50.1315
 20
379.197
 30
0.0
 11
51.7469
 21
377.532
 31
0.0
  0
LINE
  8
0
 62
     0
 10
51.7469
 20
377.532
 30
0.0
 11
54.2756
 21
375.401
 31
0.0
  0
LINE
  8
0
 62
     0
 10
54.2756
 20
375.401
 30
0.0
 11
57.095
 21
373.521
 31
0.0
  0
LINE
  8
0
 62
     0
 10
57.095
 20
373.521
 30
0.0
 11
59.2984
 21
372.336
 31
0.0
  0
LINE
  8
0
 62
     0
 10
59.2984
 20
372.336
 30
0.0
 11
60.0618
 21
372.004
 31
0.0
  0
LINE
  8
0
 62
     0
 10
60.0618
 20
372.004
 30
0.0
 11
63.2368
 21
370.664
 31
0.0
  0
LINE
  8
0
 62
     0
 10
63.2368
 20
370.664
 30
0.0
 11
81.934
 21
368.582
 31
0.0
  0
LINE
  8
0
 62
     0
 10
81.934
 20
368.582
 30
0.0
 11
83.4415
 21
368.42
 31
0.0
  0
LINE
  8
0
 62
     0
 10
83.4415
 20
368.42
 30
0.0
 11
87.9683
 21
367.923
 31
0.0
  0
LINE
  8
0
 62
     0
 10
87.9683
 20
367.923
 30
0.0
 11
92.6137
 21
367.4
 31
0.0
  0
LINE
  8
0
 62
     0
 10
92.6137
 20
367.4
 30
0.0
 11
96.121
 21
366.981
 31
0.0
  0
LINE
  8
0
 62
     0
 10
96.121
 20
366.981
 30
0.0
 11
98.7432
 21
366.624
 31
0.0
  0
LINE
  8
0
 62
     0
 10
98.7432
 20
366.624
 30
0.0
 11
100.729
 21
366.293
 31
0.0
  0
LINE
  8
0
 62
     0
 10
100.729
 20
366.293
 30
0.0
 11
102.333
 21
365.954
 31
0.0
  0
LINE
  8
0
 62
     0
 10
102.333
 20
365.954
 30
0.0
 11
103.803
 21
365.566
 31
0.0
  0
LINE
  8
0
 62
     0
 10
103.803
 20
365.566
 30
0.0
 11
104.997
 21
365.21
 31
0.0
  0
LINE
  8
0
 62
     0
 10
104.997
 20
365.21
 30
0.0
 11
105.394
 21
365.09
 31
0.0
  0
LINE
  8
0
 62
     0
 10
105.394
 20
365.09
 30
0.0
 11
106.046
 21
364.885
 31
0.0
  0
LINE
  8
0
 62
     0
 10
106.046
 20
364.885
 30
0.0
 11
107.996
 21
364.236
 31
0.0
  0
LINE
  8
0
 62
     0
 10
107.996
 20
364.236
 30
0.0
 11
109.886
 21
363.478
 31
0.0
  0
LINE
  8
0
 62
     0
 10
109.886
 20
363.478
 30
0.0
 11
111.559
 21
362.571
 31
0.0
  0
LINE
  8
0
 62
     0
 10
111.559
 20
362.571
 30
0.0
 11
113.028
 21
361.615
 31
0.0
  0
LINE
  8
0
 62
     0
 10
113.028
 20
361.615
 30
0.0
 11
113.508
 21
361.28
 31
0.0
  0
LINE
  8
0
 62
     0
 10
113.508
 20
361.28
 30
0.0
 11
113.986
 21
360.952
 31
0.0
  0
LINE
  8
0
 62
     0
 10
113.986
 20
360.952
 30
0.0
 11
115.394
 21
359.922
 31
0.0
  0
LINE
  8
0
 62
     0
 10
115.394
 20
359.922
 30
0.0
 11
116.721
 21
358.74
 31
0.0
  0
LINE
  8
0
 62
     0
 10
116.721
 20
358.74
 30
0.0
 11
117.897
 21
357.322
 31
0.0
  0
LINE
  8
0
 62
     0
 10
117.897
 20
357.322
 30
0.0
 11
118.979
 21
355.773
 31
0.0
  0
LINE
  8
0
 62
     0
 10
118.979
 20
355.773
 30
0.0
 11
119.328
 21
355.247
 31
0.0
  0
LINE
  8
0
 62
     0
 10
119.328
 20
355.247
 30
0.0
 11
119.691
 21
354.711
 31
0.0
  0
LINE
  8
0
 62
     0
 10
119.691
 20
354.711
 30
0.0
 11
120.746
 21
353.081
 31
0.0
  0
LINE
  8
0
 62
     0
 10
120.746
 20
353.081
 30
0.0
 11
121.656
 21
351.362
 31
0.0
  0
LINE
  8
0
 62
     0
 10
121.656
 20
351.362
 30
0.0
 11
122.353
 21
349.429
 31
0.0
  0
LINE
  8
0
 62
     0
 10
122.353
 20
349.429
 30
0.0
 11
122.949
 21
347.313
 31
0.0
  0
LINE
  8
0
 62
     0
 10
122.949
 20
347.313
 30
0.0
 11
123.137
 21
346.604
 31
0.0
  0
LINE
  8
0
 62
     0
 10
123.137
 20
346.604
 30
0.0
 11
123.276
 21
346.043
 31
0.0
  0
LINE
  8
0
 62
     0
 10
123.276
 20
346.043
 30
0.0
 11
123.664
 21
344.348
 31
0.0
  0
LINE
  8
0
 62
     0
 10
123.664
 20
344.348
 30
0.0
 11
124.152
 21
341.97
 31
0.0
  0
LINE
  8
0
 62
     0
 10
124.152
 20
341.97
 30
0.0
 11
124.546
 21
339.704
 31
0.0
  0
LINE
  8
0
 62
     0
 10
124.546
 20
339.704
 30
0.0
 11
124.75
 21
338.267
 31
0.0
  0
LINE
  8
0
 62
     0
 10
124.75
 20
338.267
 30
0.0
 11
124.797
 21
337.785
 31
0.0
  0
LINE
  8
0
 62
     0
 10
124.797
 20
337.785
 30
0.0
 11
124.872
 21
336.973
 31
0.0
  0
LINE
  8
0
 62
     0
 10
124.872
 20
336.973
 30
0.0
 11
124.976
 21
334.526
 31
0.0
  0
LINE
  8
0
 62
     0
 10
124.976
 20
334.526
 30
0.0
 11
125.096
 21
329.557
 31
0.0
  0
LINE
  8
0
 62
     0
 10
125.096
 20
329.557
 30
0.0
 11
125.155
 21
323.39
 31
0.0
  0
LINE
  8
0
 62
     0
 10
125.155
 20
323.39
 30
0.0
 11
125.156
 21
316.536
 31
0.0
  0
LINE
  8
0
 62
     0
 10
125.156
 20
316.536
 30
0.0
 11
125.102
 21
309.505
 31
0.0
  0
LINE
  8
0
 62
     0
 10
125.102
 20
309.505
 30
0.0
 11
124.994
 21
302.806
 31
0.0
  0
LINE
  8
0
 62
     0
 10
124.994
 20
302.806
 30
0.0
 11
124.832
 21
296.952
 31
0.0
  0
LINE
  8
0
 62
     0
 10
124.832
 20
296.952
 30
0.0
 11
124.693
 21
293.577
 31
0.0
  0
LINE
  8
0
 62
     0
 10
124.693
 20
293.577
 30
0.0
 11
124.62
 21
292.453
 31
0.0
  0
LINE
  8
0
 62
     0
 10
124.62
 20
292.453
 30
0.0
 11
124.562
 21
291.519
 31
0.0
  0
LINE
  8
0
 62
     0
 10
124.562
 20
291.519
 30
0.0
 11
124.393
 21
288.712
 31
0.0
  0
LINE
  8
0
 62
     0
 10
124.393
 20
288.712
 30
0.0
 11
124.156
 21
284.639
 31
0.0
  0
LINE
  8
0
 62
     0
 10
124.156
 20
284.639
 30
0.0
 11
123.939
 21
280.726
 31
0.0
  0
LINE
  8
0
 62
     0
 10
123.939
 20
280.726
 30
0.0
 11
123.811
 21
278.277
 31
0.0
  0
LINE
  8
0
 62
     0
 10
123.811
 20
278.277
 30
0.0
 11
123.773
 21
277.46
 31
0.0
  0
LINE
  8
0
 62
     0
 10
123.773
 20
277.46
 30
0.0
 11
123.709
 21
276.222
 31
0.0
  0
LINE
  8
0
 62
     0
 10
123.709
 20
276.222
 30
0.0
 11
123.42
 21
272.51
 31
0.0
  0
LINE
  8
0
 62
     0
 10
123.42
 20
272.51
 30
0.0
 11
122.859
 21
268.734
 31
0.0
  0
LINE
  8
0
 62
     0
 10
122.859
 20
268.734
 30
0.0
 11
121.962
 21
265.519
 31
0.0
  0
LINE
  8
0
 62
     0
 10
121.962
 20
265.519
 30
0.0
 11
120.972
 21
263.055
 31
0.0
  0
LINE
  8
0
 62
     0
 10
120.972
 20
263.055
 30
0.0
 11
120.598
 21
262.254
 31
0.0
  0
LINE
  8
0
 62
     0
 10
120.598
 20
262.254
 30
0.0
 11
119.987
 21
260.963
 31
0.0
  0
LINE
  8
0
 62
     0
 10
119.987
 20
260.963
 30
0.0
 11
117.722
 21
257.291
 31
0.0
  0
LINE
  8
0
 62
     0
 10
117.722
 20
257.291
 30
0.0
 11
114.08
 21
252.885
 31
0.0
  0
LINE
  8
0
 62
     0
 10
114.08
 20
252.885
 30
0.0
 11
109.764
 21
249.134
 31
0.0
  0
LINE
  8
0
 62
     0
 10
109.764
 20
249.134
 30
0.0
 11
106.142
 21
246.776
 31
0.0
  0
LINE
  8
0
 62
     0
 10
106.142
 20
246.776
 30
0.0
 11
104.865
 21
246.133
 31
0.0
  0
LINE
  8
0
 62
     0
 10
104.865
 20
246.133
 30
0.0
 11
104.313
 21
245.859
 31
0.0
  0
LINE
  8
0
 62
     0
 10
104.313
 20
245.859
 30
0.0
 11
102.593
 21
245.165
 31
0.0
  0
LINE
  8
0
 62
     0
 10
102.593
 20
245.165
 30
0.0
 11
99.8499
 21
244.26
 31
0.0
  0
LINE
  8
0
 62
     0
 10
99.8499
 20
244.26
 30
0.0
 11
96.8608
 21
243.48
 31
0.0
  0
LINE
  8
0
 62
     0
 10
96.8608
 20
243.48
 30
0.0
 11
94.6118
 21
243.01
 31
0.0
  0
LINE
  8
0
 62
     0
 10
94.6118
 20
243.01
 30
0.0
 11
93.8569
 21
242.888
 31
0.0
  0
LINE
  8
0
 62
     0
 10
93.8569
 20
242.888
 30
0.0
 11
92.7559
 21
242.713
 31
0.0
  0
LINE
  8
0
 62
     0
 10
92.7559
 20
242.713
 30
0.0
 11
89.4965
 21
241.931
 31
0.0
  0
LINE
  8
0
 62
     0
 10
89.4965
 20
241.931
 30
0.0
 11
84.504
 21
240.388
 31
0.0
  0
LINE
  8
0
 62
     0
 10
84.504
 20
240.388
 30
0.0
 11
79.0649
 21
238.343
 31
0.0
  0
LINE
  8
0
 62
     0
 10
79.0649
 20
238.343
 30
0.0
 11
73.3598
 21
235.882
 31
0.0
  0
LINE
  8
0
 62
     0
 10
73.3598
 20
235.882
 30
0.0
 11
67.5778
 21
233.087
 31
0.0
  0
LINE
  8
0
 62
     0
 10
67.5778
 20
233.087
 30
0.0
 11
61.8987
 21
230.044
 31
0.0
  0
LINE
  8
0
 62
     0
 10
61.8987
 20
230.044
 30
0.0
 11
56.5094
 21
226.839
 31
0.0
  0
LINE
  8
0
 62
     0
 10
56.5094
 20
226.839
 30
0.0
 11
52.7967
 21
224.414
 31
0.0
  0
LINE
  8
0
 62
     0
 10
52.7967
 20
224.414
 30
0.0
 11
51.5952
 21
223.555
 31
0.0
  0
LINE
  8
0
 62
     0
 10
51.5952
 20
223.555
 30
0.0
 11
49.9565
 21
222.381
 31
0.0
  0
LINE
  8
0
 62
     0
 10
49.9565
 20
222.381
 30
0.0
 11
45.2272
 21
218.598
 31
0.0
  0
LINE
  8
0
 62
     0
 10
45.2272
 20
218.598
 30
0.0
 11
38.7572
 21
212.836
 31
0.0
  0
LINE
  8
0
 62
     0
 10
38.7572
 20
212.836
 30
0.0
 11
32.6388
 21
206.684
 31
0.0
  0
LINE
  8
0
 62
     0
 10
32.6388
 20
206.684
 30
0.0
 11
28.586
 21
202.14
 31
0.0
  0
LINE
  8
0
 62
     0
 10
28.586
 20
202.14
 30
0.0
 11
27.3237
 21
200.554
 31
0.0
  0
LINE
  8
0
 62
     0
 10
27.3237
 20
200.554
 30
0.0
 11
25.9595
 21
198.854
 31
0.0
  0
LINE
  8
0
 62
     0
 10
25.9595
 20
198.854
 30
0.0
 11
22.1093
 21
193.559
 31
0.0
  0
LINE
  8
0
 62
     0
 10
22.1093
 20
193.559
 30
0.0
 11
17.4363
 21
186.269
 31
0.0
  0
LINE
  8
0
 62
     0
 10
17.4363
 20
186.269
 30
0.0
 11
13.3077
 21
178.718
 31
0.0
  0
LINE
  8
0
 62
     0
 10
13.3077
 20
178.718
 30
0.0
 11
9.72894
 21
170.936
 31
0.0
  0
LINE
  8
0
 62
     0
 10
9.72894
 20
170.936
 30
0.0
 11
6.70415
 21
162.954
 31
0.0
  0
LINE
  8
0
 62
     0
 10
6.70415
 20
162.954
 30
0.0
 11
4.23471
 21
154.805
 31
0.0
  0
LINE
  8
0
 62
     0
 10
4.23471
 20
154.805
 30
0.0
 11
2.32751
 21
146.516
 31
0.0
  0
LINE
  8
0
 62
     0
 10
2.32751
 20
146.516
 30
0.0
 11
0.983918
 21
138.122
 31
0.0
  0
LINE
  8
0
 62
     0
 10
0.983918
 20
138.122
 30
0.0
 11
0.208084
 21
129.653
 31
0.0
  0
LINE
  8
0
 62
     0
 10
0.208084
 20
129.653
 30
0.0
 11
0.00551215
 21
121.139
 31
0.0
  0
LINE
  8
0
 62
     0
 10
0.00551215
 20
121.139
 30
0.0
 11
0.378961
 21
112.613
 31
0.0
  0
LINE
  8
0
 62
     0
 10
0.378961
 20
112.613
 30
0.0
 11
1.33256
 21
104.104
 31
0.0
  0
LINE
  8
0
 62
     0
 10
1.33256
 20
104.104
 30
0.0
 11
2.87045
 21
95.6455
 31
0.0
  0
LINE
  8
0
 62
     0
 10
2.87045
 20
95.6455
 30
0.0
 11
4.9954
 21
87.2656
 31
0.0
  0
LINE
  8
0
 62
     0
 10
4.9954
 20
87.2656
 30
0.0
 11
7.71289
 21
78.9989
 31
0.0
  0
LINE
  8
0
 62
     0
 10
7.71289
 20
78.9989
 30
0.0
 11
10.1272
 21
72.8733
 31
0.0
  0
LINE
  8
0
 62
     0
 10
10.1272
 20
72.8733
 30
0.0
 11
11.0257
 21
70.8723
 31
0.0
  0
LINE
  8
0
 62
     0
 10
11.0257
 20
70.8723
 30
0.0
 11
11.971
 21
68.767
 31
0.0
  0
LINE
  8
0
 62
     0
 10
11.971
 20
68.767
 30
0.0
 11
15.135
 21
62.5962
 31
0.0
  0
LINE
  8
0
 62
     0
 10
15.135
 20
62.5962
 30
0.0
 11
19.8713
 21
54.6446
 31
0.0
  0
LINE
  8
0
 62
     0
 10
19.8713
 20
54.6446
 30
0.0
 11
25.1974
 21
47.0641
 31
0.0
  0
LINE
  8
0
 62
     0
 10
25.1974
 20
47.0641
 30
0.0
 11
31.0747
 21
39.8956
 31
0.0
  0
LINE
  8
0
 62
     0
 10
31.0747
 20
39.8956
 30
0.0
 11
37.4675
 21
33.1818
 31
0.0
  0
LINE
  8
0
 62
     0
 10
37.4675
 20
33.1818
 30
0.0
 11
44.3371
 21
26.9641
 31
0.0
  0
LINE
  8
0
 62
     0
 10
44.3371
 20
26.9641
 30
0.0
 11
51.646
 21
21.288
 31
0.0
  0
LINE
  8
0
 62
     0
 10
51.646
 20
21.288
 30
0.0
 11
57.3814
 21
17.3895
 31
0.0
  0
LINE
  8
0
 62
     0
 10
57.3814
 20
17.3895
 30
0.0
 11
59.3563
 21
16.1919
 31
0.0
  0
LINE
  8
0
 62
     0
 10
59.3563
 20
16.1919
 30
0.0
 11
61.6437
 21
14.8029
 31
0.0
  0
LINE
  8
0
 62
     0
 10
61.6437
 20
14.8029
 30
0.0
 11
68.7836
 21
11.0822
 31
0.0
  0
LINE
  8
0
 62
     0
 10
68.7836
 20
11.0822
 30
0.0
 11
78.8501
 21
6.7648
 31
0.0
  0
LINE
  8
0
 62
     0
 10
78.8501
 20
6.7648
 30
0.0
 11
89.2941
 21
3.33485
 31
0.0
  0
LINE
  8
0
 62
     0
 10
89.2941
 20
3.33485
 30
0.0
 11
97.1903
 21
1.37115
 31
0.0
  0
LINE
  8
0
 62
     0
 10
97.1903
 20
1.37115
 30
0.0
 11
99.8541
 21
0.881944
 31
0.0
  0
LINE
  8
0
 62
     0
 10
99.8541
 20
0.881944
 30
0.0
 11
104.723
 21
0
 31
0.0
  0
LINE
  8
0
 62
     0
 10
104.723
 20
0
 30
0.0
 11
217.153
 21
0
 31
0.0
  0
LINE
  8
0
 62
     0
 10
217.153
 20
0
 30
0.0
 11
222.233
 21
0.846116
 31
0.0
  0
LINE
  8
0
 62
     0
 10
222.233
 20
0.846116
 30
0.0
 11
225.246
 21
1.35874
 31
0.0
  0
LINE
  8
0
 62
     0
 10
225.246
 20
1.35874
 30
0.0
 11
234.192
 21
3.43545
 31
0.0
  0
LINE
  8
0
 62
     0
 10
234.192
 20
3.43545
 30
0.0
 11
245.766
 21
7.04868
 31
0.0
  0
LINE
  8
0
 62
     0
 10
245.766
 20
7.04868
 30
0.0
 11
256.89
 21
11.6485
 31
0.0
  0
LINE
  8
0
 62
     0
 10
256.89
 20
11.6485
 30
0.0
 11
267.498
 21
17.1979
 31
0.0
  0
LINE
  8
0
 62
     0
 10
267.498
 20
17.1979
 30
0.0
 11
277.526
 21
23.6609
 31
0.0
  0
LINE
  8
0
 62
     0
 10
277.526
 20
23.6609
 30
0.0
 11
286.909
 21
31.0003
 31
0.0
  0
LINE
  8
0
 62
     0
 10
286.909
 20
31.0003
 30
0.0
 11
295.581
 21
39.1763
 31
0.0
  0
LINE
  8
0
 62
     0
 10
295.581
 20
39.1763
 30
0.0
 11
301.614
 21
45.8227
 31
0.0
  0
LINE
  8
0
 62
     0
 10
301.614
 20
45.8227
 30
0.0
 11
303.479
 21
48.1542
 31
0.0
  0
LINE
  8
0
 62
     0
 10
303.479
 20
48.1542
 30
0.0
 11
304.458
 21
49.378
 31
0.0
  0
LINE
  8
0
 62
     0
 10
304.458
 20
49.378
 30
0.0
 11
307.267
 21
53.1523
 31
0.0
  0
LINE
  8
0
 62
     0
 10
307.267
 20
53.1523
 30
0.0
 11
310.877
 21
58.5004
 31
0.0
  0
LINE
  8
0
 62
     0
 10
310.877
 20
58.5004
 30
0.0
 11
314.5
 21
64.4962
 31
0.0
  0
LINE
  8
0
 62
     0
 10
314.5
 20
64.4962
 30
0.0
 11
317.399
 21
69.6888
 31
0.0
  0
LINE
  8
0
 62
     0
 10
317.399
 20
69.6888
 30
0.0
 11
318.33
 21
71.4375
 31
0.0
  0
LINE
  8
0
 62
     0
 10
318.33
 20
71.4375
 30
0.0
 11
318.481
 21
71.7243
 31
0.0
  0
LINE
  8
0
 62
     0
 10
318.481
 20
71.7243
 30
0.0
 11
318.941
 21
72.5826
 31
0.0
  0
LINE
  8
0
 62
     0
 10
318.941
 20
72.5826
 30
0.0
 11
320.024
 21
74.5931
 31
0.0
  0
LINE
  8
0
 62
     0
 10
320.024
 20
74.5931
 30
0.0
 11
321.549
 21
77.4139
 31
0.0
  0
LINE
  8
0
 62
     0
 10
321.549
 20
77.4139
 30
0.0
 11
323.481
 21
80.9872
 31
0.0
  0
LINE
  8
0
 62
     0
 10
323.481
 20
80.9872
 30
0.0
 11
325.789
 21
85.2565
 31
0.0
  0
LINE
  8
0
 62
     0
 10
325.789
 20
85.2565
 30
0.0
 11
328.446
 21
90.1651
 31
0.0
  0
LINE
  8
0
 62
     0
 10
328.446
 20
90.1651
 30
0.0
 11
331.417
 21
95.6525
 31
0.0
  0
LINE
  8
0
 62
     0
 10
331.417
 20
95.6525
 30
0.0
 11
334.673
 21
101.666
 31
0.0
  0
LINE
  8
0
 62
     0
 10
334.673
 20
101.666
 30
0.0
 11
338.183
 21
108.144
 31
0.0
  0
LINE
  8
0
 62
     0
 10
338.183
 20
108.144
 30
0.0
 11
341.915
 21
115.033
 31
0.0
  0
LINE
  8
0
 62
     0
 10
341.915
 20
115.033
 30
0.0
 11
345.838
 21
122.273
 31
0.0
  0
LINE
  8
0
 62
     0
 10
345.838
 20
122.273
 30
0.0
 11
349.922
 21
129.81
 31
0.0
  0
LINE
  8
0
 62
     0
 10
349.922
 20
129.81
 30
0.0
 11
354.136
 21
137.583
 31
0.0
  0
LINE
  8
0
 62
     0
 10
354.136
 20
137.583
 30
0.0
 11
358.447
 21
145.537
 31
0.0
  0
LINE
  8
0
 62
     0
 10
358.447
 20
145.537
 30
0.0
 11
362.825
 21
153.614
 31
0.0
  0
LINE
  8
0
 62
     0
 10
362.825
 20
153.614
 30
0.0
 11
367.242
 21
161.758
 31
0.0
  0
LINE
  8
0
 62
     0
 10
367.242
 20
161.758
 30
0.0
 11
371.662
 21
169.911
 31
0.0
  0
LINE
  8
0
 62
     0
 10
371.662
 20
169.911
 30
0.0
 11
376.058
 21
178.015
 31
0.0
  0
LINE
  8
0
 62
     0
 10
376.058
 20
178.015
 30
0.0
 11
380.397
 21
186.013
 31
0.0
  0
LINE
  8
0
 62
     0
 10
380.397
 20
186.013
 30
0.0
 11
384.648
 21
193.849
 31
0.0
  0
LINE
  8
0
 62
     0
 10
384.648
 20
193.849
 30
0.0
 11
388.779
 21
201.464
 31
0.0
  0
LINE
  8
0
 62
     0
 10
388.779
 20
201.464
 30
0.0
 11
392.762
 21
208.803
 31
0.0
  0
LINE
  8
0
 62
     0
 10
392.762
 20
208.803
 30
0.0
 11
396.565
 21
215.806
 31
0.0
  0
LINE
  8
0
 62
     0
 10
396.565
 20
215.806
 30
0.0
 11
400.156
 21
222.419
 31
0.0
  0
LINE
  8
0
 62
     0
 10
400.156
 20
222.419
 30
0.0
 11
403.504
 21
228.583
 31
0.0
  0
LINE
  8
0
 62
     0
 10
403.504
 20
228.583
 30
0.0
 11
406.576
 21
234.24
 31
0.0
  0
LINE
  8
0
 62
     0
 10
406.576
 20
234.24
 30
0.0
 11
409.346
 21
239.335
 31
0.0
  0
LINE
  8
0
 62
     0
 10
409.346
 20
239.335
 30
0.0
 11
411.776
 21
243.808
 31
0.0
  0
LINE
  8
0
 62
     0
 10
411.776
 20
243.808
 30
0.0
 11
413.844
 21
247.604
 31
0.0
  0
LINE
  8
0
 62
     0
 10
413.844
 20
247.604
 30
0.0
 11
415.512
 21
250.665
 31
0.0
  0
LINE
  8
0
 62
     0
 10
415.512
 20
250.665
 30
0.0
 11
416.75
 21
252.934
 31
0.0
  0
LINE
  8
0
 62
     0
 10
416.75
 20
252.934
 30
0.0
 11
417.336
 21
253.999
 31
0.0
  0
LINE
  8
0
 62
     0
 10
417.336
 20
253.999
 30
0.0
 11
417.53
 21
254.353
 31
0.0
  0
LINE
  8
0
 62
     0
 10
417.53
 20
254.353
 30
0.0
 11
417.738
 21
254.728
 31
0.0
  0
LINE
  8
0
 62
     0
 10
417.738
 20
254.728
 30
0.0
 11
418.356
 21
255.849
 31
0.0
  0
LINE
  8
0
 62
     0
 10
418.356
 20
255.849
 30
0.0
 11
419.552
 21
258.018
 31
0.0
  0
LINE
  8
0
 62
     0
 10
419.552
 20
258.018
 30
0.0
 11
421.061
 21
260.759
 31
0.0
  0
LINE
  8
0
 62
     0
 10
421.061
 20
260.759
 30
0.0
 11
422.829
 21
263.966
 31
0.0
  0
LINE
  8
0
 62
     0
 10
422.829
 20
263.966
 30
0.0
 11
424.801
 21
267.538
 31
0.0
  0
LINE
  8
0
 62
     0
 10
424.801
 20
267.538
 30
0.0
 11
426.918
 21
271.369
 31
0.0
  0
LINE
  8
0
 62
     0
 10
426.918
 20
271.369
 30
0.0
 11
429.122
 21
275.358
 31
0.0
  0
LINE
  8
0
 62
     0
 10
429.122
 20
275.358
 30
0.0
 11
430.798
 21
278.39
 31
0.0
  0
LINE
  8
0
 62
     0
 10
430.798
 20
278.39
 30
0.0
 11
431.359
 21
279.4
 31
0.0
  0
LINE
  8
0
 62
     0
 10
431.359
 20
279.4
 30
0.0
 11
432.498
 21
281.46
 31
0.0
  0
LINE
  8
0
 62
     0
 10
432.498
 20
281.46
 30
0.0
 11
435.92
 21
287.639
 31
0.0
  0
LINE
  8
0
 62
     0
 10
435.92
 20
287.639
 30
0.0
 11
439.893
 21
294.819
 31
0.0
  0
LINE
  8
0
 62
     0
 10
439.893
 20
294.819
 30
0.0
 11
443.346
 21
301.075
 31
0.0
  0
LINE
  8
0
 62
     0
 10
443.346
 20
301.075
 30
0.0
 11
446.349
 21
306.536
 31
0.0
  0
LINE
  8
0
 62
     0
 10
446.349
 20
306.536
 30
0.0
 11
448.966
 21
311.335
 31
0.0
  0
LINE
  8
0
 62
     0
 10
448.966
 20
311.335
 30
0.0
 11
451.266
 21
315.604
 31
0.0
  0
LINE
  8
0
 62
     0
 10
451.266
 20
315.604
 30
0.0
 11
453.323
 21
319.472
 31
0.0
  0
LINE
  8
0
 62
     0
 10
453.323
 20
319.472
 30
0.0
 11
455.193
 21
323.074
 31
0.0
  0
LINE
  8
0
 62
     0
 10
455.193
 20
323.074
 30
0.0
 11
456.953
 21
326.541
 31
0.0
  0
LINE
  8
0
 62
     0
 10
456.953
 20
326.541
 30
0.0
 11
458.664
 21
330.004
 31
0.0
  0
LINE
  8
0
 62
     0
 10
458.664
 20
330.004
 30
0.0
 11
460.4
 21
333.594
 31
0.0
  0
LINE
  8
0
 62
     0
 10
460.4
 20
333.594
 30
0.0
 11
462.22
 21
337.444
 31
0.0
  0
LINE
  8
0
 62
     0
 10
462.22
 20
337.444
 30
0.0
 11
464.199
 21
341.685
 31
0.0
  0
LINE
  8
0
 62
     0
 10
464.199
 20
341.685
 30
0.0
 11
466.404
 21
346.449
 31
0.0
  0
LINE
  8
0
 62
     0
 10
466.404
 20
346.449
 30
0.0
 11
468.898
 21
351.865
 31
0.0
  0
LINE
  8
0
 62
     0
 10
468.898
 20
351.865
 30
0.0
 11
471.039
 21
356.521
 31
0.0
  0
LINE
  8
0
 62
     0
 10
471.039
 20
356.521
 30
0.0
 11
471.752
 21
358.069
 31
0.0
  0
LINE
  8
0
 62
     0
 10
471.752
 20
358.069
 30
0.0
 11
473.273
 21
361.379
 31
0.0
  0
LINE
  8
0
 62
     0
 10
473.273
 20
361.379
 30
0.0
 11
476.892
 21
371.736
 31
0.0
  0
LINE
  8
0
 62
     0
 10
476.892
 20
371.736
 30
0.0
 11
479.866
 21
385.674
 31
0.0
  0
LINE
  8
0
 62
     0
 10
479.866
 20
385.674
 30
0.0
 11
480.674
 21
399.852
 31
0.0
  0
LINE
  8
0
 62
     0
 10
480.674
 20
399.852
 30
0.0
 11
479.905
 21
410.683
 31
0.0
  0
LINE
  8
0
 62
     0
 10
479.905
 20
410.683
 30
0.0
 11
479.302
 21
414.232
 31
0.0
  0
LINE
  8
0
 62
     0
 10
479.302
 20
414.232
 30
0.0
 11
479.005
 21
415.974
 31
0.0
  0
LINE
  8
0
 62
     0
 10
479.005
 20
415.974
 30
0.0
 11
477.838
 21
421.153
 31
0.0
  0
LINE
  8
0
 62
     0
 10
477.838
 20
421.153
 30
0.0
 11
475.809
 21
427.99
 31
0.0
  0
LINE
  8
0
 62
     0
 10
475.809
 20
427.99
 30
0.0
 11
473.248
 21
434.696
 31
0.0
  0
LINE
  8
0
 62
     0
 10
473.248
 20
434.696
 30
0.0
 11
470.179
 21
441.223
 31
0.0
  0
LINE
  8
0
 62
     0
 10
470.179
 20
441.223
 30
0.0
 11
466.623
 21
447.52
 31
0.0
  0
LINE
  8
0
 62
     0
 10
466.623
 20
447.52
 30
0.0
 11
462.608
 21
453.538
 31
0.0
  0
LINE
  8
0
 62
     0
 10
462.608
 20
453.538
 30
0.0
 11
458.16
 21
459.228
 31
0.0
  0
LINE
  8
0
 62
     0
 10
458.16
 20
459.228
 30
0.0
 11
454.568
 21
463.261
 31
0.0
  0
LINE
  8
0
 62
     0
 10
454.568
 20
463.261
 30
0.0
 11
453.302
 21
464.538
 31
0.0
  0
LINE
  8
0
 62
     0
 10
453.302
 20
464.538
 30
0.0
 11
451.958
 21
465.896
 31
0.0
  0
LINE
  8
0
 62
     0
 10
451.958
 20
465.896
 30
0.0
 11
447.714
 21
469.752
 31
0.0
  0
LINE
  8
0
 62
     0
 10
447.714
 20
469.752
 30
0.0
 11
441.773
 21
474.461
 31
0.0
  0
LINE
  8
0
 62
     0
 10
441.773
 20
474.461
 30
0.0
 11
435.497
 21
478.659
 31
0.0
  0
LINE
  8
0
 62
     0
 10
435.497
 20
478.659
 30
0.0
 11
428.89
 21
482.346
 31
0.0
  0
LINE
  8
0
 62
     0
 10
428.89
 20
482.346
 30
0.0
 11
421.968
 21
485.51
 31
0.0
  0
LINE
  8
0
 62
     0
 10
421.968
 20
485.51
 30
0.0
 11
414.736
 21
488.153
 31
0.0
  0
LINE
  8
0
 62
     0
 10
414.736
 20
488.153
 30
0.0
 11
407.208
 21
490.266
 31
0.0
  0
LINE
  8
0
 62
     0
 10
407.208
 20
490.266
 30
0.0
 11
401.362
 21
491.522
 31
0.0
  0
LINE
  8
0
 62
     0
 10
401.362
 20
491.522
 30
0.0
 11
399.397
 21
491.843
 31
0.0
  0
LINE
  8
0
 62
     0
 10
399.397
 20
491.843
 30
0.0
 11
394.494
 21
492.654
 31
0.0
  0
LINE
  8
0
 62
     0
 10
394.494
 20
492.654
 30
0.0
 11
175.42
 21
493.007
 31
0.0
  0
LINE
  8
0
 62
     0
 10
175.42
 20
493.007
 30
0.0
 11
154.959
 21
501.262
 31
0.0
  0
LINE
  8
0
 62
     0
 10
154.959
 20
501.262
 30
0.0
 11
134.498
 21
509.552
 31
0.0
  0
LINE
  8
0
 62
     0
 10
134.498
 20
509.552
 30
0.0
 11
125.678
 21
514.632
 31
0.0
  0
LINE
  8
0
 62
     0
 10
125.678
 20
514.632
 30
0.0
 11
124.786
 21
515.147
 31
0.0
  0
LINE
  8
0
 62
     0
 10
124.786
 20
515.147
 30
0.0
 11
122.098
 21
516.671
 31
0.0
  0
LINE
  8
0
 62
     0
 10
122.098
 20
516.671
 30
0.0
 11
118.85
 21
518.474
 31
0.0
  0
LINE
  8
0
 62
     0
 10
118.85
 20
518.474
 30
0.0
 11
116.291
 21
519.846
 31
0.0
  0
LINE
  8
0
 62
     0
 10
116.291
 20
519.846
 30
0.0
 11
115.068
 21
520.471
 31
0.0
  0
LINE
  8
0
 62
     0
 10
115.068
 20
520.471
 30
0.0
 11
114.777
 21
520.594
 31
0.0
  0
LINE
  8
0
 62
     0
 10
114.777
 20
520.594
 30
0.0
 11
113.947
 21
520.943
 31
0.0
  0
LINE
  8
0
 62
     0
 10
113.947
 20
520.943
 30
0.0
 11
111.348
 21
521.716
 31
0.0
  0
LINE
  8
0
 62
     0
 10
111.348
 20
521.716
 30
0.0
 11
107.721
 21
522.319
 31
0.0
  0
LINE
  8
0
 62
     0
 10
107.721
 20
522.319
 30
0.0
 11
104.042
 21
522.386
 31
0.0
  0
LINE
  8
0
 62
     0
 10
104.042
 20
522.386
 30
0.0
 11
101.335
 21
522.093
 31
0.0
  0
LINE
  8
0
 62
     0
 10
101.335
 20
522.093
 30
0.0
 11
100.455
 21
521.899
 31
0.0
  0
ENDSEC
  0
EOF
