<?xml version="1.0" standalone="no"?>
<!DOCTYPE svg PUBLIC "-//W3C//DTD SVG 20010904//EN"
 "http://www.w3.org/TR/2001/REC-SVG-20010904/DTD/svg10.dtd">
<svg version="1.0" xmlns="http://www.w3.org/2000/svg"
 width="3516.000000pt" height="1326.000000pt" viewBox="0 0 3516.000000 1326.000000"
 preserveAspectRatio="xMidYMid meet">
<metadata>
Created by potrace 1.13, written by Peter Selinger 2001-2015
</metadata>
<g transform="translate(0.000000,1326.000000) scale(0.100000,-0.100000)"
fill="#000000" stroke="none">
<path d="M4550 9113 c-98 -11 -271 -47 -372 -77 -683 -208 -1206 -731 -1414
-1414 -66 -218 -79 -316 -79 -602 0 -222 3 -270 23 -372 82 -433 280 -808 586
-1114 304 -305 673 -500 1109 -586 l112 -23 2745 -5 c2526 -6 2754 -8 2860
-24 364 -54 630 -167 725 -307 16 -24 32 -46 35 -49 3 -3 27 -50 55 -104 253
-503 770 -956 1415 -1240 355 -156 712 -253 1195 -323 113 -16 480 -17 6153
-20 6522 -3 6071 -7 6215 47 127 48 282 175 369 303 55 81 114 210 140 304 19
69 22 116 28 418 6 271 11 352 24 399 82 291 327 495 696 582 71 17 254 18
3085 24 3296 6 3020 1 3220 61 546 163 958 634 1050 1204 19 116 19 354 0 470
-93 578 -509 1048 -1070 1210 -205 59 201 55 -5515 55 l-5245 0 -94 -25 c-180
-48 -329 -133 -464 -264 -128 -124 -217 -277 -257 -443 -19 -78 -20 -118 -20
-720 l0 -638 -4089 0 -4089 0 -7 63 c-105 1004 -414 1836 -904 2434 -102 125
-303 323 -411 405 -233 177 -484 294 -747 350 l-108 23 -3460 1 c-1903 0
-3476 -1 -3495 -3z"/>
</g>
</svg>
