  0
SECTION
  2
HEADER
  9
$ACADVER
  1
AC1009
  9
$EXTMIN
 10
0.0
 20
0.0
 30
0.0
  9
$EXTMAX
 10
1000.0
 20
1000.0
 30
0.0
  9
$FILLMODE
 70
 0
  9
$SPLFRAME
 70
 1
  0
ENDSEC
  0
SECTION
  2
TABLES
  0
TABLE
  2
LAYER
 70
1
  0
LAYER
  2
0
 70
     0
 62
     7
  6
CONTINUOUS
  0
ENDTAB
  0
ENDSEC
  0
SECTION
  2
ENTITIES
  0
LINE
  8
0
 62
     0
 10
306.211
 20
70.0624
 30
0.0
 11
306.211
 21
69.5925
 31
0.0
  0
LINE
  8
0
 62
     0
 10
306.211
 20
69.5925
 30
0.0
 11
306.192
 21
68.1785
 31
0.0
  0
LINE
  8
0
 62
     0
 10
306.192
 20
68.1785
 30
0.0
 11
306.144
 21
66.5565
 31
0.0
  0
LINE
  8
0
 62
     0
 10
306.144
 20
66.5565
 30
0.0
 11
306.076
 21
65.3644
 31
0.0
  0
LINE
  8
0
 62
     0
 10
306.076
 20
65.3644
 30
0.0
 11
306.025
 21
64.8504
 31
0.0
  0
LINE
  8
0
 62
     0
 10
306.025
 20
64.8504
 30
0.0
 11
305.999
 21
64.7707
 31
0.0
  0
LINE
  8
0
 62
     0
 10
305.999
 20
64.7707
 30
0.0
 11
305.992
 21
64.7555
 31
0.0
  0
LINE
  8
0
 62
     0
 10
305.992
 20
64.7555
 30
0.0
 11
305.936
 21
64.7238
 31
0.0
  0
LINE
  8
0
 62
     0
 10
305.936
 20
64.7238
 30
0.0
 11
305.773
 21
64.6783
 31
0.0
  0
LINE
  8
0
 62
     0
 10
305.773
 20
64.6783
 30
0.0
 11
305.489
 21
64.6356
 31
0.0
  0
LINE
  8
0
 62
     0
 10
305.489
 20
64.6356
 30
0.0
 11
305.065
 21
64.5954
 31
0.0
  0
LINE
  8
0
 62
     0
 10
305.065
 20
64.5954
 30
0.0
 11
304.479
 21
64.5569
 31
0.0
  0
LINE
  8
0
 62
     0
 10
304.479
 20
64.5569
 30
0.0
 11
303.71
 21
64.5223
 31
0.0
  0
LINE
  8
0
 62
     0
 10
303.71
 20
64.5223
 30
0.0
 11
302.74
 21
64.4895
 31
0.0
  0
LINE
  8
0
 62
     0
 10
302.74
 20
64.4895
 30
0.0
 11
301.548
 21
64.4592
 31
0.0
  0
LINE
  8
0
 62
     0
 10
301.548
 20
64.4592
 30
0.0
 11
300.112
 21
64.4317
 31
0.0
  0
LINE
  8
0
 62
     0
 10
300.112
 20
64.4317
 30
0.0
 11
298.412
 21
64.4052
 31
0.0
  0
LINE
  8
0
 62
     0
 10
298.412
 20
64.4052
 30
0.0
 11
296.427
 21
64.3819
 31
0.0
  0
LINE
  8
0
 62
     0
 10
296.427
 20
64.3819
 30
0.0
 11
294.139
 21
64.3601
 31
0.0
  0
LINE
  8
0
 62
     0
 10
294.139
 20
64.3601
 30
0.0
 11
291.525
 21
64.3393
 31
0.0
  0
LINE
  8
0
 62
     0
 10
291.525
 20
64.3393
 30
0.0
 11
288.565
 21
64.3213
 31
0.0
  0
LINE
  8
0
 62
     0
 10
288.565
 20
64.3213
 30
0.0
 11
285.24
 21
64.3047
 31
0.0
  0
LINE
  8
0
 62
     0
 10
285.24
 20
64.3047
 30
0.0
 11
281.529
 21
64.2895
 31
0.0
  0
LINE
  8
0
 62
     0
 10
281.529
 20
64.2895
 30
0.0
 11
277.41
 21
64.2772
 31
0.0
  0
LINE
  8
0
 62
     0
 10
277.41
 20
64.2772
 30
0.0
 11
272.864
 21
64.2648
 31
0.0
  0
LINE
  8
0
 62
     0
 10
272.864
 20
64.2648
 30
0.0
 11
267.871
 21
64.2553
 31
0.0
  0
LINE
  8
0
 62
     0
 10
267.871
 20
64.2553
 30
0.0
 11
262.409
 21
64.2454
 31
0.0
  0
LINE
  8
0
 62
     0
 10
262.409
 20
64.2454
 30
0.0
 11
256.459
 21
64.2373
 31
0.0
  0
LINE
  8
0
 62
     0
 10
256.459
 20
64.2373
 30
0.0
 11
249.998
 21
64.2303
 31
0.0
  0
LINE
  8
0
 62
     0
 10
249.998
 20
64.2303
 30
0.0
 11
243.009
 21
64.225
 31
0.0
  0
LINE
  8
0
 62
     0
 10
243.009
 20
64.225
 30
0.0
 11
235.468
 21
64.2207
 31
0.0
  0
LINE
  8
0
 62
     0
 10
235.468
 20
64.2207
 30
0.0
 11
227.358
 21
64.2165
 31
0.0
  0
LINE
  8
0
 62
     0
 10
227.358
 20
64.2165
 30
0.0
 11
218.657
 21
64.2126
 31
0.0
  0
LINE
  8
0
 62
     0
 10
218.657
 20
64.2126
 30
0.0
 11
209.345
 21
64.2112
 31
0.0
  0
LINE
  8
0
 62
     0
 10
209.345
 20
64.2112
 30
0.0
 11
199.4
 21
64.2084
 31
0.0
  0
LINE
  8
0
 62
     0
 10
199.4
 20
64.2084
 30
0.0
 11
188.802
 21
64.207
 31
0.0
  0
LINE
  8
0
 62
     0
 10
188.802
 20
64.207
 30
0.0
 11
177.533
 21
64.207
 31
0.0
  0
LINE
  8
0
 62
     0
 10
177.533
 20
64.207
 30
0.0
 11
165.57
 21
64.207
 31
0.0
  0
LINE
  8
0
 62
     0
 10
165.57
 20
64.207
 30
0.0
 11
156.061
 21
64.2056
 31
0.0
  0
LINE
  8
0
 62
     0
 10
156.061
 20
64.2056
 30
0.0
 11
152.893
 21
64.2056
 31
0.0
  0
LINE
  8
0
 62
     0
 10
152.893
 20
64.2056
 30
0.0
 11
0
 21
64.2056
 31
0.0
  0
LINE
  8
0
 62
     0
 10
0
 20
64.2056
 30
0.0
 11
0
 21
24.6944
 31
0.0
  0
LINE
  8
0
 62
     0
 10
0
 20
24.6944
 30
0.0
 11
784.825
 21
24.6944
 31
0.0
  0
LINE
  8
0
 62
     0
 10
784.825
 20
24.6944
 30
0.0
 11
785.072
 21
17.0394
 31
0.0
  0
LINE
  8
0
 62
     0
 10
785.072
 20
17.0394
 30
0.0
 11
785.093
 21
16.2002
 31
0.0
  0
LINE
  8
0
 62
     0
 10
785.093
 20
16.2002
 30
0.0
 11
785.167
 21
13.6826
 31
0.0
  0
LINE
  8
0
 62
     0
 10
785.167
 20
13.6826
 30
0.0
 11
785.287
 21
10.2319
 31
0.0
  0
LINE
  8
0
 62
     0
 10
785.287
 20
10.2319
 30
0.0
 11
785.414
 21
7.09828
 31
0.0
  0
LINE
  8
0
 62
     0
 10
785.414
 20
7.09828
 30
0.0
 11
785.499
 21
5.29442
 31
0.0
  0
LINE
  8
0
 62
     0
 10
785.499
 20
5.29442
 30
0.0
 11
785.53
 21
4.69223
 31
0.0
  0
LINE
  8
0
 62
     0
 10
785.53
 20
4.69223
 30
0.0
 11
785.742
 21
0
 31
0.0
  0
LINE
  8
0
 62
     0
 10
785.742
 20
0
 30
0.0
 11
1129.59
 21
0
 31
0.0
  0
LINE
  8
0
 62
     0
 10
1129.59
 20
0
 30
0.0
 11
1129.59
 21
2.57555
 31
0.0
  0
LINE
  8
0
 62
     0
 10
1129.59
 20
2.57555
 30
0.0
 11
1129.59
 21
2.80982
 31
0.0
  0
LINE
  8
0
 62
     0
 10
1129.59
 20
2.80982
 30
0.0
 11
1129.6
 21
3.51124
 31
0.0
  0
LINE
  8
0
 62
     0
 10
1129.6
 20
3.51124
 30
0.0
 11
1129.63
 21
5.21727
 31
0.0
  0
LINE
  8
0
 62
     0
 10
1129.63
 20
5.21727
 30
0.0
 11
1129.66
 21
7.59989
 31
0.0
  0
LINE
  8
0
 62
     0
 10
1129.66
 20
7.59989
 30
0.0
 11
1129.71
 21
10.5613
 31
0.0
  0
LINE
  8
0
 62
     0
 10
1129.71
 20
10.5613
 30
0.0
 11
1129.77
 21
14.0036
 31
0.0
  0
LINE
  8
0
 62
     0
 10
1129.77
 20
14.0036
 30
0.0
 11
1129.83
 21
17.8304
 31
0.0
  0
LINE
  8
0
 62
     0
 10
1129.83
 20
17.8304
 30
0.0
 11
1129.9
 21
21.9439
 31
0.0
  0
LINE
  8
0
 62
     0
 10
1129.9
 20
21.9439
 30
0.0
 11
1129.96
 21
25.1713
 31
0.0
  0
LINE
  8
0
 62
     0
 10
1129.96
 20
25.1713
 30
0.0
 11
1129.98
 21
26.2461
 31
0.0
  0
LINE
  8
0
 62
     0
 10
1129.98
 20
26.2461
 30
0.0
 11
1130
 21
27.3072
 31
0.0
  0
LINE
  8
0
 62
     0
 10
1130
 20
27.3072
 30
0.0
 11
1130.05
 21
30.4891
 31
0.0
  0
LINE
  8
0
 62
     0
 10
1130.05
 20
30.4891
 30
0.0
 11
1130.1
 21
34.4523
 31
0.0
  0
LINE
  8
0
 62
     0
 10
1130.1
 20
34.4523
 30
0.0
 11
1130.14
 21
38.0488
 31
0.0
  0
LINE
  8
0
 62
     0
 10
1130.14
 20
38.0488
 30
0.0
 11
1130.18
 21
41.1924
 31
0.0
  0
LINE
  8
0
 62
     0
 10
1130.18
 20
41.1924
 30
0.0
 11
1130.2
 21
43.7942
 31
0.0
  0
LINE
  8
0
 62
     0
 10
1130.2
 20
43.7942
 30
0.0
 11
1130.22
 21
45.7687
 31
0.0
  0
LINE
  8
0
 62
     0
 10
1130.22
 20
45.7687
 30
0.0
 11
1130.21
 21
47.0285
 31
0.0
  0
LINE
  8
0
 62
     0
 10
1130.21
 20
47.0285
 30
0.0
 11
1130.21
 21
47.4666
 31
0.0
  0
LINE
  8
0
 62
     0
 10
1130.21
 20
47.4666
 30
0.0
 11
1130.19
 21
47.4846
 31
0.0
  0
LINE
  8
0
 62
     0
 10
1130.19
 20
47.4846
 30
0.0
 11
1130.18
 21
47.5022
 31
0.0
  0
LINE
  8
0
 62
     0
 10
1130.18
 20
47.5022
 30
0.0
 11
1128.95
 21
47.6483
 31
0.0
  0
LINE
  8
0
 62
     0
 10
1128.95
 20
47.6483
 30
0.0
 11
1125.65
 21
47.9958
 31
0.0
  0
LINE
  8
0
 62
     0
 10
1125.65
 20
47.9958
 30
0.0
 11
1120.81
 21
48.4766
 31
0.0
  0
LINE
  8
0
 62
     0
 10
1120.81
 20
48.4766
 30
0.0
 11
1116.39
 21
48.8996
 31
0.0
  0
LINE
  8
0
 62
     0
 10
1116.39
 20
48.8996
 30
0.0
 11
1114.92
 21
49.0361
 31
0.0
  0
LINE
  8
0
 62
     0
 10
1114.92
 20
49.0361
 30
0.0
 11
1114.33
 21
49.0911
 31
0.0
  0
LINE
  8
0
 62
     0
 10
1114.33
 20
49.0911
 30
0.0
 11
1112.56
 21
49.2566
 31
0.0
  0
LINE
  8
0
 62
     0
 10
1112.56
 20
49.2566
 30
0.0
 11
1109.48
 21
49.542
 31
0.0
  0
LINE
  8
0
 62
     0
 10
1109.48
 20
49.542
 30
0.0
 11
1105.71
 21
49.8905
 31
0.0
  0
LINE
  8
0
 62
     0
 10
1105.71
 20
49.8905
 30
0.0
 11
1101.31
 21
50.2969
 31
0.0
  0
LINE
  8
0
 62
     0
 10
1101.31
 20
50.2969
 30
0.0
 11
1096.31
 21
50.7587
 31
0.0
  0
LINE
  8
0
 62
     0
 10
1096.31
 20
50.7587
 30
0.0
 11
1090.74
 21
51.2699
 31
0.0
  0
LINE
  8
0
 62
     0
 10
1090.74
 20
51.2699
 30
0.0
 11
1084.66
 21
51.8308
 31
0.0
  0
LINE
  8
0
 62
     0
 10
1084.66
 20
51.8308
 30
0.0
 11
1078.11
 21
52.433
 31
0.0
  0
LINE
  8
0
 62
     0
 10
1078.11
 20
52.433
 30
0.0
 11
1071.12
 21
53.0765
 31
0.0
  0
LINE
  8
0
 62
     0
 10
1071.12
 20
53.0765
 30
0.0
 11
1063.73
 21
53.7559
 31
0.0
  0
LINE
  8
0
 62
     0
 10
1063.73
 20
53.7559
 30
0.0
 11
1056
 21
54.4671
 31
0.0
  0
LINE
  8
0
 62
     0
 10
1056
 20
54.4671
 30
0.0
 11
1047.95
 21
55.2069
 31
0.0
  0
LINE
  8
0
 62
     0
 10
1047.95
 20
55.2069
 30
0.0
 11
1039.63
 21
55.9717
 31
0.0
  0
LINE
  8
0
 62
     0
 10
1039.63
 20
55.9717
 30
0.0
 11
1031.08
 21
56.7574
 31
0.0
  0
LINE
  8
0
 62
     0
 10
1031.08
 20
56.7574
 30
0.0
 11
1022.34
 21
57.5606
 31
0.0
  0
LINE
  8
0
 62
     0
 10
1022.34
 20
57.5606
 30
0.0
 11
1013.46
 21
58.3766
 31
0.0
  0
LINE
  8
0
 62
     0
 10
1013.46
 20
58.3766
 30
0.0
 11
1004.46
 21
59.2032
 31
0.0
  0
LINE
  8
0
 62
     0
 10
1004.46
 20
59.2032
 30
0.0
 11
995.405
 21
60.0343
 31
0.0
  0
LINE
  8
0
 62
     0
 10
995.405
 20
60.0343
 30
0.0
 11
986.324
 21
60.8693
 31
0.0
  0
LINE
  8
0
 62
     0
 10
986.324
 20
60.8693
 30
0.0
 11
977.261
 21
61.7015
 31
0.0
  0
LINE
  8
0
 62
     0
 10
977.261
 20
61.7015
 30
0.0
 11
968.255
 21
62.5285
 31
0.0
  0
LINE
  8
0
 62
     0
 10
968.255
 20
62.5285
 30
0.0
 11
959.347
 21
63.3469
 31
0.0
  0
LINE
  8
0
 62
     0
 10
959.347
 20
63.3469
 30
0.0
 11
950.581
 21
64.1533
 31
0.0
  0
LINE
  8
0
 62
     0
 10
950.581
 20
64.1533
 30
0.0
 11
941.994
 21
64.9414
 31
0.0
  0
LINE
  8
0
 62
     0
 10
941.994
 20
64.9414
 30
0.0
 11
933.63
 21
65.7105
 31
0.0
  0
LINE
  8
0
 62
     0
 10
933.63
 20
65.7105
 30
0.0
 11
925.53
 21
66.4545
 31
0.0
  0
LINE
  8
0
 62
     0
 10
925.53
 20
66.4545
 30
0.0
 11
917.737
 21
67.171
 31
0.0
  0
LINE
  8
0
 62
     0
 10
917.737
 20
67.171
 30
0.0
 11
910.287
 21
67.8561
 31
0.0
  0
LINE
  8
0
 62
     0
 10
910.287
 20
67.8561
 30
0.0
 11
903.224
 21
68.5052
 31
0.0
  0
LINE
  8
0
 62
     0
 10
903.224
 20
68.5052
 30
0.0
 11
896.588
 21
69.1155
 31
0.0
  0
LINE
  8
0
 62
     0
 10
896.588
 20
69.1155
 30
0.0
 11
890.422
 21
69.6831
 31
0.0
  0
LINE
  8
0
 62
     0
 10
890.422
 20
69.6831
 30
0.0
 11
886.178
 21
70.0733
 31
0.0
  0
LINE
  8
0
 62
     0
 10
886.178
 20
70.0733
 30
0.0
 11
884.767
 21
70.2028
 31
0.0
  0
LINE
  8
0
 62
     0
 10
884.767
 20
70.2028
 30
0.0
 11
854.251
 21
72.989
 31
0.0
  0
LINE
  8
0
 62
     0
 10
854.251
 20
72.989
 30
0.0
 11
796.925
 21
73.2014
 31
0.0
  0
LINE
  8
0
 62
     0
 10
796.925
 20
73.2014
 30
0.0
 11
793.771
 21
73.2137
 31
0.0
  0
LINE
  8
0
 62
     0
 10
793.771
 20
73.2137
 30
0.0
 11
784.31
 21
73.2497
 31
0.0
  0
LINE
  8
0
 62
     0
 10
784.31
 20
73.2497
 30
0.0
 11
770.622
 21
73.3005
 31
0.0
  0
LINE
  8
0
 62
     0
 10
770.622
 20
73.3005
 30
0.0
 11
755.957
 21
73.3559
 31
0.0
  0
LINE
  8
0
 62
     0
 10
755.957
 20
73.3559
 30
0.0
 11
740.41
 21
73.4124
 31
0.0
  0
LINE
  8
0
 62
     0
 10
740.41
 20
73.4124
 30
0.0
 11
724.066
 21
73.4716
 31
0.0
  0
LINE
  8
0
 62
     0
 10
724.066
 20
73.4716
 30
0.0
 11
707.027
 21
73.5323
 31
0.0
  0
LINE
  8
0
 62
     0
 10
707.027
 20
73.5323
 30
0.0
 11
689.384
 21
73.594
 31
0.0
  0
LINE
  8
0
 62
     0
 10
689.384
 20
73.594
 30
0.0
 11
671.227
 21
73.6589
 31
0.0
  0
LINE
  8
0
 62
     0
 10
671.227
 20
73.6589
 30
0.0
 11
652.653
 21
73.7235
 31
0.0
  0
LINE
  8
0
 62
     0
 10
652.653
 20
73.7235
 30
0.0
 11
633.751
 21
73.7884
 31
0.0
  0
LINE
  8
0
 62
     0
 10
633.751
 20
73.7884
 30
0.0
 11
614.616
 21
73.8547
 31
0.0
  0
LINE
  8
0
 62
     0
 10
614.616
 20
73.8547
 30
0.0
 11
595.344
 21
73.9207
 31
0.0
  0
LINE
  8
0
 62
     0
 10
595.344
 20
73.9207
 30
0.0
 11
576.026
 21
73.987
 31
0.0
  0
LINE
  8
0
 62
     0
 10
576.026
 20
73.987
 30
0.0
 11
556.757
 21
74.053
 31
0.0
  0
LINE
  8
0
 62
     0
 10
556.757
 20
74.053
 30
0.0
 11
537.626
 21
74.1179
 31
0.0
  0
LINE
  8
0
 62
     0
 10
537.626
 20
74.1179
 30
0.0
 11
518.732
 21
74.1811
 31
0.0
  0
LINE
  8
0
 62
     0
 10
518.732
 20
74.1811
 30
0.0
 11
500.165
 21
74.2431
 31
0.0
  0
LINE
  8
0
 62
     0
 10
500.165
 20
74.2431
 30
0.0
 11
482.018
 21
74.3038
 31
0.0
  0
LINE
  8
0
 62
     0
 10
482.018
 20
74.3038
 30
0.0
 11
464.383
 21
74.3617
 31
0.0
  0
LINE
  8
0
 62
     0
 10
464.383
 20
74.3617
 30
0.0
 11
447.354
 21
74.4167
 31
0.0
  0
LINE
  8
0
 62
     0
 10
447.354
 20
74.4167
 30
0.0
 11
431.027
 21
74.4707
 31
0.0
  0
LINE
  8
0
 62
     0
 10
431.027
 20
74.4707
 30
0.0
 11
415.495
 21
74.5201
 31
0.0
  0
LINE
  8
0
 62
     0
 10
415.495
 20
74.5201
 30
0.0
 11
400.847
 21
74.567
 31
0.0
  0
LINE
  8
0
 62
     0
 10
400.847
 20
74.567
 30
0.0
 11
387.181
 21
74.6111
 31
0.0
  0
LINE
  8
0
 62
     0
 10
387.181
 20
74.6111
 30
0.0
 11
374.586
 21
74.6495
 31
0.0
  0
LINE
  8
0
 62
     0
 10
374.586
 20
74.6495
 30
0.0
 11
363.16
 21
74.6855
 31
0.0
  0
LINE
  8
0
 62
     0
 10
363.16
 20
74.6855
 30
0.0
 11
352.993
 21
74.7159
 31
0.0
  0
LINE
  8
0
 62
     0
 10
352.993
 20
74.7159
 30
0.0
 11
344.176
 21
74.742
 31
0.0
  0
LINE
  8
0
 62
     0
 10
344.176
 20
74.742
 30
0.0
 11
336.806
 21
74.7628
 31
0.0
  0
LINE
  8
0
 62
     0
 10
336.806
 20
74.7628
 30
0.0
 11
330.977
 21
74.7765
 31
0.0
  0
LINE
  8
0
 62
     0
 10
330.977
 20
74.7765
 30
0.0
 11
326.78
 21
74.7861
 31
0.0
  0
LINE
  8
0
 62
     0
 10
326.78
 20
74.7861
 30
0.0
 11
324.926
 21
74.7889
 31
0.0
  0
LINE
  8
0
 62
     0
 10
324.926
 20
74.7889
 30
0.0
 11
324.309
 21
74.7889
 31
0.0
  0
LINE
  8
0
 62
     0
 10
324.309
 20
74.7889
 30
0.0
 11
306.211
 21
74.7889
 31
0.0
  0
LINE
  8
0
 62
     0
 10
306.211
 20
74.7889
 30
0.0
 11
306.211
 21
70.0624
 31
0.0
  0
ENDSEC
  0
EOF
