  0
SECTION
  2
HEADER
  9
$ACADVER
  1
AC1009
  9
$EXTMIN
 10
0.0
 20
0.0
 30
0.0
  9
$EXTMAX
 10
1000.0
 20
1000.0
 30
0.0
  9
$FILLMODE
 70
 0
  9
$SPLFRAME
 70
 1
  0
ENDSEC
  0
SECTION
  2
TABLES
  0
TABLE
  2
LAYER
 70
1
  0
LAYER
  2
0
 70
     0
 62
     7
  6
CONTINUOUS
  0
ENDTAB
  0
ENDSEC
  0
SECTION
  2
ENTITIES
  0
LINE
  8
0
 62
     0
 10
65.7931
 20
220.893
 30
0.0
 11
65.0378
 21
220.809
 31
0.0
  0
LINE
  8
0
 62
     0
 10
65.0378
 20
220.809
 30
0.0
 11
62.7849
 21
220.454
 31
0.0
  0
LINE
  8
0
 62
     0
 10
62.7849
 20
220.454
 30
0.0
 11
59.2709
 21
219.788
 31
0.0
  0
LINE
  8
0
 62
     0
 10
59.2709
 20
219.788
 30
0.0
 11
55.7361
 21
218.994
 31
0.0
  0
LINE
  8
0
 62
     0
 10
55.7361
 20
218.994
 30
0.0
 11
53.4293
 21
218.403
 31
0.0
  0
LINE
  8
0
 62
     0
 10
53.4293
 20
218.403
 30
0.0
 11
52.6701
 21
218.176
 31
0.0
  0
LINE
  8
0
 62
     0
 10
52.6701
 20
218.176
 30
0.0
 11
50.4377
 21
217.497
 31
0.0
  0
LINE
  8
0
 62
     0
 10
50.4377
 20
217.497
 30
0.0
 11
43.9085
 21
214.915
 31
0.0
  0
LINE
  8
0
 62
     0
 10
43.9085
 20
214.915
 30
0.0
 11
35.742
 21
210.676
 31
0.0
  0
LINE
  8
0
 62
     0
 10
35.742
 20
210.676
 30
0.0
 11
28.2319
 21
205.522
 31
0.0
  0
LINE
  8
0
 62
     0
 10
28.2319
 20
205.522
 30
0.0
 11
21.4437
 21
199.519
 31
0.0
  0
LINE
  8
0
 62
     0
 10
21.4437
 20
199.519
 30
0.0
 11
15.4409
 21
192.731
 31
0.0
  0
LINE
  8
0
 62
     0
 10
15.4409
 20
192.731
 30
0.0
 11
10.2871
 21
185.222
 31
0.0
  0
LINE
  8
0
 62
     0
 10
10.2871
 20
185.222
 30
0.0
 11
6.0482
 21
177.055
 31
0.0
  0
LINE
  8
0
 62
     0
 10
6.0482
 20
177.055
 30
0.0
 11
3.46577
 21
170.527
 31
0.0
  0
LINE
  8
0
 62
     0
 10
3.46577
 20
170.527
 30
0.0
 11
2.78639
 21
168.294
 31
0.0
  0
LINE
  8
0
 62
     0
 10
2.78639
 20
168.294
 30
0.0
 11
2.58244
 21
167.621
 31
0.0
  0
LINE
  8
0
 62
     0
 10
2.58244
 20
167.621
 30
0.0
 11
1.99815
 21
165.588
 31
0.0
  0
LINE
  8
0
 62
     0
 10
1.99815
 20
165.588
 30
0.0
 11
1.36839
 21
163.152
 31
0.0
  0
LINE
  8
0
 62
     0
 10
1.36839
 20
163.152
 30
0.0
 11
0.880565
 21
160.856
 31
0.0
  0
LINE
  8
0
 62
     0
 10
0.880565
 20
160.856
 30
0.0
 11
0.519522
 21
158.575
 31
0.0
  0
LINE
  8
0
 62
     0
 10
0.519522
 20
158.575
 30
0.0
 11
0.26734
 21
156.183
 31
0.0
  0
LINE
  8
0
 62
     0
 10
0.26734
 20
156.183
 30
0.0
 11
0.107487
 21
153.551
 31
0.0
  0
LINE
  8
0
 62
     0
 10
0.107487
 20
153.551
 30
0.0
 11
0.0234267
 21
150.551
 31
0.0
  0
LINE
  8
0
 62
     0
 10
0.0234267
 20
150.551
 30
0.0
 11
0
 21
147.93
 31
0.0
  0
LINE
  8
0
 62
     0
 10
0
 20
147.93
 30
0.0
 11
0
 21
147.056
 31
0.0
  0
LINE
  8
0
 62
     0
 10
0
 20
147.056
 30
0.0
 11
0
 21
145.845
 31
0.0
  0
LINE
  8
0
 62
     0
 10
0
 20
145.845
 30
0.0
 11
0.0275608
 21
142.208
 31
0.0
  0
LINE
  8
0
 62
     0
 10
0.0275608
 20
142.208
 30
0.0
 11
0.14056
 21
138.908
 31
0.0
  0
LINE
  8
0
 62
     0
 10
0.14056
 20
138.908
 30
0.0
 11
0.385851
 21
136.401
 31
0.0
  0
LINE
  8
0
 62
     0
 10
0.385851
 20
136.401
 30
0.0
 11
0.690397
 21
134.548
 31
0.0
  0
LINE
  8
0
 62
     0
 10
0.690397
 20
134.548
 30
0.0
 11
0.811664
 21
133.933
 31
0.0
  0
LINE
  8
0
 62
     0
 10
0.811664
 20
133.933
 30
0.0
 11
1.34221
 21
131.129
 31
0.0
  0
LINE
  8
0
 62
     0
 10
1.34221
 20
131.129
 30
0.0
 11
3.74276
 21
122.867
 31
0.0
  0
LINE
  8
0
 62
     0
 10
3.74276
 20
122.867
 30
0.0
 11
8.18416
 21
112.603
 31
0.0
  0
LINE
  8
0
 62
     0
 10
8.18416
 20
112.603
 30
0.0
 11
14.1056
 21
103.18
 31
0.0
  0
LINE
  8
0
 62
     0
 10
14.1056
 20
103.18
 30
0.0
 11
19.4923
 21
96.6251
 31
0.0
  0
LINE
  8
0
 62
     0
 10
19.4923
 20
96.6251
 30
0.0
 11
21.4836
 21
94.634
 31
0.0
  0
LINE
  8
0
 62
     0
 10
21.4836
 20
94.634
 30
0.0
 11
23.457
 21
92.6553
 31
0.0
  0
LINE
  8
0
 62
     0
 10
23.457
 20
92.6553
 30
0.0
 11
29.9572
 21
87.2917
 31
0.0
  0
LINE
  8
0
 62
     0
 10
29.9572
 20
87.2917
 30
0.0
 11
39.2987
 21
81.4007
 31
0.0
  0
LINE
  8
0
 62
     0
 10
39.2987
 20
81.4007
 30
0.0
 11
49.5131
 21
76.9592
 31
0.0
  0
LINE
  8
0
 62
     0
 10
49.5131
 20
76.9592
 30
0.0
 11
57.7949
 21
74.5162
 31
0.0
  0
LINE
  8
0
 62
     0
 10
57.7949
 20
74.5162
 30
0.0
 11
60.6076
 21
73.9606
 31
0.0
  0
LINE
  8
0
 62
     0
 10
60.6076
 20
73.9606
 30
0.0
 11
64.5583
 21
73.1492
 31
0.0
  0
LINE
  8
0
 62
     0
 10
64.5583
 20
73.1492
 30
0.0
 11
161.396
 21
72.9728
 31
0.0
  0
LINE
  8
0
 62
     0
 10
161.396
 20
72.9728
 30
0.0
 11
165.34
 21
72.9643
 31
0.0
  0
LINE
  8
0
 62
     0
 10
165.34
 20
72.9643
 30
0.0
 11
177.173
 21
72.9354
 31
0.0
  0
LINE
  8
0
 62
     0
 10
177.173
 20
72.9354
 30
0.0
 11
191.161
 21
72.8998
 31
0.0
  0
LINE
  8
0
 62
     0
 10
191.161
 20
72.8998
 30
0.0
 11
203.477
 21
72.8652
 31
0.0
  0
LINE
  8
0
 62
     0
 10
203.477
 20
72.8652
 30
0.0
 11
214.229
 21
72.832
 31
0.0
  0
LINE
  8
0
 62
     0
 10
214.229
 20
72.832
 30
0.0
 11
223.53
 21
72.7975
 31
0.0
  0
LINE
  8
0
 62
     0
 10
223.53
 20
72.7975
 30
0.0
 11
231.494
 21
72.7618
 31
0.0
  0
LINE
  8
0
 62
     0
 10
231.494
 20
72.7618
 30
0.0
 11
238.231
 21
72.7244
 31
0.0
  0
LINE
  8
0
 62
     0
 10
238.231
 20
72.7244
 30
0.0
 11
243.858
 21
72.6832
 31
0.0
  0
LINE
  8
0
 62
     0
 10
243.858
 20
72.6832
 30
0.0
 11
248.482
 21
72.6376
 31
0.0
  0
LINE
  8
0
 62
     0
 10
248.482
 20
72.6376
 30
0.0
 11
252.218
 21
72.5883
 31
0.0
  0
LINE
  8
0
 62
     0
 10
252.218
 20
72.5883
 30
0.0
 11
255.18
 21
72.5318
 31
0.0
  0
LINE
  8
0
 62
     0
 10
255.18
 20
72.5318
 30
0.0
 11
257.478
 21
72.4683
 31
0.0
  0
LINE
  8
0
 62
     0
 10
257.478
 20
72.4683
 30
0.0
 11
259.226
 21
72.3967
 31
0.0
  0
LINE
  8
0
 62
     0
 10
259.226
 20
72.3967
 30
0.0
 11
260.536
 21
72.3166
 31
0.0
  0
LINE
  8
0
 62
     0
 10
260.536
 20
72.3166
 30
0.0
 11
261.519
 21
72.227
 31
0.0
  0
LINE
  8
0
 62
     0
 10
261.519
 20
72.227
 30
0.0
 11
262.097
 21
72.1554
 31
0.0
  0
LINE
  8
0
 62
     0
 10
262.097
 20
72.1554
 30
0.0
 11
262.29
 21
72.1265
 31
0.0
  0
LINE
  8
0
 62
     0
 10
262.29
 20
72.1265
 30
0.0
 11
263.456
 21
71.9543
 31
0.0
  0
LINE
  8
0
 62
     0
 10
263.456
 20
71.9543
 30
0.0
 11
266.938
 21
71.3176
 31
0.0
  0
LINE
  8
0
 62
     0
 10
266.938
 20
71.3176
 30
0.0
 11
271.232
 21
70.3255
 31
0.0
  0
LINE
  8
0
 62
     0
 10
271.232
 20
70.3255
 30
0.0
 11
275.142
 21
69.1667
 31
0.0
  0
LINE
  8
0
 62
     0
 10
275.142
 20
69.1667
 30
0.0
 11
278.637
 21
67.8505
 31
0.0
  0
LINE
  8
0
 62
     0
 10
278.637
 20
67.8505
 30
0.0
 11
281.686
 21
66.3924
 31
0.0
  0
LINE
  8
0
 62
     0
 10
281.686
 20
66.3924
 30
0.0
 11
284.262
 21
64.8049
 31
0.0
  0
LINE
  8
0
 62
     0
 10
284.262
 20
64.8049
 30
0.0
 11
286.331
 21
63.1031
 31
0.0
  0
LINE
  8
0
 62
     0
 10
286.331
 20
63.1031
 30
0.0
 11
287.536
 21
61.7844
 31
0.0
  0
LINE
  8
0
 62
     0
 10
287.536
 20
61.7844
 30
0.0
 11
287.867
 21
61.2965
 31
0.0
  0
LINE
  8
0
 62
     0
 10
287.867
 20
61.2965
 30
0.0
 11
287.969
 21
61.1434
 31
0.0
  0
LINE
  8
0
 62
     0
 10
287.969
 20
61.1434
 30
0.0
 11
288.283
 21
60.6848
 31
0.0
  0
LINE
  8
0
 62
     0
 10
288.283
 20
60.6848
 30
0.0
 11
288.655
 21
60.1543
 31
0.0
  0
LINE
  8
0
 62
     0
 10
288.655
 20
60.1543
 30
0.0
 11
288.943
 21
59.7641
 31
0.0
  0
LINE
  8
0
 62
     0
 10
288.943
 20
59.7641
 30
0.0
 11
289.074
 21
59.5947
 31
0.0
  0
LINE
  8
0
 62
     0
 10
289.074
 20
59.5947
 30
0.0
 11
289.101
 21
59.5672
 31
0.0
  0
LINE
  8
0
 62
     0
 10
289.101
 20
59.5672
 30
0.0
 11
289.127
 21
59.5408
 31
0.0
  0
LINE
  8
0
 62
     0
 10
289.127
 20
59.5408
 30
0.0
 11
289.31
 21
59.2183
 31
0.0
  0
LINE
  8
0
 62
     0
 10
289.31
 20
59.2183
 30
0.0
 11
289.741
 21
58.408
 31
0.0
  0
LINE
  8
0
 62
     0
 10
289.741
 20
58.408
 30
0.0
 11
290.336
 21
57.2615
 31
0.0
  0
LINE
  8
0
 62
     0
 10
290.336
 20
57.2615
 30
0.0
 11
290.865
 21
56.2391
 31
0.0
  0
LINE
  8
0
 62
     0
 10
290.865
 20
56.2391
 30
0.0
 11
291.042
 21
55.8987
 31
0.0
  0
LINE
  8
0
 62
     0
 10
291.042
 20
55.8987
 30
0.0
 11
291.89
 21
54.2121
 31
0.0
  0
LINE
  8
0
 62
     0
 10
291.89
 20
54.2121
 30
0.0
 11
294.815
 21
49.3367
 31
0.0
  0
LINE
  8
0
 62
     0
 10
294.815
 20
49.3367
 30
0.0
 11
299.406
 21
42.9867
 31
0.0
  0
LINE
  8
0
 62
     0
 10
299.406
 20
42.9867
 30
0.0
 11
304.759
 21
36.9023
 31
0.0
  0
LINE
  8
0
 62
     0
 10
304.759
 20
36.9023
 30
0.0
 11
310.814
 21
31.1299
 31
0.0
  0
LINE
  8
0
 62
     0
 10
310.814
 20
31.1299
 30
0.0
 11
317.519
 21
25.7197
 31
0.0
  0
LINE
  8
0
 62
     0
 10
317.519
 20
25.7197
 30
0.0
 11
324.814
 21
20.7216
 31
0.0
  0
LINE
  8
0
 62
     0
 10
324.814
 20
20.7216
 30
0.0
 11
332.648
 21
16.1837
 31
0.0
  0
LINE
  8
0
 62
     0
 10
332.648
 20
16.1837
 30
0.0
 11
338.847
 21
13.0845
 31
0.0
  0
LINE
  8
0
 62
     0
 10
338.847
 20
13.0845
 30
0.0
 11
340.96
 21
12.1543
 31
0.0
  0
LINE
  8
0
 62
     0
 10
340.96
 20
12.1543
 30
0.0
 11
343.29
 21
11.1304
 31
0.0
  0
LINE
  8
0
 62
     0
 10
343.29
 20
11.1304
 30
0.0
 11
350.434
 21
8.39914
 31
0.0
  0
LINE
  8
0
 62
     0
 10
350.434
 20
8.39914
 30
0.0
 11
360.345
 21
5.31922
 31
0.0
  0
LINE
  8
0
 62
     0
 10
360.345
 20
5.31922
 30
0.0
 11
371.101
 21
2.80844
 31
0.0
  0
LINE
  8
0
 62
     0
 10
371.101
 20
2.80844
 30
0.0
 11
380.1
 21
1.19614
 31
0.0
  0
LINE
  8
0
 62
     0
 10
380.1
 20
1.19614
 30
0.0
 11
383.117
 21
0.759298
 31
0.0
  0
LINE
  8
0
 62
     0
 10
383.117
 20
0.759298
 30
0.0
 11
383.219
 21
0.745518
 31
0.0
  0
LINE
  8
0
 62
     0
 10
383.219
 20
0.745518
 30
0.0
 11
383.522
 21
0.708311
 31
0.0
  0
LINE
  8
0
 62
     0
 10
383.522
 20
0.708311
 30
0.0
 11
384.013
 21
0.660079
 31
0.0
  0
LINE
  8
0
 62
     0
 10
384.013
 20
0.660079
 30
0.0
 11
384.62
 21
0.614606
 31
0.0
  0
LINE
  8
0
 62
     0
 10
384.62
 20
0.614606
 30
0.0
 11
385.378
 21
0.571885
 31
0.0
  0
LINE
  8
0
 62
     0
 10
385.378
 20
0.571885
 30
0.0
 11
386.32
 21
0.531922
 31
0.0
  0
LINE
  8
0
 62
     0
 10
386.32
 20
0.531922
 30
0.0
 11
387.477
 21
0.494714
 31
0.0
  0
LINE
  8
0
 62
     0
 10
387.477
 20
0.494714
 30
0.0
 11
388.885
 21
0.460266
 31
0.0
  0
LINE
  8
0
 62
     0
 10
388.885
 20
0.460266
 30
0.0
 11
390.571
 21
0.427193
 31
0.0
  0
LINE
  8
0
 62
     0
 10
390.571
 20
0.427193
 30
0.0
 11
392.571
 21
0.396875
 31
0.0
  0
LINE
  8
0
 62
     0
 10
392.571
 20
0.396875
 30
0.0
 11
394.917
 21
0.367937
 31
0.0
  0
LINE
  8
0
 62
     0
 10
394.917
 20
0.367937
 30
0.0
 11
397.644
 21
0.341753
 31
0.0
  0
LINE
  8
0
 62
     0
 10
397.644
 20
0.341753
 30
0.0
 11
400.78
 21
0.316949
 31
0.0
  0
LINE
  8
0
 62
     0
 10
400.78
 20
0.316949
 30
0.0
 11
404.361
 21
0.2949
 31
0.0
  0
LINE
  8
0
 62
     0
 10
404.361
 20
0.2949
 30
0.0
 11
408.418
 21
0.272852
 31
0.0
  0
LINE
  8
0
 62
     0
 10
408.418
 20
0.272852
 30
0.0
 11
412.986
 21
0.253559
 31
0.0
  0
LINE
  8
0
 62
     0
 10
412.986
 20
0.253559
 30
0.0
 11
418.095
 21
0.235645
 31
0.0
  0
LINE
  8
0
 62
     0
 10
418.095
 20
0.235645
 30
0.0
 11
423.778
 21
0.219108
 31
0.0
  0
LINE
  8
0
 62
     0
 10
423.778
 20
0.219108
 30
0.0
 11
430.068
 21
0.20395
 31
0.0
  0
LINE
  8
0
 62
     0
 10
430.068
 20
0.20395
 30
0.0
 11
437
 21
0.188791
 31
0.0
  0
LINE
  8
0
 62
     0
 10
437
 20
0.188791
 30
0.0
 11
444.602
 21
0.175011
 31
0.0
  0
LINE
  8
0
 62
     0
 10
444.602
 20
0.175011
 30
0.0
 11
452.91
 21
0.162609
 31
0.0
  0
LINE
  8
0
 62
     0
 10
452.91
 20
0.162609
 30
0.0
 11
461.959
 21
0.151584
 31
0.0
  0
LINE
  8
0
 62
     0
 10
461.959
 20
0.151584
 30
0.0
 11
471.773
 21
0.14056
 31
0.0
  0
LINE
  8
0
 62
     0
 10
471.773
 20
0.14056
 30
0.0
 11
482.395
 21
0.129536
 31
0.0
  0
LINE
  8
0
 62
     0
 10
482.395
 20
0.129536
 30
0.0
 11
493.85
 21
0.119889
 31
0.0
  0
LINE
  8
0
 62
     0
 10
493.85
 20
0.119889
 30
0.0
 11
506.173
 21
0.110243
 31
0.0
  0
LINE
  8
0
 62
     0
 10
506.173
 20
0.110243
 30
0.0
 11
519.398
 21
0.101975
 31
0.0
  0
LINE
  8
0
 62
     0
 10
519.398
 20
0.101975
 30
0.0
 11
533.559
 21
0.0923286
 31
0.0
  0
LINE
  8
0
 62
     0
 10
533.559
 20
0.0923286
 30
0.0
 11
548.682
 21
0.0826823
 31
0.0
  0
LINE
  8
0
 62
     0
 10
548.682
 20
0.0826823
 30
0.0
 11
564.804
 21
0.0730359
 31
0.0
  0
LINE
  8
0
 62
     0
 10
564.804
 20
0.0730359
 30
0.0
 11
581.96
 21
0.0647679
 31
0.0
  0
LINE
  8
0
 62
     0
 10
581.96
 20
0.0647679
 30
0.0
 11
595.626
 21
0.0564995
 31
0.0
  0
LINE
  8
0
 62
     0
 10
595.626
 20
0.0564995
 30
0.0
 11
600.181
 21
0.0537436
 31
0.0
  0
LINE
  8
0
 62
     0
 10
600.181
 20
0.0537436
 30
0.0
 11
605.395
 21
0.0523656
 31
0.0
  0
LINE
  8
0
 62
     0
 10
605.395
 20
0.0523656
 30
0.0
 11
621.037
 21
0.0440972
 31
0.0
  0
LINE
  8
0
 62
     0
 10
621.037
 20
0.0440972
 30
0.0
 11
640.503
 21
0.034451
 31
0.0
  0
LINE
  8
0
 62
     0
 10
640.503
 20
0.034451
 30
0.0
 11
658.626
 21
0.0248047
 31
0.0
  0
LINE
  8
0
 62
     0
 10
658.626
 20
0.0248047
 30
0.0
 11
675.45
 21
0.0165365
 31
0.0
  0
LINE
  8
0
 62
     0
 10
675.45
 20
0.0165365
 30
0.0
 11
691.032
 21
0.00964629
 31
0.0
  0
LINE
  8
0
 62
     0
 10
691.032
 20
0.00964629
 30
0.0
 11
705.418
 21
0.00413413
 31
0.0
  0
LINE
  8
0
 62
     0
 10
705.418
 20
0.00413413
 30
0.0
 11
718.654
 21
0.00137804
 31
0.0
  0
LINE
  8
0
 62
     0
 10
718.654
 20
0.00137804
 30
0.0
 11
730.79
 21
0.00137804
 31
0.0
  0
LINE
  8
0
 62
     0
 10
730.79
 20
0.00137804
 30
0.0
 11
741.878
 21
0.00275608
 31
0.0
  0
LINE
  8
0
 62
     0
 10
741.878
 20
0.00275608
 30
0.0
 11
751.96
 21
0.00826823
 31
0.0
  0
LINE
  8
0
 62
     0
 10
751.96
 20
0.00826823
 30
0.0
 11
761.093
 21
0.0179145
 31
0.0
  0
LINE
  8
0
 62
     0
 10
761.093
 20
0.0179145
 30
0.0
 11
769.324
 21
0.0303168
 31
0.0
  0
LINE
  8
0
 62
     0
 10
769.324
 20
0.0303168
 30
0.0
 11
776.697
 21
0.0468535
 31
0.0
  0
LINE
  8
0
 62
     0
 10
776.697
 20
0.0468535
 30
0.0
 11
783.265
 21
0.0689021
 31
0.0
  0
LINE
  8
0
 62
     0
 10
783.265
 20
0.0689021
 30
0.0
 11
789.079
 21
0.0964629
 31
0.0
  0
LINE
  8
0
 62
     0
 10
789.079
 20
0.0964629
 30
0.0
 11
794.18
 21
0.129536
 31
0.0
  0
LINE
  8
0
 62
     0
 10
794.18
 20
0.129536
 30
0.0
 11
798.625
 21
0.168121
 31
0.0
  0
LINE
  8
0
 62
     0
 10
798.625
 20
0.168121
 30
0.0
 11
802.46
 21
0.212218
 31
0.0
  0
LINE
  8
0
 62
     0
 10
802.46
 20
0.212218
 30
0.0
 11
805.73
 21
0.264583
 31
0.0
  0
LINE
  8
0
 62
     0
 10
805.73
 20
0.264583
 30
0.0
 11
808.493
 21
0.322461
 31
0.0
  0
LINE
  8
0
 62
     0
 10
808.493
 20
0.322461
 30
0.0
 11
810.789
 21
0.388606
 31
0.0
  0
LINE
  8
0
 62
     0
 10
810.789
 20
0.388606
 30
0.0
 11
812.669
 21
0.463021
 31
0.0
  0
LINE
  8
0
 62
     0
 10
812.669
 20
0.463021
 30
0.0
 11
814.186
 21
0.544326
 31
0.0
  0
LINE
  8
0
 62
     0
 10
814.186
 20
0.544326
 30
0.0
 11
815.386
 21
0.635275
 31
0.0
  0
LINE
  8
0
 62
     0
 10
815.386
 20
0.635275
 30
0.0
 11
816.317
 21
0.734494
 31
0.0
  0
LINE
  8
0
 62
     0
 10
816.317
 20
0.734494
 30
0.0
 11
817.026
 21
0.843361
 31
0.0
  0
LINE
  8
0
 62
     0
 10
817.026
 20
0.843361
 30
0.0
 11
817.57
 21
0.96187
 31
0.0
  0
LINE
  8
0
 62
     0
 10
817.57
 20
0.96187
 30
0.0
 11
817.989
 21
1.09003
 31
0.0
  0
LINE
  8
0
 62
     0
 10
817.989
 20
1.09003
 30
0.0
 11
818.339
 21
1.22921
 31
0.0
  0
LINE
  8
0
 62
     0
 10
818.339
 20
1.22921
 30
0.0
 11
818.66
 21
1.37804
 31
0.0
  0
LINE
  8
0
 62
     0
 10
818.66
 20
1.37804
 30
0.0
 11
819.009
 21
1.53927
 31
0.0
  0
LINE
  8
0
 62
     0
 10
819.009
 20
1.53927
 30
0.0
 11
819.326
 21
1.67156
 31
0.0
  0
LINE
  8
0
 62
     0
 10
819.326
 20
1.67156
 30
0.0
 11
819.432
 21
1.71152
 31
0.0
  0
LINE
  8
0
 62
     0
 10
819.432
 20
1.71152
 30
0.0
 11
820.342
 21
2.05466
 31
0.0
  0
LINE
  8
0
 62
     0
 10
820.342
 20
2.05466
 30
0.0
 11
822.925
 21
3.46163
 31
0.0
  0
LINE
  8
0
 62
     0
 10
822.925
 20
3.46163
 30
0.0
 11
826.47
 21
5.9986
 31
0.0
  0
LINE
  8
0
 62
     0
 10
826.47
 20
5.9986
 30
0.0
 11
829.751
 21
9.06473
 31
0.0
  0
LINE
  8
0
 62
     0
 10
829.751
 20
9.06473
 30
0.0
 11
831.85
 21
11.5176
 31
0.0
  0
LINE
  8
0
 62
     0
 10
831.85
 20
11.5176
 30
0.0
 11
832.45
 21
12.401
 31
0.0
  0
LINE
  8
0
 62
     0
 10
832.45
 20
12.401
 30
0.0
 11
832.845
 21
12.9839
 31
0.0
  0
LINE
  8
0
 62
     0
 10
832.845
 20
12.9839
 30
0.0
 11
833.91
 21
14.8167
 31
0.0
  0
LINE
  8
0
 62
     0
 10
833.91
 20
14.8167
 30
0.0
 11
835.304
 21
17.592
 31
0.0
  0
LINE
  8
0
 62
     0
 10
835.304
 20
17.592
 30
0.0
 11
836.503
 21
20.4542
 31
0.0
  0
LINE
  8
0
 62
     0
 10
836.503
 20
20.4542
 30
0.0
 11
837.202
 21
22.4496
 31
0.0
  0
LINE
  8
0
 62
     0
 10
837.202
 20
22.4496
 30
0.0
 11
837.389
 21
23.1262
 31
0.0
  0
LINE
  8
0
 62
     0
 10
837.389
 20
23.1262
 30
0.0
 11
837.449
 21
23.3495
 31
0.0
  0
LINE
  8
0
 62
     0
 10
837.449
 20
23.3495
 30
0.0
 11
837.614
 21
24.022
 31
0.0
  0
LINE
  8
0
 62
     0
 10
837.614
 20
24.022
 30
0.0
 11
837.794
 21
24.959
 31
0.0
  0
LINE
  8
0
 62
     0
 10
837.794
 20
24.959
 30
0.0
 11
837.939
 21
26.0532
 31
0.0
  0
LINE
  8
0
 62
     0
 10
837.939
 20
26.0532
 30
0.0
 11
838.055
 21
27.4175
 31
0.0
  0
LINE
  8
0
 62
     0
 10
838.055
 20
27.4175
 30
0.0
 11
838.147
 21
29.1662
 31
0.0
  0
LINE
  8
0
 62
     0
 10
838.147
 20
29.1662
 30
0.0
 11
838.225
 21
31.4151
 31
0.0
  0
LINE
  8
0
 62
     0
 10
838.225
 20
31.4151
 30
0.0
 11
838.299
 21
34.2801
 31
0.0
  0
LINE
  8
0
 62
     0
 10
838.299
 20
34.2801
 30
0.0
 11
838.359
 21
36.9743
 31
0.0
  0
LINE
  8
0
 62
     0
 10
838.359
 20
36.9743
 30
0.0
 11
838.376
 21
37.8714
 31
0.0
  0
LINE
  8
0
 62
     0
 10
838.376
 20
37.8714
 30
0.0
 11
838.408
 21
39.3718
 31
0.0
  0
LINE
  8
0
 62
     0
 10
838.408
 20
39.3718
 30
0.0
 11
838.535
 21
43.8711
 31
0.0
  0
LINE
  8
0
 62
     0
 10
838.535
 20
43.8711
 30
0.0
 11
838.708
 21
47.8744
 31
0.0
  0
LINE
  8
0
 62
     0
 10
838.708
 20
47.8744
 30
0.0
 11
838.927
 21
50.395
 31
0.0
  0
LINE
  8
0
 62
     0
 10
838.927
 20
50.395
 30
0.0
 11
839.117
 21
51.5691
 31
0.0
  0
LINE
  8
0
 62
     0
 10
839.117
 20
51.5691
 30
0.0
 11
839.223
 21
51.9479
 31
0.0
  0
LINE
  8
0
 62
     0
 10
839.223
 20
51.9479
 30
0.0
 11
839.488
 21
52.8948
 31
0.0
  0
LINE
  8
0
 62
     0
 10
839.488
 20
52.8948
 30
0.0
 11
840.574
 21
55.6521
 31
0.0
  0
LINE
  8
0
 62
     0
 10
840.574
 20
55.6521
 30
0.0
 11
842.447
 21
59.0557
 31
0.0
  0
LINE
  8
0
 62
     0
 10
842.447
 20
59.0557
 30
0.0
 11
844.829
 21
62.1467
 31
0.0
  0
LINE
  8
0
 62
     0
 10
844.829
 20
62.1467
 30
0.0
 11
847.704
 21
64.9125
 31
0.0
  0
LINE
  8
0
 62
     0
 10
847.704
 20
64.9125
 30
0.0
 11
851.048
 21
67.3421
 31
0.0
  0
LINE
  8
0
 62
     0
 10
851.048
 20
67.3421
 30
0.0
 11
854.855
 21
69.4214
 31
0.0
  0
LINE
  8
0
 62
     0
 10
854.855
 20
69.4214
 30
0.0
 11
859.102
 21
71.1369
 31
0.0
  0
LINE
  8
0
 62
     0
 10
859.102
 20
71.1369
 30
0.0
 11
862.595
 21
72.2009
 31
0.0
  0
LINE
  8
0
 62
     0
 10
862.595
 20
72.2009
 30
0.0
 11
863.776
 21
72.4793
 31
0.0
  0
LINE
  8
0
 62
     0
 10
863.776
 20
72.4793
 30
0.0
 11
863.91
 21
72.511
 31
0.0
  0
LINE
  8
0
 62
     0
 10
863.91
 20
72.511
 30
0.0
 11
864.313
 21
72.5854
 31
0.0
  0
LINE
  8
0
 62
     0
 10
864.313
 20
72.5854
 30
0.0
 11
865.075
 21
72.6793
 31
0.0
  0
LINE
  8
0
 62
     0
 10
865.075
 20
72.6793
 30
0.0
 11
866.189
 21
72.7632
 31
0.0
  0
LINE
  8
0
 62
     0
 10
866.189
 20
72.7632
 30
0.0
 11
867.794
 21
72.8349
 31
0.0
  0
LINE
  8
0
 62
     0
 10
867.794
 20
72.8349
 30
0.0
 11
870.013
 21
72.8998
 31
0.0
  0
LINE
  8
0
 62
     0
 10
870.013
 20
72.8998
 30
0.0
 11
872.98
 21
72.9562
 31
0.0
  0
LINE
  8
0
 62
     0
 10
872.98
 20
72.9562
 30
0.0
 11
876.822
 21
73.0042
 31
0.0
  0
LINE
  8
0
 62
     0
 10
876.822
 20
73.0042
 30
0.0
 11
881.68
 21
73.0483
 31
0.0
  0
LINE
  8
0
 62
     0
 10
881.68
 20
73.0483
 30
0.0
 11
887.677
 21
73.0885
 31
0.0
  0
LINE
  8
0
 62
     0
 10
887.677
 20
73.0885
 30
0.0
 11
894.944
 21
73.1241
 31
0.0
  0
LINE
  8
0
 62
     0
 10
894.944
 20
73.1241
 30
0.0
 11
903.616
 21
73.1573
 31
0.0
  0
LINE
  8
0
 62
     0
 10
903.616
 20
73.1573
 30
0.0
 11
913.821
 21
73.189
 31
0.0
  0
LINE
  8
0
 62
     0
 10
913.821
 20
73.189
 30
0.0
 11
925.692
 21
73.2208
 31
0.0
  0
LINE
  8
0
 62
     0
 10
925.692
 20
73.2208
 30
0.0
 11
939.359
 21
73.2536
 31
0.0
  0
LINE
  8
0
 62
     0
 10
939.359
 20
73.2536
 30
0.0
 11
954.955
 21
73.2882
 31
0.0
  0
LINE
  8
0
 62
     0
 10
954.955
 20
73.2882
 30
0.0
 11
968.195
 21
73.3171
 31
0.0
  0
LINE
  8
0
 62
     0
 10
968.195
 20
73.3171
 30
0.0
 11
972.608
 21
73.3256
 31
0.0
  0
LINE
  8
0
 62
     0
 10
972.608
 20
73.3256
 30
0.0
 11
975.24
 21
73.3309
 31
0.0
  0
LINE
  8
0
 62
     0
 10
975.24
 20
73.3309
 30
0.0
 11
983.142
 21
73.3446
 31
0.0
  0
LINE
  8
0
 62
     0
 10
983.142
 20
73.3446
 30
0.0
 11
992.967
 21
73.3626
 31
0.0
  0
LINE
  8
0
 62
     0
 10
992.967
 20
73.3626
 30
0.0
 11
1002.1
 21
73.3778
 31
0.0
  0
LINE
  8
0
 62
     0
 10
1002.1
 20
73.3778
 30
0.0
 11
1010.58
 21
73.3929
 31
0.0
  0
LINE
  8
0
 62
     0
 10
1010.58
 20
73.3929
 30
0.0
 11
1018.43
 21
73.4067
 31
0.0
  0
LINE
  8
0
 62
     0
 10
1018.43
 20
73.4067
 30
0.0
 11
1025.66
 21
73.4219
 31
0.0
  0
LINE
  8
0
 62
     0
 10
1025.66
 20
73.4219
 30
0.0
 11
1032.32
 21
73.437
 31
0.0
  0
LINE
  8
0
 62
     0
 10
1032.32
 20
73.437
 30
0.0
 11
1038.42
 21
73.455
 31
0.0
  0
LINE
  8
0
 62
     0
 10
1038.42
 20
73.455
 30
0.0
 11
1043.99
 21
73.473
 31
0.0
  0
LINE
  8
0
 62
     0
 10
1043.99
 20
73.473
 30
0.0
 11
1049.06
 21
73.4935
 31
0.0
  0
LINE
  8
0
 62
     0
 10
1049.06
 20
73.4935
 30
0.0
 11
1053.64
 21
73.5157
 31
0.0
  0
LINE
  8
0
 62
     0
 10
1053.64
 20
73.5157
 30
0.0
 11
1057.79
 21
73.5418
 31
0.0
  0
LINE
  8
0
 62
     0
 10
1057.79
 20
73.5418
 30
0.0
 11
1061.5
 21
73.5722
 31
0.0
  0
LINE
  8
0
 62
     0
 10
1061.5
 20
73.5722
 30
0.0
 11
1064.82
 21
73.6064
 31
0.0
  0
LINE
  8
0
 62
     0
 10
1064.82
 20
73.6064
 30
0.0
 11
1067.76
 21
73.6452
 31
0.0
  0
LINE
  8
0
 62
     0
 10
1067.76
 20
73.6452
 30
0.0
 11
1070.36
 21
73.6879
 31
0.0
  0
LINE
  8
0
 62
     0
 10
1070.36
 20
73.6879
 30
0.0
 11
1072.64
 21
73.7376
 31
0.0
  0
LINE
  8
0
 62
     0
 10
1072.64
 20
73.7376
 30
0.0
 11
1074.62
 21
73.7926
 31
0.0
  0
LINE
  8
0
 62
     0
 10
1074.62
 20
73.7926
 30
0.0
 11
1076.34
 21
73.8547
 31
0.0
  0
LINE
  8
0
 62
     0
 10
1076.34
 20
73.8547
 30
0.0
 11
1077.82
 21
73.9235
 31
0.0
  0
LINE
  8
0
 62
     0
 10
1077.82
 20
73.9235
 30
0.0
 11
1079.08
 21
73.9994
 31
0.0
  0
LINE
  8
0
 62
     0
 10
1079.08
 20
73.9994
 30
0.0
 11
1080.15
 21
74.0847
 31
0.0
  0
LINE
  8
0
 62
     0
 10
1080.15
 20
74.0847
 30
0.0
 11
1081.06
 21
74.1772
 31
0.0
  0
LINE
  8
0
 62
     0
 10
1081.06
 20
74.1772
 30
0.0
 11
1081.83
 21
74.2791
 31
0.0
  0
LINE
  8
0
 62
     0
 10
1081.83
 20
74.2791
 30
0.0
 11
1082.49
 21
74.3906
 31
0.0
  0
LINE
  8
0
 62
     0
 10
1082.49
 20
74.3906
 30
0.0
 11
1083.06
 21
74.512
 31
0.0
  0
LINE
  8
0
 62
     0
 10
1083.06
 20
74.512
 30
0.0
 11
1083.58
 21
74.6442
 31
0.0
  0
LINE
  8
0
 62
     0
 10
1083.58
 20
74.6442
 30
0.0
 11
1084.06
 21
74.7875
 31
0.0
  0
LINE
  8
0
 62
     0
 10
1084.06
 20
74.7875
 30
0.0
 11
1084.54
 21
74.942
 31
0.0
  0
LINE
  8
0
 62
     0
 10
1084.54
 20
74.942
 30
0.0
 11
1085.04
 21
75.1085
 31
0.0
  0
LINE
  8
0
 62
     0
 10
1085.04
 20
75.1085
 30
0.0
 11
1085.59
 21
75.2863
 31
0.0
  0
LINE
  8
0
 62
     0
 10
1085.59
 20
75.2863
 30
0.0
 11
1086.05
 21
75.4324
 31
0.0
  0
LINE
  8
0
 62
     0
 10
1086.05
 20
75.4324
 30
0.0
 11
1086.2
 21
75.4779
 31
0.0
  0
LINE
  8
0
 62
     0
 10
1086.2
 20
75.4779
 30
0.0
 11
1087.99
 21
76.0113
 31
0.0
  0
LINE
  8
0
 62
     0
 10
1087.99
 20
76.0113
 30
0.0
 11
1093.19
 21
78.1293
 31
0.0
  0
LINE
  8
0
 62
     0
 10
1093.19
 20
78.1293
 30
0.0
 11
1099.66
 21
81.7136
 31
0.0
  0
LINE
  8
0
 62
     0
 10
1099.66
 20
81.7136
 30
0.0
 11
1105.53
 21
86.1427
 31
0.0
  0
LINE
  8
0
 62
     0
 10
1105.53
 20
86.1427
 30
0.0
 11
1110.73
 21
91.331
 31
0.0
  0
LINE
  8
0
 62
     0
 10
1110.73
 20
91.331
 30
0.0
 11
1115.18
 21
97.1931
 31
0.0
  0
LINE
  8
0
 62
     0
 10
1115.18
 20
97.1931
 30
0.0
 11
1118.8
 21
103.641
 31
0.0
  0
LINE
  8
0
 62
     0
 10
1118.8
 20
103.641
 30
0.0
 11
1121.51
 21
110.59
 31
0.0
  0
LINE
  8
0
 62
     0
 10
1121.51
 20
110.59
 30
0.0
 11
1122.94
 21
116.09
 31
0.0
  0
LINE
  8
0
 62
     0
 10
1122.94
 20
116.09
 30
0.0
 11
1123.24
 21
117.952
 31
0.0
  0
LINE
  8
0
 62
     0
 10
1123.24
 20
117.952
 30
0.0
 11
1123.4
 21
118.878
 31
0.0
  0
LINE
  8
0
 62
     0
 10
1123.4
 20
118.878
 30
0.0
 11
1123.62
 21
121.695
 31
0.0
  0
LINE
  8
0
 62
     0
 10
1123.62
 20
121.695
 30
0.0
 11
1123.75
 21
126.243
 31
0.0
  0
LINE
  8
0
 62
     0
 10
1123.75
 20
126.243
 30
0.0
 11
1123.62
 21
130.792
 31
0.0
  0
LINE
  8
0
 62
     0
 10
1123.62
 20
130.792
 30
0.0
 11
1123.4
 21
133.608
 31
0.0
  0
LINE
  8
0
 62
     0
 10
1123.4
 20
133.608
 30
0.0
 11
1123.24
 21
134.533
 31
0.0
  0
LINE
  8
0
 62
     0
 10
1123.24
 20
134.533
 30
0.0
 11
1122.94
 21
136.417
 31
0.0
  0
LINE
  8
0
 62
     0
 10
1122.94
 20
136.417
 30
0.0
 11
1121.49
 21
141.987
 31
0.0
  0
LINE
  8
0
 62
     0
 10
1121.49
 20
141.987
 30
0.0
 11
1118.75
 21
149.002
 31
0.0
  0
LINE
  8
0
 62
     0
 10
1118.75
 20
149.002
 30
0.0
 11
1115.08
 21
155.494
 31
0.0
  0
LINE
  8
0
 62
     0
 10
1115.08
 20
155.494
 30
0.0
 11
1110.56
 21
161.379
 31
0.0
  0
LINE
  8
0
 62
     0
 10
1110.56
 20
161.379
 30
0.0
 11
1105.27
 21
166.578
 31
0.0
  0
LINE
  8
0
 62
     0
 10
1105.27
 20
166.578
 30
0.0
 11
1099.28
 21
171.006
 31
0.0
  0
LINE
  8
0
 62
     0
 10
1099.28
 20
171.006
 30
0.0
 11
1092.67
 21
174.581
 31
0.0
  0
LINE
  8
0
 62
     0
 10
1092.67
 20
174.581
 30
0.0
 11
1087.32
 21
176.691
 31
0.0
  0
LINE
  8
0
 62
     0
 10
1087.32
 20
176.691
 30
0.0
 11
1085.5
 21
177.219
 31
0.0
  0
LINE
  8
0
 62
     0
 10
1085.5
 20
177.219
 30
0.0
 11
1085.34
 21
177.264
 31
0.0
  0
LINE
  8
0
 62
     0
 10
1085.34
 20
177.264
 30
0.0
 11
1084.87
 21
177.407
 31
0.0
  0
LINE
  8
0
 62
     0
 10
1084.87
 20
177.407
 30
0.0
 11
1084.34
 21
177.584
 31
0.0
  0
LINE
  8
0
 62
     0
 10
1084.34
 20
177.584
 30
0.0
 11
1083.84
 21
177.748
 31
0.0
  0
LINE
  8
0
 62
     0
 10
1083.84
 20
177.748
 30
0.0
 11
1083.33
 21
177.901
 31
0.0
  0
LINE
  8
0
 62
     0
 10
1083.33
 20
177.901
 30
0.0
 11
1082.78
 21
178.041
 31
0.0
  0
LINE
  8
0
 62
     0
 10
1082.78
 20
178.041
 30
0.0
 11
1082.14
 21
178.172
 31
0.0
  0
LINE
  8
0
 62
     0
 10
1082.14
 20
178.172
 30
0.0
 11
1081.36
 21
178.291
 31
0.0
  0
LINE
  8
0
 62
     0
 10
1081.36
 20
178.291
 30
0.0
 11
1080.4
 21
178.401
 31
0.0
  0
LINE
  8
0
 62
     0
 10
1080.4
 20
178.401
 30
0.0
 11
1079.22
 21
178.501
 31
0.0
  0
LINE
  8
0
 62
     0
 10
1079.22
 20
178.501
 30
0.0
 11
1077.78
 21
178.592
 31
0.0
  0
LINE
  8
0
 62
     0
 10
1077.78
 20
178.592
 30
0.0
 11
1076.03
 21
178.674
 31
0.0
  0
LINE
  8
0
 62
     0
 10
1076.03
 20
178.674
 30
0.0
 11
1073.93
 21
178.748
 31
0.0
  0
LINE
  8
0
 62
     0
 10
1073.93
 20
178.748
 30
0.0
 11
1071.43
 21
178.814
 31
0.0
  0
LINE
  8
0
 62
     0
 10
1071.43
 20
178.814
 30
0.0
 11
1068.49
 21
178.874
 31
0.0
  0
LINE
  8
0
 62
     0
 10
1068.49
 20
178.874
 30
0.0
 11
1065.07
 21
178.925
 31
0.0
  0
LINE
  8
0
 62
     0
 10
1065.07
 20
178.925
 30
0.0
 11
1061.12
 21
178.97
 31
0.0
  0
LINE
  8
0
 62
     0
 10
1061.12
 20
178.97
 30
0.0
 11
1056.61
 21
179.01
 31
0.0
  0
LINE
  8
0
 62
     0
 10
1056.61
 20
179.01
 30
0.0
 11
1051.48
 21
179.043
 31
0.0
  0
LINE
  8
0
 62
     0
 10
1051.48
 20
179.043
 30
0.0
 11
1045.69
 21
179.071
 31
0.0
  0
LINE
  8
0
 62
     0
 10
1045.69
 20
179.071
 30
0.0
 11
1039.21
 21
179.094
 31
0.0
  0
LINE
  8
0
 62
     0
 10
1039.21
 20
179.094
 30
0.0
 11
1031.98
 21
179.113
 31
0.0
  0
LINE
  8
0
 62
     0
 10
1031.98
 20
179.113
 30
0.0
 11
1023.96
 21
179.129
 31
0.0
  0
LINE
  8
0
 62
     0
 10
1023.96
 20
179.129
 30
0.0
 11
1015.11
 21
179.141
 31
0.0
  0
LINE
  8
0
 62
     0
 10
1015.11
 20
179.141
 30
0.0
 11
1005.39
 21
179.149
 31
0.0
  0
LINE
  8
0
 62
     0
 10
1005.39
 20
179.149
 30
0.0
 11
994.752
 21
179.155
 31
0.0
  0
LINE
  8
0
 62
     0
 10
994.752
 20
179.155
 30
0.0
 11
983.153
 21
179.159
 31
0.0
  0
LINE
  8
0
 62
     0
 10
983.153
 20
179.159
 30
0.0
 11
970.548
 21
179.16
 31
0.0
  0
LINE
  8
0
 62
     0
 10
970.548
 20
179.16
 30
0.0
 11
956.896
 21
179.161
 31
0.0
  0
LINE
  8
0
 62
     0
 10
956.896
 20
179.161
 30
0.0
 11
942.153
 21
179.161
 31
0.0
  0
LINE
  8
0
 62
     0
 10
942.153
 20
179.161
 30
0.0
 11
926.274
 21
179.16
 31
0.0
  0
LINE
  8
0
 62
     0
 10
926.274
 20
179.16
 30
0.0
 11
909.218
 21
179.16
 31
0.0
  0
LINE
  8
0
 62
     0
 10
909.218
 20
179.16
 30
0.0
 11
895.509
 21
179.159
 31
0.0
  0
LINE
  8
0
 62
     0
 10
895.509
 20
179.159
 30
0.0
 11
890.94
 21
179.159
 31
0.0
  0
LINE
  8
0
 62
     0
 10
890.94
 20
179.159
 30
0.0
 11
705.908
 21
179.159
 31
0.0
  0
LINE
  8
0
 62
     0
 10
705.908
 20
179.159
 30
0.0
 11
702.592
 21
178.277
 31
0.0
  0
LINE
  8
0
 62
     0
 10
702.592
 20
178.277
 30
0.0
 11
701.432
 21
177.968
 31
0.0
  0
LINE
  8
0
 62
     0
 10
701.432
 20
177.968
 30
0.0
 11
698.024
 21
176.758
 31
0.0
  0
LINE
  8
0
 62
     0
 10
698.024
 20
176.758
 30
0.0
 11
693.812
 21
174.72
 31
0.0
  0
LINE
  8
0
 62
     0
 10
693.812
 20
174.72
 30
0.0
 11
689.896
 21
172.132
 31
0.0
  0
LINE
  8
0
 62
     0
 10
689.896
 20
172.132
 30
0.0
 11
687.091
 21
169.807
 31
0.0
  0
LINE
  8
0
 62
     0
 10
687.091
 20
169.807
 30
0.0
 11
686.223
 21
168.964
 31
0.0
  0
LINE
  8
0
 62
     0
 10
686.223
 20
168.964
 30
0.0
 11
685.387
 21
168.155
 31
0.0
  0
LINE
  8
0
 62
     0
 10
685.387
 20
168.155
 30
0.0
 11
683.098
 21
165.501
 31
0.0
  0
LINE
  8
0
 62
     0
 10
683.098
 20
165.501
 30
0.0
 11
680.526
 21
161.706
 31
0.0
  0
LINE
  8
0
 62
     0
 10
680.526
 20
161.706
 30
0.0
 11
678.533
 21
157.634
 31
0.0
  0
LINE
  8
0
 62
     0
 10
678.533
 20
157.634
 30
0.0
 11
677.422
 21
154.43
 31
0.0
  0
LINE
  8
0
 62
     0
 10
677.422
 20
154.43
 30
0.0
 11
677.157
 21
153.336
 31
0.0
  0
LINE
  8
0
 62
     0
 10
677.157
 20
153.336
 30
0.0
 11
677.093
 21
153.085
 31
0.0
  0
LINE
  8
0
 62
     0
 10
677.093
 20
153.085
 30
0.0
 11
676.935
 21
152.326
 31
0.0
  0
LINE
  8
0
 62
     0
 10
676.935
 20
152.326
 30
0.0
 11
676.762
 21
151.193
 31
0.0
  0
LINE
  8
0
 62
     0
 10
676.762
 20
151.193
 30
0.0
 11
676.638
 21
149.689
 31
0.0
  0
LINE
  8
0
 62
     0
 10
676.638
 20
149.689
 30
0.0
 11
676.554
 21
147.569
 31
0.0
  0
LINE
  8
0
 62
     0
 10
676.554
 20
147.569
 30
0.0
 11
676.497
 21
144.58
 31
0.0
  0
LINE
  8
0
 62
     0
 10
676.497
 20
144.58
 30
0.0
 11
676.466
 21
140.477
 31
0.0
  0
LINE
  8
0
 62
     0
 10
676.466
 20
140.477
 30
0.0
 11
676.455
 21
135.012
 31
0.0
  0
LINE
  8
0
 62
     0
 10
676.455
 20
135.012
 30
0.0
 11
676.451
 21
129.705
 31
0.0
  0
LINE
  8
0
 62
     0
 10
676.451
 20
129.705
 30
0.0
 11
676.451
 21
127.936
 31
0.0
  0
LINE
  8
0
 62
     0
 10
676.451
 20
127.936
 30
0.0
 11
676.451
 21
105.428
 31
0.0
  0
LINE
  8
0
 62
     0
 10
676.451
 20
105.428
 30
0.0
 11
387.95
 21
105.428
 31
0.0
  0
LINE
  8
0
 62
     0
 10
387.95
 20
105.428
 30
0.0
 11
387.703
 21
107.651
 31
0.0
  0
LINE
  8
0
 62
     0
 10
387.703
 20
107.651
 30
0.0
 11
387.361
 21
110.91
 31
0.0
  0
LINE
  8
0
 62
     0
 10
387.361
 20
110.91
 30
0.0
 11
385.978
 21
120.646
 31
0.0
  0
LINE
  8
0
 62
     0
 10
385.978
 20
120.646
 30
0.0
 11
383.589
 21
133.044
 31
0.0
  0
LINE
  8
0
 62
     0
 10
383.589
 20
133.044
 30
0.0
 11
380.541
 21
144.823
 31
0.0
  0
LINE
  8
0
 62
     0
 10
380.541
 20
144.823
 30
0.0
 11
376.851
 21
155.957
 31
0.0
  0
LINE
  8
0
 62
     0
 10
376.851
 20
155.957
 30
0.0
 11
372.523
 21
166.417
 31
0.0
  0
LINE
  8
0
 62
     0
 10
372.523
 20
166.417
 30
0.0
 11
367.566
 21
176.182
 31
0.0
  0
LINE
  8
0
 62
     0
 10
367.566
 20
176.182
 30
0.0
 11
361.992
 21
185.225
 31
0.0
  0
LINE
  8
0
 62
     0
 10
361.992
 20
185.225
 30
0.0
 11
357.449
 21
191.521
 31
0.0
  0
LINE
  8
0
 62
     0
 10
357.449
 20
191.521
 30
0.0
 11
355.812
 21
193.518
 31
0.0
  0
LINE
  8
0
 62
     0
 10
355.812
 20
193.518
 30
0.0
 11
355.445
 21
193.967
 31
0.0
  0
LINE
  8
0
 62
     0
 10
355.445
 20
193.967
 30
0.0
 11
354.312
 21
195.281
 31
0.0
  0
LINE
  8
0
 62
     0
 10
354.312
 20
195.281
 30
0.0
 11
352.563
 21
197.204
 31
0.0
  0
LINE
  8
0
 62
     0
 10
352.563
 20
197.204
 30
0.0
 11
350.646
 21
199.215
 31
0.0
  0
LINE
  8
0
 62
     0
 10
350.646
 20
199.215
 30
0.0
 11
348.641
 21
201.231
 31
0.0
  0
LINE
  8
0
 62
     0
 10
348.641
 20
201.231
 30
0.0
 11
346.625
 21
203.177
 31
0.0
  0
LINE
  8
0
 62
     0
 10
346.625
 20
203.177
 30
0.0
 11
344.679
 21
204.973
 31
0.0
  0
LINE
  8
0
 62
     0
 10
344.679
 20
204.973
 30
0.0
 11
342.881
 21
206.542
 31
0.0
  0
LINE
  8
0
 62
     0
 10
342.881
 20
206.542
 30
0.0
 11
341.712
 21
207.502
 31
0.0
  0
LINE
  8
0
 62
     0
 10
341.712
 20
207.502
 30
0.0
 11
341.313
 21
207.806
 31
0.0
  0
LINE
  8
0
 62
     0
 10
341.313
 20
207.806
 30
0.0
 11
339.801
 21
208.955
 31
0.0
  0
LINE
  8
0
 62
     0
 10
339.801
 20
208.955
 30
0.0
 11
335.031
 21
212.091
 31
0.0
  0
LINE
  8
0
 62
     0
 10
335.031
 20
212.091
 30
0.0
 11
328.532
 21
215.58
 31
0.0
  0
LINE
  8
0
 62
     0
 10
328.532
 20
215.58
 30
0.0
 11
321.835
 21
218.269
 31
0.0
  0
LINE
  8
0
 62
     0
 10
321.835
 20
218.269
 30
0.0
 11
316.699
 21
219.783
 31
0.0
  0
LINE
  8
0
 62
     0
 10
316.699
 20
219.783
 30
0.0
 11
314.96
 21
220.153
 31
0.0
  0
LINE
  8
0
 62
     0
 10
314.96
 20
220.153
 30
0.0
 11
311.15
 21
220.963
 31
0.0
  0
LINE
  8
0
 62
     0
 10
311.15
 20
220.963
 30
0.0
 11
189.089
 21
220.999
 31
0.0
  0
LINE
  8
0
 62
     0
 10
189.089
 20
220.999
 30
0.0
 11
185.979
 21
220.999
 31
0.0
  0
LINE
  8
0
 62
     0
 10
185.979
 20
220.999
 30
0.0
 11
176.648
 21
220.999
 31
0.0
  0
LINE
  8
0
 62
     0
 10
176.648
 20
220.999
 30
0.0
 11
164.543
 21
220.997
 31
0.0
  0
LINE
  8
0
 62
     0
 10
164.543
 20
220.997
 30
0.0
 11
152.838
 21
220.996
 31
0.0
  0
LINE
  8
0
 62
     0
 10
152.838
 20
220.996
 30
0.0
 11
141.595
 21
220.993
 31
0.0
  0
LINE
  8
0
 62
     0
 10
141.595
 20
220.993
 30
0.0
 11
130.879
 21
220.989
 31
0.0
  0
LINE
  8
0
 62
     0
 10
130.879
 20
220.989
 30
0.0
 11
120.751
 21
220.985
 31
0.0
  0
LINE
  8
0
 62
     0
 10
120.751
 20
220.985
 30
0.0
 11
111.275
 21
220.979
 31
0.0
  0
LINE
  8
0
 62
     0
 10
111.275
 20
220.979
 30
0.0
 11
102.517
 21
220.973
 31
0.0
  0
LINE
  8
0
 62
     0
 10
102.517
 20
220.973
 30
0.0
 11
94.5363
 21
220.966
 31
0.0
  0
LINE
  8
0
 62
     0
 10
94.5363
 20
220.966
 30
0.0
 11
87.3965
 21
220.957
 31
0.0
  0
LINE
  8
0
 62
     0
 10
87.3965
 20
220.957
 30
0.0
 11
81.1636
 21
220.949
 31
0.0
  0
LINE
  8
0
 62
     0
 10
81.1636
 20
220.949
 30
0.0
 11
75.8994
 21
220.939
 31
0.0
  0
LINE
  8
0
 62
     0
 10
75.8994
 20
220.939
 30
0.0
 11
71.6661
 21
220.93
 31
0.0
  0
LINE
  8
0
 62
     0
 10
71.6661
 20
220.93
 30
0.0
 11
68.5285
 21
220.918
 31
0.0
  0
LINE
  8
0
 62
     0
 10
68.5285
 20
220.918
 30
0.0
 11
66.5498
 21
220.906
 31
0.0
  0
LINE
  8
0
 62
     0
 10
66.5498
 20
220.906
 30
0.0
 11
65.9599
 21
220.911
 31
0.0
  0
LINE
  8
0
 62
     0
 10
65.9599
 20
220.911
 30
0.0
 11
65.7931
 21
220.893
 31
0.0
  0
ENDSEC
  0
EOF
