  0
SECTION
  2
HEADER
  9
$ACADVER
  1
AC1009
  9
$EXTMIN
 10
0.0
 20
0.0
 30
0.0
  9
$EXTMAX
 10
1000.0
 20
1000.0
 30
0.0
  9
$FILLMODE
 70
 0
  9
$SPLFRAME
 70
 1
  0
ENDSEC
  0
SECTION
  2
TABLES
  0
TABLE
  2
LAYER
 70
1
  0
LAYER
  2
0
 70
     0
 62
     7
  6
CONTINUOUS
  0
ENDTAB
  0
ENDSEC
  0
SECTION
  2
ENTITIES
  0
LINE
  8
0
 62
     0
 10
0.268718
 20
159.015
 30
0.0
 11
0.268718
 21
0.264583
 31
0.0
  0
LINE
  8
0
 62
     0
 10
0.268718
 20
0.264583
 30
0.0
 11
51.0688
 21
0.264583
 31
0.0
  0
LINE
  8
0
 62
     0
 10
51.0688
 20
0.264583
 30
0.0
 11
51.0688
 21
4.49792
 31
0.0
  0
LINE
  8
0
 62
     0
 10
51.0688
 20
4.49792
 30
0.0
 11
48.9521
 21
4.49792
 31
0.0
  0
LINE
  8
0
 62
     0
 10
48.9521
 20
4.49792
 30
0.0
 11
48.799
 21
4.49792
 31
0.0
  0
LINE
  8
0
 62
     0
 10
48.799
 20
4.49792
 30
0.0
 11
48.3443
 21
4.58886
 31
0.0
  0
LINE
  8
0
 62
     0
 10
48.3443
 20
4.58886
 30
0.0
 11
48.0589
 21
4.82865
 31
0.0
  0
LINE
  8
0
 62
     0
 10
48.0589
 20
4.82865
 30
0.0
 11
48.0219
 21
5.16763
 31
0.0
  0
LINE
  8
0
 62
     0
 10
48.0219
 20
5.16763
 30
0.0
 11
48.1584
 21
5.55625
 31
0.0
  0
LINE
  8
0
 62
     0
 10
48.1584
 20
5.55625
 30
0.0
 11
48.3941
 21
5.94487
 31
0.0
  0
LINE
  8
0
 62
     0
 10
48.3941
 20
5.94487
 30
0.0
 11
48.6544
 21
6.28385
 31
0.0
  0
LINE
  8
0
 62
     0
 10
48.6544
 20
6.28385
 30
0.0
 11
48.8654
 21
6.52364
 31
0.0
  0
LINE
  8
0
 62
     0
 10
48.8654
 20
6.52364
 30
0.0
 11
48.9521
 21
6.61458
 31
0.0
  0
LINE
  8
0
 62
     0
 10
48.9521
 20
6.61458
 30
0.0
 11
48.9521
 21
6.61458
 31
0.0
  0
LINE
  8
0
 62
     0
 10
48.9521
 20
6.61458
 30
0.0
 11
49.3367
 21
6.99904
 31
0.0
  0
LINE
  8
0
 62
     0
 10
49.3367
 20
6.99904
 30
0.0
 11
50.1096
 21
8.53281
 31
0.0
  0
LINE
  8
0
 62
     0
 10
50.1096
 20
8.53281
 30
0.0
 11
50.2751
 21
10.8479
 31
0.0
  0
LINE
  8
0
 62
     0
 10
50.2751
 20
10.8479
 30
0.0
 11
49.2495
 21
13.163
 31
0.0
  0
LINE
  8
0
 62
     0
 10
49.2495
 20
13.163
 30
0.0
 11
47.5093
 21
14.745
 31
0.0
  0
LINE
  8
0
 62
     0
 10
47.5093
 20
14.745
 30
0.0
 11
46.8355
 21
15.0813
 31
0.0
  0
LINE
  8
0
 62
     0
 10
46.8355
 20
15.0813
 30
0.0
 11
45.3789
 21
15.6283
 31
0.0
  0
LINE
  8
0
 62
     0
 10
45.3789
 20
15.6283
 30
0.0
 11
41.1551
 21
17.6568
 31
0.0
  0
LINE
  8
0
 62
     0
 10
41.1551
 20
17.6568
 30
0.0
 11
36.715
 21
20.6044
 31
0.0
  0
LINE
  8
0
 62
     0
 10
36.715
 20
20.6044
 30
0.0
 11
33.3664
 21
23.8993
 31
0.0
  0
LINE
  8
0
 62
     0
 10
33.3664
 20
23.8993
 30
0.0
 11
30.9604
 21
27.5167
 31
0.0
  0
LINE
  8
0
 62
     0
 10
30.9604
 20
27.5167
 30
0.0
 11
29.3481
 21
31.4317
 31
0.0
  0
LINE
  8
0
 62
     0
 10
29.3481
 20
31.4317
 30
0.0
 11
28.3807
 21
35.6196
 31
0.0
  0
LINE
  8
0
 62
     0
 10
28.3807
 20
35.6196
 30
0.0
 11
27.9094
 21
40.0554
 31
0.0
  0
LINE
  8
0
 62
     0
 10
27.9094
 20
40.0554
 30
0.0
 11
27.7854
 21
43.5501
 31
0.0
  0
LINE
  8
0
 62
     0
 10
27.7854
 20
43.5501
 30
0.0
 11
27.7854
 21
44.7146
 31
0.0
  0
LINE
  8
0
 62
     0
 10
27.7854
 20
44.7146
 30
0.0
 11
27.2603
 21
44.9474
 31
0.0
  0
LINE
  8
0
 62
     0
 10
27.2603
 20
44.9474
 30
0.0
 11
25.8479
 21
46.01
 31
0.0
  0
LINE
  8
0
 62
     0
 10
25.8479
 20
46.01
 30
0.0
 11
23.7009
 21
48.3277
 31
0.0
  0
LINE
  8
0
 62
     0
 10
23.7009
 20
48.3277
 30
0.0
 11
21.4781
 21
51.7013
 31
0.0
  0
LINE
  8
0
 62
     0
 10
21.4781
 20
51.7013
 30
0.0
 11
19.3187
 21
56.158
 31
0.0
  0
LINE
  8
0
 62
     0
 10
19.3187
 20
56.158
 30
0.0
 11
17.3564
 21
61.7319
 31
0.0
  0
LINE
  8
0
 62
     0
 10
17.3564
 20
61.7319
 30
0.0
 11
15.7303
 21
68.4526
 31
0.0
  0
LINE
  8
0
 62
     0
 10
15.7303
 20
68.4526
 30
0.0
 11
14.5741
 21
76.3531
 31
0.0
  0
LINE
  8
0
 62
     0
 10
14.5741
 20
76.3531
 30
0.0
 11
14.0725
 21
83.1825
 31
0.0
  0
LINE
  8
0
 62
     0
 10
14.0725
 20
83.1825
 30
0.0
 11
14.027
 21
85.4604
 31
0.0
  0
LINE
  8
0
 62
     0
 10
14.027
 20
85.4604
 30
0.0
 11
14.2737
 21
85.5225
 31
0.0
  0
LINE
  8
0
 62
     0
 10
14.2737
 20
85.5225
 30
0.0
 11
15.0096
 21
85.7373
 31
0.0
  0
LINE
  8
0
 62
     0
 10
15.0096
 20
85.7373
 30
0.0
 11
16.2843
 21
86.1797
 31
0.0
  0
LINE
  8
0
 62
     0
 10
16.2843
 20
86.1797
 30
0.0
 11
17.7188
 21
86.8094
 31
0.0
  0
LINE
  8
0
 62
     0
 10
17.7188
 20
86.8094
 30
0.0
 11
19.1864
 21
87.6434
 31
0.0
  0
LINE
  8
0
 62
     0
 10
19.1864
 20
87.6434
 30
0.0
 11
20.5534
 21
88.7017
 31
0.0
  0
LINE
  8
0
 62
     0
 10
20.5534
 20
88.7017
 30
0.0
 11
21.6917
 21
89.9996
 31
0.0
  0
LINE
  8
0
 62
     0
 10
21.6917
 20
89.9996
 30
0.0
 11
22.4689
 21
91.5596
 31
0.0
  0
LINE
  8
0
 62
     0
 10
22.4689
 20
91.5596
 30
0.0
 11
22.7583
 21
92.939
 31
0.0
  0
LINE
  8
0
 62
     0
 10
22.7583
 20
92.939
 30
0.0
 11
22.7583
 21
93.3979
 31
0.0
  0
LINE
  8
0
 62
     0
 10
22.7583
 20
93.3979
 30
0.0
 11
22.7583
 21
94.1366
 31
0.0
  0
LINE
  8
0
 62
     0
 10
22.7583
 20
94.1366
 30
0.0
 11
22.0886
 21
96.3496
 31
0.0
  0
LINE
  8
0
 62
     0
 10
22.0886
 20
96.3496
 30
0.0
 11
20.377
 21
98.7559
 31
0.0
  0
LINE
  8
0
 62
     0
 10
20.377
 20
98.7559
 30
0.0
 11
18.0702
 21
100.467
 31
0.0
  0
LINE
  8
0
 62
     0
 10
18.0702
 20
100.467
 30
0.0
 11
16.2471
 21
101.231
 31
0.0
  0
LINE
  8
0
 62
     0
 10
16.2471
 20
101.231
 30
0.0
 11
15.6145
 21
101.335
 31
0.0
  0
LINE
  8
0
 62
     0
 10
15.6145
 20
101.335
 30
0.0
 11
15.3913
 21
101.372
 31
0.0
  0
LINE
  8
0
 62
     0
 10
15.3913
 20
101.372
 30
0.0
 11
14.7588
 21
101.703
 31
0.0
  0
LINE
  8
0
 62
     0
 10
14.7588
 20
101.703
 30
0.0
 11
14.5232
 21
102.295
 31
0.0
  0
LINE
  8
0
 62
     0
 10
14.5232
 20
102.295
 30
0.0
 11
14.8332
 21
102.935
 31
0.0
  0
LINE
  8
0
 62
     0
 10
14.8332
 20
102.935
 30
0.0
 11
15.401
 21
103.368
 31
0.0
  0
LINE
  8
0
 62
     0
 10
15.401
 20
103.368
 30
0.0
 11
15.6145
 21
103.452
 31
0.0
  0
LINE
  8
0
 62
     0
 10
15.6145
 20
103.452
 30
0.0
 11
16.2898
 21
103.765
 31
0.0
  0
LINE
  8
0
 62
     0
 10
16.2898
 20
103.765
 30
0.0
 11
18.1805
 21
104.998
 31
0.0
  0
LINE
  8
0
 62
     0
 10
18.1805
 20
104.998
 30
0.0
 11
20.6664
 21
107.181
 31
0.0
  0
LINE
  8
0
 62
     0
 10
20.6664
 20
107.181
 30
0.0
 11
22.9898
 21
109.898
 31
0.0
  0
LINE
  8
0
 62
     0
 10
22.9898
 20
109.898
 30
0.0
 11
25.0734
 21
113.043
 31
0.0
  0
LINE
  8
0
 62
     0
 10
25.0734
 20
113.043
 30
0.0
 11
26.8332
 21
116.512
 31
0.0
  0
LINE
  8
0
 62
     0
 10
26.8332
 20
116.512
 30
0.0
 11
28.1905
 21
120.195
 31
0.0
  0
LINE
  8
0
 62
     0
 10
28.1905
 20
120.195
 30
0.0
 11
29.0628
 21
123.992
 31
0.0
  0
LINE
  8
0
 62
     0
 10
29.0628
 20
123.992
 30
0.0
 11
29.3729
 21
126.844
 31
0.0
  0
LINE
  8
0
 62
     0
 10
29.3729
 20
126.844
 30
0.0
 11
29.3729
 21
127.794
 31
0.0
  0
LINE
  8
0
 62
     0
 10
29.3729
 20
127.794
 30
0.0
 11
29.3729
 21
129.34
 31
0.0
  0
LINE
  8
0
 62
     0
 10
29.3729
 20
129.34
 30
0.0
 11
28.8162
 21
133.975
 31
0.0
  0
LINE
  8
0
 62
     0
 10
28.8162
 20
133.975
 30
0.0
 11
27.2066
 21
139.741
 31
0.0
  0
LINE
  8
0
 62
     0
 10
27.2066
 20
139.741
 30
0.0
 11
24.6283
 21
144.975
 31
0.0
  0
LINE
  8
0
 62
     0
 10
24.6283
 20
144.975
 30
0.0
 11
21.1708
 21
149.556
 31
0.0
  0
LINE
  8
0
 62
     0
 10
21.1708
 20
149.556
 30
0.0
 11
16.9182
 21
153.369
 31
0.0
  0
LINE
  8
0
 62
     0
 10
16.9182
 20
153.369
 30
0.0
 11
11.96
 21
156.294
 31
0.0
  0
LINE
  8
0
 62
     0
 10
11.96
 20
156.294
 30
0.0
 11
6.3803
 21
158.217
 31
0.0
  0
LINE
  8
0
 62
     0
 10
6.3803
 20
158.217
 30
0.0
 11
1.8011
 21
158.968
 31
0.0
  0
LINE
  8
0
 62
     0
 10
1.8011
 20
158.968
 30
0.0
 11
0.268718
 21
159.015
 31
0.0
  0
ENDSEC
  0
EOF
