  0
SECTION
  2
HEADER
  9
$ACADVER
  1
AC1009
  9
$EXTMIN
 10
0.0
 20
0.0
 30
0.0
  9
$EXTMAX
 10
1000.0
 20
1000.0
 30
0.0
  9
$FILLMODE
 70
 0
  9
$SPLFRAME
 70
 1
  0
ENDSEC
  0
SECTION
  2
TABLES
  0
TABLE
  2
LAYER
 70
1
  0
LAYER
  2
0
 70
     0
 62
     7
  6
CONTINUOUS
  0
ENDTAB
  0
ENDSEC
  0
SECTION
  2
ENTITIES
  0
LINE
  8
0
 62
     0
 10
0.268718
 20
0.264583
 30
0.0
 11
65.8855
 21
0.264583
 31
0.0
  0
LINE
  8
0
 62
     0
 10
65.8855
 20
0.264583
 30
0.0
 11
65.8855
 21
5.55625
 31
0.0
  0
LINE
  8
0
 62
     0
 10
65.8855
 20
5.55625
 30
0.0
 11
63.7688
 21
5.55625
 31
0.0
  0
LINE
  8
0
 62
     0
 10
63.7688
 20
5.55625
 30
0.0
 11
63.6048
 21
5.55625
 31
0.0
  0
LINE
  8
0
 62
     0
 10
63.6048
 20
5.55625
 30
0.0
 11
63.1169
 21
5.64995
 31
0.0
  0
LINE
  8
0
 62
     0
 10
63.1169
 20
5.64995
 30
0.0
 11
62.7271
 21
5.90352
 31
0.0
  0
LINE
  8
0
 62
     0
 10
62.7271
 20
5.90352
 30
0.0
 11
62.5588
 21
6.28248
 31
0.0
  0
LINE
  8
0
 62
     0
 10
62.5588
 20
6.28248
 30
0.0
 11
62.5782
 21
6.74688
 31
0.0
  0
LINE
  8
0
 62
     0
 10
62.5782
 20
6.74688
 30
0.0
 11
62.7447
 21
7.26225
 31
0.0
  0
LINE
  8
0
 62
     0
 10
62.7447
 20
7.26225
 30
0.0
 11
63.0245
 21
7.78866
 31
0.0
  0
LINE
  8
0
 62
     0
 10
63.0245
 20
7.78866
 30
0.0
 11
63.3772
 21
8.29165
 31
0.0
  0
LINE
  8
0
 62
     0
 10
63.3772
 20
8.29165
 30
0.0
 11
63.664
 21
8.62789
 31
0.0
  0
LINE
  8
0
 62
     0
 10
63.664
 20
8.62789
 30
0.0
 11
63.7688
 21
8.73125
 31
0.0
  0
LINE
  8
0
 62
     0
 10
63.7688
 20
8.73125
 30
0.0
 11
64.1505
 21
9.11433
 31
0.0
  0
LINE
  8
0
 62
     0
 10
64.1505
 20
9.11433
 30
0.0
 11
64.7442
 21
10.8149
 31
0.0
  0
LINE
  8
0
 62
     0
 10
64.7442
 20
10.8149
 30
0.0
 11
64.4303
 21
13.4938
 31
0.0
  0
LINE
  8
0
 62
     0
 10
64.4303
 20
13.4938
 30
0.0
 11
62.7271
 21
16.1727
 31
0.0
  0
LINE
  8
0
 62
     0
 10
62.7271
 20
16.1727
 30
0.0
 11
60.4023
 21
17.9104
 31
0.0
  0
LINE
  8
0
 62
     0
 10
60.4023
 20
17.9104
 30
0.0
 11
59.5355
 21
18.2563
 31
0.0
  0
LINE
  8
0
 62
     0
 10
59.5355
 20
18.2563
 30
0.0
 11
59.0793
 21
18.4588
 31
0.0
  0
LINE
  8
0
 62
     0
 10
59.0793
 20
18.4588
 30
0.0
 11
57.7152
 21
19.0789
 31
0.0
  0
LINE
  8
0
 62
     0
 10
57.7152
 20
19.0789
 30
0.0
 11
55.8451
 21
19.9747
 31
0.0
  0
LINE
  8
0
 62
     0
 10
55.8451
 20
19.9747
 30
0.0
 11
53.9461
 21
20.9655
 31
0.0
  0
LINE
  8
0
 62
     0
 10
53.9461
 20
20.9655
 30
0.0
 11
52.0442
 21
22.0762
 31
0.0
  0
LINE
  8
0
 62
     0
 10
52.0442
 20
22.0762
 30
0.0
 11
50.1594
 21
23.3302
 31
0.0
  0
LINE
  8
0
 62
     0
 10
50.1594
 20
23.3302
 30
0.0
 11
48.3168
 21
24.7496
 31
0.0
  0
LINE
  8
0
 62
     0
 10
48.3168
 20
24.7496
 30
0.0
 11
46.5391
 21
26.3577
 31
0.0
  0
LINE
  8
0
 62
     0
 10
46.5391
 20
26.3577
 30
0.0
 11
44.8511
 21
28.1781
 31
0.0
  0
LINE
  8
0
 62
     0
 10
44.8511
 20
28.1781
 30
0.0
 11
43.2731
 21
30.2355
 31
0.0
  0
LINE
  8
0
 62
     0
 10
43.2731
 20
30.2355
 30
0.0
 11
41.8303
 21
32.5506
 31
0.0
  0
LINE
  8
0
 62
     0
 10
41.8303
 20
32.5506
 30
0.0
 11
40.5462
 21
35.1482
 31
0.0
  0
LINE
  8
0
 62
     0
 10
40.5462
 20
35.1482
 30
0.0
 11
39.4437
 21
38.0503
 31
0.0
  0
LINE
  8
0
 62
     0
 10
39.4437
 20
38.0503
 30
0.0
 11
38.5452
 21
41.2831
 31
0.0
  0
LINE
  8
0
 62
     0
 10
38.5452
 20
41.2831
 30
0.0
 11
37.8739
 21
44.8663
 31
0.0
  0
LINE
  8
0
 62
     0
 10
37.8739
 20
44.8663
 30
0.0
 11
37.4551
 21
48.8251
 31
0.0
  0
LINE
  8
0
 62
     0
 10
37.4551
 20
48.8251
 30
0.0
 11
37.3105
 21
52.0926
 31
0.0
  0
LINE
  8
0
 62
     0
 10
37.3105
 20
52.0926
 30
0.0
 11
37.3105
 21
53.1813
 31
0.0
  0
LINE
  8
0
 62
     0
 10
37.3105
 20
53.1813
 30
0.0
 11
36.6187
 21
53.3054
 31
0.0
  0
LINE
  8
0
 62
     0
 10
36.6187
 20
53.3054
 30
0.0
 11
34.6604
 21
54.3084
 31
0.0
  0
LINE
  8
0
 62
     0
 10
34.6604
 20
54.3084
 30
0.0
 11
32.2599
 21
56.5848
 31
0.0
  0
LINE
  8
0
 62
     0
 10
32.2599
 20
56.5848
 30
0.0
 11
30.0991
 21
59.8495
 31
0.0
  0
LINE
  8
0
 62
     0
 10
30.0991
 20
59.8495
 30
0.0
 11
28.1657
 21
63.9382
 31
0.0
  0
LINE
  8
0
 62
     0
 10
28.1657
 20
63.9382
 30
0.0
 11
26.4487
 21
68.6883
 31
0.0
  0
LINE
  8
0
 62
     0
 10
26.4487
 20
68.6883
 30
0.0
 11
24.9384
 21
73.9345
 31
0.0
  0
LINE
  8
0
 62
     0
 10
24.9384
 20
73.9345
 30
0.0
 11
23.6237
 21
79.5143
 31
0.0
  0
LINE
  8
0
 62
     0
 10
23.6237
 20
79.5143
 30
0.0
 11
22.4937
 21
85.2622
 31
0.0
  0
LINE
  8
0
 62
     0
 10
22.4937
 20
85.2622
 30
0.0
 11
21.536
 21
91.0181
 31
0.0
  0
LINE
  8
0
 62
     0
 10
21.536
 20
91.0181
 30
0.0
 11
20.7422
 21
96.6156
 31
0.0
  0
LINE
  8
0
 62
     0
 10
20.7422
 20
96.6156
 30
0.0
 11
20.1001
 21
101.894
 31
0.0
  0
LINE
  8
0
 62
     0
 10
20.1001
 20
101.894
 30
0.0
 11
19.5998
 21
106.685
 31
0.0
  0
LINE
  8
0
 62
     0
 10
19.5998
 20
106.685
 30
0.0
 11
19.2278
 21
110.83
 31
0.0
  0
LINE
  8
0
 62
     0
 10
19.2278
 20
110.83
 30
0.0
 11
18.977
 21
114.163
 31
0.0
  0
LINE
  8
0
 62
     0
 10
18.977
 20
114.163
 30
0.0
 11
18.8336
 21
116.521
 31
0.0
  0
LINE
  8
0
 62
     0
 10
18.8336
 20
116.521
 30
0.0
 11
18.7895
 21
117.435
 31
0.0
  0
LINE
  8
0
 62
     0
 10
18.7895
 20
117.435
 30
0.0
 11
18.7895
 21
117.74
 31
0.0
  0
LINE
  8
0
 62
     0
 10
18.7895
 20
117.74
 30
0.0
 11
19.4276
 21
118.28
 31
0.0
  0
LINE
  8
0
 62
     0
 10
19.4276
 20
118.28
 30
0.0
 11
21.4009
 21
119.832
 31
0.0
  0
LINE
  8
0
 62
     0
 10
21.4009
 20
119.832
 30
0.0
 11
24.0068
 21
121.766
 31
0.0
  0
LINE
  8
0
 62
     0
 10
24.0068
 20
121.766
 30
0.0
 11
26.4997
 21
123.591
 31
0.0
  0
LINE
  8
0
 62
     0
 10
26.4997
 20
123.591
 30
0.0
 11
28.7776
 21
125.347
 31
0.0
  0
LINE
  8
0
 62
     0
 10
28.7776
 20
125.347
 30
0.0
 11
30.7316
 21
127.079
 31
0.0
  0
LINE
  8
0
 62
     0
 10
30.7316
 20
127.079
 30
0.0
 11
32.2585
 21
128.827
 31
0.0
  0
LINE
  8
0
 62
     0
 10
32.2585
 20
128.827
 30
0.0
 11
33.2507
 21
130.639
 31
0.0
  0
LINE
  8
0
 62
     0
 10
33.2507
 20
130.639
 30
0.0
 11
33.6062
 21
132.078
 31
0.0
  0
LINE
  8
0
 62
     0
 10
33.6062
 20
132.078
 30
0.0
 11
33.6062
 21
132.556
 31
0.0
  0
LINE
  8
0
 62
     0
 10
33.6062
 20
132.556
 30
0.0
 11
33.6062
 21
133.185
 31
0.0
  0
LINE
  8
0
 62
     0
 10
33.6062
 20
133.185
 30
0.0
 11
32.92
 21
135.07
 31
0.0
  0
LINE
  8
0
 62
     0
 10
32.92
 20
135.07
 30
0.0
 11
31.2911
 21
137.583
 31
0.0
  0
LINE
  8
0
 62
     0
 10
31.2911
 20
137.583
 30
0.0
 11
29.3646
 21
139.7
 31
0.0
  0
LINE
  8
0
 62
     0
 10
29.3646
 20
139.7
 30
0.0
 11
28.1823
 21
140.758
 31
0.0
  0
LINE
  8
0
 62
     0
 10
28.1823
 20
140.758
 30
0.0
 11
27.7854
 21
141.023
 31
0.0
  0
LINE
  8
0
 62
     0
 10
27.7854
 20
141.023
 30
0.0
 11
28.8437
 21
143.14
 31
0.0
  0
LINE
  8
0
 62
     0
 10
28.8437
 20
143.14
 30
0.0
 11
28.3352
 21
143.242
 31
0.0
  0
LINE
  8
0
 62
     0
 10
28.3352
 20
143.242
 30
0.0
 11
26.84
 21
143.681
 31
0.0
  0
LINE
  8
0
 62
     0
 10
26.84
 20
143.681
 30
0.0
 11
24.9246
 21
144.496
 31
0.0
  0
LINE
  8
0
 62
     0
 10
24.9246
 20
144.496
 30
0.0
 11
23.2806
 21
145.558
 31
0.0
  0
LINE
  8
0
 62
     0
 10
23.2806
 20
145.558
 30
0.0
 11
22.0968
 21
146.844
 31
0.0
  0
LINE
  8
0
 62
     0
 10
22.0968
 20
146.844
 30
0.0
 11
21.5567
 21
148.328
 31
0.0
  0
LINE
  8
0
 62
     0
 10
21.5567
 20
148.328
 30
0.0
 11
21.8488
 21
149.986
 31
0.0
  0
LINE
  8
0
 62
     0
 10
21.8488
 20
149.986
 30
0.0
 11
23.1565
 21
151.792
 31
0.0
  0
LINE
  8
0
 62
     0
 10
23.1565
 20
151.792
 30
0.0
 11
25.0004
 21
153.305
 31
0.0
  0
LINE
  8
0
 62
     0
 10
25.0004
 20
153.305
 30
0.0
 11
25.6687
 21
153.723
 31
0.0
  0
LINE
  8
0
 62
     0
 10
25.6687
 20
153.723
 30
0.0
 11
22.4937
 21
156.898
 31
0.0
  0
LINE
  8
0
 62
     0
 10
22.4937
 20
156.898
 30
0.0
 11
23.0229
 21
157.216
 31
0.0
  0
LINE
  8
0
 62
     0
 10
23.0229
 20
157.216
 30
0.0
 11
24.4891
 21
158.379
 31
0.0
  0
LINE
  8
0
 62
     0
 10
24.4891
 20
158.379
 30
0.0
 11
26.4597
 21
160.412
 31
0.0
  0
LINE
  8
0
 62
     0
 10
26.4597
 20
160.412
 30
0.0
 11
28.327
 21
162.954
 31
0.0
  0
LINE
  8
0
 62
     0
 10
28.327
 20
162.954
 30
0.0
 11
30.0178
 21
165.96
 31
0.0
  0
LINE
  8
0
 62
     0
 10
30.0178
 20
165.96
 30
0.0
 11
31.4524
 21
169.388
 31
0.0
  0
LINE
  8
0
 62
     0
 10
31.4524
 20
169.388
 30
0.0
 11
32.5575
 21
173.194
 31
0.0
  0
LINE
  8
0
 62
     0
 10
32.5575
 20
173.194
 30
0.0
 11
33.2562
 21
177.337
 31
0.0
  0
LINE
  8
0
 62
     0
 10
33.2562
 20
177.337
 30
0.0
 11
33.4739
 21
181.769
 31
0.0
  0
LINE
  8
0
 62
     0
 10
33.4739
 20
181.769
 30
0.0
 11
33.1322
 21
186.45
 31
0.0
  0
LINE
  8
0
 62
     0
 10
33.1322
 20
186.45
 30
0.0
 11
32.1565
 21
191.335
 31
0.0
  0
LINE
  8
0
 62
     0
 10
32.1565
 20
191.335
 30
0.0
 11
30.4712
 21
196.383
 31
0.0
  0
LINE
  8
0
 62
     0
 10
30.4712
 20
196.383
 30
0.0
 11
28.0004
 21
201.547
 31
0.0
  0
LINE
  8
0
 62
     0
 10
28.0004
 20
201.547
 30
0.0
 11
24.6669
 21
206.786
 31
0.0
  0
LINE
  8
0
 62
     0
 10
24.6669
 20
206.786
 30
0.0
 11
20.395
 21
212.055
 31
0.0
  0
LINE
  8
0
 62
     0
 10
20.395
 20
212.055
 30
0.0
 11
15.1102
 21
217.314
 31
0.0
  0
LINE
  8
0
 62
     0
 10
15.1102
 20
217.314
 30
0.0
 11
10.3835
 21
221.289
 31
0.0
  0
LINE
  8
0
 62
     0
 10
10.3835
 20
221.289
 30
0.0
 11
8.73538
 21
222.515
 31
0.0
  0
LINE
  8
0
 62
     0
 10
8.73538
 20
222.515
 30
0.0
 11
9.31831
 21
223.097
 31
0.0
  0
LINE
  8
0
 62
     0
 10
9.31831
 20
223.097
 30
0.0
 11
11.0339
 21
224.879
 31
0.0
  0
LINE
  8
0
 62
     0
 10
11.0339
 20
224.879
 30
0.0
 11
12.8364
 21
227.145
 31
0.0
  0
LINE
  8
0
 62
     0
 10
12.8364
 20
227.145
 30
0.0
 11
13.6467
 21
229.212
 31
0.0
  0
LINE
  8
0
 62
     0
 10
13.6467
 20
229.212
 30
0.0
 11
13.2746
 21
230.675
 31
0.0
  0
LINE
  8
0
 62
     0
 10
13.2746
 20
230.675
 30
0.0
 11
12.9687
 21
230.981
 31
0.0
  0
LINE
  8
0
 62
     0
 10
12.9687
 20
230.981
 30
0.0
 11
12.4891
 21
231.461
 31
0.0
  0
LINE
  8
0
 62
     0
 10
12.4891
 20
231.461
 30
0.0
 11
10.6867
 21
232.536
 31
0.0
  0
LINE
  8
0
 62
     0
 10
10.6867
 20
232.536
 30
0.0
 11
7.41246
 21
233.892
 31
0.0
  0
LINE
  8
0
 62
     0
 10
7.41246
 20
233.892
 30
0.0
 11
3.74138
 21
234.851
 31
0.0
  0
LINE
  8
0
 62
     0
 10
3.74138
 20
234.851
 30
0.0
 11
1.13688
 21
235.215
 31
0.0
  0
LINE
  8
0
 62
     0
 10
1.13688
 20
235.215
 30
0.0
 11
0.268718
 21
235.215
 31
0.0
  0
LINE
  8
0
 62
     0
 10
0.268718
 20
235.215
 30
0.0
 11
0.268718
 21
0.264583
 31
0.0
  0
LINE
  8
0
 62
     0
 10
0.268718
 20
0.264583
 30
0.0
 11
0.268718
 21
235.215
 31
0.0
  0
ENDSEC
  0
EOF
