  0
SECTION
  2
HEADER
  9
$ACADVER
  1
AC1009
  9
$EXTMIN
 10
0.0
 20
0.0
 30
0.0
  9
$EXTMAX
 10
1000.0
 20
1000.0
 30
0.0
  9
$FILLMODE
 70
 0
  9
$SPLFRAME
 70
 1
  0
ENDSEC
  0
SECTION
  2
TABLES
  0
TABLE
  2
LAYER
 70
1
  0
LAYER
  2
0
 70
     0
 62
     7
  6
CONTINUOUS
  0
ENDTAB
  0
ENDSEC
  0
SECTION
  2
ENTITIES
  0
LINE
  8
0
 62
     0
 10
0.268718
 20
284.956
 30
0.0
 11
0.268718
 21
0.264583
 31
0.0
  0
LINE
  8
0
 62
     0
 10
0.268718
 20
0.264583
 30
0.0
 11
81.7605
 21
0.264583
 31
0.0
  0
LINE
  8
0
 62
     0
 10
81.7605
 20
0.264583
 30
0.0
 11
81.7605
 21
7.67292
 31
0.0
  0
LINE
  8
0
 62
     0
 10
81.7605
 20
7.67292
 30
0.0
 11
79.6438
 21
7.67292
 31
0.0
  0
LINE
  8
0
 62
     0
 10
79.6438
 20
7.67292
 30
0.0
 11
79.5334
 21
7.67292
 31
0.0
  0
LINE
  8
0
 62
     0
 10
79.5334
 20
7.67292
 30
0.0
 11
79.2067
 21
7.72252
 31
0.0
  0
LINE
  8
0
 62
     0
 10
79.2067
 20
7.72252
 30
0.0
 11
78.7344
 21
7.87135
 31
0.0
  0
LINE
  8
0
 62
     0
 10
78.7344
 20
7.87135
 30
0.0
 11
78.2849
 21
8.11939
 31
0.0
  0
LINE
  8
0
 62
     0
 10
78.2849
 20
8.11939
 30
0.0
 11
77.924
 21
8.46667
 31
0.0
  0
LINE
  8
0
 62
     0
 10
77.924
 20
8.46667
 30
0.0
 11
77.7102
 21
8.91314
 31
0.0
  0
LINE
  8
0
 62
     0
 10
77.7102
 20
8.91314
 30
0.0
 11
77.7088
 21
9.45885
 31
0.0
  0
LINE
  8
0
 62
     0
 10
77.7088
 20
9.45885
 30
0.0
 11
77.9791
 21
10.1038
 31
0.0
  0
LINE
  8
0
 62
     0
 10
77.9791
 20
10.1038
 30
0.0
 11
78.4158
 21
10.6798
 31
0.0
  0
LINE
  8
0
 62
     0
 10
78.4158
 20
10.6798
 30
0.0
 11
78.5855
 21
10.8479
 31
0.0
  0
LINE
  8
0
 62
     0
 10
78.5855
 20
10.8479
 30
0.0
 11
78.9563
 21
11.2186
 31
0.0
  0
LINE
  8
0
 62
     0
 10
78.9563
 20
11.2186
 30
0.0
 11
79.8311
 21
12.5677
 31
0.0
  0
LINE
  8
0
 62
     0
 10
79.8311
 20
12.5677
 30
0.0
 11
80.421
 21
14.4859
 31
0.0
  0
LINE
  8
0
 62
     0
 10
80.421
 20
14.4859
 30
0.0
 11
80.3892
 21
16.5034
 31
0.0
  0
LINE
  8
0
 62
     0
 10
80.3892
 20
16.5034
 30
0.0
 11
79.7761
 21
18.5208
 31
0.0
  0
LINE
  8
0
 62
     0
 10
79.7761
 20
18.5208
 30
0.0
 11
78.6158
 21
20.4391
 31
0.0
  0
LINE
  8
0
 62
     0
 10
78.6158
 20
20.4391
 30
0.0
 11
76.9482
 21
22.1589
 31
0.0
  0
LINE
  8
0
 62
     0
 10
76.9482
 20
22.1589
 30
0.0
 11
74.8083
 21
23.581
 31
0.0
  0
LINE
  8
0
 62
     0
 10
74.8083
 20
23.581
 30
0.0
 11
72.8969
 21
24.4174
 31
0.0
  0
LINE
  8
0
 62
     0
 10
72.8969
 20
24.4174
 30
0.0
 11
72.2355
 21
24.6063
 31
0.0
  0
LINE
  8
0
 62
     0
 10
72.2355
 20
24.6063
 30
0.0
 11
70.6949
 21
25.1836
 31
0.0
  0
LINE
  8
0
 62
     0
 10
70.6949
 20
25.1836
 30
0.0
 11
66.2368
 21
27.343
 31
0.0
  0
LINE
  8
0
 62
     0
 10
66.2368
 20
27.343
 30
0.0
 11
60.9575
 21
30.824
 31
0.0
  0
LINE
  8
0
 62
     0
 10
60.9575
 20
30.824
 30
0.0
 11
56.4226
 21
35.0986
 31
0.0
  0
LINE
  8
0
 62
     0
 10
56.4226
 20
35.0986
 30
0.0
 11
52.6563
 21
40.2167
 31
0.0
  0
LINE
  8
0
 62
     0
 10
52.6563
 20
40.2167
 30
0.0
 11
49.6838
 21
46.2276
 31
0.0
  0
LINE
  8
0
 62
     0
 10
49.6838
 20
46.2276
 30
0.0
 11
47.5297
 21
53.1813
 31
0.0
  0
LINE
  8
0
 62
     0
 10
47.5297
 20
53.1813
 30
0.0
 11
46.2195
 21
61.1269
 31
0.0
  0
LINE
  8
0
 62
     0
 10
46.2195
 20
61.1269
 30
0.0
 11
45.7771
 21
67.8684
 31
0.0
  0
LINE
  8
0
 62
     0
 10
45.7771
 20
67.8684
 30
0.0
 11
45.7771
 21
70.1146
 31
0.0
  0
LINE
  8
0
 62
     0
 10
45.7771
 20
70.1146
 30
0.0
 11
45.0413
 21
70.2924
 31
0.0
  0
LINE
  8
0
 62
     0
 10
45.0413
 20
70.2924
 30
0.0
 11
43.0209
 21
71.5987
 31
0.0
  0
LINE
  8
0
 62
     0
 10
43.0209
 20
71.5987
 30
0.0
 11
40.5059
 21
74.5395
 31
0.0
  0
LINE
  8
0
 62
     0
 10
40.5059
 20
74.5395
 30
0.0
 11
38.2228
 21
78.7605
 31
0.0
  0
LINE
  8
0
 62
     0
 10
38.2228
 20
78.7605
 30
0.0
 11
36.1611
 21
84.0796
 31
0.0
  0
LINE
  8
0
 62
     0
 10
36.1611
 20
84.0796
 30
0.0
 11
34.3131
 21
90.3206
 31
0.0
  0
LINE
  8
0
 62
     0
 10
34.3131
 20
90.3206
 30
0.0
 11
32.6705
 21
97.3046
 31
0.0
  0
LINE
  8
0
 62
     0
 10
32.6705
 20
97.3046
 30
0.0
 11
31.225
 21
104.849
 31
0.0
  0
LINE
  8
0
 62
     0
 10
31.225
 20
104.849
 30
0.0
 11
29.9682
 21
112.779
 31
0.0
  0
LINE
  8
0
 62
     0
 10
29.9682
 20
112.779
 30
0.0
 11
28.8906
 21
120.913
 31
0.0
  0
LINE
  8
0
 62
     0
 10
28.8906
 20
120.913
 30
0.0
 11
27.9838
 21
129.073
 31
0.0
  0
LINE
  8
0
 62
     0
 10
27.9838
 20
129.073
 30
0.0
 11
27.2411
 21
137.079
 31
0.0
  0
LINE
  8
0
 62
     0
 10
27.2411
 20
137.079
 30
0.0
 11
26.6526
 21
144.752
 31
0.0
  0
LINE
  8
0
 62
     0
 10
26.6526
 20
144.752
 30
0.0
 11
26.2089
 21
151.915
 31
0.0
  0
LINE
  8
0
 62
     0
 10
26.2089
 20
151.915
 30
0.0
 11
25.903
 21
158.386
 31
0.0
  0
LINE
  8
0
 62
     0
 10
25.903
 20
158.386
 30
0.0
 11
25.7252
 21
163.988
 31
0.0
  0
LINE
  8
0
 62
     0
 10
25.7252
 20
163.988
 30
0.0
 11
25.6687
 21
167.403
 31
0.0
  0
LINE
  8
0
 62
     0
 10
25.6687
 20
167.403
 30
0.0
 11
25.6687
 21
168.54
 31
0.0
  0
LINE
  8
0
 62
     0
 10
25.6687
 20
168.54
 30
0.0
 11
25.6687
 21
168.54
 31
0.0
  0
LINE
  8
0
 62
     0
 10
25.6687
 20
168.54
 30
0.0
 11
25.8589
 21
169.025
 31
0.0
  0
LINE
  8
0
 62
     0
 10
25.8589
 20
169.025
 30
0.0
 11
26.4956
 21
170.433
 31
0.0
  0
LINE
  8
0
 62
     0
 10
26.4956
 20
170.433
 30
0.0
 11
27.6779
 21
172.698
 31
0.0
  0
LINE
  8
0
 62
     0
 10
27.6779
 20
172.698
 30
0.0
 11
29.5052
 21
175.75
 31
0.0
  0
LINE
  8
0
 62
     0
 10
29.5052
 20
175.75
 30
0.0
 11
32.0766
 21
179.521
 31
0.0
  0
LINE
  8
0
 62
     0
 10
32.0766
 20
179.521
 30
0.0
 11
35.4912
 21
183.943
 31
0.0
  0
LINE
  8
0
 62
     0
 10
35.4912
 20
183.943
 30
0.0
 11
39.8487
 21
188.95
 31
0.0
  0
LINE
  8
0
 62
     0
 10
39.8487
 20
188.95
 30
0.0
 11
43.8602
 21
193.128
 31
0.0
  0
LINE
  8
0
 62
     0
 10
43.8602
 20
193.128
 30
0.0
 11
45.248
 21
194.469
 31
0.0
  0
LINE
  8
0
 62
     0
 10
45.248
 20
194.469
 30
0.0
 11
45.248
 21
195.304
 31
0.0
  0
LINE
  8
0
 62
     0
 10
45.248
 20
195.304
 30
0.0
 11
44.7516
 21
197.809
 31
0.0
  0
LINE
  8
0
 62
     0
 10
44.7516
 20
197.809
 30
0.0
 11
43.2636
 21
200.157
 31
0.0
  0
LINE
  8
0
 62
     0
 10
43.2636
 20
200.157
 30
0.0
 11
40.7829
 21
201.91
 31
0.0
  0
LINE
  8
0
 62
     0
 10
40.7829
 20
201.91
 30
0.0
 11
38.1924
 21
203.112
 31
0.0
  0
LINE
  8
0
 62
     0
 10
38.1924
 20
203.112
 30
0.0
 11
37.3105
 21
203.465
 31
0.0
  0
LINE
  8
0
 62
     0
 10
37.3105
 20
203.465
 30
0.0
 11
37.3105
 21
203.762
 31
0.0
  0
LINE
  8
0
 62
     0
 10
37.3105
 20
203.762
 30
0.0
 11
37.2442
 21
204.651
 31
0.0
  0
LINE
  8
0
 62
     0
 10
37.2442
 20
204.651
 30
0.0
 11
36.9796
 21
205.813
 31
0.0
  0
LINE
  8
0
 62
     0
 10
36.9796
 20
205.813
 30
0.0
 11
36.4173
 21
206.925
 31
0.0
  0
LINE
  8
0
 62
     0
 10
36.4173
 20
206.925
 30
0.0
 11
35.4584
 21
207.963
 31
0.0
  0
LINE
  8
0
 62
     0
 10
35.4584
 20
207.963
 30
0.0
 11
34.0031
 21
208.901
 31
0.0
  0
LINE
  8
0
 62
     0
 10
34.0031
 20
208.901
 30
0.0
 11
31.9526
 21
209.715
 31
0.0
  0
LINE
  8
0
 62
     0
 10
31.9526
 20
209.715
 30
0.0
 11
29.2075
 21
210.381
 31
0.0
  0
LINE
  8
0
 62
     0
 10
29.2075
 20
210.381
 30
0.0
 11
26.5562
 21
210.785
 31
0.0
  0
LINE
  8
0
 62
     0
 10
26.5562
 20
210.785
 30
0.0
 11
25.6687
 21
210.873
 31
0.0
  0
LINE
  8
0
 62
     0
 10
25.6687
 20
210.873
 30
0.0
 11
25.6687
 21
216.165
 31
0.0
  0
LINE
  8
0
 62
     0
 10
25.6687
 20
216.165
 30
0.0
 11
26.0339
 21
216.257
 31
0.0
  0
LINE
  8
0
 62
     0
 10
26.0339
 20
216.257
 30
0.0
 11
27.1115
 21
216.607
 31
0.0
  0
LINE
  8
0
 62
     0
 10
27.1115
 20
216.607
 30
0.0
 11
28.2815
 21
217.124
 31
0.0
  0
LINE
  8
0
 62
     0
 10
28.2815
 20
217.124
 30
0.0
 11
29.2034
 21
217.69
 31
0.0
  0
LINE
  8
0
 62
     0
 10
29.2034
 20
217.69
 30
0.0
 11
29.902
 21
218.281
 31
0.0
  0
LINE
  8
0
 62
     0
 10
29.902
 20
218.281
 30
0.0
 11
30.4023
 21
218.873
 31
0.0
  0
LINE
  8
0
 62
     0
 10
30.4023
 20
218.873
 30
0.0
 11
30.7289
 21
219.439
 31
0.0
  0
LINE
  8
0
 62
     0
 10
30.7289
 20
219.439
 30
0.0
 11
30.9066
 21
219.956
 31
0.0
  0
LINE
  8
0
 62
     0
 10
30.9066
 20
219.956
 30
0.0
 11
30.9604
 21
220.288
 31
0.0
  0
LINE
  8
0
 62
     0
 10
30.9604
 20
220.288
 30
0.0
 11
30.9604
 21
220.398
 31
0.0
  0
LINE
  8
0
 62
     0
 10
30.9604
 20
220.398
 30
0.0
 11
30.9604
 21
220.509
 31
0.0
  0
LINE
  8
0
 62
     0
 10
30.9604
 20
220.509
 30
0.0
 11
30.9066
 21
220.84
 31
0.0
  0
LINE
  8
0
 62
     0
 10
30.9066
 20
220.84
 30
0.0
 11
30.7289
 21
221.357
 31
0.0
  0
LINE
  8
0
 62
     0
 10
30.7289
 20
221.357
 30
0.0
 11
30.4023
 21
221.923
 31
0.0
  0
LINE
  8
0
 62
     0
 10
30.4023
 20
221.923
 30
0.0
 11
29.902
 21
222.515
 31
0.0
  0
LINE
  8
0
 62
     0
 10
29.902
 20
222.515
 30
0.0
 11
29.2034
 21
223.106
 31
0.0
  0
LINE
  8
0
 62
     0
 10
29.2034
 20
223.106
 30
0.0
 11
28.2815
 21
223.672
 31
0.0
  0
LINE
  8
0
 62
     0
 10
28.2815
 20
223.672
 30
0.0
 11
27.1115
 21
224.189
 31
0.0
  0
LINE
  8
0
 62
     0
 10
27.1115
 20
224.189
 30
0.0
 11
26.0339
 21
224.54
 31
0.0
  0
LINE
  8
0
 62
     0
 10
26.0339
 20
224.54
 30
0.0
 11
25.6687
 21
224.631
 31
0.0
  0
LINE
  8
0
 62
     0
 10
25.6687
 20
224.631
 30
0.0
 11
52.1271
 21
276.49
 31
0.0
  0
LINE
  8
0
 62
     0
 10
52.1271
 20
276.49
 30
0.0
 11
52.2182
 21
276.765
 31
0.0
  0
LINE
  8
0
 62
     0
 10
52.2182
 20
276.765
 30
0.0
 11
52.3794
 21
277.629
 31
0.0
  0
LINE
  8
0
 62
     0
 10
52.3794
 20
277.629
 30
0.0
 11
52.3586
 21
278.656
 31
0.0
  0
LINE
  8
0
 62
     0
 10
52.3586
 20
278.656
 30
0.0
 11
52.0898
 21
279.56
 31
0.0
  0
LINE
  8
0
 62
     0
 10
52.0898
 20
279.56
 30
0.0
 11
51.598
 21
280.326
 31
0.0
  0
LINE
  8
0
 62
     0
 10
51.598
 20
280.326
 30
0.0
 11
50.9076
 21
280.945
 31
0.0
  0
LINE
  8
0
 62
     0
 10
50.9076
 20
280.945
 30
0.0
 11
50.0433
 21
281.401
 31
0.0
  0
LINE
  8
0
 62
     0
 10
50.0433
 20
281.401
 30
0.0
 11
49.0305
 21
281.685
 31
0.0
  0
LINE
  8
0
 62
     0
 10
49.0305
 20
281.685
 30
0.0
 11
48.1774
 21
281.781
 31
0.0
  0
LINE
  8
0
 62
     0
 10
48.1774
 20
281.781
 30
0.0
 11
47.8938
 21
281.781
 31
0.0
  0
LINE
  8
0
 62
     0
 10
47.8938
 20
281.781
 30
0.0
 11
23.552
 21
281.781
 31
0.0
  0
LINE
  8
0
 62
     0
 10
23.552
 20
281.781
 30
0.0
 11
23.552
 21
282.128
 31
0.0
  0
LINE
  8
0
 62
     0
 10
23.552
 20
282.128
 30
0.0
 11
23.3536
 21
283.17
 31
0.0
  0
LINE
  8
0
 62
     0
 10
23.3536
 20
283.17
 30
0.0
 11
22.7583
 21
284.163
 31
0.0
  0
LINE
  8
0
 62
     0
 10
22.7583
 20
284.163
 30
0.0
 11
21.7661
 21
284.758
 31
0.0
  0
LINE
  8
0
 62
     0
 10
21.7661
 20
284.758
 30
0.0
 11
20.7243
 21
284.956
 31
0.0
  0
LINE
  8
0
 62
     0
 10
20.7243
 20
284.956
 30
0.0
 11
20.377
 21
284.956
 31
0.0
  0
LINE
  8
0
 62
     0
 10
20.377
 20
284.956
 30
0.0
 11
0.268718
 21
284.956
 31
0.0
  0
ENDSEC
  0
EOF
