999
Inkscape export via OpenSCAD DXF Export
  0
SECTION
  2
HEADER
  9
$ACADVER
  1
AC1014
  9
$HANDSEED
  5
FFFF
  9
$MEASUREMENT
 70
     1
  0
ENDSEC
  0
SECTION
  2
TABLES
  0
TABLE
  2
VPORT
  5
8
330
0
100
AcDbSymbolTable
 70
     4
  0
VPORT
  5
2E
330
8
100
AcDbSymbolTableRecord
100
AcDbViewportTableRecord
  2
*ACTIVE
 70
     0
 10
0.0
 20
0.0
 11
1.0
 21
1.0
 12
210.0
 22
148.5
 13
0.0
 23
0.0
 14
10.0
 24
10.0
 15
10.0
 25
10.0
 16
0.0
 26
0.0
 36
1.0
 17
0.0
 27
0.0
 37
0.0
 40
341.0
 41
1.24
 42
50.0
 43
0.0
 44
0.0
 50
0.0
 51
0.0
 71
     0
 72
   100
 73
     1
 74
     3
 75
     0
 76
     0
 77
     0
 78
     0
  0
ENDTAB
  0
TABLE
  2
LTYPE
  5
5
330
0
100
AcDbSymbolTable
 70
     1
  0
LTYPE
  5
14
330
5
100
AcDbSymbolTableRecord
100
AcDbLinetypeTableRecord
  2
BYBLOCK
 70
     0
  3

 72
    65
 73
     0
 40
0.0
  0
LTYPE
  5
15
330
5
100
AcDbSymbolTableRecord
100
AcDbLinetypeTableRecord
  2
BYLAYER
 70
     0
  3

 72
    65
 73
     0
 40
0.0
  0
LTYPE
  5
16
330
5
100
AcDbSymbolTableRecord
100
AcDbLinetypeTableRecord
  2
CONTINUOUS
 70
     0
  3
Solid line
 72
    65
 73
     0
 40
0.0
  0
ENDTAB
  0
TABLE
0
TABLE
2
LAYER
5
2
330
0
100
AcDbSymbolTable
70
1
0
LAYER
5
10
330
2
100
AcDbSymbolTableRecord
100
AcDbLayerTableRecord
2
Layer_1
70
0
62
7
6
CONTINUOUS
0
ENDTAB
0
ENDSEC
  0
ENDTAB
  0
TABLE
  2
STYLE
  5
3
330
0
100
AcDbSymbolTable
 70
     1
  0
STYLE
  5
11
330
3
100
AcDbSymbolTableRecord
100
AcDbTextStyleTableRecord
  2
STANDARD
 70
     0
 40
0.0
 41
1.0
 50
0.0
 71
     0
 42
2.5
  3
txt
  4

  0
ENDTAB
  0
TABLE
  2
VIEW
  5
6
330
0
100
AcDbSymbolTable
 70
     0
  0
ENDTAB
  0
TABLE
  2
UCS
  5
7
330
0
100
AcDbSymbolTable
 70
     0
  0
ENDTAB
  0
TABLE
  2
APPID
  5
9
330
0
100
AcDbSymbolTable
 70
     2
  0
APPID
  5
12
330
9
100
AcDbSymbolTableRecord
100
AcDbRegAppTableRecord
  2
ACAD
 70
     0
  0
ENDTAB
  0
TABLE
  2
DIMSTYLE
  5
A
330
0
100
AcDbSymbolTable
 70
     1
  0
DIMSTYLE
105
27
330
A
100
AcDbSymbolTableRecord
100
AcDbDimStyleTableRecord
  2
ISO-25
 70
     0
  3

  4

  5

  6

  7

 40
1.0
 41
2.5
 42
0.625
 43
3.75
 44
1.25
 45
0.0
 46
0.0
 47
0.0
 48
0.0
140
2.5
141
2.5
142
0.0
143
0.03937007874016
144
1.0
145
0.0
146
1.0
147
0.625
 71
     0
 72
     0
 73
     0
 74
     0
 75
     0
 76
     0
 77
     1
 78
     8
170
     0
171
     3
172
     1
173
     0
174
     0
175
     0
176
     0
177
     0
178
     0
270
     2
271
     2
272
     2
273
     2
274
     3
340
11
275
     0
280
     0
281
     0
282
     0
283
     0
284
     8
285
     0
286
     0
287
     3
288
     0
  0
ENDTAB
  0
TABLE
  2
BLOCK_RECORD
  5
1
330
0
100
AcDbSymbolTable
 70
     1
  0
BLOCK_RECORD
  5
1F
330
1
100
AcDbSymbolTableRecord
100
AcDbBlockTableRecord
  2
*MODEL_SPACE
  0
BLOCK_RECORD
  5
1B
330
1
100
AcDbSymbolTableRecord
100
AcDbBlockTableRecord
  2
*PAPER_SPACE
  0
ENDTAB
  0
ENDSEC
  0
SECTION
  2
BLOCKS
  0
BLOCK
  5
20
330
1F
100
AcDbEntity
  8
0
100
AcDbBlockBegin
  2
*MODEL_SPACE
 70
     0
 10
0.0
 20
0.0
 30
0.0
  3
*MODEL_SPACE
  1

  0
ENDBLK
  5
21
330
1F
100
AcDbEntity
  8
0
100
AcDbBlockEnd
  0
BLOCK
  5
1C
330
1B
100
AcDbEntity
 67
     1
  8
0
100
AcDbBlockBegin
  2
*PAPER_SPACE
  1

  0
ENDBLK
  5
1D
330
1B
100
AcDbEntity
 67
     1
  8
0
100
AcDbBlockEnd
  0
ENDSEC
  0
SECTION
  2
ENTITIES
0
DIMENSION
5
83
100
AcDbEntity
62
256
370
-1
6
ByLayer
1
total_width
3
Standard
70
0
71
5
72
1
41
1.0
100
AcDbAlignedDimension
13
0.000000
23
0.000000
33
0.0
14
86.924444
24
0.000000
34
0.0
50
0.000000
100
AcDbRotatedDimension
0
DIMENSION
5
83
100
AcDbEntity
62
256
370
-1
6
ByLayer
1
total_height
3
Standard
70
0
71
5
72
1
41
1.0
100
AcDbAlignedDimension
13
0.000000
23
-275.448889
33
0.0
14
0.000000
24
28.222222
34
0.0
50
90.000000
100
AcDbRotatedDimension
0
DIMENSION
8
Layer_1
5
83
100
AcDbEntity
62
256
370
-1
6
ByLayer
1
Layer_1_width
3
Standard
70
0
71
5
72
1
41
1.0
100
AcDbAlignedDimension
13
0.000000
23
0.000000
33
0.0
14
86.924444
24
0.000000
34
0.0
50
0.000000
100
AcDbRotatedDimension
0
DIMENSION
8
Layer_1
5
83
100
AcDbEntity
62
256
370
-1
6
ByLayer
1
Layer_1_height
3
Standard
70
0
71
5
72
1
41
1.0
100
AcDbAlignedDimension
13
0.000000
23
-275.448889
33
0.0
14
0.000000
24
28.222222
34
0.0
50
90.000000
100
AcDbRotatedDimension
62
0
0
LWPOLYLINE
100
AcDbPolyline
8
Layer_1
90
115
70
0
10
0.000000
20
28.222222
30
0.0
10
0.000000
20
-275.448889
30
0.0
10
86.924444
20
-275.448889
30
0.0
10
86.924444
20
-267.546667
30
0.0
10
84.666667
20
-267.546667
30
0.0
10
83.696528
20
-267.335000
30
0.0
10
83.218073
20
-267.070417
30
0.0
10
82.832222
20
-266.700000
30
0.0
10
82.605122
20
-266.223750
30
0.0
10
82.602917
20
-265.641667
30
0.0
10
82.891753
20
-264.953750
30
0.0
10
83.537778
20
-264.160000
30
0.0
10
84.292667
20
-263.275851
30
0.0
10
84.867309
20
-262.325556
30
0.0
10
85.266664
20
-261.322344
30
0.0
10
85.495694
20
-260.279444
30
0.0
10
85.559360
20
-259.210087
30
0.0
10
85.462622
20
-258.127500
30
0.0
10
84.807778
20
-255.975556
30
0.0
10
83.570851
20
-253.929444
30
0.0
10
81.791528
20
-252.095000
30
0.0
10
79.509497
20
-250.578056
30
0.0
10
78.192368
20
-249.971719
30
0.0
10
76.764444
20
-249.484444
30
0.0
10
73.470933
20
-248.120738
30
0.0
10
70.365938
20
-246.565208
30
0.0
10
67.452765
20
-244.811241
30
0.0
10
64.734722
20
-242.852222
30
0.0
10
62.215117
20
-240.681536
30
0.0
10
59.897257
20
-238.292569
30
0.0
10
57.784449
20
-235.678707
30
0.0
10
55.880000
20
-232.833333
30
0.0
10
54.187218
20
-229.749835
30
0.0
10
52.709410
20
-226.421597
30
0.0
10
51.449883
20
-222.842005
30
0.0
10
50.411944
20
-219.004444
30
0.0
10
49.598902
20
-214.902300
30
0.0
10
49.014062
20
-210.528958
30
0.0
10
48.660734
20
-205.877804
30
0.0
10
48.542222
20
-200.942222
30
0.0
10
47.040522
20
-200.357159
30
0.0
10
45.603831
20
-199.357340
30
0.0
10
44.231013
20
-197.964575
30
0.0
10
42.920929
20
-196.200668
30
0.0
10
41.672443
20
-194.087430
30
0.0
10
40.484419
20
-191.646666
30
0.0
10
39.355720
20
-188.900184
30
0.0
10
38.285208
20
-185.869792
30
0.0
10
36.314200
20
-179.044506
30
0.0
10
34.562300
20
-171.345269
30
0.0
10
33.020413
20
-162.946540
30
0.0
10
31.679444
20
-154.022778
30
0.0
10
30.530298
20
-144.748443
30
0.0
10
29.563880
20
-135.297995
30
0.0
10
28.771095
20
-125.845893
30
0.0
10
28.142847
20
-116.566597
30
0.0
10
27.343585
20
-99.224262
30
0.0
10
27.093333
20
-84.666667
30
0.0
10
33.699097
20
-83.581875
30
0.0
10
38.830911
20
-82.513620
30
0.0
10
44.379444
20
-81.068333
30
0.0
10
49.742769
20
-79.226172
30
0.0
10
52.166876
20
-78.150062
30
0.0
10
54.318958
20
-76.967292
30
0.0
10
56.123775
20
-75.675381
30
0.0
10
57.506085
20
-74.271849
30
0.0
10
58.390648
20
-72.754215
30
0.0
10
58.622761
20
-71.951836
30
0.0
10
58.702222
20
-71.120000
30
0.0
10
58.585916
20
-70.261207
30
0.0
10
58.248021
20
-69.382569
30
0.0
10
57.705074
20
-68.490703
30
0.0
10
56.973611
20
-67.592222
30
0.0
10
55.011285
20
-65.801875
30
0.0
10
52.493333
20
-64.064444
30
0.0
10
49.552049
20
-62.432847
30
0.0
10
46.319722
20
-60.960000
30
0.0
10
42.928646
20
-59.698819
30
0.0
10
39.511111
20
-58.702222
30
0.0
10
39.440556
20
-57.436632
30
0.0
10
39.158333
20
-56.197500
30
0.0
10
38.558611
20
-55.011285
30
0.0
10
37.535556
20
-53.904444
30
0.0
10
35.983333
20
-52.903437
30
0.0
10
33.796111
20
-52.034722
30
0.0
10
30.868056
20
-51.324757
30
0.0
10
27.093333
20
-50.800000
30
0.0
10
27.093333
20
-45.155556
30
0.0
10
28.632326
20
-44.683715
30
0.0
10
29.880278
20
-44.132500
30
0.0
10
30.863646
20
-43.528368
30
0.0
10
31.608889
20
-42.897778
30
0.0
10
32.490833
20
-41.663056
30
0.0
10
32.737778
20
-40.640000
30
0.0
10
32.490833
20
-39.616944
30
0.0
10
31.608889
20
-38.382222
30
0.0
10
30.863646
20
-37.751632
30
0.0
10
29.880278
20
-37.147500
30
0.0
10
28.632326
20
-36.596285
30
0.0
10
27.093333
20
-36.124444
30
0.0
10
55.315556
20
19.191111
30
0.0
10
55.584549
20
20.405990
30
0.0
10
55.562500
20
21.501806
30
0.0
10
55.275868
20
22.465330
30
0.0
10
54.751111
20
23.283333
30
0.0
10
54.014688
20
23.942587
30
0.0
10
53.093056
20
24.429861
30
0.0
10
52.012674
20
24.731927
30
0.0
10
50.800000
20
24.835556
30
0.0
10
24.835556
20
24.835556
30
0.0
10
24.623889
20
26.317222
30
0.0
10
23.988889
20
27.375556
30
0.0
10
22.930556
20
28.010556
30
0.0
10
21.448889
20
28.222222
30
0.0
10
0.000000
20
28.222222
30
0.0
  0
ENDSEC
  0
SECTION
  2
OBJECTS
  0
DICTIONARY
  5
C
330
0
100
AcDbDictionary
  3
ACAD_GROUP
350
D
  3
ACAD_MLINESTYLE
350
17
  0
DICTIONARY
  5
D
330
C
100
AcDbDictionary
  0
DICTIONARY
  5
1A
330
C
100
AcDbDictionary
  0
DICTIONARY
  5
17
330
C
100
AcDbDictionary
  3
STANDARD
350
18
  0
DICTIONARY
  5
19
330
C
100
AcDbDictionary
  0
ENDSEC
  0
EOF
