  0
SECTION
  2
HEADER
  9
$ACADVER
  1
AC1009
  9
$EXTMIN
 10
0.0
 20
0.0
 30
0.0
  9
$EXTMAX
 10
1000.0
 20
1000.0
 30
0.0
  9
$FILLMODE
 70
 0
  9
$SPLFRAME
 70
 1
  0
ENDSEC
  0
SECTION
  2
TABLES
  0
TABLE
  2
LAYER
 70
1
  0
LAYER
  2
0
 70
     0
 62
     7
  6
CONTINUOUS
  0
ENDTAB
  0
ENDSEC
  0
SECTION
  2
ENTITIES
  0
LINE
  8
0
 62
     0
 10
0.268718
 20
148.431
 30
0.0
 11
0.268718
 21
0.264583
 31
0.0
  0
LINE
  8
0
 62
     0
 10
0.268718
 20
0.264583
 30
0.0
 11
51.0688
 21
0.264583
 31
0.0
  0
LINE
  8
0
 62
     0
 10
51.0688
 20
0.264583
 30
0.0
 11
51.0688
 21
4.49792
 31
0.0
  0
LINE
  8
0
 62
     0
 10
51.0688
 20
4.49792
 30
0.0
 11
48.9521
 21
4.49792
 31
0.0
  0
LINE
  8
0
 62
     0
 10
48.9521
 20
4.49792
 30
0.0
 11
48.799
 21
4.49792
 31
0.0
  0
LINE
  8
0
 62
     0
 10
48.799
 20
4.49792
 30
0.0
 11
48.3443
 21
4.58886
 31
0.0
  0
LINE
  8
0
 62
     0
 10
48.3443
 20
4.58886
 30
0.0
 11
48.0589
 21
4.82865
 31
0.0
  0
LINE
  8
0
 62
     0
 10
48.0589
 20
4.82865
 30
0.0
 11
48.0219
 21
5.16763
 31
0.0
  0
LINE
  8
0
 62
     0
 10
48.0219
 20
5.16763
 30
0.0
 11
48.1584
 21
5.55625
 31
0.0
  0
LINE
  8
0
 62
     0
 10
48.1584
 20
5.55625
 30
0.0
 11
48.3941
 21
5.94487
 31
0.0
  0
LINE
  8
0
 62
     0
 10
48.3941
 20
5.94487
 30
0.0
 11
48.6544
 21
6.28385
 31
0.0
  0
LINE
  8
0
 62
     0
 10
48.6544
 20
6.28385
 30
0.0
 11
48.8654
 21
6.52364
 31
0.0
  0
LINE
  8
0
 62
     0
 10
48.8654
 20
6.52364
 30
0.0
 11
48.9521
 21
6.61458
 31
0.0
  0
LINE
  8
0
 62
     0
 10
48.9521
 20
6.61458
 30
0.0
 11
48.9521
 21
6.61458
 31
0.0
  0
LINE
  8
0
 62
     0
 10
48.9521
 20
6.61458
 30
0.0
 11
49.3367
 21
6.99904
 31
0.0
  0
LINE
  8
0
 62
     0
 10
49.3367
 20
6.99904
 30
0.0
 11
50.1096
 21
8.53281
 31
0.0
  0
LINE
  8
0
 62
     0
 10
50.1096
 20
8.53281
 30
0.0
 11
50.2751
 21
10.8479
 31
0.0
  0
LINE
  8
0
 62
     0
 10
50.2751
 20
10.8479
 30
0.0
 11
49.2495
 21
13.163
 31
0.0
  0
LINE
  8
0
 62
     0
 10
49.2495
 20
13.163
 30
0.0
 11
47.5093
 21
14.745
 31
0.0
  0
LINE
  8
0
 62
     0
 10
47.5093
 20
14.745
 30
0.0
 11
46.8355
 21
15.0813
 31
0.0
  0
LINE
  8
0
 62
     0
 10
46.8355
 20
15.0813
 30
0.0
 11
45.3789
 21
15.6283
 31
0.0
  0
LINE
  8
0
 62
     0
 10
45.3789
 20
15.6283
 30
0.0
 11
41.1551
 21
17.6568
 31
0.0
  0
LINE
  8
0
 62
     0
 10
41.1551
 20
17.6568
 30
0.0
 11
36.715
 21
20.6044
 31
0.0
  0
LINE
  8
0
 62
     0
 10
36.715
 20
20.6044
 30
0.0
 11
33.3664
 21
23.8993
 31
0.0
  0
LINE
  8
0
 62
     0
 10
33.3664
 20
23.8993
 30
0.0
 11
30.9604
 21
27.5167
 31
0.0
  0
LINE
  8
0
 62
     0
 10
30.9604
 20
27.5167
 30
0.0
 11
29.3481
 21
31.4317
 31
0.0
  0
LINE
  8
0
 62
     0
 10
29.3481
 20
31.4317
 30
0.0
 11
28.3807
 21
35.6196
 31
0.0
  0
LINE
  8
0
 62
     0
 10
28.3807
 20
35.6196
 30
0.0
 11
27.9094
 21
40.0554
 31
0.0
  0
LINE
  8
0
 62
     0
 10
27.9094
 20
40.0554
 30
0.0
 11
27.7854
 21
43.5501
 31
0.0
  0
LINE
  8
0
 62
     0
 10
27.7854
 20
43.5501
 30
0.0
 11
27.7854
 21
44.7146
 31
0.0
  0
LINE
  8
0
 62
     0
 10
27.7854
 20
44.7146
 30
0.0
 11
27.3182
 21
44.6634
 31
0.0
  0
LINE
  8
0
 62
     0
 10
27.3182
 20
44.6634
 30
0.0
 11
25.8479
 21
45.1362
 31
0.0
  0
LINE
  8
0
 62
     0
 10
25.8479
 20
45.1362
 30
0.0
 11
23.7009
 21
46.7981
 31
0.0
  0
LINE
  8
0
 62
     0
 10
23.7009
 20
46.7981
 30
0.0
 11
21.4781
 21
49.7004
 31
0.0
  0
LINE
  8
0
 62
     0
 10
21.4781
 20
49.7004
 30
0.0
 11
19.3187
 21
53.8427
 31
0.0
  0
LINE
  8
0
 62
     0
 10
19.3187
 20
53.8427
 30
0.0
 11
17.3564
 21
59.2254
 31
0.0
  0
LINE
  8
0
 62
     0
 10
17.3564
 20
59.2254
 30
0.0
 11
15.7303
 21
65.8481
 31
0.0
  0
LINE
  8
0
 62
     0
 10
15.7303
 20
65.8481
 30
0.0
 11
14.5741
 21
73.7112
 31
0.0
  0
LINE
  8
0
 62
     0
 10
14.5741
 20
73.7112
 30
0.0
 11
14.0725
 21
80.5381
 31
0.0
  0
LINE
  8
0
 62
     0
 10
14.0725
 20
80.5381
 30
0.0
 11
14.027
 21
82.8146
 31
0.0
  0
LINE
  8
0
 62
     0
 10
14.027
 20
82.8146
 30
0.0
 11
14.2737
 21
82.8767
 31
0.0
  0
LINE
  8
0
 62
     0
 10
14.2737
 20
82.8767
 30
0.0
 11
15.0096
 21
83.0915
 31
0.0
  0
LINE
  8
0
 62
     0
 10
15.0096
 20
83.0915
 30
0.0
 11
16.2843
 21
83.5339
 31
0.0
  0
LINE
  8
0
 62
     0
 10
16.2843
 20
83.5339
 30
0.0
 11
17.7188
 21
84.1636
 31
0.0
  0
LINE
  8
0
 62
     0
 10
17.7188
 20
84.1636
 30
0.0
 11
19.1864
 21
84.9976
 31
0.0
  0
LINE
  8
0
 62
     0
 10
19.1864
 20
84.9976
 30
0.0
 11
20.5534
 21
86.0559
 31
0.0
  0
LINE
  8
0
 62
     0
 10
20.5534
 20
86.0559
 30
0.0
 11
21.6917
 21
87.3538
 31
0.0
  0
LINE
  8
0
 62
     0
 10
21.6917
 20
87.3538
 30
0.0
 11
22.4689
 21
88.9138
 31
0.0
  0
LINE
  8
0
 62
     0
 10
22.4689
 20
88.9138
 30
0.0
 11
22.7583
 21
90.2931
 31
0.0
  0
LINE
  8
0
 62
     0
 10
22.7583
 20
90.2931
 30
0.0
 11
22.7583
 21
90.7521
 31
0.0
  0
LINE
  8
0
 62
     0
 10
22.7583
 20
90.7521
 30
0.0
 11
22.7583
 21
91.4908
 31
0.0
  0
LINE
  8
0
 62
     0
 10
22.7583
 20
91.4908
 30
0.0
 11
22.0886
 21
93.7038
 31
0.0
  0
LINE
  8
0
 62
     0
 10
22.0886
 20
93.7038
 30
0.0
 11
20.377
 21
96.1101
 31
0.0
  0
LINE
  8
0
 62
     0
 10
20.377
 20
96.1101
 30
0.0
 11
18.0702
 21
97.8214
 31
0.0
  0
LINE
  8
0
 62
     0
 10
18.0702
 20
97.8214
 30
0.0
 11
16.2471
 21
98.5848
 31
0.0
  0
LINE
  8
0
 62
     0
 10
16.2471
 20
98.5848
 30
0.0
 11
15.6145
 21
98.6896
 31
0.0
  0
LINE
  8
0
 62
     0
 10
15.6145
 20
98.6896
 30
0.0
 11
15.3913
 21
98.7266
 31
0.0
  0
LINE
  8
0
 62
     0
 10
15.3913
 20
98.7266
 30
0.0
 11
14.7588
 21
99.0575
 31
0.0
  0
LINE
  8
0
 62
     0
 10
14.7588
 20
99.0575
 30
0.0
 11
14.5232
 21
99.6488
 31
0.0
  0
LINE
  8
0
 62
     0
 10
14.5232
 20
99.6488
 30
0.0
 11
14.8332
 21
100.289
 31
0.0
  0
LINE
  8
0
 62
     0
 10
14.8332
 20
100.289
 30
0.0
 11
15.401
 21
100.722
 31
0.0
  0
LINE
  8
0
 62
     0
 10
15.401
 20
100.722
 30
0.0
 11
15.6145
 21
100.806
 31
0.0
  0
LINE
  8
0
 62
     0
 10
15.6145
 20
100.806
 30
0.0
 11
16.1561
 21
101.349
 31
0.0
  0
LINE
  8
0
 62
     0
 10
16.1561
 20
101.349
 30
0.0
 11
17.7629
 21
102.997
 31
0.0
  0
LINE
  8
0
 62
     0
 10
17.7629
 20
102.997
 30
0.0
 11
19.8065
 21
105.238
 31
0.0
  0
LINE
  8
0
 62
     0
 10
19.8065
 20
105.238
 30
0.0
 11
21.6876
 21
107.578
 31
0.0
  0
LINE
  8
0
 62
     0
 10
21.6876
 20
107.578
 30
0.0
 11
23.3536
 21
110.067
 31
0.0
  0
LINE
  8
0
 62
     0
 10
23.3536
 20
110.067
 30
0.0
 11
24.7454
 21
112.754
 31
0.0
  0
LINE
  8
0
 62
     0
 10
24.7454
 20
112.754
 30
0.0
 11
25.8093
 21
115.689
 31
0.0
  0
LINE
  8
0
 62
     0
 10
25.8093
 20
115.689
 30
0.0
 11
26.4873
 21
118.922
 31
0.0
  0
LINE
  8
0
 62
     0
 10
26.4873
 20
118.922
 30
0.0
 11
26.727
 21
121.608
 31
0.0
  0
LINE
  8
0
 62
     0
 10
26.727
 20
121.608
 30
0.0
 11
26.727
 21
122.502
 31
0.0
  0
LINE
  8
0
 62
     0
 10
26.727
 20
122.502
 30
0.0
 11
26.727
 21
123.997
 31
0.0
  0
LINE
  8
0
 62
     0
 10
26.727
 20
123.997
 30
0.0
 11
26.1317
 21
128.478
 31
0.0
  0
LINE
  8
0
 62
     0
 10
26.1317
 20
128.478
 30
0.0
 11
24.4533
 21
133.697
 31
0.0
  0
LINE
  8
0
 62
     0
 10
24.4533
 20
133.697
 30
0.0
 11
21.8433
 21
138.148
 31
0.0
  0
LINE
  8
0
 62
     0
 10
21.8433
 20
138.148
 30
0.0
 11
18.4588
 21
141.817
 31
0.0
  0
LINE
  8
0
 62
     0
 10
18.4588
 20
141.817
 30
0.0
 11
14.4529
 21
144.693
 31
0.0
  0
LINE
  8
0
 62
     0
 10
14.4529
 20
144.693
 30
0.0
 11
9.98389
 21
146.761
 31
0.0
  0
LINE
  8
0
 62
     0
 10
9.98389
 20
146.761
 30
0.0
 11
5.20347
 21
148.012
 31
0.0
  0
LINE
  8
0
 62
     0
 10
5.20347
 20
148.012
 30
0.0
 11
1.50206
 21
148.431
 31
0.0
  0
LINE
  8
0
 62
     0
 10
1.50206
 20
148.431
 30
0.0
 11
0.268718
 21
148.431
 31
0.0
  0
ENDSEC
  0
EOF
