999
Inkscape export via OpenSCAD DXF Export
  0
SECTION
  2
HEADER
  9
$ACADVER
  1
AC1014
  9
$HANDSEED
  5
FFFF
  9
$MEASUREMENT
 70
     1
  0
ENDSEC
  0
SECTION
  2
TABLES
  0
TABLE
  2
VPORT
  5
8
330
0
100
AcDbSymbolTable
 70
     4
  0
VPORT
  5
2E
330
8
100
AcDbSymbolTableRecord
100
AcDbViewportTableRecord
  2
*ACTIVE
 70
     0
 10
0.0
 20
0.0
 11
1.0
 21
1.0
 12
210.0
 22
148.5
 13
0.0
 23
0.0
 14
10.0
 24
10.0
 15
10.0
 25
10.0
 16
0.0
 26
0.0
 36
1.0
 17
0.0
 27
0.0
 37
0.0
 40
341.0
 41
1.24
 42
50.0
 43
0.0
 44
0.0
 50
0.0
 51
0.0
 71
     0
 72
   100
 73
     1
 74
     3
 75
     0
 76
     0
 77
     0
 78
     0
  0
ENDTAB
  0
TABLE
  2
LTYPE
  5
5
330
0
100
AcDbSymbolTable
 70
     1
  0
LTYPE
  5
14
330
5
100
AcDbSymbolTableRecord
100
AcDbLinetypeTableRecord
  2
BYBLOCK
 70
     0
  3

 72
    65
 73
     0
 40
0.0
  0
LTYPE
  5
15
330
5
100
AcDbSymbolTableRecord
100
AcDbLinetypeTableRecord
  2
BYLAYER
 70
     0
  3

 72
    65
 73
     0
 40
0.0
  0
LTYPE
  5
16
330
5
100
AcDbSymbolTableRecord
100
AcDbLinetypeTableRecord
  2
CONTINUOUS
 70
     0
  3
Solid line
 72
    65
 73
     0
 40
0.0
  0
ENDTAB
  0
TABLE
0
TABLE
2
LAYER
5
2
330
0
100
AcDbSymbolTable
70
1
0
LAYER
5
10
330
2
100
AcDbSymbolTableRecord
100
AcDbLayerTableRecord
2
Layer_1
70
0
62
7
6
CONTINUOUS
0
ENDTAB
0
ENDSEC
  0
ENDTAB
  0
TABLE
  2
STYLE
  5
3
330
0
100
AcDbSymbolTable
 70
     1
  0
STYLE
  5
11
330
3
100
AcDbSymbolTableRecord
100
AcDbTextStyleTableRecord
  2
STANDARD
 70
     0
 40
0.0
 41
1.0
 50
0.0
 71
     0
 42
2.5
  3
txt
  4

  0
ENDTAB
  0
TABLE
  2
VIEW
  5
6
330
0
100
AcDbSymbolTable
 70
     0
  0
ENDTAB
  0
TABLE
  2
UCS
  5
7
330
0
100
AcDbSymbolTable
 70
     0
  0
ENDTAB
  0
TABLE
  2
APPID
  5
9
330
0
100
AcDbSymbolTable
 70
     2
  0
APPID
  5
12
330
9
100
AcDbSymbolTableRecord
100
AcDbRegAppTableRecord
  2
ACAD
 70
     0
  0
ENDTAB
  0
TABLE
  2
DIMSTYLE
  5
A
330
0
100
AcDbSymbolTable
 70
     1
  0
DIMSTYLE
105
27
330
A
100
AcDbSymbolTableRecord
100
AcDbDimStyleTableRecord
  2
ISO-25
 70
     0
  3

  4

  5

  6

  7

 40
1.0
 41
2.5
 42
0.625
 43
3.75
 44
1.25
 45
0.0
 46
0.0
 47
0.0
 48
0.0
140
2.5
141
2.5
142
0.0
143
0.03937007874016
144
1.0
145
0.0
146
1.0
147
0.625
 71
     0
 72
     0
 73
     0
 74
     0
 75
     0
 76
     0
 77
     1
 78
     8
170
     0
171
     3
172
     1
173
     0
174
     0
175
     0
176
     0
177
     0
178
     0
270
     2
271
     2
272
     2
273
     2
274
     3
340
11
275
     0
280
     0
281
     0
282
     0
283
     0
284
     8
285
     0
286
     0
287
     3
288
     0
  0
ENDTAB
  0
TABLE
  2
BLOCK_RECORD
  5
1
330
0
100
AcDbSymbolTable
 70
     1
  0
BLOCK_RECORD
  5
1F
330
1
100
AcDbSymbolTableRecord
100
AcDbBlockTableRecord
  2
*MODEL_SPACE
  0
BLOCK_RECORD
  5
1B
330
1
100
AcDbSymbolTableRecord
100
AcDbBlockTableRecord
  2
*PAPER_SPACE
  0
ENDTAB
  0
ENDSEC
  0
SECTION
  2
BLOCKS
  0
BLOCK
  5
20
330
1F
100
AcDbEntity
  8
0
100
AcDbBlockBegin
  2
*MODEL_SPACE
 70
     0
 10
0.0
 20
0.0
 30
0.0
  3
*MODEL_SPACE
  1

  0
ENDBLK
  5
21
330
1F
100
AcDbEntity
  8
0
100
AcDbBlockEnd
  0
BLOCK
  5
1C
330
1B
100
AcDbEntity
 67
     1
  8
0
100
AcDbBlockBegin
  2
*PAPER_SPACE
  1

  0
ENDBLK
  5
1D
330
1B
100
AcDbEntity
 67
     1
  8
0
100
AcDbBlockEnd
  0
ENDSEC
  0
SECTION
  2
ENTITIES
0
DIMENSION
5
83
100
AcDbEntity
62
256
370
-1
6
ByLayer
1
total_width
3
Standard
70
0
71
5
72
1
41
1.0
100
AcDbAlignedDimension
13
0.000000
23
0.000000
33
0.0
14
86.924444
24
0.000000
34
0.0
50
0.000000
100
AcDbRotatedDimension
0
DIMENSION
5
83
100
AcDbEntity
62
256
370
-1
6
ByLayer
1
total_height
3
Standard
70
0
71
5
72
1
41
1.0
100
AcDbAlignedDimension
13
0.000000
23
-215.617778
33
0.0
14
0.000000
24
28.222222
34
0.0
50
90.000000
100
AcDbRotatedDimension
0
DIMENSION
8
Layer_1
5
83
100
AcDbEntity
62
256
370
-1
6
ByLayer
1
Layer_1_width
3
Standard
70
0
71
5
72
1
41
1.0
100
AcDbAlignedDimension
13
0.000000
23
0.000000
33
0.0
14
86.924444
24
0.000000
34
0.0
50
0.000000
100
AcDbRotatedDimension
0
DIMENSION
8
Layer_1
5
83
100
AcDbEntity
62
256
370
-1
6
ByLayer
1
Layer_1_height
3
Standard
70
0
71
5
72
1
41
1.0
100
AcDbAlignedDimension
13
0.000000
23
-215.617778
33
0.0
14
0.000000
24
28.222222
34
0.0
50
90.000000
100
AcDbRotatedDimension
62
0
0
LWPOLYLINE
100
AcDbPolyline
8
Layer_1
90
100
70
0
10
0.000000
20
28.222222
30
0.0
10
0.000000
20
-215.617778
30
0.0
10
86.924444
20
-215.617778
30
0.0
10
86.924444
20
-207.715556
30
0.0
10
84.666667
20
-207.715556
30
0.0
10
83.696528
20
-207.503889
30
0.0
10
83.218073
20
-207.239306
30
0.0
10
82.832222
20
-206.868889
30
0.0
10
82.605122
20
-206.392639
30
0.0
10
82.602917
20
-205.810556
30
0.0
10
82.891753
20
-205.122639
30
0.0
10
83.537778
20
-204.328889
30
0.0
10
84.292667
20
-203.444740
30
0.0
10
84.867309
20
-202.494444
30
0.0
10
85.266664
20
-201.491233
30
0.0
10
85.495694
20
-200.448333
30
0.0
10
85.559360
20
-199.378976
30
0.0
10
85.462622
20
-198.296389
30
0.0
10
84.807778
20
-196.144444
30
0.0
10
83.570851
20
-194.098333
30
0.0
10
81.791528
20
-192.263889
30
0.0
10
79.509497
20
-190.746944
30
0.0
10
78.192368
20
-190.140608
30
0.0
10
76.764444
20
-189.653333
30
0.0
10
73.445577
20
-188.289627
30
0.0
10
70.268924
20
-186.734097
30
0.0
10
67.244405
20
-184.980130
30
0.0
10
64.381944
20
-183.021111
30
0.0
10
61.691463
20
-180.850425
30
0.0
10
59.182882
20
-178.461458
30
0.0
10
56.866124
20
-175.847595
30
0.0
10
54.751111
20
-173.002222
30
0.0
10
52.847765
20
-169.918724
30
0.0
10
51.166007
20
-166.590486
30
0.0
10
49.715760
20
-163.010894
30
0.0
10
48.506944
20
-159.173333
30
0.0
10
47.549484
20
-155.071189
30
0.0
10
46.853299
20
-150.697847
30
0.0
10
46.428312
20
-146.046693
30
0.0
10
46.284444
20
-141.111111
30
0.0
10
44.785983
20
-140.527667
30
0.0
10
43.358732
20
-139.532568
30
0.0
10
42.001140
20
-138.147416
30
0.0
10
40.711658
20
-136.393811
30
0.0
10
39.488735
20
-134.293353
30
0.0
10
38.330821
20
-131.867644
30
0.0
10
37.236366
20
-129.138285
30
0.0
10
36.203819
20
-126.126875
30
0.0
10
34.318250
20
-119.344309
30
0.0
10
32.661710
20
-111.692752
30
0.0
10
31.221798
20
-103.345010
30
0.0
10
29.986111
20
-94.473889
30
0.0
10
28.942247
20
-85.252195
30
0.0
10
28.077804
20
-75.852734
30
0.0
10
27.380379
20
-66.448313
30
0.0
10
26.837569
20
-57.211736
30
0.0
10
26.166189
20
-39.933342
30
0.0
10
25.964444
20
-25.400000
30
0.0
10
32.746597
20
-24.227014
30
0.0
10
38.059210
20
-23.068359
30
0.0
10
43.815000
20
-21.519444
30
0.0
10
49.385582
20
-19.573655
30
0.0
10
51.905049
20
-18.449864
30
0.0
10
54.142569
20
-17.224375
30
0.0
10
56.019595
20
-15.896360
30
0.0
10
57.457578
20
-14.464991
30
0.0
10
58.377970
20
-12.929443
30
0.0
10
58.619523
20
-12.122344
30
0.0
10
58.702222
20
-11.288889
30
0.0
10
58.417795
20
-9.624219
30
0.0
10
57.590972
20
-8.025694
30
0.0
10
56.261441
20
-6.506545
30
0.0
10
54.468889
20
-5.080000
30
0.0
10
52.253003
20
-3.759288
30
0.0
10
49.653472
20
-2.557639
30
0.0
10
46.709983
20
-1.488281
30
0.0
10
43.462222
20
-0.564444
30
0.0
10
43.326623
20
0.773906
30
0.0
10
42.906597
20
2.204861
30
0.0
10
42.182300
20
3.662274
30
0.0
10
41.133889
20
5.080000
30
0.0
10
39.741519
20
6.391892
30
0.0
10
37.985347
20
7.531806
30
0.0
10
35.845530
20
8.433594
30
0.0
10
33.302222
20
9.031111
30
0.0
10
33.302222
20
14.675556
30
0.0
10
34.841215
20
15.147396
30
0.0
10
36.089167
20
15.698611
30
0.0
10
37.072535
20
16.302743
30
0.0
10
37.817778
20
16.933333
30
0.0
10
38.699722
20
18.168056
30
0.0
10
38.946667
20
19.191111
30
0.0
10
38.699722
20
20.214167
30
0.0
10
37.817778
20
21.448889
30
0.0
10
37.072535
20
22.079479
30
0.0
10
36.089167
20
22.683611
30
0.0
10
34.841215
20
23.234826
30
0.0
10
33.302222
20
23.706667
30
0.0
10
33.302222
20
28.222222
30
0.0
10
0.000000
20
28.222222
30
0.0
  0
ENDSEC
  0
SECTION
  2
OBJECTS
  0
DICTIONARY
  5
C
330
0
100
AcDbDictionary
  3
ACAD_GROUP
350
D
  3
ACAD_MLINESTYLE
350
17
  0
DICTIONARY
  5
D
330
C
100
AcDbDictionary
  0
DICTIONARY
  5
1A
330
C
100
AcDbDictionary
  0
DICTIONARY
  5
17
330
C
100
AcDbDictionary
  3
STANDARD
350
18
  0
DICTIONARY
  5
19
330
C
100
AcDbDictionary
  0
ENDSEC
  0
EOF
