  0
SECTION
  2
HEADER
  9
$ACADVER
  1
AC1009
  9
$EXTMIN
 10
0.0
 20
0.0
 30
0.0
  9
$EXTMAX
 10
1000.0
 20
1000.0
 30
0.0
  9
$FILLMODE
 70
 0
  9
$SPLFRAME
 70
 1
  0
ENDSEC
  0
SECTION
  2
TABLES
  0
TABLE
  2
LAYER
 70
1
  0
LAYER
  2
0
 70
     0
 62
     7
  6
CONTINUOUS
  0
ENDTAB
  0
ENDSEC
  0
SECTION
  2
ENTITIES
  0
LINE
  8
0
 62
     0
 10
0.268718
 20
228.865
 30
0.0
 11
0.268718
 21
0.264583
 31
0.0
  0
LINE
  8
0
 62
     0
 10
0.268718
 20
0.264583
 30
0.0
 11
81.7605
 21
0.264583
 31
0.0
  0
LINE
  8
0
 62
     0
 10
81.7605
 20
0.264583
 30
0.0
 11
81.7605
 21
7.67292
 31
0.0
  0
LINE
  8
0
 62
     0
 10
81.7605
 20
7.67292
 30
0.0
 11
79.6438
 21
7.67292
 31
0.0
  0
LINE
  8
0
 62
     0
 10
79.6438
 20
7.67292
 30
0.0
 11
79.5334
 21
7.67292
 31
0.0
  0
LINE
  8
0
 62
     0
 10
79.5334
 20
7.67292
 30
0.0
 11
79.2067
 21
7.72252
 31
0.0
  0
LINE
  8
0
 62
     0
 10
79.2067
 20
7.72252
 30
0.0
 11
78.7344
 21
7.87135
 31
0.0
  0
LINE
  8
0
 62
     0
 10
78.7344
 20
7.87135
 30
0.0
 11
78.2849
 21
8.11939
 31
0.0
  0
LINE
  8
0
 62
     0
 10
78.2849
 20
8.11939
 30
0.0
 11
77.924
 21
8.46667
 31
0.0
  0
LINE
  8
0
 62
     0
 10
77.924
 20
8.46667
 30
0.0
 11
77.7102
 21
8.91314
 31
0.0
  0
LINE
  8
0
 62
     0
 10
77.7102
 20
8.91314
 30
0.0
 11
77.7088
 21
9.45885
 31
0.0
  0
LINE
  8
0
 62
     0
 10
77.7088
 20
9.45885
 30
0.0
 11
77.9791
 21
10.1038
 31
0.0
  0
LINE
  8
0
 62
     0
 10
77.9791
 20
10.1038
 30
0.0
 11
78.4158
 21
10.6798
 31
0.0
  0
LINE
  8
0
 62
     0
 10
78.4158
 20
10.6798
 30
0.0
 11
78.5855
 21
10.8479
 31
0.0
  0
LINE
  8
0
 62
     0
 10
78.5855
 20
10.8479
 30
0.0
 11
78.9563
 21
11.2186
 31
0.0
  0
LINE
  8
0
 62
     0
 10
78.9563
 20
11.2186
 30
0.0
 11
79.8311
 21
12.5677
 31
0.0
  0
LINE
  8
0
 62
     0
 10
79.8311
 20
12.5677
 30
0.0
 11
80.421
 21
14.4859
 31
0.0
  0
LINE
  8
0
 62
     0
 10
80.421
 20
14.4859
 30
0.0
 11
80.3892
 21
16.5034
 31
0.0
  0
LINE
  8
0
 62
     0
 10
80.3892
 20
16.5034
 30
0.0
 11
79.7761
 21
18.5208
 31
0.0
  0
LINE
  8
0
 62
     0
 10
79.7761
 20
18.5208
 30
0.0
 11
78.6158
 21
20.4391
 31
0.0
  0
LINE
  8
0
 62
     0
 10
78.6158
 20
20.4391
 30
0.0
 11
76.9482
 21
22.1589
 31
0.0
  0
LINE
  8
0
 62
     0
 10
76.9482
 20
22.1589
 30
0.0
 11
74.8083
 21
23.581
 31
0.0
  0
LINE
  8
0
 62
     0
 10
74.8083
 20
23.581
 30
0.0
 11
72.8969
 21
24.4174
 31
0.0
  0
LINE
  8
0
 62
     0
 10
72.8969
 20
24.4174
 30
0.0
 11
72.2355
 21
24.6063
 31
0.0
  0
LINE
  8
0
 62
     0
 10
72.2355
 20
24.6063
 30
0.0
 11
70.6755
 21
25.1919
 31
0.0
  0
LINE
  8
0
 62
     0
 10
70.6755
 20
25.1919
 30
0.0
 11
66.1458
 21
27.343
 31
0.0
  0
LINE
  8
0
 62
     0
 10
66.1458
 20
27.343
 30
0.0
 11
60.6266
 21
30.824
 31
0.0
  0
LINE
  8
0
 62
     0
 10
60.6266
 20
30.824
 30
0.0
 11
55.7526
 21
35.0986
 31
0.0
  0
LINE
  8
0
 62
     0
 10
55.7526
 20
35.0986
 30
0.0
 11
51.598
 21
40.2167
 31
0.0
  0
LINE
  8
0
 62
     0
 10
51.598
 20
40.2167
 30
0.0
 11
48.2367
 21
46.2276
 31
0.0
  0
LINE
  8
0
 62
     0
 10
48.2367
 20
46.2276
 30
0.0
 11
45.744
 21
53.1813
 31
0.0
  0
LINE
  8
0
 62
     0
 10
45.744
 20
53.1813
 30
0.0
 11
44.1935
 21
61.1269
 31
0.0
  0
LINE
  8
0
 62
     0
 10
44.1935
 20
61.1269
 30
0.0
 11
43.6605
 21
67.8684
 31
0.0
  0
LINE
  8
0
 62
     0
 10
43.6605
 20
67.8684
 30
0.0
 11
43.6605
 21
70.1146
 31
0.0
  0
LINE
  8
0
 62
     0
 10
43.6605
 20
70.1146
 30
0.0
 11
42.9274
 21
70.2924
 31
0.0
  0
LINE
  8
0
 62
     0
 10
42.9274
 20
70.2924
 30
0.0
 11
40.9166
 21
71.592
 31
0.0
  0
LINE
  8
0
 62
     0
 10
40.9166
 20
71.592
 30
0.0
 11
38.4348
 21
74.512
 31
0.0
  0
LINE
  8
0
 62
     0
 10
38.4348
 20
74.512
 30
0.0
 11
36.2038
 21
78.6941
 31
0.0
  0
LINE
  8
0
 62
     0
 10
36.2038
 20
78.6941
 30
0.0
 11
34.2098
 21
83.9555
 31
0.0
  0
LINE
  8
0
 62
     0
 10
34.2098
 20
83.9555
 30
0.0
 11
32.4418
 21
90.1181
 31
0.0
  0
LINE
  8
0
 62
     0
 10
32.4418
 20
90.1181
 30
0.0
 11
30.8887
 21
96.9973
 31
0.0
  0
LINE
  8
0
 62
     0
 10
30.8887
 20
96.9973
 30
0.0
 11
29.5383
 21
104.413
 31
0.0
  0
LINE
  8
0
 62
     0
 10
29.5383
 20
104.413
 30
0.0
 11
28.3807
 21
112.183
 31
0.0
  0
LINE
  8
0
 62
     0
 10
28.3807
 20
112.183
 30
0.0
 11
27.4009
 21
120.129
 31
0.0
  0
LINE
  8
0
 62
     0
 10
27.4009
 20
120.129
 30
0.0
 11
26.5906
 21
128.065
 31
0.0
  0
LINE
  8
0
 62
     0
 10
26.5906
 20
128.065
 30
0.0
 11
25.9374
 21
135.812
 31
0.0
  0
LINE
  8
0
 62
     0
 10
25.9374
 20
135.812
 30
0.0
 11
25.4289
 21
143.189
 31
0.0
  0
LINE
  8
0
 62
     0
 10
25.4289
 20
143.189
 30
0.0
 11
25.0527
 21
150.015
 31
0.0
  0
LINE
  8
0
 62
     0
 10
25.0527
 20
150.015
 30
0.0
 11
24.7992
 21
156.107
 31
0.0
  0
LINE
  8
0
 62
     0
 10
24.7992
 20
156.107
 30
0.0
 11
24.6545
 21
161.284
 31
0.0
  0
LINE
  8
0
 62
     0
 10
24.6545
 20
161.284
 30
0.0
 11
24.6104
 21
164.345
 31
0.0
  0
LINE
  8
0
 62
     0
 10
24.6104
 20
164.345
 30
0.0
 11
24.6104
 21
165.365
 31
0.0
  0
LINE
  8
0
 62
     0
 10
24.6104
 20
165.365
 30
0.0
 11
24.9769
 21
166.416
 31
0.0
  0
LINE
  8
0
 62
     0
 10
24.9769
 20
166.416
 30
0.0
 11
26.7546
 21
169.333
 31
0.0
  0
LINE
  8
0
 62
     0
 10
26.7546
 20
169.333
 30
0.0
 11
30.0591
 21
173.302
 31
0.0
  0
LINE
  8
0
 62
     0
 10
30.0591
 20
173.302
 30
0.0
 11
33.9948
 21
177.271
 31
0.0
  0
LINE
  8
0
 62
     0
 10
33.9948
 20
177.271
 30
0.0
 11
38.0379
 21
181.24
 31
0.0
  0
LINE
  8
0
 62
     0
 10
38.0379
 20
181.24
 30
0.0
 11
41.6581
 21
185.208
 31
0.0
  0
LINE
  8
0
 62
     0
 10
41.6581
 20
185.208
 30
0.0
 11
44.3301
 21
189.177
 31
0.0
  0
LINE
  8
0
 62
     0
 10
44.3301
 20
189.177
 30
0.0
 11
45.5249
 21
193.146
 31
0.0
  0
LINE
  8
0
 62
     0
 10
45.5249
 20
193.146
 30
0.0
 11
45.1556
 21
196.241
 31
0.0
  0
LINE
  8
0
 62
     0
 10
45.1556
 20
196.241
 30
0.0
 11
44.7188
 21
197.115
 31
0.0
  0
LINE
  8
0
 62
     0
 10
44.7188
 20
197.115
 30
0.0
 11
44.7188
 21
197.115
 31
0.0
  0
LINE
  8
0
 62
     0
 10
44.7188
 20
197.115
 30
0.0
 11
44.6056
 21
197.408
 31
0.0
  0
LINE
  8
0
 62
     0
 10
44.6056
 20
197.408
 30
0.0
 11
44.2143
 21
198.218
 31
0.0
  0
LINE
  8
0
 62
     0
 10
44.2143
 20
198.218
 30
0.0
 11
43.4619
 21
199.445
 31
0.0
  0
LINE
  8
0
 62
     0
 10
43.4619
 20
199.445
 30
0.0
 11
42.2712
 21
200.984
 31
0.0
  0
LINE
  8
0
 62
     0
 10
42.2712
 20
200.984
 30
0.0
 11
40.5585
 21
202.736
 31
0.0
  0
LINE
  8
0
 62
     0
 10
40.5585
 20
202.736
 30
0.0
 11
38.2446
 21
204.593
 31
0.0
  0
LINE
  8
0
 62
     0
 10
38.2446
 20
204.593
 30
0.0
 11
35.2475
 21
206.459
 31
0.0
  0
LINE
  8
0
 62
     0
 10
35.2475
 20
206.459
 30
0.0
 11
32.4501
 21
207.838
 31
0.0
  0
LINE
  8
0
 62
     0
 10
32.4501
 20
207.838
 30
0.0
 11
31.4895
 21
208.227
 31
0.0
  0
LINE
  8
0
 62
     0
 10
31.4895
 20
208.227
 30
0.0
 11
31.4895
 21
216.165
 31
0.0
  0
LINE
  8
0
 62
     0
 10
31.4895
 20
216.165
 30
0.0
 11
31.8547
 21
216.257
 31
0.0
  0
LINE
  8
0
 62
     0
 10
31.8547
 20
216.257
 30
0.0
 11
32.9324
 21
216.607
 31
0.0
  0
LINE
  8
0
 62
     0
 10
32.9324
 20
216.607
 30
0.0
 11
34.1023
 21
217.124
 31
0.0
  0
LINE
  8
0
 62
     0
 10
34.1023
 20
217.124
 30
0.0
 11
35.0242
 21
217.69
 31
0.0
  0
LINE
  8
0
 62
     0
 10
35.0242
 20
217.69
 30
0.0
 11
35.723
 21
218.281
 31
0.0
  0
LINE
  8
0
 62
     0
 10
35.723
 20
218.281
 30
0.0
 11
36.2232
 21
218.873
 31
0.0
  0
LINE
  8
0
 62
     0
 10
36.2232
 20
218.873
 30
0.0
 11
36.5495
 21
219.439
 31
0.0
  0
LINE
  8
0
 62
     0
 10
36.5495
 20
219.439
 30
0.0
 11
36.7273
 21
219.956
 31
0.0
  0
LINE
  8
0
 62
     0
 10
36.7273
 20
219.956
 30
0.0
 11
36.7813
 21
220.288
 31
0.0
  0
LINE
  8
0
 62
     0
 10
36.7813
 20
220.288
 30
0.0
 11
36.7813
 21
220.398
 31
0.0
  0
LINE
  8
0
 62
     0
 10
36.7813
 20
220.398
 30
0.0
 11
36.7813
 21
220.509
 31
0.0
  0
LINE
  8
0
 62
     0
 10
36.7813
 20
220.509
 30
0.0
 11
36.7273
 21
220.84
 31
0.0
  0
LINE
  8
0
 62
     0
 10
36.7273
 20
220.84
 30
0.0
 11
36.5495
 21
221.357
 31
0.0
  0
LINE
  8
0
 62
     0
 10
36.5495
 20
221.357
 30
0.0
 11
36.2232
 21
221.923
 31
0.0
  0
LINE
  8
0
 62
     0
 10
36.2232
 20
221.923
 30
0.0
 11
35.723
 21
222.515
 31
0.0
  0
LINE
  8
0
 62
     0
 10
35.723
 20
222.515
 30
0.0
 11
35.0242
 21
223.106
 31
0.0
  0
LINE
  8
0
 62
     0
 10
35.0242
 20
223.106
 30
0.0
 11
34.1023
 21
223.672
 31
0.0
  0
LINE
  8
0
 62
     0
 10
34.1023
 20
223.672
 30
0.0
 11
32.9324
 21
224.189
 31
0.0
  0
LINE
  8
0
 62
     0
 10
32.9324
 20
224.189
 30
0.0
 11
31.8547
 21
224.54
 31
0.0
  0
LINE
  8
0
 62
     0
 10
31.8547
 20
224.54
 30
0.0
 11
31.4895
 21
224.631
 31
0.0
  0
LINE
  8
0
 62
     0
 10
31.4895
 20
224.631
 30
0.0
 11
31.4895
 21
228.865
 31
0.0
  0
LINE
  8
0
 62
     0
 10
31.4895
 20
228.865
 30
0.0
 11
0.268718
 21
228.865
 31
0.0
  0
ENDSEC
  0
EOF
