<svg xmlns="http://www.w3.org/2000/svg"
   xmlns:xlink="http://www.w3.org/1999/xlink"
   version="1.1"
   id="king_profile" width="100%" height="100%"  viewBox="-6 -6 314 1082">
<desc>
XCircuit Version 3.9
File "profiles.ps" Page 4
</desc>
<g stroke="black">
<path d="M0,0 L0,1076 L308,1076 308,1048 300,1048 C296,1048 288,1044 296,1036 C312,1020 300,992 272,984 C208,960 172,908 172,812 C114,798 96,520 96,400 C110,398 208,384 208,352 C208,336 172,316 140,308 C140,296 136,284 96,280 L96,260 C112,256 116,248 116,244 C116,240 112,232 96,228 L196,32 C200,20 192,12 180,12 L88,12 C88,4 84,0 76,0 L0,0 " fill="none" stroke-width="2" stroke-linejoin="bevel" stroke-linecap="round" />
</g>
</svg>
