999
Inkscape export via OpenSCAD DXF Export
  0
SECTION
  2
HEADER
  9
$ACADVER
  1
AC1014
  9
$HANDSEED
  5
FFFF
  9
$MEASUREMENT
 70
     1
  0
ENDSEC
  0
SECTION
  2
TABLES
  0
TABLE
  2
VPORT
  5
8
330
0
100
AcDbSymbolTable
 70
     4
  0
VPORT
  5
2E
330
8
100
AcDbSymbolTableRecord
100
AcDbViewportTableRecord
  2
*ACTIVE
 70
     0
 10
0.0
 20
0.0
 11
1.0
 21
1.0
 12
210.0
 22
148.5
 13
0.0
 23
0.0
 14
10.0
 24
10.0
 15
10.0
 25
10.0
 16
0.0
 26
0.0
 36
1.0
 17
0.0
 27
0.0
 37
0.0
 40
341.0
 41
1.24
 42
50.0
 43
0.0
 44
0.0
 50
0.0
 51
0.0
 71
     0
 72
   100
 73
     1
 74
     3
 75
     0
 76
     0
 77
     0
 78
     0
  0
ENDTAB
  0
TABLE
  2
LTYPE
  5
5
330
0
100
AcDbSymbolTable
 70
     1
  0
LTYPE
  5
14
330
5
100
AcDbSymbolTableRecord
100
AcDbLinetypeTableRecord
  2
BYBLOCK
 70
     0
  3

 72
    65
 73
     0
 40
0.0
  0
LTYPE
  5
15
330
5
100
AcDbSymbolTableRecord
100
AcDbLinetypeTableRecord
  2
BYLAYER
 70
     0
  3

 72
    65
 73
     0
 40
0.0
  0
LTYPE
  5
16
330
5
100
AcDbSymbolTableRecord
100
AcDbLinetypeTableRecord
  2
CONTINUOUS
 70
     0
  3
Solid line
 72
    65
 73
     0
 40
0.0
  0
ENDTAB
  0
TABLE
0
TABLE
2
LAYER
5
2
330
0
100
AcDbSymbolTable
70
1
0
LAYER
5
10
330
2
100
AcDbSymbolTableRecord
100
AcDbLayerTableRecord
2
Layer_1
70
0
62
7
6
CONTINUOUS
0
ENDTAB
0
ENDSEC
  0
ENDTAB
  0
TABLE
  2
STYLE
  5
3
330
0
100
AcDbSymbolTable
 70
     1
  0
STYLE
  5
11
330
3
100
AcDbSymbolTableRecord
100
AcDbTextStyleTableRecord
  2
STANDARD
 70
     0
 40
0.0
 41
1.0
 50
0.0
 71
     0
 42
2.5
  3
txt
  4

  0
ENDTAB
  0
TABLE
  2
VIEW
  5
6
330
0
100
AcDbSymbolTable
 70
     0
  0
ENDTAB
  0
TABLE
  2
UCS
  5
7
330
0
100
AcDbSymbolTable
 70
     0
  0
ENDTAB
  0
TABLE
  2
APPID
  5
9
330
0
100
AcDbSymbolTable
 70
     2
  0
APPID
  5
12
330
9
100
AcDbSymbolTableRecord
100
AcDbRegAppTableRecord
  2
ACAD
 70
     0
  0
ENDTAB
  0
TABLE
  2
DIMSTYLE
  5
A
330
0
100
AcDbSymbolTable
 70
     1
  0
DIMSTYLE
105
27
330
A
100
AcDbSymbolTableRecord
100
AcDbDimStyleTableRecord
  2
ISO-25
 70
     0
  3

  4

  5

  6

  7

 40
1.0
 41
2.5
 42
0.625
 43
3.75
 44
1.25
 45
0.0
 46
0.0
 47
0.0
 48
0.0
140
2.5
141
2.5
142
0.0
143
0.03937007874016
144
1.0
145
0.0
146
1.0
147
0.625
 71
     0
 72
     0
 73
     0
 74
     0
 75
     0
 76
     0
 77
     1
 78
     8
170
     0
171
     3
172
     1
173
     0
174
     0
175
     0
176
     0
177
     0
178
     0
270
     2
271
     2
272
     2
273
     2
274
     3
340
11
275
     0
280
     0
281
     0
282
     0
283
     0
284
     8
285
     0
286
     0
287
     3
288
     0
  0
ENDTAB
  0
TABLE
  2
BLOCK_RECORD
  5
1
330
0
100
AcDbSymbolTable
 70
     1
  0
BLOCK_RECORD
  5
1F
330
1
100
AcDbSymbolTableRecord
100
AcDbBlockTableRecord
  2
*MODEL_SPACE
  0
BLOCK_RECORD
  5
1B
330
1
100
AcDbSymbolTableRecord
100
AcDbBlockTableRecord
  2
*PAPER_SPACE
  0
ENDTAB
  0
ENDSEC
  0
SECTION
  2
BLOCKS
  0
BLOCK
  5
20
330
1F
100
AcDbEntity
  8
0
100
AcDbBlockBegin
  2
*MODEL_SPACE
 70
     0
 10
0.0
 20
0.0
 30
0.0
  3
*MODEL_SPACE
  1

  0
ENDBLK
  5
21
330
1F
100
AcDbEntity
  8
0
100
AcDbBlockEnd
  0
BLOCK
  5
1C
330
1B
100
AcDbEntity
 67
     1
  8
0
100
AcDbBlockBegin
  2
*PAPER_SPACE
  1

  0
ENDBLK
  5
1D
330
1B
100
AcDbEntity
 67
     1
  8
0
100
AcDbBlockEnd
  0
ENDSEC
  0
SECTION
  2
ENTITIES
0
DIMENSION
5
83
100
AcDbEntity
62
256
370
-1
6
ByLayer
1
total_width
3
Standard
70
0
71
5
72
1
41
1.0
100
AcDbAlignedDimension
13
0.000000
23
0.000000
33
0.0
14
54.186667
24
0.000000
34
0.0
50
0.000000
100
AcDbRotatedDimension
0
DIMENSION
5
83
100
AcDbEntity
62
256
370
-1
6
ByLayer
1
total_height
3
Standard
70
0
71
5
72
1
41
1.0
100
AcDbAlignedDimension
13
0.000000
23
-141.111111
33
0.0
14
0.000000
24
28.222222
34
0.0
50
90.000000
100
AcDbRotatedDimension
0
DIMENSION
8
Layer_1
5
83
100
AcDbEntity
62
256
370
-1
6
ByLayer
1
Layer_1_width
3
Standard
70
0
71
5
72
1
41
1.0
100
AcDbAlignedDimension
13
0.000000
23
0.000000
33
0.0
14
54.186667
24
0.000000
34
0.0
50
0.000000
100
AcDbRotatedDimension
0
DIMENSION
8
Layer_1
5
83
100
AcDbEntity
62
256
370
-1
6
ByLayer
1
Layer_1_height
3
Standard
70
0
71
5
72
1
41
1.0
100
AcDbAlignedDimension
13
0.000000
23
-141.111111
33
0.0
14
0.000000
24
28.222222
34
0.0
50
90.000000
100
AcDbRotatedDimension
62
0
0
LWPOLYLINE
100
AcDbPolyline
8
Layer_1
90
99
70
0
10
0.000000
20
28.222222
30
0.0
10
0.000000
20
-141.111111
30
0.0
10
54.186667
20
-141.111111
30
0.0
10
54.186667
20
-136.595556
30
0.0
10
51.928889
20
-136.595556
30
0.0
10
51.280660
20
-136.498542
30
0.0
10
50.976389
20
-136.242778
30
0.0
10
50.936701
20
-135.881181
30
0.0
10
51.082222
20
-135.466667
30
0.0
10
51.611389
20
-134.690556
30
0.0
10
51.928889
20
-134.337778
30
0.0
10
52.665312
20
-133.394097
30
0.0
10
53.163611
20
-132.291667
30
0.0
10
53.397326
20
-131.083403
30
0.0
10
53.340000
20
-129.822222
30
0.0
10
52.965174
20
-128.561042
30
0.0
10
52.246389
20
-127.352778
30
0.0
10
51.157187
20
-126.250347
30
0.0
10
49.671111
20
-125.306667
30
0.0
10
46.466345
20
-123.984301
30
0.0
10
43.612153
20
-122.559410
30
0.0
10
41.088689
20
-121.035299
30
0.0
10
38.876111
20
-119.415278
30
0.0
10
36.954575
20
-117.702652
30
0.0
10
35.304236
20
-115.900729
30
0.0
10
33.905252
20
-114.012817
30
0.0
10
32.737778
20
-112.042222
30
0.0
10
31.781970
20
-109.992253
30
0.0
10
31.017986
20
-107.866215
30
0.0
10
30.425981
20
-105.667418
30
0.0
10
29.986111
20
-103.399167
30
0.0
10
29.483403
20
-98.667535
30
0.0
10
29.351111
20
-93.697778
30
0.0
10
28.355341
20
-93.141464
30
0.0
10
27.285156
20
-92.316432
30
0.0
10
26.158748
20
-91.218549
30
0.0
10
24.994306
20
-89.843681
30
0.0
10
23.810020
20
-88.187692
30
0.0
10
22.624080
20
-86.246450
30
0.0
10
21.454677
20
-84.015819
30
0.0
10
20.320000
20
-81.491667
30
0.0
10
19.238240
20
-78.669858
30
0.0
10
18.227587
20
-75.546259
30
0.0
10
17.306230
20
-72.116735
30
0.0
10
16.492361
20
-68.377153
30
0.0
10
15.804169
20
-64.323378
30
0.0
10
15.259844
20
-59.951276
30
0.0
10
14.877576
20
-55.256713
30
0.0
10
14.675556
20
-50.235556
30
0.0
10
18.803056
20
-49.468264
30
0.0
10
22.097118
20
-48.796884
30
0.0
10
25.682222
20
-47.907222
30
0.0
10
29.161493
20
-46.779436
30
0.0
10
32.138056
20
-45.393681
30
0.0
10
33.313798
20
-44.597863
30
0.0
10
34.215035
20
-43.730113
30
0.0
10
34.792157
20
-42.787948
30
0.0
10
34.995556
20
-41.768889
30
0.0
10
34.823576
20
-40.935865
30
0.0
10
34.334097
20
-40.131780
30
0.0
10
33.566806
20
-39.359113
30
0.0
10
32.561389
20
-38.620347
30
0.0
10
29.994931
20
-37.254436
30
0.0
10
26.952222
20
-36.053889
30
0.0
10
23.750764
20
-35.038550
30
0.0
10
20.708056
20
-34.228264
30
0.0
10
16.368889
20
-33.302222
30
0.0
10
15.824839
20
-33.147331
30
0.0
10
15.456076
20
-32.909757
30
0.0
10
15.252678
20
-32.612652
30
0.0
10
15.204722
20
-32.279167
30
0.0
10
15.535451
20
-31.595660
30
0.0
10
16.368889
20
-31.044444
30
0.0
10
17.742931
20
-30.312568
30
0.0
10
19.106224
20
-29.396311
30
0.0
10
21.757569
20
-27.066875
30
0.0
10
24.236936
20
-24.168585
30
0.0
10
26.458333
20
-20.813889
30
0.0
10
28.335773
20
-17.115234
30
0.0
10
29.783264
20
-13.185069
30
0.0
10
30.714818
20
-9.135842
30
0.0
10
30.960246
20
-7.101720
30
0.0
10
31.044444
20
-5.080000
30
0.0
10
30.894238
20
-1.735639
30
0.0
10
30.451337
20
1.513637
30
0.0
10
29.727316
20
4.652119
30
0.0
10
28.733750
20
7.664097
30
0.0
10
27.482216
20
10.533862
30
0.0
10
25.984288
20
13.245703
30
0.0
10
24.251543
20
15.783912
30
0.0
10
22.295556
20
18.132778
30
0.0
10
20.127901
20
20.276592
30
0.0
10
17.760156
20
22.199644
30
0.0
10
15.203895
20
23.886225
30
0.0
10
12.470694
20
25.320625
30
0.0
10
9.572129
20
26.487134
30
0.0
10
6.519774
20
27.370043
30
0.0
10
3.325206
20
27.953643
30
0.0
10
0.000000
20
28.222222
30
0.0
  0
ENDSEC
  0
SECTION
  2
OBJECTS
  0
DICTIONARY
  5
C
330
0
100
AcDbDictionary
  3
ACAD_GROUP
350
D
  3
ACAD_MLINESTYLE
350
17
  0
DICTIONARY
  5
D
330
C
100
AcDbDictionary
  0
DICTIONARY
  5
1A
330
C
100
AcDbDictionary
  0
DICTIONARY
  5
17
330
C
100
AcDbDictionary
  3
STANDARD
350
18
  0
DICTIONARY
  5
19
330
C
100
AcDbDictionary
  0
ENDSEC
  0
EOF
