<svg xmlns="http://www.w3.org/2000/svg"
   xmlns:xlink="http://www.w3.org/1999/xlink"
   version="1.1"
   id="queen_profile" width="100%" height="100%"  viewBox="-6 -6 314 870">
<desc>
XCircuit Version 3.9
File "profiles.ps" Page 5
</desc>
<g stroke="black">
<path d="M0,0 L0,864 L308,864 308,836 300,836 C296,836 288,832 296,824 C312,808 300,780 272,772 C208,748 164,696 164,600 C106,586 92,310 92,190 C106,188 208,172 208,140 C208,124 186,110 154,102 C154,90 144,72 118,68 L118,48 C134,44 138,36 138,32 C138,28 134,20 118,16 L118,0 0,0 " fill="none" stroke-width="2" stroke-linejoin="bevel" stroke-linecap="round" />
</g>
</svg>
