solid OpenSCAD_Model
  facet normal 1 -0 0
    outer loop
      vertex 0 14 1
      vertex 0 71 0
      vertex 0 71 1
    endloop
  endfacet
  facet normal 1 0 0
    outer loop
      vertex 0 71 0
      vertex 0 14 1
      vertex 0 14 0
    endloop
  endfacet
  facet normal -1 0 0
    outer loop
      vertex 28 14 0
      vertex 28 71 1
      vertex 28 71 0
    endloop
  endfacet
  facet normal -1 -0 0
    outer loop
      vertex 28 71 1
      vertex 28 14 0
      vertex 28 14 1
    endloop
  endfacet
  facet normal 0 0 -1
    outer loop
      vertex 29 -1 0
      vertex 28 14 0
      vertex 29 86 0
    endloop
  endfacet
  facet normal 0 0 -1
    outer loop
      vertex 29 -1 0
      vertex 27.6941 11.0892 0
      vertex 28 14 0
    endloop
  endfacet
  facet normal 0 0 -1
    outer loop
      vertex 29 -1 0
      vertex 26.7896 8.30569 0
      vertex 27.6941 11.0892 0
    endloop
  endfacet
  facet normal 0 0 -1
    outer loop
      vertex 29 -1 0
      vertex 25.3262 5.77101 0
      vertex 26.7896 8.30569 0
    endloop
  endfacet
  facet normal 0 0 -1
    outer loop
      vertex 29 -1 0
      vertex 23.3678 3.59597 0
      vertex 25.3262 5.77101 0
    endloop
  endfacet
  facet normal 0 0 -1
    outer loop
      vertex 29 -1 0
      vertex 21 1.87564 0
      vertex 23.3678 3.59597 0
    endloop
  endfacet
  facet normal 0 0 -1
    outer loop
      vertex 29 -1 0
      vertex 18.3262 0.685208 0
      vertex 21 1.87564 0
    endloop
  endfacet
  facet normal 0 0 -1
    outer loop
      vertex 29 -1 0
      vertex 15.4634 0.0766926 0
      vertex 18.3262 0.685208 0
    endloop
  endfacet
  facet normal 0 0 -1
    outer loop
      vertex 29 -1 0
      vertex 12.5366 0.0766926 0
      vertex 15.4634 0.0766926 0
    endloop
  endfacet
  facet normal -0 0 -1
    outer loop
      vertex 0 14 0
      vertex -1 -1 0
      vertex 0 71 0
    endloop
  endfacet
  facet normal -0 0 -1
    outer loop
      vertex 0.305933 11.0892 0
      vertex -1 -1 0
      vertex 0 14 0
    endloop
  endfacet
  facet normal -0 0 -1
    outer loop
      vertex 1.21036 8.30569 0
      vertex -1 -1 0
      vertex 0.305933 11.0892 0
    endloop
  endfacet
  facet normal -0 0 -1
    outer loop
      vertex 2.67376 5.77101 0
      vertex -1 -1 0
      vertex 1.21036 8.30569 0
    endloop
  endfacet
  facet normal -0 0 -1
    outer loop
      vertex 4.63217 3.59597 0
      vertex -1 -1 0
      vertex 2.67376 5.77101 0
    endloop
  endfacet
  facet normal -0 0 -1
    outer loop
      vertex 7 1.87564 0
      vertex -1 -1 0
      vertex 4.63217 3.59597 0
    endloop
  endfacet
  facet normal -0 0 -1
    outer loop
      vertex 9.67376 0.685208 0
      vertex -1 -1 0
      vertex 7 1.87564 0
    endloop
  endfacet
  facet normal -0 0 -1
    outer loop
      vertex 12.5366 0.0766926 0
      vertex -1 -1 0
      vertex 9.67376 0.685208 0
    endloop
  endfacet
  facet normal 0 0 -1
    outer loop
      vertex -1 -1 0
      vertex 12.5366 0.0766926 0
      vertex 29 -1 0
    endloop
  endfacet
  facet normal 0 0 -1
    outer loop
      vertex 28 71 0
      vertex 29 86 0
      vertex 28 14 0
    endloop
  endfacet
  facet normal 0 0 -1
    outer loop
      vertex 27.6941 73.9108 0
      vertex 29 86 0
      vertex 28 71 0
    endloop
  endfacet
  facet normal 0 0 -1
    outer loop
      vertex 26.7896 76.6943 0
      vertex 29 86 0
      vertex 27.6941 73.9108 0
    endloop
  endfacet
  facet normal 0 0 -1
    outer loop
      vertex 25.3262 79.229 0
      vertex 29 86 0
      vertex 26.7896 76.6943 0
    endloop
  endfacet
  facet normal 0 0 -1
    outer loop
      vertex 23.3678 81.404 0
      vertex 29 86 0
      vertex 25.3262 79.229 0
    endloop
  endfacet
  facet normal 0 0 -1
    outer loop
      vertex 21 83.1244 0
      vertex 29 86 0
      vertex 23.3678 81.404 0
    endloop
  endfacet
  facet normal 0 0 -1
    outer loop
      vertex 18.3262 84.3148 0
      vertex 29 86 0
      vertex 21 83.1244 0
    endloop
  endfacet
  facet normal 0 0 -1
    outer loop
      vertex 15.4634 84.9233 0
      vertex 29 86 0
      vertex 18.3262 84.3148 0
    endloop
  endfacet
  facet normal 0 0 -1
    outer loop
      vertex 12.5366 84.9233 0
      vertex 29 86 0
      vertex 15.4634 84.9233 0
    endloop
  endfacet
  facet normal 0 0 -1
    outer loop
      vertex 12.5366 84.9233 0
      vertex -1 86 0
      vertex 29 86 0
    endloop
  endfacet
  facet normal 0 0 -1
    outer loop
      vertex 9.67376 84.3148 0
      vertex -1 86 0
      vertex 12.5366 84.9233 0
    endloop
  endfacet
  facet normal 0 0 -1
    outer loop
      vertex 7 83.1244 0
      vertex -1 86 0
      vertex 9.67376 84.3148 0
    endloop
  endfacet
  facet normal 0 0 -1
    outer loop
      vertex 4.63217 81.404 0
      vertex -1 86 0
      vertex 7 83.1244 0
    endloop
  endfacet
  facet normal 0 0 -1
    outer loop
      vertex 2.67376 79.229 0
      vertex -1 86 0
      vertex 4.63217 81.404 0
    endloop
  endfacet
  facet normal 0 0 -1
    outer loop
      vertex 1.21036 76.6943 0
      vertex -1 86 0
      vertex 2.67376 79.229 0
    endloop
  endfacet
  facet normal 0 0 -1
    outer loop
      vertex 0.305933 73.9108 0
      vertex -1 86 0
      vertex 1.21036 76.6943 0
    endloop
  endfacet
  facet normal 0 0 -1
    outer loop
      vertex 0 71 0
      vertex -1 86 0
      vertex 0.305933 73.9108 0
    endloop
  endfacet
  facet normal 0 0 -1
    outer loop
      vertex -1 86 0
      vertex 0 71 0
      vertex -1 -1 0
    endloop
  endfacet
  facet normal -0.994522 0.104529 0
    outer loop
      vertex 27.6941 11.0892 0
      vertex 28 14 1
      vertex 28 14 0
    endloop
  endfacet
  facet normal -0.994522 0.104529 0
    outer loop
      vertex 28 14 1
      vertex 27.6941 11.0892 0
      vertex 27.6941 11.0892 1
    endloop
  endfacet
  facet normal 0 1 -0
    outer loop
      vertex 15.4634 0.0766926 0
      vertex 12.5366 0.0766926 1
      vertex 15.4634 0.0766926 1
    endloop
  endfacet
  facet normal 0 1 0
    outer loop
      vertex 12.5366 0.0766926 1
      vertex 15.4634 0.0766926 0
      vertex 12.5366 0.0766926 0
    endloop
  endfacet
  facet normal 0.994522 0.104528 0
    outer loop
      vertex 0.305933 11.0892 1
      vertex 0 14 0
      vertex 0 14 1
    endloop
  endfacet
  facet normal 0.994522 0.104528 0
    outer loop
      vertex 0 14 0
      vertex 0.305933 11.0892 1
      vertex 0.305933 11.0892 0
    endloop
  endfacet
  facet normal -0.207912 0.978148 0
    outer loop
      vertex 18.3262 0.685208 0
      vertex 15.4634 0.0766926 1
      vertex 18.3262 0.685208 1
    endloop
  endfacet
  facet normal -0.207912 0.978148 0
    outer loop
      vertex 15.4634 0.0766926 1
      vertex 18.3262 0.685208 0
      vertex 15.4634 0.0766926 0
    endloop
  endfacet
  facet normal -0.406736 0.913546 0
    outer loop
      vertex 21 1.87564 0
      vertex 18.3262 0.685208 1
      vertex 21 1.87564 1
    endloop
  endfacet
  facet normal -0.406736 0.913546 0
    outer loop
      vertex 18.3262 0.685208 1
      vertex 21 1.87564 0
      vertex 18.3262 0.685208 0
    endloop
  endfacet
  facet normal -0.587785 0.809017 0
    outer loop
      vertex 23.3678 3.59597 0
      vertex 21 1.87564 1
      vertex 23.3678 3.59597 1
    endloop
  endfacet
  facet normal -0.587785 0.809017 0
    outer loop
      vertex 21 1.87564 1
      vertex 23.3678 3.59597 0
      vertex 21 1.87564 0
    endloop
  endfacet
  facet normal -0.866026 0.5 0
    outer loop
      vertex 25.3262 5.77101 0
      vertex 26.7896 8.30569 1
      vertex 26.7896 8.30569 0
    endloop
  endfacet
  facet normal -0.866026 0.5 0
    outer loop
      vertex 26.7896 8.30569 1
      vertex 25.3262 5.77101 0
      vertex 25.3262 5.77101 1
    endloop
  endfacet
  facet normal 0.406737 0.913545 -0
    outer loop
      vertex 9.67376 0.685208 0
      vertex 7 1.87564 1
      vertex 9.67376 0.685208 1
    endloop
  endfacet
  facet normal 0.406737 0.913545 0
    outer loop
      vertex 7 1.87564 1
      vertex 9.67376 0.685208 0
      vertex 7 1.87564 0
    endloop
  endfacet
  facet normal 0.743145 0.669131 0
    outer loop
      vertex 4.63217 3.59597 1
      vertex 2.67376 5.77101 0
      vertex 2.67376 5.77101 1
    endloop
  endfacet
  facet normal 0.743145 0.669131 0
    outer loop
      vertex 2.67376 5.77101 0
      vertex 4.63217 3.59597 1
      vertex 4.63217 3.59597 0
    endloop
  endfacet
  facet normal 0.951056 0.309017 0
    outer loop
      vertex 1.21036 8.30569 1
      vertex 0.305933 11.0892 0
      vertex 0.305933 11.0892 1
    endloop
  endfacet
  facet normal 0.951056 0.309017 0
    outer loop
      vertex 0.305933 11.0892 0
      vertex 1.21036 8.30569 1
      vertex 1.21036 8.30569 0
    endloop
  endfacet
  facet normal 0.587785 0.809017 -0
    outer loop
      vertex 7 1.87564 0
      vertex 4.63217 3.59597 1
      vertex 7 1.87564 1
    endloop
  endfacet
  facet normal 0.587785 0.809017 0
    outer loop
      vertex 4.63217 3.59597 1
      vertex 7 1.87564 0
      vertex 4.63217 3.59597 0
    endloop
  endfacet
  facet normal -0.743145 0.66913 0
    outer loop
      vertex 23.3678 3.59597 0
      vertex 25.3262 5.77101 1
      vertex 25.3262 5.77101 0
    endloop
  endfacet
  facet normal -0.743145 0.66913 0
    outer loop
      vertex 25.3262 5.77101 1
      vertex 23.3678 3.59597 0
      vertex 23.3678 3.59597 1
    endloop
  endfacet
  facet normal -0.951056 0.309017 0
    outer loop
      vertex 26.7896 8.30569 0
      vertex 27.6941 11.0892 1
      vertex 27.6941 11.0892 0
    endloop
  endfacet
  facet normal -0.951056 0.309017 0
    outer loop
      vertex 27.6941 11.0892 1
      vertex 26.7896 8.30569 0
      vertex 26.7896 8.30569 1
    endloop
  endfacet
  facet normal 0.207912 0.978148 -0
    outer loop
      vertex 12.5366 0.0766926 0
      vertex 9.67376 0.685208 1
      vertex 12.5366 0.0766926 1
    endloop
  endfacet
  facet normal 0.207912 0.978148 0
    outer loop
      vertex 9.67376 0.685208 1
      vertex 12.5366 0.0766926 0
      vertex 9.67376 0.685208 0
    endloop
  endfacet
  facet normal 0.866026 0.5 0
    outer loop
      vertex 2.67376 5.77101 1
      vertex 1.21036 8.30569 0
      vertex 1.21036 8.30569 1
    endloop
  endfacet
  facet normal 0.866026 0.5 0
    outer loop
      vertex 1.21036 8.30569 0
      vertex 2.67376 5.77101 1
      vertex 2.67376 5.77101 0
    endloop
  endfacet
  facet normal -0.994522 -0.104529 0
    outer loop
      vertex 28 71 0
      vertex 27.6941 73.9108 1
      vertex 27.6941 73.9108 0
    endloop
  endfacet
  facet normal -0.994522 -0.104529 0
    outer loop
      vertex 27.6941 73.9108 1
      vertex 28 71 0
      vertex 28 71 1
    endloop
  endfacet
  facet normal 0 -1 0
    outer loop
      vertex 12.5366 84.9233 0
      vertex 15.4634 84.9233 1
      vertex 12.5366 84.9233 1
    endloop
  endfacet
  facet normal 0 -1 -0
    outer loop
      vertex 15.4634 84.9233 1
      vertex 12.5366 84.9233 0
      vertex 15.4634 84.9233 0
    endloop
  endfacet
  facet normal -0.587786 -0.809017 0
    outer loop
      vertex 21 83.1244 0
      vertex 23.3678 81.404 1
      vertex 21 83.1244 1
    endloop
  endfacet
  facet normal -0.587786 -0.809017 -0
    outer loop
      vertex 23.3678 81.404 1
      vertex 21 83.1244 0
      vertex 23.3678 81.404 0
    endloop
  endfacet
  facet normal 0.743145 -0.669131 0
    outer loop
      vertex 2.67376 79.229 1
      vertex 4.63217 81.404 0
      vertex 4.63217 81.404 1
    endloop
  endfacet
  facet normal 0.743145 -0.669131 0
    outer loop
      vertex 4.63217 81.404 0
      vertex 2.67376 79.229 1
      vertex 2.67376 79.229 0
    endloop
  endfacet
  facet normal 0.406735 -0.913546 0
    outer loop
      vertex 7 83.1244 0
      vertex 9.67376 84.3148 1
      vertex 7 83.1244 1
    endloop
  endfacet
  facet normal 0.406735 -0.913546 0
    outer loop
      vertex 9.67376 84.3148 1
      vertex 7 83.1244 0
      vertex 9.67376 84.3148 0
    endloop
  endfacet
  facet normal -0.866026 -0.499999 0
    outer loop
      vertex 26.7896 76.6943 0
      vertex 25.3262 79.229 1
      vertex 25.3262 79.229 0
    endloop
  endfacet
  facet normal -0.866026 -0.499999 0
    outer loop
      vertex 25.3262 79.229 1
      vertex 26.7896 76.6943 0
      vertex 26.7896 76.6943 1
    endloop
  endfacet
  facet normal -0.951056 -0.309017 0
    outer loop
      vertex 27.6941 73.9108 0
      vertex 26.7896 76.6943 1
      vertex 26.7896 76.6943 0
    endloop
  endfacet
  facet normal -0.951056 -0.309017 0
    outer loop
      vertex 26.7896 76.6943 1
      vertex 27.6941 73.9108 0
      vertex 27.6941 73.9108 1
    endloop
  endfacet
  facet normal -0.743145 -0.66913 0
    outer loop
      vertex 25.3262 79.229 0
      vertex 23.3678 81.404 1
      vertex 23.3678 81.404 0
    endloop
  endfacet
  facet normal -0.743145 -0.66913 0
    outer loop
      vertex 23.3678 81.404 1
      vertex 25.3262 79.229 0
      vertex 25.3262 79.229 1
    endloop
  endfacet
  facet normal -0.207913 -0.978147 0
    outer loop
      vertex 15.4634 84.9233 0
      vertex 18.3262 84.3148 1
      vertex 15.4634 84.9233 1
    endloop
  endfacet
  facet normal -0.207913 -0.978147 -0
    outer loop
      vertex 18.3262 84.3148 1
      vertex 15.4634 84.9233 0
      vertex 18.3262 84.3148 0
    endloop
  endfacet
  facet normal -0.406735 -0.913546 0
    outer loop
      vertex 18.3262 84.3148 0
      vertex 21 83.1244 1
      vertex 18.3262 84.3148 1
    endloop
  endfacet
  facet normal -0.406735 -0.913546 -0
    outer loop
      vertex 21 83.1244 1
      vertex 18.3262 84.3148 0
      vertex 21 83.1244 0
    endloop
  endfacet
  facet normal 0.951056 -0.309017 0
    outer loop
      vertex 0.305933 73.9108 1
      vertex 1.21036 76.6943 0
      vertex 1.21036 76.6943 1
    endloop
  endfacet
  facet normal 0.951056 -0.309017 0
    outer loop
      vertex 1.21036 76.6943 0
      vertex 0.305933 73.9108 1
      vertex 0.305933 73.9108 0
    endloop
  endfacet
  facet normal 0.866026 -0.499999 0
    outer loop
      vertex 1.21036 76.6943 1
      vertex 2.67376 79.229 0
      vertex 2.67376 79.229 1
    endloop
  endfacet
  facet normal 0.866026 -0.499999 0
    outer loop
      vertex 2.67376 79.229 0
      vertex 1.21036 76.6943 1
      vertex 1.21036 76.6943 0
    endloop
  endfacet
  facet normal 0.994522 -0.104528 0
    outer loop
      vertex 0 71 1
      vertex 0.305933 73.9108 0
      vertex 0.305933 73.9108 1
    endloop
  endfacet
  facet normal 0.994522 -0.104528 0
    outer loop
      vertex 0.305933 73.9108 0
      vertex 0 71 1
      vertex 0 71 0
    endloop
  endfacet
  facet normal 0.587785 -0.809017 0
    outer loop
      vertex 4.63217 81.404 0
      vertex 7 83.1244 1
      vertex 4.63217 81.404 1
    endloop
  endfacet
  facet normal 0.587785 -0.809017 0
    outer loop
      vertex 7 83.1244 1
      vertex 4.63217 81.404 0
      vertex 7 83.1244 0
    endloop
  endfacet
  facet normal 0.207913 -0.978147 0
    outer loop
      vertex 9.67376 84.3148 0
      vertex 12.5366 84.9233 1
      vertex 9.67376 84.3148 1
    endloop
  endfacet
  facet normal 0.207913 -0.978147 0
    outer loop
      vertex 12.5366 84.9233 1
      vertex 9.67376 84.3148 0
      vertex 12.5366 84.9233 0
    endloop
  endfacet
  facet normal -1 0 0
    outer loop
      vertex -1 -1 0
      vertex -1 86 1
      vertex -1 86 0
    endloop
  endfacet
  facet normal -1 -0 0
    outer loop
      vertex -1 86 1
      vertex -1 -1 0
      vertex -1 -1 1
    endloop
  endfacet
  facet normal 0 0 1
    outer loop
      vertex 29 86 1
      vertex 28 71 1
      vertex 29 -1 1
    endloop
  endfacet
  facet normal 0 0 1
    outer loop
      vertex 29 86 1
      vertex 27.6941 73.9108 1
      vertex 28 71 1
    endloop
  endfacet
  facet normal 0 0 1
    outer loop
      vertex 29 86 1
      vertex 26.7896 76.6943 1
      vertex 27.6941 73.9108 1
    endloop
  endfacet
  facet normal 0 0 1
    outer loop
      vertex 29 86 1
      vertex 25.3262 79.229 1
      vertex 26.7896 76.6943 1
    endloop
  endfacet
  facet normal 0 0 1
    outer loop
      vertex 29 86 1
      vertex 23.3678 81.404 1
      vertex 25.3262 79.229 1
    endloop
  endfacet
  facet normal 0 0 1
    outer loop
      vertex 29 86 1
      vertex 21 83.1244 1
      vertex 23.3678 81.404 1
    endloop
  endfacet
  facet normal 0 0 1
    outer loop
      vertex 29 86 1
      vertex 18.3262 84.3148 1
      vertex 21 83.1244 1
    endloop
  endfacet
  facet normal 0 0 1
    outer loop
      vertex 29 86 1
      vertex 15.4634 84.9233 1
      vertex 18.3262 84.3148 1
    endloop
  endfacet
  facet normal 0 0 1
    outer loop
      vertex 29 86 1
      vertex 12.5366 84.9233 1
      vertex 15.4634 84.9233 1
    endloop
  endfacet
  facet normal 0 0 1
    outer loop
      vertex 0 71 1
      vertex -1 86 1
      vertex 0 14 1
    endloop
  endfacet
  facet normal 0 0 1
    outer loop
      vertex 0.305933 73.9108 1
      vertex -1 86 1
      vertex 0 71 1
    endloop
  endfacet
  facet normal 0 0 1
    outer loop
      vertex 1.21036 76.6943 1
      vertex -1 86 1
      vertex 0.305933 73.9108 1
    endloop
  endfacet
  facet normal 0 0 1
    outer loop
      vertex 2.67376 79.229 1
      vertex -1 86 1
      vertex 1.21036 76.6943 1
    endloop
  endfacet
  facet normal 0 0 1
    outer loop
      vertex 4.63217 81.404 1
      vertex -1 86 1
      vertex 2.67376 79.229 1
    endloop
  endfacet
  facet normal 0 0 1
    outer loop
      vertex 7 83.1244 1
      vertex -1 86 1
      vertex 4.63217 81.404 1
    endloop
  endfacet
  facet normal 0 0 1
    outer loop
      vertex 9.67376 84.3148 1
      vertex -1 86 1
      vertex 7 83.1244 1
    endloop
  endfacet
  facet normal 0 0 1
    outer loop
      vertex 12.5366 84.9233 1
      vertex -1 86 1
      vertex 9.67376 84.3148 1
    endloop
  endfacet
  facet normal -0 0 1
    outer loop
      vertex -1 86 1
      vertex 12.5366 84.9233 1
      vertex 29 86 1
    endloop
  endfacet
  facet normal -0 0 1
    outer loop
      vertex 28 14 1
      vertex 29 -1 1
      vertex 28 71 1
    endloop
  endfacet
  facet normal -0 0 1
    outer loop
      vertex 27.6941 11.0892 1
      vertex 29 -1 1
      vertex 28 14 1
    endloop
  endfacet
  facet normal -0 0 1
    outer loop
      vertex 26.7896 8.30569 1
      vertex 29 -1 1
      vertex 27.6941 11.0892 1
    endloop
  endfacet
  facet normal -0 0 1
    outer loop
      vertex 25.3262 5.77101 1
      vertex 29 -1 1
      vertex 26.7896 8.30569 1
    endloop
  endfacet
  facet normal -0 0 1
    outer loop
      vertex 23.3678 3.59597 1
      vertex 29 -1 1
      vertex 25.3262 5.77101 1
    endloop
  endfacet
  facet normal -0 0 1
    outer loop
      vertex 21 1.87564 1
      vertex 29 -1 1
      vertex 23.3678 3.59597 1
    endloop
  endfacet
  facet normal -0 0 1
    outer loop
      vertex 18.3262 0.685208 1
      vertex 29 -1 1
      vertex 21 1.87564 1
    endloop
  endfacet
  facet normal -0 0 1
    outer loop
      vertex 15.4634 0.0766926 1
      vertex 29 -1 1
      vertex 18.3262 0.685208 1
    endloop
  endfacet
  facet normal -0 0 1
    outer loop
      vertex 12.5366 0.0766926 1
      vertex 29 -1 1
      vertex 15.4634 0.0766926 1
    endloop
  endfacet
  facet normal 0 0 1
    outer loop
      vertex 12.5366 0.0766926 1
      vertex -1 -1 1
      vertex 29 -1 1
    endloop
  endfacet
  facet normal 0 0 1
    outer loop
      vertex 9.67376 0.685208 1
      vertex -1 -1 1
      vertex 12.5366 0.0766926 1
    endloop
  endfacet
  facet normal 0 0 1
    outer loop
      vertex 7 1.87564 1
      vertex -1 -1 1
      vertex 9.67376 0.685208 1
    endloop
  endfacet
  facet normal 0 0 1
    outer loop
      vertex 4.63217 3.59597 1
      vertex -1 -1 1
      vertex 7 1.87564 1
    endloop
  endfacet
  facet normal 0 0 1
    outer loop
      vertex 2.67376 5.77101 1
      vertex -1 -1 1
      vertex 4.63217 3.59597 1
    endloop
  endfacet
  facet normal 0 0 1
    outer loop
      vertex 1.21036 8.30569 1
      vertex -1 -1 1
      vertex 2.67376 5.77101 1
    endloop
  endfacet
  facet normal 0 0 1
    outer loop
      vertex 0.305933 11.0892 1
      vertex -1 -1 1
      vertex 1.21036 8.30569 1
    endloop
  endfacet
  facet normal 0 0 1
    outer loop
      vertex 0 14 1
      vertex -1 -1 1
      vertex 0.305933 11.0892 1
    endloop
  endfacet
  facet normal 0 0 1
    outer loop
      vertex -1 -1 1
      vertex 0 14 1
      vertex -1 86 1
    endloop
  endfacet
  facet normal 1 -0 0
    outer loop
      vertex 29 -1 1
      vertex 29 86 0
      vertex 29 86 1
    endloop
  endfacet
  facet normal 1 0 0
    outer loop
      vertex 29 86 0
      vertex 29 -1 1
      vertex 29 -1 0
    endloop
  endfacet
  facet normal 0 1 -0
    outer loop
      vertex 29 86 0
      vertex -1 86 1
      vertex 29 86 1
    endloop
  endfacet
  facet normal 0 1 0
    outer loop
      vertex -1 86 1
      vertex 29 86 0
      vertex -1 86 0
    endloop
  endfacet
  facet normal 0 -1 0
    outer loop
      vertex -1 -1 0
      vertex 29 -1 1
      vertex -1 -1 1
    endloop
  endfacet
  facet normal 0 -1 -0
    outer loop
      vertex 29 -1 1
      vertex -1 -1 0
      vertex 29 -1 0
    endloop
  endfacet
endsolid OpenSCAD_Model
