solid OpenSCAD_Model
  facet normal -1 0 0
    outer loop
      vertex 42 6.78822 15
      vertex 42 35.2118 25
      vertex 42 35.2118 15
    endloop
  endfacet
  facet normal -1 -0 0
    outer loop
      vertex 42 35.2118 25
      vertex 42 6.78822 15
      vertex 42 6.78822 25
    endloop
  endfacet
  facet normal 0 -1 0
    outer loop
      vertex 6.78822 42 15
      vertex 35.2118 42 25
      vertex 6.78822 42 25
    endloop
  endfacet
  facet normal 0 -1 -0
    outer loop
      vertex 35.2118 42 25
      vertex 6.78822 42 15
      vertex 35.2118 42 15
    endloop
  endfacet
  facet normal 0 1 -0
    outer loop
      vertex 35.2118 0 15
      vertex 6.78822 0 25
      vertex 35.2118 0 25
    endloop
  endfacet
  facet normal 0 1 0
    outer loop
      vertex 6.78822 0 25
      vertex 35.2118 0 15
      vertex 6.78822 0 15
    endloop
  endfacet
  facet normal 0.707107 -0.707107 0
    outer loop
      vertex 5.28822 40.5 25
      vertex 6.78822 42 15
      vertex 6.78822 42 25
    endloop
  endfacet
  facet normal 0.707107 -0.707107 0
    outer loop
      vertex 6.78822 42 15
      vertex 5.28822 40.5 25
      vertex 5.28822 40.5 15
    endloop
  endfacet
  facet normal -0.707107 0.707107 0
    outer loop
      vertex 35.2118 0 15
      vertex 42 6.78822 25
      vertex 42 6.78822 15
    endloop
  endfacet
  facet normal -0.707107 0.707107 0
    outer loop
      vertex 42 6.78822 25
      vertex 35.2118 0 15
      vertex 35.2118 0 25
    endloop
  endfacet
  facet normal 0.707107 0.707107 0
    outer loop
      vertex 6.78822 0 25
      vertex 5.28822 1.5 15
      vertex 5.28822 1.5 25
    endloop
  endfacet
  facet normal 0.707107 0.707107 0
    outer loop
      vertex 5.28822 1.5 15
      vertex 6.78822 0 25
      vertex 6.78822 0 15
    endloop
  endfacet
  facet normal -0.707107 -0.707107 0
    outer loop
      vertex 42 35.2118 15
      vertex 35.2118 42 25
      vertex 35.2118 42 15
    endloop
  endfacet
  facet normal -0.707107 -0.707107 0
    outer loop
      vertex 35.2118 42 25
      vertex 42 35.2118 15
      vertex 42 35.2118 25
    endloop
  endfacet
  facet normal 0 1 -0
    outer loop
      vertex 5.28822 1.5 15
      vertex 0 1.5 25
      vertex 5.28822 1.5 25
    endloop
  endfacet
  facet normal 0 1 0
    outer loop
      vertex 0 1.5 25
      vertex 5.28822 1.5 15
      vertex 0 1.5 15
    endloop
  endfacet
  facet normal 0 -1 0
    outer loop
      vertex 0 40.5 15
      vertex 5.28822 40.5 25
      vertex 0 40.5 25
    endloop
  endfacet
  facet normal 0 -1 -0
    outer loop
      vertex 5.28822 40.5 25
      vertex 0 40.5 15
      vertex 5.28822 40.5 15
    endloop
  endfacet
  facet normal 1 -0 0
    outer loop
      vertex 46 34 25
      vertex 46 46 15
      vertex 46 46 25
    endloop
  endfacet
  facet normal 1 0 0
    outer loop
      vertex 46 46 15
      vertex 46 34 25
      vertex 46 34 15
    endloop
  endfacet
  facet normal 1 -0 0
    outer loop
      vertex 46 -4 25
      vertex 46 30 15
      vertex 46 30 25
    endloop
  endfacet
  facet normal 1 0 0
    outer loop
      vertex 46 30 15
      vertex 46 -4 25
      vertex 46 -4 15
    endloop
  endfacet
  facet normal -0 0 1
    outer loop
      vertex 42 35.2118 25
      vertex 46 34 25
      vertex 46 46 25
    endloop
  endfacet
  facet normal 0 0 1
    outer loop
      vertex 46 34 25
      vertex 42 35.2118 25
      vertex 46 30 25
    endloop
  endfacet
  facet normal 0 0 1
    outer loop
      vertex 42 6.78822 25
      vertex 46 30 25
      vertex 42 35.2118 25
    endloop
  endfacet
  facet normal 0 0 1
    outer loop
      vertex 46 46 25
      vertex 35.2118 42 25
      vertex 42 35.2118 25
    endloop
  endfacet
  facet normal -0 0 1
    outer loop
      vertex 0 46 25
      vertex 35.2118 42 25
      vertex 46 46 25
    endloop
  endfacet
  facet normal 0 0 1
    outer loop
      vertex 35.2118 42 25
      vertex 0 46 25
      vertex 6.78822 42 25
    endloop
  endfacet
  facet normal 0 0 1
    outer loop
      vertex 0 46 25
      vertex 5.28822 40.5 25
      vertex 6.78822 42 25
    endloop
  endfacet
  facet normal 0 0 1
    outer loop
      vertex 5.28822 40.5 25
      vertex 0 46 25
      vertex 0 40.5 25
    endloop
  endfacet
  facet normal 0 0 1
    outer loop
      vertex 54 34 25
      vertex 51 30 25
      vertex 54 10 25
    endloop
  endfacet
  facet normal -0 0 1
    outer loop
      vertex 46 34 25
      vertex 51 30 25
      vertex 54 34 25
    endloop
  endfacet
  facet normal 0 0 1
    outer loop
      vertex 51 30 25
      vertex 46 34 25
      vertex 46 30 25
    endloop
  endfacet
  facet normal -0 0 1
    outer loop
      vertex 51 14 25
      vertex 54 10 25
      vertex 51 30 25
    endloop
  endfacet
  facet normal 0 0 1
    outer loop
      vertex 47.5 10 25
      vertex 51 14 25
      vertex 47.5 14 25
    endloop
  endfacet
  facet normal 0 0 1
    outer loop
      vertex 51 14 25
      vertex 47.5 10 25
      vertex 54 10 25
    endloop
  endfacet
  facet normal 0 0 1
    outer loop
      vertex 46 30 25
      vertex 42 6.78822 25
      vertex 46 -4 25
    endloop
  endfacet
  facet normal -0 0 1
    outer loop
      vertex 35.2118 0 25
      vertex 46 -4 25
      vertex 42 6.78822 25
    endloop
  endfacet
  facet normal 0 0 1
    outer loop
      vertex 0 -4 25
      vertex 35.2118 0 25
      vertex 6.78822 0 25
    endloop
  endfacet
  facet normal 0 0 1
    outer loop
      vertex 0 -4 25
      vertex 5.28822 1.5 25
      vertex 0 1.5 25
    endloop
  endfacet
  facet normal 0 0 1
    outer loop
      vertex 35.2118 0 25
      vertex 0 -4 25
      vertex 46 -4 25
    endloop
  endfacet
  facet normal 0 0 1
    outer loop
      vertex 5.28822 1.5 25
      vertex 0 -4 25
      vertex 6.78822 0 25
    endloop
  endfacet
  facet normal -1 0 0
    outer loop
      vertex 47.5 10 15
      vertex 47.5 14 25
      vertex 47.5 14 15
    endloop
  endfacet
  facet normal -1 -0 0
    outer loop
      vertex 47.5 14 25
      vertex 47.5 10 15
      vertex 47.5 10 25
    endloop
  endfacet
  facet normal 0 -1 0
    outer loop
      vertex 46 30 15
      vertex 51 30 25
      vertex 46 30 25
    endloop
  endfacet
  facet normal 0 -1 -0
    outer loop
      vertex 51 30 25
      vertex 46 30 15
      vertex 51 30 15
    endloop
  endfacet
  facet normal 0 0 -1
    outer loop
      vertex 42 6.78822 15
      vertex 46 30 15
      vertex 46 -4 15
    endloop
  endfacet
  facet normal 0 0 -1
    outer loop
      vertex 42 35.2118 15
      vertex 46 30 15
      vertex 42 6.78822 15
    endloop
  endfacet
  facet normal 0 0 -1
    outer loop
      vertex 46 30 15
      vertex 42 35.2118 15
      vertex 46 34 15
    endloop
  endfacet
  facet normal 0 0 -1
    outer loop
      vertex 46 -4 15
      vertex 35.2118 0 15
      vertex 42 6.78822 15
    endloop
  endfacet
  facet normal 0 0 -1
    outer loop
      vertex 0 -4 15
      vertex 35.2118 0 15
      vertex 46 -4 15
    endloop
  endfacet
  facet normal -0 0 -1
    outer loop
      vertex 35.2118 0 15
      vertex 0 -4 15
      vertex 6.78822 0 15
    endloop
  endfacet
  facet normal 0 0 -1
    outer loop
      vertex 0 -4 15
      vertex 5.28822 1.5 15
      vertex 6.78822 0 15
    endloop
  endfacet
  facet normal -0 0 -1
    outer loop
      vertex 5.28822 1.5 15
      vertex 0 -4 15
      vertex 0 1.5 15
    endloop
  endfacet
  facet normal 0 0 -1
    outer loop
      vertex 54 10 15
      vertex 51 14 15
      vertex 54 34 15
    endloop
  endfacet
  facet normal 0 0 -1
    outer loop
      vertex 47.5 10 15
      vertex 51 14 15
      vertex 54 10 15
    endloop
  endfacet
  facet normal -0 0 -1
    outer loop
      vertex 51 14 15
      vertex 47.5 10 15
      vertex 47.5 14 15
    endloop
  endfacet
  facet normal 0 0 -1
    outer loop
      vertex 51 30 15
      vertex 54 34 15
      vertex 51 14 15
    endloop
  endfacet
  facet normal 0 0 -1
    outer loop
      vertex 46 34 15
      vertex 51 30 15
      vertex 46 30 15
    endloop
  endfacet
  facet normal 0 0 -1
    outer loop
      vertex 51 30 15
      vertex 46 34 15
      vertex 54 34 15
    endloop
  endfacet
  facet normal 0 0 -1
    outer loop
      vertex 46 34 15
      vertex 42 35.2118 15
      vertex 46 46 15
    endloop
  endfacet
  facet normal 0 0 -1
    outer loop
      vertex 35.2118 42 15
      vertex 46 46 15
      vertex 42 35.2118 15
    endloop
  endfacet
  facet normal 0 0 -1
    outer loop
      vertex 0 46 15
      vertex 35.2118 42 15
      vertex 6.78822 42 15
    endloop
  endfacet
  facet normal 0 0 -1
    outer loop
      vertex 0 46 15
      vertex 5.28822 40.5 15
      vertex 0 40.5 15
    endloop
  endfacet
  facet normal 0 0 -1
    outer loop
      vertex 35.2118 42 15
      vertex 0 46 15
      vertex 46 46 15
    endloop
  endfacet
  facet normal 0 0 -1
    outer loop
      vertex 5.28822 40.5 15
      vertex 0 46 15
      vertex 6.78822 42 15
    endloop
  endfacet
  facet normal -1 0 0
    outer loop
      vertex 51 14 15
      vertex 51 30 25
      vertex 51 30 15
    endloop
  endfacet
  facet normal -1 -0 0
    outer loop
      vertex 51 30 25
      vertex 51 14 15
      vertex 51 14 25
    endloop
  endfacet
  facet normal 0 1 -0
    outer loop
      vertex 51 14 15
      vertex 47.5 14 25
      vertex 51 14 25
    endloop
  endfacet
  facet normal 0 1 0
    outer loop
      vertex 47.5 14 25
      vertex 51 14 15
      vertex 47.5 14 15
    endloop
  endfacet
  facet normal 1 -0 0
    outer loop
      vertex 54 10 25
      vertex 54 34 15
      vertex 54 34 25
    endloop
  endfacet
  facet normal 1 0 0
    outer loop
      vertex 54 34 15
      vertex 54 10 25
      vertex 54 10 15
    endloop
  endfacet
  facet normal 0 -1 0
    outer loop
      vertex 47.5 10 15
      vertex 54 10 25
      vertex 47.5 10 25
    endloop
  endfacet
  facet normal 0 -1 -0
    outer loop
      vertex 54 10 25
      vertex 47.5 10 15
      vertex 54 10 15
    endloop
  endfacet
  facet normal 0 1 -0
    outer loop
      vertex 54 34 15
      vertex 46 34 25
      vertex 54 34 25
    endloop
  endfacet
  facet normal 0 1 0
    outer loop
      vertex 46 34 25
      vertex 54 34 15
      vertex 46 34 15
    endloop
  endfacet
  facet normal -1 0 0
    outer loop
      vertex 0 -4 15
      vertex 0 1.5 25
      vertex 0 1.5 15
    endloop
  endfacet
  facet normal -1 -0 0
    outer loop
      vertex 0 1.5 25
      vertex 0 -4 15
      vertex 0 -4 25
    endloop
  endfacet
  facet normal -1 0 0
    outer loop
      vertex 0 40.5 15
      vertex 0 46 25
      vertex 0 46 15
    endloop
  endfacet
  facet normal -1 -0 0
    outer loop
      vertex 0 46 25
      vertex 0 40.5 15
      vertex 0 40.5 25
    endloop
  endfacet
  facet normal 0 -1 0
    outer loop
      vertex 0 -4 15
      vertex 46 -4 25
      vertex 0 -4 25
    endloop
  endfacet
  facet normal 0 -1 -0
    outer loop
      vertex 46 -4 25
      vertex 0 -4 15
      vertex 46 -4 15
    endloop
  endfacet
  facet normal 0 1 -0
    outer loop
      vertex 46 46 15
      vertex 0 46 25
      vertex 46 46 25
    endloop
  endfacet
  facet normal 0 1 0
    outer loop
      vertex 0 46 25
      vertex 46 46 15
      vertex 0 46 15
    endloop
  endfacet
endsolid OpenSCAD_Model
