solid OpenSCAD_Model
  facet normal 0.358368 0 0.93358
    outer loop
      vertex 15.2377 70 -8.4503
      vertex 16.1416 0 -8.79727
      vertex 16.1416 70 -8.79727
    endloop
  endfacet
  facet normal 0.358368 0 0.93358
    outer loop
      vertex 16.1416 0 -8.79727
      vertex 15.2377 70 -8.4503
      vertex 15.2377 0 -8.4503
    endloop
  endfacet
  facet normal 0 -1 0
    outer loop
      vertex -4.5 0 1.5
      vertex 4.5 0 14.5
      vertex -4.5 0 14.5
    endloop
  endfacet
  facet normal 0 -1 -0
    outer loop
      vertex 4.5 0 14.5
      vertex -4.5 0 1.5
      vertex 4.5 0 1.5
    endloop
  endfacet
  facet normal 0 1 0
    outer loop
      vertex 19 0 -9
      vertex 26.7942 0 -4.5
      vertex 26.2812 0 -5.29007
    endloop
  endfacet
  facet normal 0 1 0
    outer loop
      vertex 26.7942 0 -4.5
      vertex 19 0 -9
      vertex 11.3627 0 -5.2
    endloop
  endfacet
  facet normal 0 1 0
    outer loop
      vertex 19 0 -9
      vertex 26.2812 0 -5.29007
      vertex 25.6883 0 -6.02217
    endloop
  endfacet
  facet normal -0 1 -0
    outer loop
      vertex 12.1259 0 -6.18946
      vertex 11.3627 0 -5.2
      vertex 19 0 -9
    endloop
  endfacet
  facet normal 0 1 0
    outer loop
      vertex 19 0 -9
      vertex 25.6883 0 -6.02217
      vertex 25.0222 0 -6.6883
    endloop
  endfacet
  facet normal 0 1 0
    outer loop
      vertex 11.3627 0 -5.2
      vertex 12.1259 0 -6.18946
      vertex 11.5166 0 -5.43701
    endloop
  endfacet
  facet normal 0 1 0
    outer loop
      vertex 19 0 -9
      vertex 25.0222 0 -6.6883
      vertex 24.2901 0 -7.28115
    endloop
  endfacet
  facet normal 0 1 0
    outer loop
      vertex 12.1259 0 -6.18946
      vertex 19 0 -9
      vertex 12.8105 0 -6.87409
    endloop
  endfacet
  facet normal 0 1 0
    outer loop
      vertex 19 0 -9
      vertex 24.2901 0 -7.28115
      vertex 23.5 0 -7.79423
    endloop
  endfacet
  facet normal 0 1 0
    outer loop
      vertex 12.8105 0 -6.87409
      vertex 19 0 -9
      vertex 13.563 0 -7.48341
    endloop
  endfacet
  facet normal 0 1 0
    outer loop
      vertex 19 0 -9
      vertex 23.5 0 -7.79423
      vertex 22.6606 0 -8.22191
    endloop
  endfacet
  facet normal 0 1 0
    outer loop
      vertex 13.563 0 -7.48341
      vertex 19 0 -9
      vertex 14.375 0 -8.01073
    endloop
  endfacet
  facet normal 0 1 0
    outer loop
      vertex 19 0 -9
      vertex 22.6606 0 -8.22191
      vertex 21.7812 0 -8.55951
    endloop
  endfacet
  facet normal 0 1 0
    outer loop
      vertex 14.375 0 -8.01073
      vertex 19 0 -9
      vertex 15.2377 0 -8.4503
    endloop
  endfacet
  facet normal 0 1 0
    outer loop
      vertex 19 0 -9
      vertex 21.7812 0 -8.55951
      vertex 20.8712 0 -8.80333
    endloop
  endfacet
  facet normal 0 1 0
    outer loop
      vertex 19 0 -9
      vertex 20.8712 0 -8.80333
      vertex 19.9408 0 -8.9507
    endloop
  endfacet
  facet normal 0 1 0
    outer loop
      vertex 15.2377 0 -8.4503
      vertex 19 0 -9
      vertex 16.1416 0 -8.79727
    endloop
  endfacet
  facet normal 0 1 0
    outer loop
      vertex 16.1416 0 -8.79727
      vertex 19 0 -9
      vertex 16.8982 0 -9
    endloop
  endfacet
  facet normal 0 1 0
    outer loop
      vertex 28 0 0
      vertex 27.8621 0 1.5
      vertex 27.9507 0 0.940756
    endloop
  endfacet
  facet normal 0 1 0
    outer loop
      vertex 27.8621 0 1.5
      vertex 28 0 0
      vertex 11.3627 0 -5.2
    endloop
  endfacet
  facet normal 0 1 0
    outer loop
      vertex 11.3627 0 -5.2
      vertex 28 0 0
      vertex 27.9507 0 -0.940756
    endloop
  endfacet
  facet normal 0 1 0
    outer loop
      vertex 11.3627 0 -5.2
      vertex 27.9507 0 -0.940756
      vertex 27.8033 0 -1.8712
    endloop
  endfacet
  facet normal 0 1 0
    outer loop
      vertex 11.3627 0 -5.2
      vertex 27.8033 0 -1.8712
      vertex 27.5595 0 -2.78115
    endloop
  endfacet
  facet normal 0 1 0
    outer loop
      vertex 11.3627 0 -5.2
      vertex 27.5595 0 -2.78115
      vertex 27.2219 0 -3.66063
    endloop
  endfacet
  facet normal 0 1 0
    outer loop
      vertex 11.3627 0 -5.2
      vertex 27.2219 0 -3.66063
      vertex 26.7942 0 -4.5
    endloop
  endfacet
  facet normal 0 1 0
    outer loop
      vertex 27.8621 0 1.5
      vertex 11.3627 0 -5.2
      vertex 4.5 0 1.5
    endloop
  endfacet
  facet normal 0 1 -0
    outer loop
      vertex 7.63732 0 -5.2
      vertex 4.5 0 1.5
      vertex 11.3627 0 -5.2
    endloop
  endfacet
  facet normal 0 1 -0
    outer loop
      vertex 7.48341 0 -5.43701
      vertex 4.5 0 1.5
      vertex 7.63732 0 -5.2
    endloop
  endfacet
  facet normal 0 1 -0
    outer loop
      vertex 6.87409 0 -6.18946
      vertex 4.5 0 1.5
      vertex 7.48341 0 -5.43701
    endloop
  endfacet
  facet normal 0 1 -0
    outer loop
      vertex 6.18946 0 -6.87409
      vertex 4.5 0 1.5
      vertex 6.87409 0 -6.18946
    endloop
  endfacet
  facet normal 0 1 -0
    outer loop
      vertex 5.43701 0 -7.48341
      vertex 4.5 0 1.5
      vertex 6.18946 0 -6.87409
    endloop
  endfacet
  facet normal 0 1 -0
    outer loop
      vertex 4.625 0 -8.01073
      vertex 4.5 0 1.5
      vertex 5.43701 0 -7.48341
    endloop
  endfacet
  facet normal 0 1 0
    outer loop
      vertex 4.5 0 1.5
      vertex 4.625 0 -8.01073
      vertex 4.5 0 -8.07443
    endloop
  endfacet
  facet normal 0 1 0
    outer loop
      vertex -4.5 0 1.5
      vertex -8.9507 0 0.940756
      vertex -8.86212 0 1.5
    endloop
  endfacet
  facet normal 0 1 0
    outer loop
      vertex -4.5 0 1.5
      vertex -9 0 0
      vertex -8.9507 0 0.940756
    endloop
  endfacet
  facet normal 0 1 0
    outer loop
      vertex -4.5 0 1.5
      vertex -8.9507 0 -0.940756
      vertex -9 0 0
    endloop
  endfacet
  facet normal 0 1 0
    outer loop
      vertex -4.5 0 1.5
      vertex -8.80333 0 -1.8712
      vertex -8.9507 0 -0.940756
    endloop
  endfacet
  facet normal 0 1 0
    outer loop
      vertex -4.5 0 1.5
      vertex -8.55951 0 -2.78115
      vertex -8.80333 0 -1.8712
    endloop
  endfacet
  facet normal 0 1 0
    outer loop
      vertex -4.5 0 1.5
      vertex -8.22191 0 -3.66063
      vertex -8.55951 0 -2.78115
    endloop
  endfacet
  facet normal 0 1 0
    outer loop
      vertex -4.5 0 1.5
      vertex -7.79423 0 -4.5
      vertex -8.22191 0 -3.66063
    endloop
  endfacet
  facet normal 0 1 0
    outer loop
      vertex -4.5 0 1.5
      vertex -7.28115 0 -5.29007
      vertex -7.79423 0 -4.5
    endloop
  endfacet
  facet normal 0 1 0
    outer loop
      vertex -4.5 0 1.5
      vertex -6.6883 0 -6.02217
      vertex -7.28115 0 -5.29007
    endloop
  endfacet
  facet normal 0 1 0
    outer loop
      vertex -4.5 0 1.5
      vertex -6.02217 0 -6.6883
      vertex -6.6883 0 -6.02217
    endloop
  endfacet
  facet normal 0 1 0
    outer loop
      vertex -4.5 0 1.5
      vertex -5.29007 0 -7.28115
      vertex -6.02217 0 -6.6883
    endloop
  endfacet
  facet normal -0 1 0
    outer loop
      vertex -5.29007 0 -7.28115
      vertex -4.5 0 1.5
      vertex -4.5 0 -7.79423
    endloop
  endfacet
  facet normal 0.62932 0 0.777146
    outer loop
      vertex 12.8105 70 -6.87409
      vertex 13.563 0 -7.48341
      vertex 13.563 70 -7.48341
    endloop
  endfacet
  facet normal 0.62932 0 0.777146
    outer loop
      vertex 13.563 0 -7.48341
      vertex 12.8105 70 -6.87409
      vertex 12.8105 0 -6.87409
    endloop
  endfacet
  facet normal 0.777146 -0 0.62932
    outer loop
      vertex 11.5166 0 -5.43701
      vertex 12.1259 70 -6.18946
      vertex 11.5166 70 -5.43701
    endloop
  endfacet
  facet normal 0.777146 0 0.62932
    outer loop
      vertex 12.1259 70 -6.18946
      vertex 11.5166 0 -5.43701
      vertex 12.1259 0 -6.18946
    endloop
  endfacet
  facet normal 0.83867 -0 0.54464
    outer loop
      vertex 11.3627 0 -5.2
      vertex 11.5166 70 -5.43701
      vertex 11.3627 70 -5.2
    endloop
  endfacet
  facet normal 0.83867 0 0.54464
    outer loop
      vertex 11.5166 70 -5.43701
      vertex 11.3627 0 -5.2
      vertex 11.5166 0 -5.43701
    endloop
  endfacet
  facet normal 0.258819 9.44805e-10 0.965926
    outer loop
      vertex 16.1416 70 -8.79727
      vertex 16.8982 0 -9
      vertex 16.8982 70 -9
    endloop
  endfacet
  facet normal 0.258819 0 0.965926
    outer loop
      vertex 16.8982 0 -9
      vertex 16.1416 70 -8.79727
      vertex 16.1416 0 -8.79727
    endloop
  endfacet
  facet normal 0.453991 0 0.891006
    outer loop
      vertex 14.375 70 -8.01073
      vertex 15.2377 0 -8.4503
      vertex 15.2377 70 -8.4503
    endloop
  endfacet
  facet normal 0.453991 0 0.891006
    outer loop
      vertex 15.2377 0 -8.4503
      vertex 14.375 70 -8.01073
      vertex 14.375 0 -8.01073
    endloop
  endfacet
  facet normal 0.544639 0 0.838671
    outer loop
      vertex 13.563 70 -7.48341
      vertex 14.375 0 -8.01073
      vertex 14.375 70 -8.01073
    endloop
  endfacet
  facet normal 0.544639 0 0.838671
    outer loop
      vertex 14.375 0 -8.01073
      vertex 13.563 70 -7.48341
      vertex 13.563 0 -7.48341
    endloop
  endfacet
  facet normal 0.707107 -0 0.707107
    outer loop
      vertex 12.1259 0 -6.18946
      vertex 12.8105 70 -6.87409
      vertex 12.1259 70 -6.18946
    endloop
  endfacet
  facet normal 0.707107 0 0.707107
    outer loop
      vertex 12.8105 70 -6.87409
      vertex 12.1259 0 -6.18946
      vertex 12.8105 0 -6.87409
    endloop
  endfacet
  facet normal 0 -1 0
    outer loop
      vertex -9 70 0
      vertex -8.86212 70 1.5
      vertex -8.9507 70 0.940756
    endloop
  endfacet
  facet normal 0 -1 0
    outer loop
      vertex -8.86212 70 1.5
      vertex 7.63732 70 -5.2
      vertex 27.8621 70 1.5
    endloop
  endfacet
  facet normal 0 -1 -0
    outer loop
      vertex -8.86212 70 1.5
      vertex -9 70 0
      vertex 0 70 -9
    endloop
  endfacet
  facet normal 0 -1 0
    outer loop
      vertex 11.3627 70 -5.2
      vertex 27.8621 70 1.5
      vertex 7.63732 70 -5.2
    endloop
  endfacet
  facet normal 0 -1 0
    outer loop
      vertex 0 70 -9
      vertex -9 70 0
      vertex -8.9507 70 -0.940756
    endloop
  endfacet
  facet normal 0 -1 0
    outer loop
      vertex 19 70 -9
      vertex 27.8621 70 1.5
      vertex 11.3627 70 -5.2
    endloop
  endfacet
  facet normal 0 -1 0
    outer loop
      vertex 0 70 -9
      vertex -8.9507 70 -0.940756
      vertex -8.80333 70 -1.8712
    endloop
  endfacet
  facet normal -0 -1 0
    outer loop
      vertex 28 70 0
      vertex 27.8621 70 1.5
      vertex 19 70 -9
    endloop
  endfacet
  facet normal 0 -1 0
    outer loop
      vertex 0 70 -9
      vertex -8.80333 70 -1.8712
      vertex -8.55951 70 -2.78115
    endloop
  endfacet
  facet normal 0 -1 0
    outer loop
      vertex 27.8621 70 1.5
      vertex 28 70 0
      vertex 27.9507 70 0.940756
    endloop
  endfacet
  facet normal 0 -1 0
    outer loop
      vertex 0 70 -9
      vertex -8.55951 70 -2.78115
      vertex -8.22191 70 -3.66063
    endloop
  endfacet
  facet normal 0 -1 0
    outer loop
      vertex 28 70 0
      vertex 19 70 -9
      vertex 27.9507 70 -0.940756
    endloop
  endfacet
  facet normal 0 -1 0
    outer loop
      vertex 0 70 -9
      vertex -8.22191 70 -3.66063
      vertex -7.79423 70 -4.5
    endloop
  endfacet
  facet normal 0 -1 0
    outer loop
      vertex 27.9507 70 -0.940756
      vertex 19 70 -9
      vertex 27.8033 70 -1.8712
    endloop
  endfacet
  facet normal 0 -1 0
    outer loop
      vertex 27.8033 70 -1.8712
      vertex 19 70 -9
      vertex 27.5595 70 -2.78115
    endloop
  endfacet
  facet normal 0 -1 0
    outer loop
      vertex 0 70 -9
      vertex -7.79423 70 -4.5
      vertex -7.28115 70 -5.29007
    endloop
  endfacet
  facet normal 0 -1 0
    outer loop
      vertex -8.86212 70 1.5
      vertex 0 70 -9
      vertex 7.63732 70 -5.2
    endloop
  endfacet
  facet normal 0 -1 0
    outer loop
      vertex 0 70 -9
      vertex -7.28115 70 -5.29007
      vertex -6.6883 70 -6.02217
    endloop
  endfacet
  facet normal -0 -1 0
    outer loop
      vertex 6.87409 70 -6.18946
      vertex 7.63732 70 -5.2
      vertex 0 70 -9
    endloop
  endfacet
  facet normal 0 -1 0
    outer loop
      vertex 0 70 -9
      vertex -6.6883 70 -6.02217
      vertex -6.02217 70 -6.6883
    endloop
  endfacet
  facet normal 0 -1 0
    outer loop
      vertex 7.63732 70 -5.2
      vertex 6.87409 70 -6.18946
      vertex 7.48341 70 -5.43701
    endloop
  endfacet
  facet normal 0 -1 0
    outer loop
      vertex 0 70 -9
      vertex -6.02217 70 -6.6883
      vertex -5.29007 70 -7.28115
    endloop
  endfacet
  facet normal 0 -1 0
    outer loop
      vertex 6.87409 70 -6.18946
      vertex 0 70 -9
      vertex 6.18946 70 -6.87409
    endloop
  endfacet
  facet normal 0 -1 0
    outer loop
      vertex 0 70 -9
      vertex -5.29007 70 -7.28115
      vertex -4.5 70 -7.79423
    endloop
  endfacet
  facet normal 0 -1 0
    outer loop
      vertex 6.18946 70 -6.87409
      vertex 0 70 -9
      vertex 5.43701 70 -7.48341
    endloop
  endfacet
  facet normal 0 -1 0
    outer loop
      vertex 0 70 -9
      vertex -4.5 70 -7.79423
      vertex -3.66063 70 -8.22191
    endloop
  endfacet
  facet normal 0 -1 0
    outer loop
      vertex 5.43701 70 -7.48341
      vertex 0 70 -9
      vertex 4.625 70 -8.01073
    endloop
  endfacet
  facet normal 0 -1 0
    outer loop
      vertex 0 70 -9
      vertex -3.66063 70 -8.22191
      vertex -2.78115 70 -8.55951
    endloop
  endfacet
  facet normal 0 -1 0
    outer loop
      vertex 4.625 70 -8.01073
      vertex 0 70 -9
      vertex 3.76231 70 -8.4503
    endloop
  endfacet
  facet normal 0 -1 0
    outer loop
      vertex 0 70 -9
      vertex -2.78115 70 -8.55951
      vertex -1.8712 70 -8.80333
    endloop
  endfacet
  facet normal 0 -1 0
    outer loop
      vertex 0 70 -9
      vertex -1.8712 70 -8.80333
      vertex -0.940756 70 -8.9507
    endloop
  endfacet
  facet normal 0 -1 0
    outer loop
      vertex 3.76231 70 -8.4503
      vertex 0 70 -9
      vertex 2.85841 70 -8.79727
    endloop
  endfacet
  facet normal 0 -1 0
    outer loop
      vertex 2.85841 70 -8.79727
      vertex 0 70 -9
      vertex 2.10182 70 -9
    endloop
  endfacet
  facet normal 0 -1 0
    outer loop
      vertex 27.5595 70 -2.78115
      vertex 19 70 -9
      vertex 27.2219 70 -3.66063
    endloop
  endfacet
  facet normal 0 -1 0
    outer loop
      vertex 27.2219 70 -3.66063
      vertex 19 70 -9
      vertex 26.7942 70 -4.5
    endloop
  endfacet
  facet normal 0 -1 0
    outer loop
      vertex 12.1259 70 -6.18946
      vertex 11.3627 70 -5.2
      vertex 11.5166 70 -5.43701
    endloop
  endfacet
  facet normal 0 -1 0
    outer loop
      vertex 26.7942 70 -4.5
      vertex 19 70 -9
      vertex 26.2812 70 -5.29007
    endloop
  endfacet
  facet normal 0 -1 0
    outer loop
      vertex 11.3627 70 -5.2
      vertex 12.1259 70 -6.18946
      vertex 19 70 -9
    endloop
  endfacet
  facet normal 0 -1 0
    outer loop
      vertex 26.2812 70 -5.29007
      vertex 19 70 -9
      vertex 25.6883 70 -6.02217
    endloop
  endfacet
  facet normal 0 -1 0
    outer loop
      vertex 19 70 -9
      vertex 12.1259 70 -6.18946
      vertex 12.8105 70 -6.87409
    endloop
  endfacet
  facet normal 0 -1 0
    outer loop
      vertex 25.6883 70 -6.02217
      vertex 19 70 -9
      vertex 25.0222 70 -6.6883
    endloop
  endfacet
  facet normal 0 -1 0
    outer loop
      vertex 19 70 -9
      vertex 12.8105 70 -6.87409
      vertex 13.563 70 -7.48341
    endloop
  endfacet
  facet normal 0 -1 0
    outer loop
      vertex 25.0222 70 -6.6883
      vertex 19 70 -9
      vertex 24.2901 70 -7.28115
    endloop
  endfacet
  facet normal 0 -1 0
    outer loop
      vertex 19 70 -9
      vertex 13.563 70 -7.48341
      vertex 14.375 70 -8.01073
    endloop
  endfacet
  facet normal 0 -1 0
    outer loop
      vertex 24.2901 70 -7.28115
      vertex 19 70 -9
      vertex 23.5 70 -7.79423
    endloop
  endfacet
  facet normal 0 -1 0
    outer loop
      vertex 19 70 -9
      vertex 14.375 70 -8.01073
      vertex 15.2377 70 -8.4503
    endloop
  endfacet
  facet normal 0 -1 0
    outer loop
      vertex 23.5 70 -7.79423
      vertex 19 70 -9
      vertex 22.6606 70 -8.22191
    endloop
  endfacet
  facet normal 0 -1 0
    outer loop
      vertex 19 70 -9
      vertex 15.2377 70 -8.4503
      vertex 16.1416 70 -8.79727
    endloop
  endfacet
  facet normal 0 -1 0
    outer loop
      vertex 22.6606 70 -8.22191
      vertex 19 70 -9
      vertex 21.7812 70 -8.55951
    endloop
  endfacet
  facet normal 0 -1 0
    outer loop
      vertex 21.7812 70 -8.55951
      vertex 19 70 -9
      vertex 20.8712 70 -8.80333
    endloop
  endfacet
  facet normal 0 -1 0
    outer loop
      vertex 19 70 -9
      vertex 16.1416 70 -8.79727
      vertex 16.8982 70 -9
    endloop
  endfacet
  facet normal 0 -1 0
    outer loop
      vertex 20.8712 70 -8.80333
      vertex 19 70 -9
      vertex 19.9408 70 -8.9507
    endloop
  endfacet
  facet normal -0.707107 0 0.707107
    outer loop
      vertex 6.18946 0 -6.87409
      vertex 6.87409 70 -6.18946
      vertex 6.18946 70 -6.87409
    endloop
  endfacet
  facet normal -0.707107 0 0.707107
    outer loop
      vertex 6.87409 70 -6.18946
      vertex 6.18946 0 -6.87409
      vertex 6.87409 0 -6.18946
    endloop
  endfacet
  facet normal -0.838671 0 0.544639
    outer loop
      vertex 7.48341 0 -5.43701
      vertex 7.63732 70 -5.2
      vertex 7.48341 70 -5.43701
    endloop
  endfacet
  facet normal -0.838671 0 0.544639
    outer loop
      vertex 7.63732 70 -5.2
      vertex 7.48341 0 -5.43701
      vertex 7.63732 0 -5.2
    endloop
  endfacet
  facet normal -0.777146 0 0.62932
    outer loop
      vertex 6.87409 0 -6.18946
      vertex 7.48341 70 -5.43701
      vertex 6.87409 70 -6.18946
    endloop
  endfacet
  facet normal -0.777146 0 0.62932
    outer loop
      vertex 7.48341 70 -5.43701
      vertex 6.87409 0 -6.18946
      vertex 7.48341 0 -5.43701
    endloop
  endfacet
  facet normal -0.358368 0 0.93358
    outer loop
      vertex 2.85841 70 -8.79727
      vertex 3.76231 2 -8.4503
      vertex 3.76231 70 -8.4503
    endloop
  endfacet
  facet normal -0.358368 0 0.93358
    outer loop
      vertex 3.76231 2 -8.4503
      vertex 2.85841 70 -8.79727
      vertex 2.85841 2 -8.79727
    endloop
  endfacet
  facet normal -0.453993 0 0.891005
    outer loop
      vertex 4.625 70 -8.01073
      vertex 4.5 2 -8.07443
      vertex 4.625 0 -8.01073
    endloop
  endfacet
  facet normal -0.453991 -5.35961e-09 0.891006
    outer loop
      vertex 3.76231 70 -8.4503
      vertex 4.5 2 -8.07443
      vertex 4.625 70 -8.01073
    endloop
  endfacet
  facet normal -0.45399 0 0.891007
    outer loop
      vertex 4.5 2 -8.07443
      vertex 3.76231 70 -8.4503
      vertex 3.76231 2 -8.4503
    endloop
  endfacet
  facet normal -0.453993 0 0.891005
    outer loop
      vertex 4.625 0 -8.01073
      vertex 4.5 2 -8.07443
      vertex 4.5 0 -8.07443
    endloop
  endfacet
  facet normal -0.544639 0 0.83867
    outer loop
      vertex 4.625 70 -8.01073
      vertex 5.43701 0 -7.48341
      vertex 5.43701 70 -7.48341
    endloop
  endfacet
  facet normal -0.544639 0 0.83867
    outer loop
      vertex 5.43701 0 -7.48341
      vertex 4.625 70 -8.01073
      vertex 4.625 0 -8.01073
    endloop
  endfacet
  facet normal -0.62932 0 0.777146
    outer loop
      vertex 5.43701 70 -7.48341
      vertex 6.18946 0 -6.87409
      vertex 6.18946 70 -6.87409
    endloop
  endfacet
  facet normal -0.62932 0 0.777146
    outer loop
      vertex 6.18946 0 -6.87409
      vertex 5.43701 70 -7.48341
      vertex 5.43701 0 -7.48341
    endloop
  endfacet
  facet normal -0.258819 0 0.965926
    outer loop
      vertex 2.10182 70 -9
      vertex 2.85841 2 -8.79727
      vertex 2.85841 70 -8.79727
    endloop
  endfacet
  facet normal -0.258819 6.51304e-11 0.965926
    outer loop
      vertex 2.85841 2 -8.79727
      vertex 2.10182 70 -9
      vertex 2.10182 2 -9
    endloop
  endfacet
  facet normal -0 0 1
    outer loop
      vertex 7.63732 70 -5.2
      vertex 11.3627 0 -5.2
      vertex 11.3627 70 -5.2
    endloop
  endfacet
  facet normal 0 0 1
    outer loop
      vertex 11.3627 0 -5.2
      vertex 7.63732 70 -5.2
      vertex 7.63732 0 -5.2
    endloop
  endfacet
  facet normal 0.998629 0 -0.0523374
    outer loop
      vertex 30 -2 0
      vertex 29.9397 72 -1.14981
      vertex 30 72 0
    endloop
  endfacet
  facet normal 0.998629 0 -0.0523374
    outer loop
      vertex 29.9397 72 -1.14981
      vertex 30 -2 0
      vertex 29.9397 -2 -1.14981
    endloop
  endfacet
  facet normal 0 -1 -9.68179e-08
    outer loop
      vertex 0 -2 -11
      vertex 29.9397 -2 -1.14981
      vertex -10.9397 -2 -1.14981
    endloop
  endfacet
  facet normal 0 -1 -9.68179e-08
    outer loop
      vertex 29.9397 -2 -1.14981
      vertex 0 -2 -11
      vertex 19 -2 -11
    endloop
  endfacet
  facet normal 5.70463e-08 -1 -1.48611e-07
    outer loop
      vertex 29.9397 -2 -1.14981
      vertex 22.3992 -2 -10.4616
      vertex 23.4741 -2 -10.049
    endloop
  endfacet
  facet normal -0.156434 0 -0.987688
    outer loop
      vertex -2.28703 -2 -10.7596
      vertex -1.14981 72 -10.9397
      vertex -1.14981 -2 -10.9397
    endloop
  endfacet
  facet normal -0.156434 0 -0.987688
    outer loop
      vertex -1.14981 72 -10.9397
      vertex -2.28703 -2 -10.7596
      vertex -2.28703 72 -10.7596
    endloop
  endfacet
  facet normal 0 1.28875e-08 -1
    outer loop
      vertex 0 -2 -11
      vertex 19 72 -11
      vertex 19 -2 -11
    endloop
  endfacet
  facet normal 0 1.28875e-08 -1
    outer loop
      vertex 19 72 -11
      vertex 0 -2 -11
      vertex 0 72 -11
    endloop
  endfacet
  facet normal 4.21215e-07 -1 -3.41092e-07
    outer loop
      vertex 29.9397 -2 -1.14981
      vertex 27.1746 -2 -7.36044
      vertex 27.8992 -2 -6.46564
    endloop
  endfacet
  facet normal 0.998629 -0 0.0523374
    outer loop
      vertex 29.9397 -2 1.14981
      vertex 30 72 0
      vertex 29.9397 72 1.14981
    endloop
  endfacet
  facet normal 0.998629 0 0.0523374
    outer loop
      vertex 30 72 0
      vertex 29.9397 -2 1.14981
      vertex 30 -2 0
    endloop
  endfacet
  facet normal -1.83323e-08 -1 -1.15746e-07
    outer loop
      vertex -1.14981 -2 -10.9397
      vertex -10.9397 -2 -1.14981
      vertex -2.28703 -2 -10.7596
    endloop
  endfacet
  facet normal -0.99863 0 0.0523366
    outer loop
      vertex -11 -2 0
      vertex -10.9397 72 1.14981
      vertex -11 72 0
    endloop
  endfacet
  facet normal -0.99863 0 0.0523366
    outer loop
      vertex -10.9397 72 1.14981
      vertex -11 -2 0
      vertex -10.9397 -2 1.14981
    endloop
  endfacet
  facet normal -1.87157e-07 -1 -2.3112e-07
    outer loop
      vertex -6.46564 -2 -8.89919
      vertex -10.9397 -2 -1.14981
      vertex -7.36044 -2 -8.17459
    endloop
  endfacet
  facet normal 5.38766e-09 -1 -1.02801e-07
    outer loop
      vertex 29.9397 -2 -1.14981
      vertex 19 -2 -11
      vertex 20.1498 -2 -10.9397
    endloop
  endfacet
  facet normal 2.47494e-06 -1 -9.50039e-07
    outer loop
      vertex 29.9397 -2 -1.14981
      vertex 29.049 -2 -4.4741
      vertex 29.4616 -2 -3.39919
    endloop
  endfacet
  facet normal -0.99863 0 -0.0523366
    outer loop
      vertex -10.9397 -2 -1.14981
      vertex -11 72 0
      vertex -10.9397 72 -1.14981
    endloop
  endfacet
  facet normal -0.99863 -0 -0.0523366
    outer loop
      vertex -11 72 0
      vertex -10.9397 -2 -1.14981
      vertex -11 -2 0
    endloop
  endfacet
  facet normal 0 -1 0
    outer loop
      vertex -11 -2 0
      vertex -10.8843 -2 1.5
      vertex -10.9397 -2 1.14981
    endloop
  endfacet
  facet normal 0 -1 -0
    outer loop
      vertex -10.8843 -2 1.5
      vertex -10.9397 -2 -1.14981
      vertex 29.8843 -2 1.5
    endloop
  endfacet
  facet normal 0 -1 0
    outer loop
      vertex -10.8843 -2 1.5
      vertex -11 -2 0
      vertex -10.9397 -2 -1.14981
    endloop
  endfacet
  facet normal 0 -1 0
    outer loop
      vertex 29.9397 -2 -1.14981
      vertex 29.8843 -2 1.5
      vertex -10.9397 -2 -1.14981
    endloop
  endfacet
  facet normal -0 -1 0
    outer loop
      vertex 30 -2 0
      vertex 29.8843 -2 1.5
      vertex 29.9397 -2 -1.14981
    endloop
  endfacet
  facet normal 0 -1 0
    outer loop
      vertex 29.8843 -2 1.5
      vertex 30 -2 0
      vertex 29.9397 -2 1.14981
    endloop
  endfacet
  facet normal -0.258819 0 -0.965926
    outer loop
      vertex -3.39919 -2 -10.4616
      vertex -2.28703 72 -10.7596
      vertex -2.28703 -2 -10.7596
    endloop
  endfacet
  facet normal -0.258819 0 -0.965926
    outer loop
      vertex -2.28703 72 -10.7596
      vertex -3.39919 -2 -10.4616
      vertex -3.39919 72 -10.4616
    endloop
  endfacet
  facet normal -0.544639 0 -0.838671
    outer loop
      vertex -6.46564 -2 -8.89919
      vertex -5.5 72 -9.52628
      vertex -5.5 -2 -9.52628
    endloop
  endfacet
  facet normal -0.544639 0 -0.838671
    outer loop
      vertex -5.5 72 -9.52628
      vertex -6.46564 -2 -8.89919
      vertex -6.46564 72 -8.89919
    endloop
  endfacet
  facet normal -5.38766e-09 -1 -1.02801e-07
    outer loop
      vertex 0 -2 -11
      vertex -10.9397 -2 -1.14981
      vertex -1.14981 -2 -10.9397
    endloop
  endfacet
  facet normal -0.0523366 0 -0.99863
    outer loop
      vertex 0 -2 -11
      vertex -1.14981 -2 -10.9397
      vertex -1.14981 72 -10.9397
    endloop
  endfacet
  facet normal 1.27858e-07 -1 -1.96883e-07
    outer loop
      vertex 29.9397 -2 -1.14981
      vertex 24.5 -2 -9.52628
      vertex 25.4656 -2 -8.89919
    endloop
  endfacet
  facet normal 0.358368 0 -0.933581
    outer loop
      vertex 22.3992 -2 -10.4616
      vertex 23.4741 72 -10.049
      vertex 23.4741 -2 -10.049
    endloop
  endfacet
  facet normal 0.358368 0 -0.933581
    outer loop
      vertex 23.4741 72 -10.049
      vertex 22.3992 -2 -10.4616
      vertex 22.3992 72 -10.4616
    endloop
  endfacet
  facet normal 0.777147 0 -0.629319
    outer loop
      vertex 27.8992 -2 -6.46564
      vertex 27.1746 72 -7.36044
      vertex 27.8992 72 -6.46564
    endloop
  endfacet
  facet normal 0.777147 0 -0.629319
    outer loop
      vertex 27.1746 72 -7.36044
      vertex 27.8992 -2 -6.46564
      vertex 27.1746 -2 -7.36044
    endloop
  endfacet
  facet normal 0.987689 -0 0.156433
    outer loop
      vertex 29.8843 -2 1.5
      vertex 29.9397 72 1.14981
      vertex 29.8843 72 1.5
    endloop
  endfacet
  facet normal 0.987689 0 0.156433
    outer loop
      vertex 29.9397 72 1.14981
      vertex 29.8843 -2 1.5
      vertex 29.9397 -2 1.14981
    endloop
  endfacet
  facet normal -0.987689 0 0.156433
    outer loop
      vertex -10.9397 -2 1.14981
      vertex -10.8843 72 1.5
      vertex -10.9397 72 1.14981
    endloop
  endfacet
  facet normal -0.987689 0 0.156433
    outer loop
      vertex -10.8843 72 1.5
      vertex -10.9397 -2 1.14981
      vertex -10.8843 -2 1.5
    endloop
  endfacet
  facet normal -3.50467e-08 -1 -1.30796e-07
    outer loop
      vertex -2.28703 -2 -10.7596
      vertex -10.9397 -2 -1.14981
      vertex -3.39919 -2 -10.4616
    endloop
  endfacet
  facet normal -4.21214e-07 -1 -3.41092e-07
    outer loop
      vertex -8.17459 -2 -7.36044
      vertex -10.9397 -2 -1.14981
      vertex -8.89919 -2 -6.46564
    endloop
  endfacet
  facet normal -1.18753e-06 -1 -6.05078e-07
    outer loop
      vertex -9.52628 -2 -5.5
      vertex -10.9397 -2 -1.14981
      vertex -10.049 -2 -4.4741
    endloop
  endfacet
  facet normal -0.891006 0 -0.453991
    outer loop
      vertex -9.52628 -2 -5.5
      vertex -10.049 72 -4.4741
      vertex -9.52628 72 -5.5
    endloop
  endfacet
  facet normal -0.891006 -0 -0.453991
    outer loop
      vertex -10.049 72 -4.4741
      vertex -9.52628 -2 -5.5
      vertex -10.049 -2 -4.4741
    endloop
  endfacet
  facet normal -0.987688 0 -0.156434
    outer loop
      vertex -10.7596 -2 -2.28703
      vertex -10.9397 72 -1.14981
      vertex -10.7596 72 -2.28703
    endloop
  endfacet
  facet normal -0.987688 -0 -0.156434
    outer loop
      vertex -10.9397 72 -1.14981
      vertex -10.7596 -2 -2.28703
      vertex -10.9397 -2 -1.14981
    endloop
  endfacet
  facet normal -0.0523357 1.28698e-08 -0.99863
    outer loop
      vertex 0 -2 -11
      vertex -1.14981 72 -10.9397
      vertex 0 72 -11
    endloop
  endfacet
  facet normal 0.25882 0 -0.965926
    outer loop
      vertex 21.287 -2 -10.7596
      vertex 22.3992 72 -10.4616
      vertex 22.3992 -2 -10.4616
    endloop
  endfacet
  facet normal 0.25882 0 -0.965926
    outer loop
      vertex 22.3992 72 -10.4616
      vertex 21.287 -2 -10.7596
      vertex 21.287 72 -10.7596
    endloop
  endfacet
  facet normal 3.50468e-08 -1 -1.30796e-07
    outer loop
      vertex 29.9397 -2 -1.14981
      vertex 21.287 -2 -10.7596
      vertex 22.3992 -2 -10.4616
    endloop
  endfacet
  facet normal 0.0523366 0 -0.99863
    outer loop
      vertex 20.1498 -2 -10.9397
      vertex 19 -2 -11
      vertex 20.1498 72 -10.9397
    endloop
  endfacet
  facet normal 0.0523357 1.28698e-08 -0.99863
    outer loop
      vertex 20.1498 72 -10.9397
      vertex 19 -2 -11
      vertex 19 72 -11
    endloop
  endfacet
  facet normal 0.453991 0 -0.891006
    outer loop
      vertex 23.4741 -2 -10.049
      vertex 24.5 72 -9.52628
      vertex 24.5 -2 -9.52628
    endloop
  endfacet
  facet normal 0.453991 0 -0.891006
    outer loop
      vertex 24.5 72 -9.52628
      vertex 23.4741 -2 -10.049
      vertex 23.4741 72 -10.049
    endloop
  endfacet
  facet normal 8.66977e-08 -1 -1.70154e-07
    outer loop
      vertex 29.9397 -2 -1.14981
      vertex 23.4741 -2 -10.049
      vertex 24.5 -2 -9.52628
    endloop
  endfacet
  facet normal 0.707106 0 -0.707107
    outer loop
      vertex 26.3604 -2 -8.17459
      vertex 27.1746 72 -7.36044
      vertex 27.1746 -2 -7.36044
    endloop
  endfacet
  facet normal 0.707106 0 -0.707107
    outer loop
      vertex 27.1746 72 -7.36044
      vertex 26.3604 -2 -8.17459
      vertex 26.3604 72 -8.17459
    endloop
  endfacet
  facet normal 2.7679e-07 -1 -2.7679e-07
    outer loop
      vertex 29.9397 -2 -1.14981
      vertex 26.3604 -2 -8.17459
      vertex 27.1746 -2 -7.36044
    endloop
  endfacet
  facet normal 0.544639 0 -0.83867
    outer loop
      vertex 24.5 -2 -9.52628
      vertex 25.4656 72 -8.89919
      vertex 25.4656 -2 -8.89919
    endloop
  endfacet
  facet normal 0.544639 0 -0.83867
    outer loop
      vertex 25.4656 72 -8.89919
      vertex 24.5 -2 -9.52628
      vertex 24.5 72 -9.52628
    endloop
  endfacet
  facet normal 6.75602e-07 -1 -4.38742e-07
    outer loop
      vertex 29.9397 -2 -1.14981
      vertex 27.8992 -2 -6.46564
      vertex 28.5263 -2 -5.5
    endloop
  endfacet
  facet normal 0.83867 0 -0.54464
    outer loop
      vertex 28.5263 -2 -5.5
      vertex 27.8992 72 -6.46564
      vertex 28.5263 72 -5.5
    endloop
  endfacet
  facet normal 0.83867 0 -0.54464
    outer loop
      vertex 27.8992 72 -6.46564
      vertex 28.5263 -2 -5.5
      vertex 27.8992 -2 -6.46564
    endloop
  endfacet
  facet normal 0.987689 0 -0.156432
    outer loop
      vertex 29.9397 72 -1.14981
      vertex 29.7596 -2 -2.28703
      vertex 29.7596 72 -2.28703
    endloop
  endfacet
  facet normal 0.987689 0 -0.156432
    outer loop
      vertex 29.7596 -2 -2.28703
      vertex 29.9397 72 -1.14981
      vertex 29.9397 -2 -1.14981
    endloop
  endfacet
  facet normal 0.933581 0 -0.358367
    outer loop
      vertex 29.4616 -2 -3.39919
      vertex 29.049 72 -4.4741
      vertex 29.4616 72 -3.39919
    endloop
  endfacet
  facet normal 0.933581 0 -0.358367
    outer loop
      vertex 29.049 72 -4.4741
      vertex 29.4616 -2 -3.39919
      vertex 29.049 -2 -4.4741
    endloop
  endfacet
  facet normal -5.70463e-08 -1 -1.48611e-07
    outer loop
      vertex -3.39919 -2 -10.4616
      vertex -10.9397 -2 -1.14981
      vertex -4.4741 -2 -10.049
    endloop
  endfacet
  facet normal -1.27857e-07 -1 -1.96883e-07
    outer loop
      vertex -5.5 -2 -9.52628
      vertex -10.9397 -2 -1.14981
      vertex -6.46564 -2 -8.89919
    endloop
  endfacet
  facet normal -0.777146 0 -0.62932
    outer loop
      vertex -8.17459 -2 -7.36044
      vertex -8.89919 72 -6.46564
      vertex -8.17459 72 -7.36044
    endloop
  endfacet
  facet normal -0.777146 -0 -0.62932
    outer loop
      vertex -8.89919 72 -6.46564
      vertex -8.17459 -2 -7.36044
      vertex -8.89919 -2 -6.46564
    endloop
  endfacet
  facet normal 0 1 0
    outer loop
      vertex 30 72 0
      vertex 29.8843 72 1.5
      vertex 29.9397 72 1.14981
    endloop
  endfacet
  facet normal 0 1 0
    outer loop
      vertex 29.8843 72 1.5
      vertex 19 72 -11
      vertex -10.8843 72 1.5
    endloop
  endfacet
  facet normal 0 1 0
    outer loop
      vertex 29.8843 72 1.5
      vertex 30 72 0
      vertex 19 72 -11
    endloop
  endfacet
  facet normal 0 1 -0
    outer loop
      vertex 0 72 -11
      vertex -10.8843 72 1.5
      vertex 19 72 -11
    endloop
  endfacet
  facet normal 0 1 0
    outer loop
      vertex 19 72 -11
      vertex 30 72 0
      vertex 29.9397 72 -1.14981
    endloop
  endfacet
  facet normal -0 1 0
    outer loop
      vertex -11 72 0
      vertex -10.8843 72 1.5
      vertex 0 72 -11
    endloop
  endfacet
  facet normal 0 1 0
    outer loop
      vertex 19 72 -11
      vertex 29.9397 72 -1.14981
      vertex 29.7596 72 -2.28703
    endloop
  endfacet
  facet normal 0 1 0
    outer loop
      vertex -10.8843 72 1.5
      vertex -11 72 0
      vertex -10.9397 72 1.14981
    endloop
  endfacet
  facet normal 0 1 0
    outer loop
      vertex 19 72 -11
      vertex 29.7596 72 -2.28703
      vertex 29.4616 72 -3.39919
    endloop
  endfacet
  facet normal 0 1 0
    outer loop
      vertex -11 72 0
      vertex 0 72 -11
      vertex -10.9397 72 -1.14981
    endloop
  endfacet
  facet normal 0 1 0
    outer loop
      vertex 19 72 -11
      vertex 29.4616 72 -3.39919
      vertex 29.049 72 -4.4741
    endloop
  endfacet
  facet normal 0 1 0
    outer loop
      vertex -10.9397 72 -1.14981
      vertex 0 72 -11
      vertex -10.7596 72 -2.28703
    endloop
  endfacet
  facet normal 0 1 0
    outer loop
      vertex 19 72 -11
      vertex 29.049 72 -4.4741
      vertex 28.5263 72 -5.5
    endloop
  endfacet
  facet normal 0 1 0
    outer loop
      vertex -10.7596 72 -2.28703
      vertex 0 72 -11
      vertex -10.4616 72 -3.39919
    endloop
  endfacet
  facet normal 0 1 0
    outer loop
      vertex 19 72 -11
      vertex 28.5263 72 -5.5
      vertex 27.8992 72 -6.46564
    endloop
  endfacet
  facet normal 0 1 0
    outer loop
      vertex -10.4616 72 -3.39919
      vertex 0 72 -11
      vertex -10.049 72 -4.4741
    endloop
  endfacet
  facet normal 0 1 0
    outer loop
      vertex 19 72 -11
      vertex 27.8992 72 -6.46564
      vertex 27.1746 72 -7.36044
    endloop
  endfacet
  facet normal 0 1 0
    outer loop
      vertex -10.049 72 -4.4741
      vertex 0 72 -11
      vertex -9.52628 72 -5.5
    endloop
  endfacet
  facet normal 0 1 0
    outer loop
      vertex 19 72 -11
      vertex 27.1746 72 -7.36044
      vertex 26.3604 72 -8.17459
    endloop
  endfacet
  facet normal 0 1 0
    outer loop
      vertex -9.52628 72 -5.5
      vertex 0 72 -11
      vertex -8.89919 72 -6.46564
    endloop
  endfacet
  facet normal 0 1 0
    outer loop
      vertex 19 72 -11
      vertex 26.3604 72 -8.17459
      vertex 25.4656 72 -8.89919
    endloop
  endfacet
  facet normal 0 1 0
    outer loop
      vertex -8.89919 72 -6.46564
      vertex 0 72 -11
      vertex -8.17459 72 -7.36044
    endloop
  endfacet
  facet normal 0 1 0
    outer loop
      vertex 19 72 -11
      vertex 25.4656 72 -8.89919
      vertex 24.5 72 -9.52628
    endloop
  endfacet
  facet normal 0 1 0
    outer loop
      vertex -8.17459 72 -7.36044
      vertex 0 72 -11
      vertex -7.36044 72 -8.17459
    endloop
  endfacet
  facet normal 0 1 0
    outer loop
      vertex 19 72 -11
      vertex 24.5 72 -9.52628
      vertex 23.4741 72 -10.049
    endloop
  endfacet
  facet normal 0 1 0
    outer loop
      vertex -7.36044 72 -8.17459
      vertex 0 72 -11
      vertex -6.46564 72 -8.89919
    endloop
  endfacet
  facet normal 0 1 0
    outer loop
      vertex 19 72 -11
      vertex 23.4741 72 -10.049
      vertex 22.3992 72 -10.4616
    endloop
  endfacet
  facet normal 0 1 0
    outer loop
      vertex -6.46564 72 -8.89919
      vertex 0 72 -11
      vertex -5.5 72 -9.52628
    endloop
  endfacet
  facet normal 0 1 0
    outer loop
      vertex 19 72 -11
      vertex 22.3992 72 -10.4616
      vertex 21.287 72 -10.7596
    endloop
  endfacet
  facet normal 0 1 0
    outer loop
      vertex -5.5 72 -9.52628
      vertex 0 72 -11
      vertex -4.4741 72 -10.049
    endloop
  endfacet
  facet normal 0 1 0
    outer loop
      vertex 19 72 -11
      vertex 21.287 72 -10.7596
      vertex 20.1498 72 -10.9397
    endloop
  endfacet
  facet normal 0 1 0
    outer loop
      vertex -4.4741 72 -10.049
      vertex 0 72 -11
      vertex -3.39919 72 -10.4616
    endloop
  endfacet
  facet normal 0 1 0
    outer loop
      vertex -3.39919 72 -10.4616
      vertex 0 72 -11
      vertex -2.28703 72 -10.7596
    endloop
  endfacet
  facet normal 0 1 0
    outer loop
      vertex -2.28703 72 -10.7596
      vertex 0 72 -11
      vertex -1.14981 72 -10.9397
    endloop
  endfacet
  facet normal -7.6539e-06 -1 -2.05086e-06
    outer loop
      vertex -10.4616 -2 -3.39919
      vertex -10.9397 -2 -1.14981
      vertex -10.7596 -2 -2.28703
    endloop
  endfacet
  facet normal -0.965926 0 -0.258819
    outer loop
      vertex -10.4616 -2 -3.39919
      vertex -10.7596 72 -2.28703
      vertex -10.4616 72 -3.39919
    endloop
  endfacet
  facet normal -0.965926 -0 -0.258819
    outer loop
      vertex -10.7596 72 -2.28703
      vertex -10.4616 -2 -3.39919
      vertex -10.7596 -2 -2.28703
    endloop
  endfacet
  facet normal 0.156434 0 -0.987688
    outer loop
      vertex 20.1498 -2 -10.9397
      vertex 21.287 72 -10.7596
      vertex 21.287 -2 -10.7596
    endloop
  endfacet
  facet normal 0.156434 0 -0.987688
    outer loop
      vertex 21.287 72 -10.7596
      vertex 20.1498 -2 -10.9397
      vertex 20.1498 72 -10.9397
    endloop
  endfacet
  facet normal 1.83323e-08 -1 -1.15746e-07
    outer loop
      vertex 29.9397 -2 -1.14981
      vertex 20.1498 -2 -10.9397
      vertex 21.287 -2 -10.7596
    endloop
  endfacet
  facet normal 0.62932 0 -0.777146
    outer loop
      vertex 25.4656 -2 -8.89919
      vertex 26.3604 72 -8.17459
      vertex 26.3604 -2 -8.17459
    endloop
  endfacet
  facet normal 0.62932 0 -0.777146
    outer loop
      vertex 26.3604 72 -8.17459
      vertex 25.4656 -2 -8.89919
      vertex 25.4656 72 -8.89919
    endloop
  endfacet
  facet normal 1.87157e-07 -1 -2.3112e-07
    outer loop
      vertex 29.9397 -2 -1.14981
      vertex 25.4656 -2 -8.89919
      vertex 26.3604 -2 -8.17459
    endloop
  endfacet
  facet normal 0.891006 0 -0.453991
    outer loop
      vertex 29.049 -2 -4.4741
      vertex 28.5263 72 -5.5
      vertex 29.049 72 -4.4741
    endloop
  endfacet
  facet normal 0.891006 0 -0.453991
    outer loop
      vertex 28.5263 72 -5.5
      vertex 29.049 -2 -4.4741
      vertex 28.5263 -2 -5.5
    endloop
  endfacet
  facet normal 1.18753e-06 -1 -6.05079e-07
    outer loop
      vertex 29.9397 -2 -1.14981
      vertex 28.5263 -2 -5.5
      vertex 29.049 -2 -4.4741
    endloop
  endfacet
  facet normal 0.965925 0 -0.258821
    outer loop
      vertex 29.7596 -2 -2.28703
      vertex 29.4616 72 -3.39919
      vertex 29.7596 72 -2.28703
    endloop
  endfacet
  facet normal 0.965925 0 -0.258821
    outer loop
      vertex 29.4616 72 -3.39919
      vertex 29.7596 -2 -2.28703
      vertex 29.4616 -2 -3.39919
    endloop
  endfacet
  facet normal 7.65366e-06 -1 -2.05081e-06
    outer loop
      vertex 29.9397 -2 -1.14981
      vertex 29.4616 -2 -3.39919
      vertex 29.7596 -2 -2.28703
    endloop
  endfacet
  facet normal -0.453991 0 -0.891006
    outer loop
      vertex -5.5 -2 -9.52628
      vertex -4.4741 72 -10.049
      vertex -4.4741 -2 -10.049
    endloop
  endfacet
  facet normal -0.453991 0 -0.891006
    outer loop
      vertex -4.4741 72 -10.049
      vertex -5.5 -2 -9.52628
      vertex -5.5 72 -9.52628
    endloop
  endfacet
  facet normal -8.6698e-08 -1 -1.70154e-07
    outer loop
      vertex -4.4741 -2 -10.049
      vertex -10.9397 -2 -1.14981
      vertex -5.5 -2 -9.52628
    endloop
  endfacet
  facet normal -6.75607e-07 -1 -4.38744e-07
    outer loop
      vertex -8.89919 -2 -6.46564
      vertex -10.9397 -2 -1.14981
      vertex -9.52628 -2 -5.5
    endloop
  endfacet
  facet normal -0.933581 0 -0.358368
    outer loop
      vertex -10.049 -2 -4.4741
      vertex -10.4616 72 -3.39919
      vertex -10.049 72 -4.4741
    endloop
  endfacet
  facet normal -0.933581 -0 -0.358368
    outer loop
      vertex -10.4616 72 -3.39919
      vertex -10.049 -2 -4.4741
      vertex -10.4616 -2 -3.39919
    endloop
  endfacet
  facet normal -2.47493e-06 -1 -9.50036e-07
    outer loop
      vertex -10.049 -2 -4.4741
      vertex -10.9397 -2 -1.14981
      vertex -10.4616 -2 -3.39919
    endloop
  endfacet
  facet normal -0.358368 0 -0.933581
    outer loop
      vertex -4.4741 -2 -10.049
      vertex -3.39919 72 -10.4616
      vertex -3.39919 -2 -10.4616
    endloop
  endfacet
  facet normal -0.358368 0 -0.933581
    outer loop
      vertex -3.39919 72 -10.4616
      vertex -4.4741 -2 -10.049
      vertex -4.4741 72 -10.049
    endloop
  endfacet
  facet normal -0.707107 0 -0.707107
    outer loop
      vertex -7.36044 -2 -8.17459
      vertex -8.17459 72 -7.36044
      vertex -7.36044 72 -8.17459
    endloop
  endfacet
  facet normal -0.707107 -0 -0.707107
    outer loop
      vertex -8.17459 72 -7.36044
      vertex -7.36044 -2 -8.17459
      vertex -8.17459 -2 -7.36044
    endloop
  endfacet
  facet normal -2.7679e-07 -1 -2.7679e-07
    outer loop
      vertex -7.36044 -2 -8.17459
      vertex -10.9397 -2 -1.14981
      vertex -8.17459 -2 -7.36044
    endloop
  endfacet
  facet normal -0.838671 0 -0.544639
    outer loop
      vertex -8.89919 -2 -6.46564
      vertex -9.52628 72 -5.5
      vertex -8.89919 72 -6.46564
    endloop
  endfacet
  facet normal -0.838671 -0 -0.544639
    outer loop
      vertex -9.52628 72 -5.5
      vertex -8.89919 -2 -6.46564
      vertex -9.52628 -2 -5.5
    endloop
  endfacet
  facet normal -0.62932 0 -0.777146
    outer loop
      vertex -7.36044 -2 -8.17459
      vertex -6.46564 72 -8.89919
      vertex -6.46564 -2 -8.89919
    endloop
  endfacet
  facet normal -0.62932 0 -0.777146
    outer loop
      vertex -6.46564 72 -8.89919
      vertex -7.36044 -2 -8.17459
      vertex -7.36044 72 -8.17459
    endloop
  endfacet
  facet normal 0.93358 -0 0.358368
    outer loop
      vertex -8.55951 0 -2.78115
      vertex -8.22191 70 -3.66063
      vertex -8.55951 70 -2.78115
    endloop
  endfacet
  facet normal 0.93358 0 0.358368
    outer loop
      vertex -8.22191 70 -3.66063
      vertex -8.55951 0 -2.78115
      vertex -8.22191 0 -3.66063
    endloop
  endfacet
  facet normal -0.838671 0 0.544638
    outer loop
      vertex 26.2812 0 -5.29007
      vertex 26.7942 70 -4.5
      vertex 26.2812 70 -5.29007
    endloop
  endfacet
  facet normal -0.838671 0 0.544638
    outer loop
      vertex 26.7942 70 -4.5
      vertex 26.2812 0 -5.29007
      vertex 26.7942 0 -4.5
    endloop
  endfacet
  facet normal -0.54464 0 0.83867
    outer loop
      vertex 23.5 70 -7.79423
      vertex 24.2901 0 -7.28115
      vertex 24.2901 70 -7.28115
    endloop
  endfacet
  facet normal -0.54464 0 0.83867
    outer loop
      vertex 24.2901 0 -7.28115
      vertex 23.5 70 -7.79423
      vertex 23.5 0 -7.79423
    endloop
  endfacet
  facet normal 0 -1.40246e-08 1
    outer loop
      vertex 0 70 -9
      vertex 2.10182 2 -9
      vertex 2.10182 70 -9
    endloop
  endfacet
  facet normal 0 -1.40246e-08 1
    outer loop
      vertex 2.10182 2 -9
      vertex 0 70 -9
      vertex 0 2 -9
    endloop
  endfacet
  facet normal 0 -1.36239e-08 1
    outer loop
      vertex 19 70 -9
      vertex 16.8982 0 -9
      vertex 19 0 -9
    endloop
  endfacet
  facet normal 0 -1.36239e-08 1
    outer loop
      vertex 16.8982 0 -9
      vertex 19 70 -9
      vertex 16.8982 70 -9
    endloop
  endfacet
  facet normal 0.99863 0 -0.0523361
    outer loop
      vertex -8.9507 0 0.940756
      vertex -9 70 0
      vertex -8.9507 70 0.940756
    endloop
  endfacet
  facet normal 0.99863 0 -0.0523361
    outer loop
      vertex -9 70 0
      vertex -8.9507 0 0.940756
      vertex -9 0 0
    endloop
  endfacet
  facet normal 0.156435 0 0.987688
    outer loop
      vertex -1.8712 70 -8.80333
      vertex -0.940756 2 -8.9507
      vertex -0.940756 70 -8.9507
    endloop
  endfacet
  facet normal 0.156435 0 0.987688
    outer loop
      vertex -0.940756 2 -8.9507
      vertex -1.8712 70 -8.80333
      vertex -1.8712 2 -8.80333
    endloop
  endfacet
  facet normal -0.965926 0 0.258817
    outer loop
      vertex 27.5595 0 -2.78115
      vertex 27.8033 70 -1.8712
      vertex 27.5595 70 -2.78115
    endloop
  endfacet
  facet normal -0.965926 0 0.258817
    outer loop
      vertex 27.8033 70 -1.8712
      vertex 27.5595 0 -2.78115
      vertex 27.8033 0 -1.8712
    endloop
  endfacet
  facet normal -0.891006 0 0.453991
    outer loop
      vertex 26.7942 0 -4.5
      vertex 27.2219 70 -3.66063
      vertex 26.7942 70 -4.5
    endloop
  endfacet
  facet normal -0.891006 0 0.453991
    outer loop
      vertex 27.2219 70 -3.66063
      vertex 26.7942 0 -4.5
      vertex 27.2219 0 -3.66063
    endloop
  endfacet
  facet normal -0.707107 0 0.707107
    outer loop
      vertex 25.0222 0 -6.6883
      vertex 25.6883 70 -6.02217
      vertex 25.0222 70 -6.6883
    endloop
  endfacet
  facet normal -0.707107 0 0.707107
    outer loop
      vertex 25.6883 70 -6.02217
      vertex 25.0222 0 -6.6883
      vertex 25.6883 0 -6.02217
    endloop
  endfacet
  facet normal -0.62932 0 0.777146
    outer loop
      vertex 24.2901 70 -7.28115
      vertex 25.0222 0 -6.6883
      vertex 25.0222 70 -6.6883
    endloop
  endfacet
  facet normal -0.62932 0 0.777146
    outer loop
      vertex 25.0222 0 -6.6883
      vertex 24.2901 70 -7.28115
      vertex 24.2901 0 -7.28115
    endloop
  endfacet
  facet normal -0.0523351 -1.36052e-08 0.99863
    outer loop
      vertex 19.9408 70 -8.9507
      vertex 19 70 -9
      vertex 19 0 -9
    endloop
  endfacet
  facet normal 0.987688 -0 0.156435
    outer loop
      vertex -8.9507 0 -0.940756
      vertex -8.80333 70 -1.8712
      vertex -8.9507 70 -0.940756
    endloop
  endfacet
  facet normal 0.987688 0 0.156435
    outer loop
      vertex -8.80333 70 -1.8712
      vertex -8.9507 0 -0.940756
      vertex -8.80333 0 -1.8712
    endloop
  endfacet
  facet normal 0.777146 -0 0.629321
    outer loop
      vertex -7.28115 0 -5.29007
      vertex -6.6883 70 -6.02217
      vertex -7.28115 70 -5.29007
    endloop
  endfacet
  facet normal 0.777146 0 0.629321
    outer loop
      vertex -6.6883 70 -6.02217
      vertex -7.28115 0 -5.29007
      vertex -6.6883 0 -6.02217
    endloop
  endfacet
  facet normal 0.891007 -0 0.45399
    outer loop
      vertex -8.22191 0 -3.66063
      vertex -7.79423 70 -4.5
      vertex -8.22191 70 -3.66063
    endloop
  endfacet
  facet normal 0.891007 0 0.45399
    outer loop
      vertex -7.79423 70 -4.5
      vertex -8.22191 0 -3.66063
      vertex -7.79423 0 -4.5
    endloop
  endfacet
  facet normal 0.838671 -0 0.544639
    outer loop
      vertex -7.79423 0 -4.5
      vertex -7.28115 70 -5.29007
      vertex -7.79423 70 -4.5
    endloop
  endfacet
  facet normal 0.838671 0 0.544639
    outer loop
      vertex -7.28115 70 -5.29007
      vertex -7.79423 0 -4.5
      vertex -7.28115 0 -5.29007
    endloop
  endfacet
  facet normal -0.99863 0 0.0523361
    outer loop
      vertex 27.9507 0 -0.940756
      vertex 28 70 0
      vertex 27.9507 70 -0.940756
    endloop
  endfacet
  facet normal -0.99863 0 0.0523361
    outer loop
      vertex 28 70 0
      vertex 27.9507 0 -0.940756
      vertex 28 0 0
    endloop
  endfacet
  facet normal 0.987688 0 -0.156436
    outer loop
      vertex -8.86212 0 1.5
      vertex -8.9507 70 0.940756
      vertex -8.86212 70 1.5
    endloop
  endfacet
  facet normal 0.987688 0 -0.156436
    outer loop
      vertex -8.9507 70 0.940756
      vertex -8.86212 0 1.5
      vertex -8.9507 0 0.940756
    endloop
  endfacet
  facet normal -0.987688 0 0.156435
    outer loop
      vertex 27.8033 0 -1.8712
      vertex 27.9507 70 -0.940756
      vertex 27.8033 70 -1.8712
    endloop
  endfacet
  facet normal -0.987688 0 0.156435
    outer loop
      vertex 27.9507 70 -0.940756
      vertex 27.8033 0 -1.8712
      vertex 27.9507 0 -0.940756
    endloop
  endfacet
  facet normal -0.93358 0 0.358369
    outer loop
      vertex 27.2219 0 -3.66063
      vertex 27.5595 70 -2.78115
      vertex 27.2219 70 -3.66063
    endloop
  endfacet
  facet normal -0.93358 0 0.358369
    outer loop
      vertex 27.5595 70 -2.78115
      vertex 27.2219 0 -3.66063
      vertex 27.5595 0 -2.78115
    endloop
  endfacet
  facet normal -0.777146 0 0.629321
    outer loop
      vertex 25.6883 0 -6.02217
      vertex 26.2812 70 -5.29007
      vertex 25.6883 70 -6.02217
    endloop
  endfacet
  facet normal -0.777146 0 0.629321
    outer loop
      vertex 26.2812 70 -5.29007
      vertex 25.6883 0 -6.02217
      vertex 26.2812 0 -5.29007
    endloop
  endfacet
  facet normal -0.358368 0 0.93358
    outer loop
      vertex 21.7812 70 -8.55951
      vertex 22.6606 0 -8.22191
      vertex 22.6606 70 -8.22191
    endloop
  endfacet
  facet normal -0.358368 0 0.93358
    outer loop
      vertex 22.6606 0 -8.22191
      vertex 21.7812 70 -8.55951
      vertex 21.7812 0 -8.55951
    endloop
  endfacet
  facet normal -0.258818 0 0.965926
    outer loop
      vertex 20.8712 70 -8.80333
      vertex 21.7812 0 -8.55951
      vertex 21.7812 70 -8.55951
    endloop
  endfacet
  facet normal -0.258818 0 0.965926
    outer loop
      vertex 21.7812 0 -8.55951
      vertex 20.8712 70 -8.80333
      vertex 20.8712 0 -8.80333
    endloop
  endfacet
  facet normal -0.0523361 0 0.99863
    outer loop
      vertex 19.9408 0 -8.9507
      vertex 19.9408 70 -8.9507
      vertex 19 0 -9
    endloop
  endfacet
  facet normal 0.99863 -0 0.0523361
    outer loop
      vertex -9 0 0
      vertex -8.9507 70 -0.940756
      vertex -9 70 0
    endloop
  endfacet
  facet normal 0.99863 0 0.0523361
    outer loop
      vertex -8.9507 70 -0.940756
      vertex -9 0 0
      vertex -8.9507 0 -0.940756
    endloop
  endfacet
  facet normal 0.965926 -0 0.258818
    outer loop
      vertex -8.80333 0 -1.8712
      vertex -8.55951 70 -2.78115
      vertex -8.80333 70 -1.8712
    endloop
  endfacet
  facet normal 0.965926 0 0.258818
    outer loop
      vertex -8.55951 70 -2.78115
      vertex -8.80333 0 -1.8712
      vertex -8.55951 0 -2.78115
    endloop
  endfacet
  facet normal 0.0523331 -1.40054e-08 0.99863
    outer loop
      vertex 0 70 -9
      vertex -0.0268787 2 -8.99859
      vertex 0 2 -9
    endloop
  endfacet
  facet normal 0.0523351 -1.4806e-08 0.99863
    outer loop
      vertex -0.0268787 2 -8.99859
      vertex 0 70 -9
      vertex -0.940756 70 -8.9507
    endloop
  endfacet
  facet normal 0.0523362 0 0.99863
    outer loop
      vertex -0.0268787 2 -8.99859
      vertex -0.940756 70 -8.9507
      vertex -0.940756 2 -8.9507
    endloop
  endfacet
  facet normal 0.358368 0 0.93358
    outer loop
      vertex -3.66063 70 -8.22191
      vertex -2.78115 2 -8.55951
      vertex -2.78115 70 -8.55951
    endloop
  endfacet
  facet normal 0.358368 0 0.93358
    outer loop
      vertex -2.78115 2 -8.55951
      vertex -3.66063 70 -8.22191
      vertex -3.66063 2 -8.22191
    endloop
  endfacet
  facet normal 0.707107 -0 0.707107
    outer loop
      vertex -6.6883 0 -6.02217
      vertex -6.02217 70 -6.6883
      vertex -6.6883 70 -6.02217
    endloop
  endfacet
  facet normal 0.707107 0 0.707107
    outer loop
      vertex -6.02217 70 -6.6883
      vertex -6.6883 0 -6.02217
      vertex -6.02217 0 -6.6883
    endloop
  endfacet
  facet normal -0.987688 0 -0.156434
    outer loop
      vertex 27.9507 0 0.940756
      vertex 27.8621 70 1.5
      vertex 27.9507 70 0.940756
    endloop
  endfacet
  facet normal -0.987688 -0 -0.156434
    outer loop
      vertex 27.8621 70 1.5
      vertex 27.9507 0 0.940756
      vertex 27.8621 0 1.5
    endloop
  endfacet
  facet normal -0.99863 0 -0.0523361
    outer loop
      vertex 28 0 0
      vertex 27.9507 70 0.940756
      vertex 28 70 0
    endloop
  endfacet
  facet normal -0.99863 -0 -0.0523361
    outer loop
      vertex 27.9507 70 0.940756
      vertex 28 0 0
      vertex 27.9507 0 0.940756
    endloop
  endfacet
  facet normal -0.45399 0 0.891007
    outer loop
      vertex 22.6606 70 -8.22191
      vertex 23.5 0 -7.79423
      vertex 23.5 70 -7.79423
    endloop
  endfacet
  facet normal -0.45399 0 0.891007
    outer loop
      vertex 23.5 0 -7.79423
      vertex 22.6606 70 -8.22191
      vertex 22.6606 0 -8.22191
    endloop
  endfacet
  facet normal -0.156435 0 0.987688
    outer loop
      vertex 19.9408 70 -8.9507
      vertex 20.8712 0 -8.80333
      vertex 20.8712 70 -8.80333
    endloop
  endfacet
  facet normal -0.156435 0 0.987688
    outer loop
      vertex 20.8712 0 -8.80333
      vertex 19.9408 70 -8.9507
      vertex 19.9408 0 -8.9507
    endloop
  endfacet
  facet normal 0.258818 0 0.965926
    outer loop
      vertex -2.78115 70 -8.55951
      vertex -1.8712 2 -8.80333
      vertex -1.8712 70 -8.80333
    endloop
  endfacet
  facet normal 0.258818 0 0.965926
    outer loop
      vertex -1.8712 2 -8.80333
      vertex -2.78115 70 -8.55951
      vertex -2.78115 2 -8.55951
    endloop
  endfacet
  facet normal 0.629321 0 0.777146
    outer loop
      vertex -6.02217 70 -6.6883
      vertex -5.29007 0 -7.28115
      vertex -5.29007 70 -7.28115
    endloop
  endfacet
  facet normal 0.629321 0 0.777146
    outer loop
      vertex -5.29007 0 -7.28115
      vertex -6.02217 70 -6.6883
      vertex -6.02217 0 -6.6883
    endloop
  endfacet
  facet normal 0.544639 -1.75734e-09 0.838671
    outer loop
      vertex -5.29007 70 -7.28115
      vertex -4.5 2 -7.79423
      vertex -4.5 70 -7.79423
    endloop
  endfacet
  facet normal 0.544639 -0 0.838671
    outer loop
      vertex -5.29007 0 -7.28115
      vertex -4.5 2 -7.79423
      vertex -5.29007 70 -7.28115
    endloop
  endfacet
  facet normal 0.544639 0 0.838671
    outer loop
      vertex -4.5 2 -7.79423
      vertex -5.29007 0 -7.28115
      vertex -4.5 0 -7.79423
    endloop
  endfacet
  facet normal 0.45399 0 0.891007
    outer loop
      vertex -4.5 70 -7.79423
      vertex -3.66063 2 -8.22191
      vertex -3.66063 70 -8.22191
    endloop
  endfacet
  facet normal 0.45399 0 0.891007
    outer loop
      vertex -3.66063 2 -8.22191
      vertex -4.5 70 -7.79423
      vertex -4.5 2 -7.79423
    endloop
  endfacet
  facet normal 0 0 1
    outer loop
      vertex 29.8843 72 1.5
      vertex 27.8621 70 1.5
      vertex 29.8843 -2 1.5
    endloop
  endfacet
  facet normal 0 0 1
    outer loop
      vertex 29.8843 72 1.5
      vertex -8.86212 70 1.5
      vertex 27.8621 70 1.5
    endloop
  endfacet
  facet normal 0 0 1
    outer loop
      vertex -8.86212 70 1.5
      vertex -10.8843 72 1.5
      vertex -8.86212 0 1.5
    endloop
  endfacet
  facet normal -0 0 1
    outer loop
      vertex -10.8843 72 1.5
      vertex -8.86212 70 1.5
      vertex 29.8843 72 1.5
    endloop
  endfacet
  facet normal -0 0 1
    outer loop
      vertex 27.8621 0 1.5
      vertex 29.8843 -2 1.5
      vertex 27.8621 70 1.5
    endloop
  endfacet
  facet normal -0 0 1
    outer loop
      vertex 4.5 0 1.5
      vertex 29.8843 -2 1.5
      vertex 27.8621 0 1.5
    endloop
  endfacet
  facet normal 0 0 1
    outer loop
      vertex -10.8843 -2 1.5
      vertex 4.5 0 1.5
      vertex -4.5 0 1.5
    endloop
  endfacet
  facet normal 0 0 1
    outer loop
      vertex -10.8843 -2 1.5
      vertex -4.5 0 1.5
      vertex -8.86212 0 1.5
    endloop
  endfacet
  facet normal 0 0 1
    outer loop
      vertex 4.5 0 1.5
      vertex -10.8843 -2 1.5
      vertex 29.8843 -2 1.5
    endloop
  endfacet
  facet normal 0 0 1
    outer loop
      vertex -10.8843 -2 1.5
      vertex -8.86212 0 1.5
      vertex -10.8843 72 1.5
    endloop
  endfacet
  facet normal -1 0 0
    outer loop
      vertex -4.5 0 1.5
      vertex -4.5 2 -7.79423
      vertex -4.5 0 -7.79423
    endloop
  endfacet
  facet normal -1 0 0
    outer loop
      vertex -4.5 2 10.5
      vertex -4.5 4.5 14.5
      vertex -4.5 4.5 10.5
    endloop
  endfacet
  facet normal -1 0 0
    outer loop
      vertex -4.5 2 -7.79423
      vertex -4.5 0 1.5
      vertex -4.5 2 10.5
    endloop
  endfacet
  facet normal -1 0 0
    outer loop
      vertex -4.5 2 10.5
      vertex -4.5 0 14.5
      vertex -4.5 4.5 14.5
    endloop
  endfacet
  facet normal -1 0 0
    outer loop
      vertex -4.5 0 14.5
      vertex -4.5 2 10.5
      vertex -4.5 0 1.5
    endloop
  endfacet
  facet normal 1 0 0
    outer loop
      vertex 4.5 4.5 14.5
      vertex 4.5 2 10.5
      vertex 4.5 4.5 10.5
    endloop
  endfacet
  facet normal 1 -0 0
    outer loop
      vertex 4.5 0 14.5
      vertex 4.5 2 10.5
      vertex 4.5 4.5 14.5
    endloop
  endfacet
  facet normal 1 0 0
    outer loop
      vertex 4.5 0 1.5
      vertex 4.5 2 10.5
      vertex 4.5 0 14.5
    endloop
  endfacet
  facet normal 1 0 0
    outer loop
      vertex 4.5 2 10.5
      vertex 4.5 0 1.5
      vertex 4.5 2 -8.07443
    endloop
  endfacet
  facet normal 1 0 0
    outer loop
      vertex 4.5 2 -8.07443
      vertex 4.5 0 1.5
      vertex 4.5 0 -8.07443
    endloop
  endfacet
  facet normal 0 1 0
    outer loop
      vertex 4.5 2 10.5
      vertex -4.5 2 -7.79423
      vertex -4.5 2 10.5
    endloop
  endfacet
  facet normal 0 1 -0
    outer loop
      vertex 4.5 2 -8.07443
      vertex -4.5 2 -7.79423
      vertex 4.5 2 10.5
    endloop
  endfacet
  facet normal 0 1 -0
    outer loop
      vertex -0.0268787 2 -8.99859
      vertex -4.5 2 -7.79423
      vertex 4.5 2 -8.07443
    endloop
  endfacet
  facet normal 0 1 0
    outer loop
      vertex 0 2 -9
      vertex 4.5 2 -8.07443
      vertex 3.76231 2 -8.4503
    endloop
  endfacet
  facet normal 0 1 0
    outer loop
      vertex -4.5 2 -7.79423
      vertex -0.0268787 2 -8.99859
      vertex -3.66063 2 -8.22191
    endloop
  endfacet
  facet normal 0 1 0
    outer loop
      vertex 0 2 -9
      vertex 3.76231 2 -8.4503
      vertex 2.85841 2 -8.79727
    endloop
  endfacet
  facet normal 0 1 0
    outer loop
      vertex -3.66063 2 -8.22191
      vertex -0.0268787 2 -8.99859
      vertex -2.78115 2 -8.55951
    endloop
  endfacet
  facet normal 0 1 0
    outer loop
      vertex -2.78115 2 -8.55951
      vertex -0.0268787 2 -8.99859
      vertex -1.8712 2 -8.80333
    endloop
  endfacet
  facet normal 0 1 0
    outer loop
      vertex -1.8712 2 -8.80333
      vertex -0.0268787 2 -8.99859
      vertex -0.940756 2 -8.9507
    endloop
  endfacet
  facet normal 0 1 0
    outer loop
      vertex 0 2 -9
      vertex 2.85841 2 -8.79727
      vertex 2.10182 2 -9
    endloop
  endfacet
  facet normal 0 1 0
    outer loop
      vertex 4.5 2 -8.07443
      vertex 0 2 -9
      vertex -0.0268787 2 -8.99859
    endloop
  endfacet
  facet normal -0 0 1
    outer loop
      vertex -4.5 4.5 14.5
      vertex 4.5 0 14.5
      vertex 4.5 4.5 14.5
    endloop
  endfacet
  facet normal 0 0 1
    outer loop
      vertex 4.5 0 14.5
      vertex -4.5 4.5 14.5
      vertex -4.5 0 14.5
    endloop
  endfacet
  facet normal 0 1 -0
    outer loop
      vertex 4.5 4.5 10.5
      vertex -4.5 4.5 14.5
      vertex 4.5 4.5 14.5
    endloop
  endfacet
  facet normal 0 1 0
    outer loop
      vertex -4.5 4.5 14.5
      vertex 4.5 4.5 10.5
      vertex -4.5 4.5 10.5
    endloop
  endfacet
  facet normal 0 0 -1
    outer loop
      vertex -4.5 2 10.5
      vertex 4.5 4.5 10.5
      vertex 4.5 2 10.5
    endloop
  endfacet
  facet normal -0 0 -1
    outer loop
      vertex 4.5 4.5 10.5
      vertex -4.5 2 10.5
      vertex -4.5 4.5 10.5
    endloop
  endfacet
endsolid OpenSCAD_Model
