solid OpenSCAD_Model
  facet normal -1 0 0
    outer loop
      vertex 0 0 0
      vertex 0 30 4
      vertex 0 30 0
    endloop
  endfacet
  facet normal -1 -0 0
    outer loop
      vertex 0 30 4
      vertex 0 0 0
      vertex 0 0 4
    endloop
  endfacet
  facet normal -0 0 1
    outer loop
      vertex 0 30 4
      vertex 7 25 4
      vertex 7 30 4
    endloop
  endfacet
  facet normal 0 0 1
    outer loop
      vertex 7 25 4
      vertex 0 30 4
      vertex 7 5 4
    endloop
  endfacet
  facet normal 0 0 1
    outer loop
      vertex 0 0 4
      vertex 7 5 4
      vertex 0 30 4
    endloop
  endfacet
  facet normal 0 0 1
    outer loop
      vertex 7 5 4
      vertex 0 0 4
      vertex 7 0 4
    endloop
  endfacet
  facet normal -0 0 1
    outer loop
      vertex 12.4943 14.4698 4
      vertex 20 0 4
      vertex 12.55 15 4
    endloop
  endfacet
  facet normal 0 0 1
    outer loop
      vertex 20 30 4
      vertex 12.4943 15.5302 4
      vertex 12.55 15 4
    endloop
  endfacet
  facet normal 0 0 1
    outer loop
      vertex 20 30 4
      vertex 12.3295 16.0372 4
      vertex 12.4943 15.5302 4
    endloop
  endfacet
  facet normal 0 0 1
    outer loop
      vertex 13 25 4
      vertex 12.063 16.4989 4
      vertex 12.3295 16.0372 4
    endloop
  endfacet
  facet normal 0 0 1
    outer loop
      vertex 13 25 4
      vertex 11.7063 16.895 4
      vertex 12.063 16.4989 4
    endloop
  endfacet
  facet normal 0 0 1
    outer loop
      vertex 13 25 4
      vertex 11.275 17.2084 4
      vertex 11.7063 16.895 4
    endloop
  endfacet
  facet normal 0 0 1
    outer loop
      vertex 13 25 4
      vertex 10.788 17.4252 4
      vertex 11.275 17.2084 4
    endloop
  endfacet
  facet normal 0 0 1
    outer loop
      vertex 13 25 4
      vertex 10.2665 17.536 4
      vertex 10.788 17.4252 4
    endloop
  endfacet
  facet normal 0 0 1
    outer loop
      vertex 13 25 4
      vertex 9.73345 17.536 4
      vertex 10.2665 17.536 4
    endloop
  endfacet
  facet normal -0 0 1
    outer loop
      vertex 7 25 4
      vertex 9.73345 17.536 4
      vertex 13 25 4
    endloop
  endfacet
  facet normal 0 0 1
    outer loop
      vertex 9.73345 17.536 4
      vertex 7 25 4
      vertex 9.21201 17.4252 4
    endloop
  endfacet
  facet normal 0 0 1
    outer loop
      vertex 9.21201 17.4252 4
      vertex 7 25 4
      vertex 8.725 17.2084 4
    endloop
  endfacet
  facet normal 0 0 1
    outer loop
      vertex 8.725 17.2084 4
      vertex 7 25 4
      vertex 8.29372 16.895 4
    endloop
  endfacet
  facet normal 0 0 1
    outer loop
      vertex 7.50572 15.5302 4
      vertex 7 25 4
      vertex 7.45 15 4
    endloop
  endfacet
  facet normal 0 0 1
    outer loop
      vertex 7.67046 16.0372 4
      vertex 7 25 4
      vertex 7.50572 15.5302 4
    endloop
  endfacet
  facet normal 0 0 1
    outer loop
      vertex 7.93701 16.4989 4
      vertex 7 25 4
      vertex 7.67046 16.0372 4
    endloop
  endfacet
  facet normal 0 0 1
    outer loop
      vertex 8.29372 16.895 4
      vertex 7 25 4
      vertex 7.93701 16.4989 4
    endloop
  endfacet
  facet normal 0 0 1
    outer loop
      vertex 13 25 4
      vertex 20 30 4
      vertex 13 30 4
    endloop
  endfacet
  facet normal 0 0 1
    outer loop
      vertex 12.3295 16.0372 4
      vertex 20 30 4
      vertex 13 25 4
    endloop
  endfacet
  facet normal 0 0 1
    outer loop
      vertex 20 30 4
      vertex 12.55 15 4
      vertex 20 0 4
    endloop
  endfacet
  facet normal 0 0 1
    outer loop
      vertex 20 0 4
      vertex 13 5 4
      vertex 13 0 4
    endloop
  endfacet
  facet normal -0 0 1
    outer loop
      vertex 12.3295 13.9628 4
      vertex 20 0 4
      vertex 12.4943 14.4698 4
    endloop
  endfacet
  facet normal 0 0 1
    outer loop
      vertex 20 0 4
      vertex 12.3295 13.9628 4
      vertex 13 5 4
    endloop
  endfacet
  facet normal -0 0 1
    outer loop
      vertex 12.063 13.5011 4
      vertex 13 5 4
      vertex 12.3295 13.9628 4
    endloop
  endfacet
  facet normal -0 0 1
    outer loop
      vertex 11.7063 13.105 4
      vertex 13 5 4
      vertex 12.063 13.5011 4
    endloop
  endfacet
  facet normal -0 0 1
    outer loop
      vertex 11.275 12.7916 4
      vertex 13 5 4
      vertex 11.7063 13.105 4
    endloop
  endfacet
  facet normal -0 0 1
    outer loop
      vertex 10.788 12.5748 4
      vertex 13 5 4
      vertex 11.275 12.7916 4
    endloop
  endfacet
  facet normal -0 0 1
    outer loop
      vertex 10.2665 12.464 4
      vertex 13 5 4
      vertex 10.788 12.5748 4
    endloop
  endfacet
  facet normal -0 0 1
    outer loop
      vertex 9.73345 12.464 4
      vertex 13 5 4
      vertex 10.2665 12.464 4
    endloop
  endfacet
  facet normal 0 0 1
    outer loop
      vertex 7 5 4
      vertex 9.73345 12.464 4
      vertex 9.21201 12.5748 4
    endloop
  endfacet
  facet normal 0 0 1
    outer loop
      vertex 7 5 4
      vertex 9.21201 12.5748 4
      vertex 8.725 12.7916 4
    endloop
  endfacet
  facet normal 0 0 1
    outer loop
      vertex 7 5 4
      vertex 8.725 12.7916 4
      vertex 8.29372 13.105 4
    endloop
  endfacet
  facet normal 0 0 1
    outer loop
      vertex 7 5 4
      vertex 8.29372 13.105 4
      vertex 7.93701 13.5011 4
    endloop
  endfacet
  facet normal 0 0 1
    outer loop
      vertex 9.73345 12.464 4
      vertex 7 5 4
      vertex 13 5 4
    endloop
  endfacet
  facet normal 0 0 1
    outer loop
      vertex 7.67046 13.9628 4
      vertex 7 5 4
      vertex 7.93701 13.5011 4
    endloop
  endfacet
  facet normal 0 0 1
    outer loop
      vertex 7.50572 14.4698 4
      vertex 7 5 4
      vertex 7.67046 13.9628 4
    endloop
  endfacet
  facet normal 0 0 1
    outer loop
      vertex 7.45 15 4
      vertex 7 5 4
      vertex 7.50572 14.4698 4
    endloop
  endfacet
  facet normal 0 0 1
    outer loop
      vertex 7 5 4
      vertex 7.45 15 4
      vertex 7 25 4
    endloop
  endfacet
  facet normal 1 -0 0
    outer loop
      vertex 20 0 4
      vertex 20 30 0
      vertex 20 30 4
    endloop
  endfacet
  facet normal 1 0 0
    outer loop
      vertex 20 30 0
      vertex 20 0 4
      vertex 20 0 0
    endloop
  endfacet
  facet normal 0 0 -1
    outer loop
      vertex 20 0 0
      vertex 12.55 15 0
      vertex 20 30 0
    endloop
  endfacet
  facet normal 0 0 -1
    outer loop
      vertex 20 0 0
      vertex 12.4943 14.4698 0
      vertex 12.55 15 0
    endloop
  endfacet
  facet normal 0 0 -1
    outer loop
      vertex 20 0 0
      vertex 12.3295 13.9628 0
      vertex 12.4943 14.4698 0
    endloop
  endfacet
  facet normal 0 0 -1
    outer loop
      vertex 20 0 0
      vertex 12.063 13.5011 0
      vertex 12.3295 13.9628 0
    endloop
  endfacet
  facet normal 0 0 -1
    outer loop
      vertex 20 0 0
      vertex 11.7063 13.105 0
      vertex 12.063 13.5011 0
    endloop
  endfacet
  facet normal 0 0 -1
    outer loop
      vertex 20 0 0
      vertex 11.275 12.7916 0
      vertex 11.7063 13.105 0
    endloop
  endfacet
  facet normal 0 0 -1
    outer loop
      vertex 20 0 0
      vertex 10.788 12.5748 0
      vertex 11.275 12.7916 0
    endloop
  endfacet
  facet normal 0 0 -1
    outer loop
      vertex 20 0 0
      vertex 10.2665 12.464 0
      vertex 10.788 12.5748 0
    endloop
  endfacet
  facet normal 0 0 -1
    outer loop
      vertex 20 0 0
      vertex 9.73345 12.464 0
      vertex 10.2665 12.464 0
    endloop
  endfacet
  facet normal 0 0 -1
    outer loop
      vertex 0 0 0
      vertex 9.73345 12.464 0
      vertex 20 0 0
    endloop
  endfacet
  facet normal -0 0 -1
    outer loop
      vertex 9.73345 12.464 0
      vertex 0 0 0
      vertex 9.21201 12.5748 0
    endloop
  endfacet
  facet normal -0 0 -1
    outer loop
      vertex 9.21201 12.5748 0
      vertex 0 0 0
      vertex 8.725 12.7916 0
    endloop
  endfacet
  facet normal -0 0 -1
    outer loop
      vertex 8.725 12.7916 0
      vertex 0 0 0
      vertex 8.29372 13.105 0
    endloop
  endfacet
  facet normal -0 0 -1
    outer loop
      vertex 7.50572 14.4698 0
      vertex 0 0 0
      vertex 7.45 15 0
    endloop
  endfacet
  facet normal -0 0 -1
    outer loop
      vertex 7.67046 13.9628 0
      vertex 0 0 0
      vertex 7.50572 14.4698 0
    endloop
  endfacet
  facet normal -0 0 -1
    outer loop
      vertex 7.93701 13.5011 0
      vertex 0 0 0
      vertex 7.67046 13.9628 0
    endloop
  endfacet
  facet normal -0 0 -1
    outer loop
      vertex 8.29372 13.105 0
      vertex 0 0 0
      vertex 7.93701 13.5011 0
    endloop
  endfacet
  facet normal 0 0 -1
    outer loop
      vertex 12.4943 15.5302 0
      vertex 20 30 0
      vertex 12.55 15 0
    endloop
  endfacet
  facet normal 0 0 -1
    outer loop
      vertex 12.3295 16.0372 0
      vertex 20 30 0
      vertex 12.4943 15.5302 0
    endloop
  endfacet
  facet normal 0 0 -1
    outer loop
      vertex 12.063 16.4989 0
      vertex 20 30 0
      vertex 12.3295 16.0372 0
    endloop
  endfacet
  facet normal 0 0 -1
    outer loop
      vertex 11.7063 16.895 0
      vertex 20 30 0
      vertex 12.063 16.4989 0
    endloop
  endfacet
  facet normal 0 0 -1
    outer loop
      vertex 11.275 17.2084 0
      vertex 20 30 0
      vertex 11.7063 16.895 0
    endloop
  endfacet
  facet normal 0 0 -1
    outer loop
      vertex 10.788 17.4252 0
      vertex 20 30 0
      vertex 11.275 17.2084 0
    endloop
  endfacet
  facet normal 0 0 -1
    outer loop
      vertex 10.2665 17.536 0
      vertex 20 30 0
      vertex 10.788 17.4252 0
    endloop
  endfacet
  facet normal 0 0 -1
    outer loop
      vertex 9.73345 17.536 0
      vertex 20 30 0
      vertex 10.2665 17.536 0
    endloop
  endfacet
  facet normal 0 0 -1
    outer loop
      vertex 0 30 0
      vertex 9.73345 17.536 0
      vertex 9.21201 17.4252 0
    endloop
  endfacet
  facet normal 0 0 -1
    outer loop
      vertex 0 30 0
      vertex 9.21201 17.4252 0
      vertex 8.725 17.2084 0
    endloop
  endfacet
  facet normal 0 0 -1
    outer loop
      vertex 0 30 0
      vertex 8.725 17.2084 0
      vertex 8.29372 16.895 0
    endloop
  endfacet
  facet normal 0 0 -1
    outer loop
      vertex 0 30 0
      vertex 8.29372 16.895 0
      vertex 7.93701 16.4989 0
    endloop
  endfacet
  facet normal 0 0 -1
    outer loop
      vertex 0 30 0
      vertex 7.45 15 0
      vertex 0 0 0
    endloop
  endfacet
  facet normal 0 0 -1
    outer loop
      vertex 7.45 15 0
      vertex 0 30 0
      vertex 7.50572 15.5302 0
    endloop
  endfacet
  facet normal 0 0 -1
    outer loop
      vertex 9.73345 17.536 0
      vertex 0 30 0
      vertex 20 30 0
    endloop
  endfacet
  facet normal 0 0 -1
    outer loop
      vertex 7.67046 16.0372 0
      vertex 0 30 0
      vertex 7.93701 16.4989 0
    endloop
  endfacet
  facet normal 0 0 -1
    outer loop
      vertex 7.50572 15.5302 0
      vertex 0 30 0
      vertex 7.67046 16.0372 0
    endloop
  endfacet
  facet normal 0 -1 0
    outer loop
      vertex 0 0 0
      vertex 7 0 4
      vertex 0 0 4
    endloop
  endfacet
  facet normal 0 -1 -0
    outer loop
      vertex 7 0 4
      vertex 0 0 0
      vertex 13 0 4
    endloop
  endfacet
  facet normal 0 -1 0
    outer loop
      vertex 20 0 0
      vertex 13 0 4
      vertex 0 0 0
    endloop
  endfacet
  facet normal 0 -1 0
    outer loop
      vertex 13 0 4
      vertex 20 0 0
      vertex 20 0 4
    endloop
  endfacet
  facet normal 0 -1 0
    outer loop
      vertex 7 0 4
      vertex 13 0 8
      vertex 7 0 8
    endloop
  endfacet
  facet normal 0 -1 -0
    outer loop
      vertex 13 0 8
      vertex 7 0 4
      vertex 13 0 4
    endloop
  endfacet
  facet normal 0 1 -0
    outer loop
      vertex 20 30 0
      vertex 13 30 4
      vertex 20 30 4
    endloop
  endfacet
  facet normal 0 1 0
    outer loop
      vertex 13 30 4
      vertex 20 30 0
      vertex 7 30 4
    endloop
  endfacet
  facet normal 0 1 0
    outer loop
      vertex 0 30 0
      vertex 7 30 4
      vertex 20 30 0
    endloop
  endfacet
  facet normal 0 1 0
    outer loop
      vertex 7 30 4
      vertex 0 30 0
      vertex 0 30 4
    endloop
  endfacet
  facet normal 0 1 -0
    outer loop
      vertex 13 30 4
      vertex 7 30 8
      vertex 13 30 8
    endloop
  endfacet
  facet normal 0 1 0
    outer loop
      vertex 7 30 8
      vertex 13 30 4
      vertex 7 30 4
    endloop
  endfacet
  facet normal -0.406736 -0.913546 0
    outer loop
      vertex 10.788 17.4252 0
      vertex 11.275 17.2084 4
      vertex 10.788 17.4252 4
    endloop
  endfacet
  facet normal -0.406736 -0.913546 -0
    outer loop
      vertex 11.275 17.2084 4
      vertex 10.788 17.4252 0
      vertex 11.275 17.2084 0
    endloop
  endfacet
  facet normal -0.994522 0.104528 0
    outer loop
      vertex 12.4943 14.4698 0
      vertex 12.55 15 4
      vertex 12.55 15 0
    endloop
  endfacet
  facet normal -0.994522 0.104528 0
    outer loop
      vertex 12.55 15 4
      vertex 12.4943 14.4698 0
      vertex 12.4943 14.4698 4
    endloop
  endfacet
  facet normal 0 1 -0
    outer loop
      vertex 10.2665 12.464 0
      vertex 9.73345 12.464 4
      vertex 10.2665 12.464 4
    endloop
  endfacet
  facet normal 0 1 0
    outer loop
      vertex 9.73345 12.464 4
      vertex 10.2665 12.464 0
      vertex 9.73345 12.464 0
    endloop
  endfacet
  facet normal 0 -1 0
    outer loop
      vertex 9.73345 17.536 0
      vertex 10.2665 17.536 4
      vertex 9.73345 17.536 4
    endloop
  endfacet
  facet normal 0 -1 -0
    outer loop
      vertex 10.2665 17.536 4
      vertex 9.73345 17.536 0
      vertex 10.2665 17.536 0
    endloop
  endfacet
  facet normal 0.406736 -0.913546 0
    outer loop
      vertex 8.725 17.2084 0
      vertex 9.21201 17.4252 4
      vertex 8.725 17.2084 4
    endloop
  endfacet
  facet normal 0.406736 -0.913546 0
    outer loop
      vertex 9.21201 17.4252 4
      vertex 8.725 17.2084 0
      vertex 9.21201 17.4252 0
    endloop
  endfacet
  facet normal 0.951056 -0.309017 0
    outer loop
      vertex 7.50572 15.5302 4
      vertex 7.67046 16.0372 0
      vertex 7.67046 16.0372 4
    endloop
  endfacet
  facet normal 0.951056 -0.309017 0
    outer loop
      vertex 7.67046 16.0372 0
      vertex 7.50572 15.5302 4
      vertex 7.50572 15.5302 0
    endloop
  endfacet
  facet normal -0.951056 -0.309017 0
    outer loop
      vertex 12.4943 15.5302 0
      vertex 12.3295 16.0372 4
      vertex 12.3295 16.0372 0
    endloop
  endfacet
  facet normal -0.951056 -0.309017 0
    outer loop
      vertex 12.3295 16.0372 4
      vertex 12.4943 15.5302 0
      vertex 12.4943 15.5302 4
    endloop
  endfacet
  facet normal -0.866026 -0.5 0
    outer loop
      vertex 12.3295 16.0372 0
      vertex 12.063 16.4989 4
      vertex 12.063 16.4989 0
    endloop
  endfacet
  facet normal -0.866026 -0.5 0
    outer loop
      vertex 12.063 16.4989 4
      vertex 12.3295 16.0372 0
      vertex 12.3295 16.0372 4
    endloop
  endfacet
  facet normal -0.743145 -0.66913 0
    outer loop
      vertex 12.063 16.4989 0
      vertex 11.7063 16.895 4
      vertex 11.7063 16.895 0
    endloop
  endfacet
  facet normal -0.743145 -0.66913 0
    outer loop
      vertex 11.7063 16.895 4
      vertex 12.063 16.4989 0
      vertex 12.063 16.4989 4
    endloop
  endfacet
  facet normal -0.587785 -0.809017 0
    outer loop
      vertex 11.275 17.2084 0
      vertex 11.7063 16.895 4
      vertex 11.275 17.2084 4
    endloop
  endfacet
  facet normal -0.587785 -0.809017 -0
    outer loop
      vertex 11.7063 16.895 4
      vertex 11.275 17.2084 0
      vertex 11.7063 16.895 0
    endloop
  endfacet
  facet normal -0.207911 -0.978148 0
    outer loop
      vertex 10.2665 17.536 0
      vertex 10.788 17.4252 4
      vertex 10.2665 17.536 4
    endloop
  endfacet
  facet normal -0.207911 -0.978148 -0
    outer loop
      vertex 10.788 17.4252 4
      vertex 10.2665 17.536 0
      vertex 10.788 17.4252 0
    endloop
  endfacet
  facet normal 0.994522 0.104528 0
    outer loop
      vertex 7.50572 14.4698 4
      vertex 7.45 15 0
      vertex 7.45 15 4
    endloop
  endfacet
  facet normal 0.994522 0.104528 0
    outer loop
      vertex 7.45 15 0
      vertex 7.50572 14.4698 4
      vertex 7.50572 14.4698 0
    endloop
  endfacet
  facet normal 0.866026 -0.5 0
    outer loop
      vertex 7.67046 16.0372 4
      vertex 7.93701 16.4989 0
      vertex 7.93701 16.4989 4
    endloop
  endfacet
  facet normal 0.866026 -0.5 0
    outer loop
      vertex 7.93701 16.4989 0
      vertex 7.67046 16.0372 4
      vertex 7.67046 16.0372 0
    endloop
  endfacet
  facet normal 0.587785 -0.809017 0
    outer loop
      vertex 8.29372 16.895 0
      vertex 8.725 17.2084 4
      vertex 8.29372 16.895 4
    endloop
  endfacet
  facet normal 0.587785 -0.809017 0
    outer loop
      vertex 8.725 17.2084 4
      vertex 8.29372 16.895 0
      vertex 8.725 17.2084 0
    endloop
  endfacet
  facet normal 0.207911 -0.978148 0
    outer loop
      vertex 9.21201 17.4252 0
      vertex 9.73345 17.536 4
      vertex 9.21201 17.4252 4
    endloop
  endfacet
  facet normal 0.207911 -0.978148 0
    outer loop
      vertex 9.73345 17.536 4
      vertex 9.21201 17.4252 0
      vertex 9.73345 17.536 0
    endloop
  endfacet
  facet normal 0.743145 -0.66913 0
    outer loop
      vertex 7.93701 16.4989 4
      vertex 8.29372 16.895 0
      vertex 8.29372 16.895 4
    endloop
  endfacet
  facet normal 0.743145 -0.66913 0
    outer loop
      vertex 8.29372 16.895 0
      vertex 7.93701 16.4989 4
      vertex 7.93701 16.4989 0
    endloop
  endfacet
  facet normal -0.994522 -0.104528 0
    outer loop
      vertex 12.55 15 0
      vertex 12.4943 15.5302 4
      vertex 12.4943 15.5302 0
    endloop
  endfacet
  facet normal -0.994522 -0.104528 0
    outer loop
      vertex 12.4943 15.5302 4
      vertex 12.55 15 0
      vertex 12.55 15 4
    endloop
  endfacet
  facet normal -0.207912 0.978147 0
    outer loop
      vertex 10.788 12.5748 0
      vertex 10.2665 12.464 4
      vertex 10.788 12.5748 4
    endloop
  endfacet
  facet normal -0.207912 0.978147 0
    outer loop
      vertex 10.2665 12.464 4
      vertex 10.788 12.5748 0
      vertex 10.2665 12.464 0
    endloop
  endfacet
  facet normal -0.406736 0.913546 0
    outer loop
      vertex 11.275 12.7916 0
      vertex 10.788 12.5748 4
      vertex 11.275 12.7916 4
    endloop
  endfacet
  facet normal -0.406736 0.913546 0
    outer loop
      vertex 10.788 12.5748 4
      vertex 11.275 12.7916 0
      vertex 10.788 12.5748 0
    endloop
  endfacet
  facet normal -0.587786 0.809017 0
    outer loop
      vertex 11.7063 13.105 0
      vertex 11.275 12.7916 4
      vertex 11.7063 13.105 4
    endloop
  endfacet
  facet normal -0.587786 0.809017 0
    outer loop
      vertex 11.275 12.7916 4
      vertex 11.7063 13.105 0
      vertex 11.275 12.7916 0
    endloop
  endfacet
  facet normal -0.866026 0.5 0
    outer loop
      vertex 12.063 13.5011 0
      vertex 12.3295 13.9628 4
      vertex 12.3295 13.9628 0
    endloop
  endfacet
  facet normal -0.866026 0.5 0
    outer loop
      vertex 12.3295 13.9628 4
      vertex 12.063 13.5011 0
      vertex 12.063 13.5011 4
    endloop
  endfacet
  facet normal 0.406736 0.913546 -0
    outer loop
      vertex 9.21201 12.5748 0
      vertex 8.725 12.7916 4
      vertex 9.21201 12.5748 4
    endloop
  endfacet
  facet normal 0.406736 0.913546 0
    outer loop
      vertex 8.725 12.7916 4
      vertex 9.21201 12.5748 0
      vertex 8.725 12.7916 0
    endloop
  endfacet
  facet normal 0.743145 0.669131 0
    outer loop
      vertex 8.29372 13.105 4
      vertex 7.93701 13.5011 0
      vertex 7.93701 13.5011 4
    endloop
  endfacet
  facet normal 0.743145 0.669131 0
    outer loop
      vertex 7.93701 13.5011 0
      vertex 8.29372 13.105 4
      vertex 8.29372 13.105 0
    endloop
  endfacet
  facet normal 0.951056 0.309017 0
    outer loop
      vertex 7.67046 13.9628 4
      vertex 7.50572 14.4698 0
      vertex 7.50572 14.4698 4
    endloop
  endfacet
  facet normal 0.951056 0.309017 0
    outer loop
      vertex 7.50572 14.4698 0
      vertex 7.67046 13.9628 4
      vertex 7.67046 13.9628 0
    endloop
  endfacet
  facet normal 0.587786 0.809017 -0
    outer loop
      vertex 8.725 12.7916 0
      vertex 8.29372 13.105 4
      vertex 8.725 12.7916 4
    endloop
  endfacet
  facet normal 0.587786 0.809017 0
    outer loop
      vertex 8.29372 13.105 4
      vertex 8.725 12.7916 0
      vertex 8.29372 13.105 0
    endloop
  endfacet
  facet normal 0.994522 -0.104528 0
    outer loop
      vertex 7.45 15 4
      vertex 7.50572 15.5302 0
      vertex 7.50572 15.5302 4
    endloop
  endfacet
  facet normal 0.994522 -0.104528 0
    outer loop
      vertex 7.50572 15.5302 0
      vertex 7.45 15 4
      vertex 7.45 15 0
    endloop
  endfacet
  facet normal -0.743145 0.669131 0
    outer loop
      vertex 11.7063 13.105 0
      vertex 12.063 13.5011 4
      vertex 12.063 13.5011 0
    endloop
  endfacet
  facet normal -0.743145 0.669131 0
    outer loop
      vertex 12.063 13.5011 4
      vertex 11.7063 13.105 0
      vertex 11.7063 13.105 4
    endloop
  endfacet
  facet normal -0.951056 0.309017 0
    outer loop
      vertex 12.3295 13.9628 0
      vertex 12.4943 14.4698 4
      vertex 12.4943 14.4698 0
    endloop
  endfacet
  facet normal -0.951056 0.309017 0
    outer loop
      vertex 12.4943 14.4698 4
      vertex 12.3295 13.9628 0
      vertex 12.3295 13.9628 4
    endloop
  endfacet
  facet normal 0.207912 0.978147 -0
    outer loop
      vertex 9.73345 12.464 0
      vertex 9.21201 12.5748 4
      vertex 9.73345 12.464 4
    endloop
  endfacet
  facet normal 0.207912 0.978147 0
    outer loop
      vertex 9.21201 12.5748 4
      vertex 9.73345 12.464 0
      vertex 9.21201 12.5748 0
    endloop
  endfacet
  facet normal 0.866026 0.5 0
    outer loop
      vertex 7.93701 13.5011 4
      vertex 7.67046 13.9628 0
      vertex 7.67046 13.9628 4
    endloop
  endfacet
  facet normal 0.866026 0.5 0
    outer loop
      vertex 7.67046 13.9628 0
      vertex 7.93701 13.5011 4
      vertex 7.93701 13.5011 0
    endloop
  endfacet
  facet normal -1 0 0
    outer loop
      vertex 7 25 4
      vertex 7 30 8
      vertex 7 30 4
    endloop
  endfacet
  facet normal -1 -0 0
    outer loop
      vertex 7 30 8
      vertex 7 25 4
      vertex 7 25 8
    endloop
  endfacet
  facet normal -0 0 1
    outer loop
      vertex 7 30 8
      vertex 13 25 8
      vertex 13 30 8
    endloop
  endfacet
  facet normal 0 0 1
    outer loop
      vertex 13 25 8
      vertex 7 30 8
      vertex 7 25 8
    endloop
  endfacet
  facet normal 1 -0 0
    outer loop
      vertex 13 25 8
      vertex 13 30 4
      vertex 13 30 8
    endloop
  endfacet
  facet normal 1 0 0
    outer loop
      vertex 13 30 4
      vertex 13 25 8
      vertex 13 25 4
    endloop
  endfacet
  facet normal 0 -1 0
    outer loop
      vertex 7 25 4
      vertex 13 25 8
      vertex 7 25 8
    endloop
  endfacet
  facet normal 0 -1 -0
    outer loop
      vertex 13 25 8
      vertex 7 25 4
      vertex 13 25 4
    endloop
  endfacet
  facet normal -1 0 0
    outer loop
      vertex 7 0 4
      vertex 7 5 8
      vertex 7 5 4
    endloop
  endfacet
  facet normal -1 -0 0
    outer loop
      vertex 7 5 8
      vertex 7 0 4
      vertex 7 0 8
    endloop
  endfacet
  facet normal -0 0 1
    outer loop
      vertex 7 5 8
      vertex 13 0 8
      vertex 13 5 8
    endloop
  endfacet
  facet normal 0 0 1
    outer loop
      vertex 13 0 8
      vertex 7 5 8
      vertex 7 0 8
    endloop
  endfacet
  facet normal 1 -0 0
    outer loop
      vertex 13 0 8
      vertex 13 5 4
      vertex 13 5 8
    endloop
  endfacet
  facet normal 1 0 0
    outer loop
      vertex 13 5 4
      vertex 13 0 8
      vertex 13 0 4
    endloop
  endfacet
  facet normal 0 1 -0
    outer loop
      vertex 13 5 4
      vertex 7 5 8
      vertex 13 5 8
    endloop
  endfacet
  facet normal 0 1 0
    outer loop
      vertex 7 5 8
      vertex 13 5 4
      vertex 7 5 4
    endloop
  endfacet
endsolid OpenSCAD_Model
