solid OpenSCAD_Model
  facet normal -1 0 0
    outer loop
      vertex -20 -10 -2.5
      vertex -20 -20 -2.5
      vertex -20 -10 2.5
    endloop
  endfacet
  facet normal -1 0 0
    outer loop
      vertex -20 10 2.5
      vertex -20 20 -2.5
      vertex -20 10 -2.5
    endloop
  endfacet
  facet normal -1 0 0
    outer loop
      vertex -20 20 -2.5
      vertex -20 10 2.5
      vertex -20 20 4.5
    endloop
  endfacet
  facet normal -1 0 0
    outer loop
      vertex -20 -10 2.5
      vertex -20 20 4.5
      vertex -20 10 2.5
    endloop
  endfacet
  facet normal -1 0 0
    outer loop
      vertex -20 -10 2.5
      vertex -20 -20 4.5
      vertex -20 20 4.5
    endloop
  endfacet
  facet normal -1 0 0
    outer loop
      vertex -20 -20 4.5
      vertex -20 -10 2.5
      vertex -20 -20 -2.5
    endloop
  endfacet
  facet normal 0 0 -1
    outer loop
      vertex -20 -10 2.5
      vertex -10 10 2.5
      vertex -10 -10 2.5
    endloop
  endfacet
  facet normal -0 0 -1
    outer loop
      vertex -10 10 2.5
      vertex -20 -10 2.5
      vertex -20 10 2.5
    endloop
  endfacet
  facet normal 0 0 -1
    outer loop
      vertex -10 -10 2.5
      vertex 10 -10 2.5
      vertex 10 -20 2.5
    endloop
  endfacet
  facet normal 0 0 -1
    outer loop
      vertex 10 -10 2.5
      vertex -10 -10 2.5
      vertex 10 10 2.5
    endloop
  endfacet
  facet normal 0 0 -1
    outer loop
      vertex -10 -10 2.5
      vertex 10 -20 2.5
      vertex -10 -20 2.5
    endloop
  endfacet
  facet normal 0 0 -1
    outer loop
      vertex -10 10 2.5
      vertex 10 10 2.5
      vertex -10 -10 2.5
    endloop
  endfacet
  facet normal 0 0 -1
    outer loop
      vertex 10 10 2.5
      vertex -10 10 2.5
      vertex 10 20 2.5
    endloop
  endfacet
  facet normal -0 0 -1
    outer loop
      vertex 10 20 2.5
      vertex -10 10 2.5
      vertex -10 20 2.5
    endloop
  endfacet
  facet normal 0 0 -1
    outer loop
      vertex 10 -10 2.5
      vertex 20 10 2.5
      vertex 20 -10 2.5
    endloop
  endfacet
  facet normal -0 0 -1
    outer loop
      vertex 20 10 2.5
      vertex 10 -10 2.5
      vertex 10 10 2.5
    endloop
  endfacet
  facet normal 1 -0 0
    outer loop
      vertex -10 -20 2.5
      vertex -10 -10 -2.5
      vertex -10 -10 2.5
    endloop
  endfacet
  facet normal 1 0 0
    outer loop
      vertex -10 -10 -2.5
      vertex -10 -20 2.5
      vertex -10 -20 -2.5
    endloop
  endfacet
  facet normal 0 1 -0
    outer loop
      vertex -10 -10 -2.5
      vertex -20 -10 2.5
      vertex -10 -10 2.5
    endloop
  endfacet
  facet normal 0 1 0
    outer loop
      vertex -20 -10 2.5
      vertex -10 -10 -2.5
      vertex -20 -10 -2.5
    endloop
  endfacet
  facet normal 0 0 -1
    outer loop
      vertex -20 -20 -2.5
      vertex -10 -10 -2.5
      vertex -10 -20 -2.5
    endloop
  endfacet
  facet normal -0 0 -1
    outer loop
      vertex -10 -10 -2.5
      vertex -20 -20 -2.5
      vertex -20 -10 -2.5
    endloop
  endfacet
  facet normal 0 -1 0
    outer loop
      vertex -20 -20 4.5
      vertex -10 -20 2.5
      vertex 20 -20 4.5
    endloop
  endfacet
  facet normal 0 -1 0
    outer loop
      vertex -20 -20 -2.5
      vertex -10 -20 2.5
      vertex -20 -20 4.5
    endloop
  endfacet
  facet normal 0 -1 -0
    outer loop
      vertex -10 -20 2.5
      vertex -20 -20 -2.5
      vertex -10 -20 -2.5
    endloop
  endfacet
  facet normal 0 -1 0
    outer loop
      vertex 10 -20 2.5
      vertex 20 -20 4.5
      vertex -10 -20 2.5
    endloop
  endfacet
  facet normal 0 -1 0
    outer loop
      vertex 20 -20 -2.5
      vertex 10 -20 2.5
      vertex 10 -20 -2.5
    endloop
  endfacet
  facet normal 0 -1 0
    outer loop
      vertex 10 -20 2.5
      vertex 20 -20 -2.5
      vertex 20 -20 4.5
    endloop
  endfacet
  facet normal -1 0 0
    outer loop
      vertex 10 -20 -2.5
      vertex 10 -10 2.5
      vertex 10 -10 -2.5
    endloop
  endfacet
  facet normal -1 -0 0
    outer loop
      vertex 10 -10 2.5
      vertex 10 -20 -2.5
      vertex 10 -20 2.5
    endloop
  endfacet
  facet normal 1 0 0
    outer loop
      vertex 20 20 4.5
      vertex 20 10 2.5
      vertex 20 20 -2.5
    endloop
  endfacet
  facet normal 1 0 0
    outer loop
      vertex 20 20 4.5
      vertex 20 -10 2.5
      vertex 20 10 2.5
    endloop
  endfacet
  facet normal 1 -0 0
    outer loop
      vertex 20 -20 4.5
      vertex 20 -10 2.5
      vertex 20 20 4.5
    endloop
  endfacet
  facet normal 1 0 0
    outer loop
      vertex 20 -20 -2.5
      vertex 20 -10 2.5
      vertex 20 -20 4.5
    endloop
  endfacet
  facet normal 1 0 0
    outer loop
      vertex 20 -10 2.5
      vertex 20 -20 -2.5
      vertex 20 -10 -2.5
    endloop
  endfacet
  facet normal 1 0 0
    outer loop
      vertex 20 20 -2.5
      vertex 20 10 2.5
      vertex 20 10 -2.5
    endloop
  endfacet
  facet normal 0 1 -0
    outer loop
      vertex 20 -10 -2.5
      vertex 10 -10 2.5
      vertex 20 -10 2.5
    endloop
  endfacet
  facet normal 0 1 0
    outer loop
      vertex 10 -10 2.5
      vertex 20 -10 -2.5
      vertex 10 -10 -2.5
    endloop
  endfacet
  facet normal 0 0 -1
    outer loop
      vertex 10 -20 -2.5
      vertex 20 -10 -2.5
      vertex 20 -20 -2.5
    endloop
  endfacet
  facet normal -0 0 -1
    outer loop
      vertex 20 -10 -2.5
      vertex 10 -20 -2.5
      vertex 10 -10 -2.5
    endloop
  endfacet
  facet normal 1 -0 0
    outer loop
      vertex -10 10 2.5
      vertex -10 20 -2.5
      vertex -10 20 2.5
    endloop
  endfacet
  facet normal 1 0 0
    outer loop
      vertex -10 20 -2.5
      vertex -10 10 2.5
      vertex -10 10 -2.5
    endloop
  endfacet
  facet normal 0 1 0
    outer loop
      vertex 20 20 4.5
      vertex 10 20 2.5
      vertex -20 20 4.5
    endloop
  endfacet
  facet normal 0 1 -0
    outer loop
      vertex 20 20 -2.5
      vertex 10 20 2.5
      vertex 20 20 4.5
    endloop
  endfacet
  facet normal 0 1 0
    outer loop
      vertex 10 20 2.5
      vertex 20 20 -2.5
      vertex 10 20 -2.5
    endloop
  endfacet
  facet normal 0 1 -0
    outer loop
      vertex -10 20 2.5
      vertex -20 20 4.5
      vertex 10 20 2.5
    endloop
  endfacet
  facet normal 0 1 0
    outer loop
      vertex -20 20 -2.5
      vertex -10 20 2.5
      vertex -10 20 -2.5
    endloop
  endfacet
  facet normal 0 1 0
    outer loop
      vertex -10 20 2.5
      vertex -20 20 -2.5
      vertex -20 20 4.5
    endloop
  endfacet
  facet normal 0 0 -1
    outer loop
      vertex -20 10 -2.5
      vertex -10 20 -2.5
      vertex -10 10 -2.5
    endloop
  endfacet
  facet normal -0 0 -1
    outer loop
      vertex -10 20 -2.5
      vertex -20 10 -2.5
      vertex -20 20 -2.5
    endloop
  endfacet
  facet normal 0 -1 0
    outer loop
      vertex -20 10 -2.5
      vertex -10 10 2.5
      vertex -20 10 2.5
    endloop
  endfacet
  facet normal 0 -1 -0
    outer loop
      vertex -10 10 2.5
      vertex -20 10 -2.5
      vertex -10 10 -2.5
    endloop
  endfacet
  facet normal -1 0 0
    outer loop
      vertex 10 10 -2.5
      vertex 10 20 2.5
      vertex 10 20 -2.5
    endloop
  endfacet
  facet normal -1 -0 0
    outer loop
      vertex 10 20 2.5
      vertex 10 10 -2.5
      vertex 10 10 2.5
    endloop
  endfacet
  facet normal 0 0 -1
    outer loop
      vertex 10 10 -2.5
      vertex 20 20 -2.5
      vertex 20 10 -2.5
    endloop
  endfacet
  facet normal -0 0 -1
    outer loop
      vertex 20 20 -2.5
      vertex 10 10 -2.5
      vertex 10 20 -2.5
    endloop
  endfacet
  facet normal 0 -1 0
    outer loop
      vertex 10 10 -2.5
      vertex 20 10 2.5
      vertex 10 10 2.5
    endloop
  endfacet
  facet normal 0 -1 -0
    outer loop
      vertex 20 10 2.5
      vertex 10 10 -2.5
      vertex 20 10 -2.5
    endloop
  endfacet
  facet normal -0 0 1
    outer loop
      vertex -20 20 4.5
      vertex 20 -20 4.5
      vertex 20 20 4.5
    endloop
  endfacet
  facet normal 0 0 1
    outer loop
      vertex 20 -20 4.5
      vertex -20 20 4.5
      vertex -20 -20 4.5
    endloop
  endfacet
endsolid OpenSCAD_Model
