solid OpenSCAD_Model
  facet normal 0 0 -1
    outer loop
      vertex -0.199999 0 0
      vertex 0.799999 0.5 0
      vertex 0.799999 0 0
    endloop
  endfacet
  facet normal 0 0 -1
    outer loop
      vertex 0.799999 0.5 0
      vertex 0 1.3 0
      vertex 5.72205e-07 1.3 0
    endloop
  endfacet
  facet normal 0 0 -1
    outer loop
      vertex -0.999999 0.8 0
      vertex 0 1.3 0
      vertex -0.199999 0 0
    endloop
  endfacet
  facet normal -0 0 -1
    outer loop
      vertex 0.799999 0.5 0
      vertex -0.199999 0 0
      vertex 0 1.3 0
    endloop
  endfacet
  facet normal 0 0 -1
    outer loop
      vertex 0.800001 0.5 0
      vertex 0.799999 0.5 0
      vertex 5.72205e-07 1.3 0
    endloop
  endfacet
  facet normal 0 0 -1
    outer loop
      vertex 5.2 0.8 0
      vertex 4.2 11.2 0
      vertex 5.2 12.2 0
    endloop
  endfacet
  facet normal 0 0 -1
    outer loop
      vertex 4.2 1.3 0
      vertex 5.2 0.8 0
      vertex 4.4 0 0
    endloop
  endfacet
  facet normal 0 0 -1
    outer loop
      vertex 4.2 11.2 0
      vertex 5.2 0.8 0
      vertex 4.2 1.3 0
    endloop
  endfacet
  facet normal 0 0 -1
    outer loop
      vertex 3.4 0.5 0
      vertex 4.2 1.3 0
      vertex 4.4 0 0
    endloop
  endfacet
  facet normal 0 0 -1
    outer loop
      vertex 3.4 0.5 0
      vertex 4.4 0 0
      vertex 3.4 0 0
    endloop
  endfacet
  facet normal -0 0 -1
    outer loop
      vertex 5.2 12.2 0
      vertex 4.2 11.2 0
      vertex 4.4 13 0
    endloop
  endfacet
  facet normal 0 0 -1
    outer loop
      vertex 4.2 11.2 0
      vertex 3.4 12 0
      vertex 4.4 13 0
    endloop
  endfacet
  facet normal 0 0 -1
    outer loop
      vertex 0.800001 12 0
      vertex 4.4 13 0
      vertex 3.4 12 0
    endloop
  endfacet
  facet normal 0 0 -1
    outer loop
      vertex 0 11.2 0
      vertex 0.800001 12 0
      vertex 5.72205e-07 11.2 0
    endloop
  endfacet
  facet normal 0 0 -1
    outer loop
      vertex 0.800001 12 0
      vertex -0.199999 13 0
      vertex 4.4 13 0
    endloop
  endfacet
  facet normal 0 0 -1
    outer loop
      vertex 0 11.2 0
      vertex -0.199999 13 0
      vertex 0.800001 12 0
    endloop
  endfacet
  facet normal -0 0 -1
    outer loop
      vertex 0 1.3 0
      vertex -0.999999 0.8 0
      vertex 0 11.2 0
    endloop
  endfacet
  facet normal 0 0 -1
    outer loop
      vertex -0.999999 12.2 0
      vertex 0 11.2 0
      vertex -0.999999 0.8 0
    endloop
  endfacet
  facet normal 0 0 -1
    outer loop
      vertex 0 11.2 0
      vertex -0.999999 12.2 0
      vertex -0.199999 13 0
    endloop
  endfacet
  facet normal 0 0 -1
    outer loop
      vertex -1 0.8 0
      vertex -0.999999 12.2 0
      vertex -0.999999 0.8 0
    endloop
  endfacet
  facet normal -0 0 -1
    outer loop
      vertex -0.999999 12.2 0
      vertex -1 0.8 0
      vertex -1 12.2 0
    endloop
  endfacet
  facet normal 0.707107 0.707107 0
    outer loop
      vertex 5.2 12.2 8
      vertex 4.4 13 0
      vertex 4.4 13 8
    endloop
  endfacet
  facet normal 0.707107 0.707107 0
    outer loop
      vertex 4.4 13 0
      vertex 5.2 12.2 8
      vertex 5.2 12.2 0
    endloop
  endfacet
  facet normal 0 0 1
    outer loop
      vertex 5.2 12.2 8
      vertex 4.2 11.2 8
      vertex 5.2 0.8 8
    endloop
  endfacet
  facet normal 0 0 1
    outer loop
      vertex 4.2 11.2 8
      vertex 5.2 12.2 8
      vertex 4.4 13 8
    endloop
  endfacet
  facet normal -0 0 1
    outer loop
      vertex 4.2 1.3 8
      vertex 5.2 0.8 8
      vertex 4.2 11.2 8
    endloop
  endfacet
  facet normal -0 0 1
    outer loop
      vertex 3.4 12 8
      vertex 4.2 11.2 8
      vertex 4.4 13 8
    endloop
  endfacet
  facet normal 0 0 1
    outer loop
      vertex 4.4 13 8
      vertex 0.800001 12 8
      vertex 3.4 12 8
    endloop
  endfacet
  facet normal 0 0 1
    outer loop
      vertex 0.800001 12 8
      vertex 0 11.2 8
      vertex 5.72205e-07 11.2 8
    endloop
  endfacet
  facet normal -0 0 1
    outer loop
      vertex -0.999999 12.2 8
      vertex 0 11.2 8
      vertex -0.199999 13 8
    endloop
  endfacet
  facet normal 0 0 1
    outer loop
      vertex 0.800001 12 8
      vertex -0.199999 13 8
      vertex 0 11.2 8
    endloop
  endfacet
  facet normal -0 0 1
    outer loop
      vertex -0.199999 13 8
      vertex 0.800001 12 8
      vertex 4.4 13 8
    endloop
  endfacet
  facet normal 0 0 1
    outer loop
      vertex 5.2 0.8 8
      vertex 4.2 1.3 8
      vertex 4.4 0 8
    endloop
  endfacet
  facet normal 0 0 1
    outer loop
      vertex 4.2 1.3 8
      vertex 3.4 0.5 8
      vertex 4.4 0 8
    endloop
  endfacet
  facet normal 0 0 1
    outer loop
      vertex 4.4 0 8
      vertex 3.4 0.5 8
      vertex 3.4 0 8
    endloop
  endfacet
  facet normal 0 0 1
    outer loop
      vertex 5.72205e-07 1.3 8
      vertex 0.799999 0.5 8
      vertex 0.800001 0.5 8
    endloop
  endfacet
  facet normal -0 0 1
    outer loop
      vertex 0 1.3 8
      vertex 0.799999 0.5 8
      vertex 5.72205e-07 1.3 8
    endloop
  endfacet
  facet normal 0 0 1
    outer loop
      vertex -0.199999 0 8
      vertex 0.799999 0.5 8
      vertex 0 1.3 8
    endloop
  endfacet
  facet normal 0 0 1
    outer loop
      vertex 0.799999 0.5 8
      vertex -0.199999 0 8
      vertex 0.799999 0 8
    endloop
  endfacet
  facet normal 0 0 1
    outer loop
      vertex -0.999999 0.8 8
      vertex 0 11.2 8
      vertex -0.999999 12.2 8
    endloop
  endfacet
  facet normal 0 0 1
    outer loop
      vertex 0 11.2 8
      vertex -0.999999 0.8 8
      vertex 0 1.3 8
    endloop
  endfacet
  facet normal 0 0 1
    outer loop
      vertex 0 1.3 8
      vertex -0.999999 0.8 8
      vertex -0.199999 0 8
    endloop
  endfacet
  facet normal 0 0 1
    outer loop
      vertex -1 0.8 8
      vertex -0.999999 12.2 8
      vertex -1 12.2 8
    endloop
  endfacet
  facet normal 0 0 1
    outer loop
      vertex -0.999999 12.2 8
      vertex -1 0.8 8
      vertex -0.999999 0.8 8
    endloop
  endfacet
  facet normal -0.707107 0.707107 0
    outer loop
      vertex -0.999999 12.2 0
      vertex -0.199999 13 8
      vertex -0.199999 13 0
    endloop
  endfacet
  facet normal -0.707107 0.707107 0
    outer loop
      vertex -0.199999 13 8
      vertex -0.999999 12.2 0
      vertex -0.999999 12.2 8
    endloop
  endfacet
  facet normal 0.847998 0.529999 0
    outer loop
      vertex -0.999999 12.2 8
      vertex -1 12.2 0
      vertex -1 12.2 8
    endloop
  endfacet
  facet normal 0.847998 0.529999 0
    outer loop
      vertex -1 12.2 0
      vertex -0.999999 12.2 8
      vertex -0.999999 12.2 0
    endloop
  endfacet
  facet normal 0.707107 -0.707107 0
    outer loop
      vertex -1 0.8 8
      vertex -0.999999 0.8 0
      vertex -0.999999 0.8 8
    endloop
  endfacet
  facet normal 0.707107 -0.707107 0
    outer loop
      vertex -0.999999 0.8 0
      vertex -1 0.8 8
      vertex -1 0.8 0
    endloop
  endfacet
  facet normal -0.707107 -0.707107 0
    outer loop
      vertex -0.199999 0 0
      vertex -0.999999 0.8 8
      vertex -0.999999 0.8 0
    endloop
  endfacet
  facet normal -0.707107 -0.707107 0
    outer loop
      vertex -0.999999 0.8 8
      vertex -0.199999 0 0
      vertex -0.199999 0 8
    endloop
  endfacet
  facet normal 0.707107 -0.707107 0
    outer loop
      vertex 4.4 0 8
      vertex 5.2 0.8 0
      vertex 5.2 0.8 8
    endloop
  endfacet
  facet normal 0.707107 -0.707107 0
    outer loop
      vertex 5.2 0.8 0
      vertex 4.4 0 8
      vertex 4.4 0 0
    endloop
  endfacet
  facet normal -1 0 0
    outer loop
      vertex -1 0.8 0
      vertex -1 12.2 8
      vertex -1 12.2 0
    endloop
  endfacet
  facet normal -1 -0 0
    outer loop
      vertex -1 12.2 8
      vertex -1 0.8 0
      vertex -1 0.8 8
    endloop
  endfacet
  facet normal 1 -0 0
    outer loop
      vertex 5.2 0.8 8
      vertex 5.2 12.2 0
      vertex 5.2 12.2 8
    endloop
  endfacet
  facet normal 1 0 0
    outer loop
      vertex 5.2 12.2 0
      vertex 5.2 0.8 8
      vertex 5.2 0.8 0
    endloop
  endfacet
  facet normal 0 1 -0
    outer loop
      vertex 4.4 13 0
      vertex -0.199999 13 8
      vertex 4.4 13 8
    endloop
  endfacet
  facet normal 0 1 0
    outer loop
      vertex -0.199999 13 8
      vertex 4.4 13 0
      vertex -0.199999 13 0
    endloop
  endfacet
  facet normal 0 -1 0
    outer loop
      vertex 3.4 0 0
      vertex 4.4 0 8
      vertex 3.4 0 8
    endloop
  endfacet
  facet normal 0 -1 -0
    outer loop
      vertex 4.4 0 8
      vertex 3.4 0 0
      vertex 4.4 0 0
    endloop
  endfacet
  facet normal 0 -1 0
    outer loop
      vertex -0.199999 0 0
      vertex 0.799999 0 8
      vertex -0.199999 0 8
    endloop
  endfacet
  facet normal 0 -1 -0
    outer loop
      vertex 0.799999 0 8
      vertex -0.199999 0 0
      vertex 0.799999 0 0
    endloop
  endfacet
  facet normal -0.707107 -0.707107 0
    outer loop
      vertex 4.2 11.2 0
      vertex 3.4 12 8
      vertex 3.4 12 0
    endloop
  endfacet
  facet normal -0.707107 -0.707107 0
    outer loop
      vertex 3.4 12 8
      vertex 4.2 11.2 0
      vertex 4.2 11.2 8
    endloop
  endfacet
  facet normal 0.707107 -0.707107 0
    outer loop
      vertex 5.72205e-07 11.2 8
      vertex 0.800001 12 0
      vertex 0.800001 12 8
    endloop
  endfacet
  facet normal 0.707107 -0.707107 0
    outer loop
      vertex 0.800001 12 0
      vertex 5.72205e-07 11.2 8
      vertex 5.72205e-07 11.2 0
    endloop
  endfacet
  facet normal -0.857493 -0.514496 0
    outer loop
      vertex 5.72205e-07 11.2 0
      vertex 0 11.2 8
      vertex 0 11.2 0
    endloop
  endfacet
  facet normal -0.857493 -0.514496 0
    outer loop
      vertex 0 11.2 8
      vertex 5.72205e-07 11.2 0
      vertex 5.72205e-07 11.2 8
    endloop
  endfacet
  facet normal -0.721387 0.692532 0
    outer loop
      vertex 0 1.3 0
      vertex 5.72205e-07 1.3 8
      vertex 5.72205e-07 1.3 0
    endloop
  endfacet
  facet normal -0.721387 0.692532 0
    outer loop
      vertex 5.72205e-07 1.3 8
      vertex 0 1.3 0
      vertex 0 1.3 8
    endloop
  endfacet
  facet normal 0.707107 0.707107 0
    outer loop
      vertex 0.800001 0.5 8
      vertex 5.72205e-07 1.3 0
      vertex 5.72205e-07 1.3 8
    endloop
  endfacet
  facet normal 0.707107 0.707107 0
    outer loop
      vertex 5.72205e-07 1.3 0
      vertex 0.800001 0.5 8
      vertex 0.800001 0.5 0
    endloop
  endfacet
  facet normal -0.707107 0.707107 0
    outer loop
      vertex 3.4 0.5 0
      vertex 4.2 1.3 8
      vertex 4.2 1.3 0
    endloop
  endfacet
  facet normal -0.707107 0.707107 0
    outer loop
      vertex 4.2 1.3 8
      vertex 3.4 0.5 0
      vertex 3.4 0.5 8
    endloop
  endfacet
  facet normal 1 -0 0
    outer loop
      vertex 0 1.3 8
      vertex 0 11.2 0
      vertex 0 11.2 8
    endloop
  endfacet
  facet normal 1 0 0
    outer loop
      vertex 0 11.2 0
      vertex 0 1.3 8
      vertex 0 1.3 0
    endloop
  endfacet
  facet normal -1 0 0
    outer loop
      vertex 4.2 1.3 0
      vertex 4.2 11.2 8
      vertex 4.2 11.2 0
    endloop
  endfacet
  facet normal -1 -0 0
    outer loop
      vertex 4.2 11.2 8
      vertex 4.2 1.3 0
      vertex 4.2 1.3 8
    endloop
  endfacet
  facet normal 0 -1 0
    outer loop
      vertex 0.800001 12 0
      vertex 3.4 12 8
      vertex 0.800001 12 8
    endloop
  endfacet
  facet normal 0 -1 -0
    outer loop
      vertex 3.4 12 8
      vertex 0.800001 12 0
      vertex 3.4 12 0
    endloop
  endfacet
  facet normal 0 -1 0
    outer loop
      vertex 0.799999 0.5 0
      vertex 0.800001 0.5 8
      vertex 0.799999 0.5 8
    endloop
  endfacet
  facet normal 0 -1 -0
    outer loop
      vertex 0.800001 0.5 8
      vertex 0.799999 0.5 0
      vertex 0.800001 0.5 0
    endloop
  endfacet
  facet normal 1 -0 0
    outer loop
      vertex 0.799999 0 8
      vertex 0.799999 0.5 0
      vertex 0.799999 0.5 8
    endloop
  endfacet
  facet normal 1 0 0
    outer loop
      vertex 0.799999 0.5 0
      vertex 0.799999 0 8
      vertex 0.799999 0 0
    endloop
  endfacet
  facet normal -1 0 0
    outer loop
      vertex 3.4 0 0
      vertex 3.4 0.5 8
      vertex 3.4 0.5 0
    endloop
  endfacet
  facet normal -1 -0 0
    outer loop
      vertex 3.4 0.5 8
      vertex 3.4 0 0
      vertex 3.4 0 8
    endloop
  endfacet
endsolid OpenSCAD_Model
