solid OpenSCAD_Model
  facet normal 0 0 1
    outer loop
      vertex 10.82 9.31289 20
      vertex 9.82 9.02 20
      vertex 10.82 0.507107 20
    endloop
  endfacet
  facet normal 0 0 1
    outer loop
      vertex 9.31289 10.82 20
      vertex 9.82 9.02 20
      vertex 10.82 9.31289 20
    endloop
  endfacet
  facet normal 0 0 1
    outer loop
      vertex 9.31289 10.82 20
      vertex 9.02 9.82 20
      vertex 9.82 9.02 20
    endloop
  endfacet
  facet normal 0 0 1
    outer loop
      vertex 9.31289 10.82 20
      vertex 0.8 9.82 20
      vertex 9.02 9.82 20
    endloop
  endfacet
  facet normal -0 0 1
    outer loop
      vertex 0.507107 10.82 20
      vertex 0.8 9.82 20
      vertex 9.31289 10.82 20
    endloop
  endfacet
  facet normal 0 0 1
    outer loop
      vertex 0 9.02 20
      vertex 0.8 9.82 20
      vertex 0.507107 10.82 20
    endloop
  endfacet
  facet normal 0 0 1
    outer loop
      vertex 0.8 9.82 20
      vertex 0 9.02 20
      vertex 1.52588e-07 9.02 20
    endloop
  endfacet
  facet normal -0 0 1
    outer loop
      vertex -1 9.31289 20
      vertex 0 9.02 20
      vertex 0.507107 10.82 20
    endloop
  endfacet
  facet normal -0 0 1
    outer loop
      vertex 9.82 0.8 20
      vertex 10.82 0.507107 20
      vertex 9.82 9.02 20
    endloop
  endfacet
  facet normal 0 0 1
    outer loop
      vertex 9.82 0.8 20
      vertex 9.31289 -1 20
      vertex 10.82 0.507107 20
    endloop
  endfacet
  facet normal 0 0 1
    outer loop
      vertex 9.02 0 20
      vertex 9.82 0.8 20
      vertex 9.02 1.52588e-07 20
    endloop
  endfacet
  facet normal 0 0 1
    outer loop
      vertex 9.82 0.8 20
      vertex 9.02 0 20
      vertex 9.31289 -1 20
    endloop
  endfacet
  facet normal -0 0 1
    outer loop
      vertex 0.8 0 20
      vertex 9.31289 -1 20
      vertex 9.02 0 20
    endloop
  endfacet
  facet normal -0 0 1
    outer loop
      vertex 0.507107 -1 20
      vertex 9.31289 -1 20
      vertex 0.8 0 20
    endloop
  endfacet
  facet normal 0 0 1
    outer loop
      vertex 1.52588e-07 0.8 20
      vertex 0.8 0 20
      vertex 0.8 1.52588e-07 20
    endloop
  endfacet
  facet normal -0 0 1
    outer loop
      vertex 0 0.8 20
      vertex 0.8 0 20
      vertex 1.52588e-07 0.8 20
    endloop
  endfacet
  facet normal 0 0 1
    outer loop
      vertex 0.8 0 20
      vertex 0 0.8 20
      vertex 0.507107 -1 20
    endloop
  endfacet
  facet normal 0 0 1
    outer loop
      vertex 0 0.8 20
      vertex -1 0.507107 20
      vertex 0.507107 -1 20
    endloop
  endfacet
  facet normal 0 0 1
    outer loop
      vertex 0 9.02 20
      vertex -1 9.31289 20
      vertex 0 0.8 20
    endloop
  endfacet
  facet normal 0 0 1
    outer loop
      vertex 0 0.8 20
      vertex -1 9.31289 20
      vertex -1 0.507107 20
    endloop
  endfacet
  facet normal 0.707107 0.707107 0
    outer loop
      vertex 9.31289 10.82 20
      vertex 10.3129 9.82 16.3
      vertex 9.31289 10.82 16.3
    endloop
  endfacet
  facet normal 0.707107 0.707107 0
    outer loop
      vertex 10.82 9.31289 20
      vertex 10.3129 9.82 16.3
      vertex 9.31289 10.82 20
    endloop
  endfacet
  facet normal 0.707107 0.707107 -0
    outer loop
      vertex 10.82 9.31289 0
      vertex 10.3129 9.82 16.3
      vertex 10.82 9.31289 20
    endloop
  endfacet
  facet normal 0.707107 0.707107 0
    outer loop
      vertex 10.3129 9.82 16.3
      vertex 10.82 9.31289 0
      vertex 10.3129 9.82 0
    endloop
  endfacet
  facet normal 0 0 -1
    outer loop
      vertex 9.31289 -1 0
      vertex 0.8 0 0
      vertex 9.02 0 0
    endloop
  endfacet
  facet normal 0 0 -1
    outer loop
      vertex 9.31289 -1 0
      vertex 0.507107 -1 0
      vertex 0.8 0 0
    endloop
  endfacet
  facet normal 0 0 -1
    outer loop
      vertex 9.82 9.02 0
      vertex 10.82 9.31289 0
      vertex 10.82 0.507107 0
    endloop
  endfacet
  facet normal 0 0 -1
    outer loop
      vertex 9.82 9.02 0
      vertex 10.82 0.507107 0
      vertex 9.82 0.8 0
    endloop
  endfacet
  facet normal 0 0 -1
    outer loop
      vertex 9.31289 -1 0
      vertex 9.82 0.8 0
      vertex 10.82 0.507107 0
    endloop
  endfacet
  facet normal 0 0 -1
    outer loop
      vertex 9.02 0 0
      vertex 9.82 0.8 0
      vertex 9.31289 -1 0
    endloop
  endfacet
  facet normal 0 0 -1
    outer loop
      vertex 9.82 0.8 0
      vertex 9.02 0 0
      vertex 9.02 1.52588e-07 0
    endloop
  endfacet
  facet normal 0 0 -1
    outer loop
      vertex 12.41 10.8271 0
      vertex 11.41 11.12 0
      vertex 12.41 34.1629 0
    endloop
  endfacet
  facet normal 0 0 -1
    outer loop
      vertex 11.4029 9.82 0
      vertex 11.41 11.12 0
      vertex 12.41 10.8271 0
    endloop
  endfacet
  facet normal 0 0 -1
    outer loop
      vertex 11.11 10.82 0
      vertex 11.41 11.12 0
      vertex 11.4029 9.82 0
    endloop
  endfacet
  facet normal -0 0 -1
    outer loop
      vertex 12.41 34.1629 0
      vertex 11.41 11.12 0
      vertex 11.41 35.1629 0
    endloop
  endfacet
  facet normal 0 0 -1
    outer loop
      vertex 10.3129 9.82 0
      vertex 11.11 10.82 0
      vertex 11.4029 9.82 0
    endloop
  endfacet
  facet normal -0 0 -1
    outer loop
      vertex 10.82 9.31289 0
      vertex 9.82 9.02 0
      vertex 10.3129 9.82 0
    endloop
  endfacet
  facet normal 0 0 -1
    outer loop
      vertex 9.02 9.82 0
      vertex 10.3129 9.82 0
      vertex 9.82 9.02 0
    endloop
  endfacet
  facet normal 0 0 -1
    outer loop
      vertex 9.02 9.82 0
      vertex 11.11 10.82 0
      vertex 10.3129 9.82 0
    endloop
  endfacet
  facet normal 0 0 -1
    outer loop
      vertex 0.8 9.82 0
      vertex 11.11 10.82 0
      vertex 9.02 9.82 0
    endloop
  endfacet
  facet normal 0 0 -1
    outer loop
      vertex -0.492893 9.82 0
      vertex 1.52588e-07 9.02 0
      vertex 0 9.02 0
    endloop
  endfacet
  facet normal 0 0 -1
    outer loop
      vertex 1.52588e-07 9.02 0
      vertex -0.492893 9.82 0
      vertex 0.8 9.82 0
    endloop
  endfacet
  facet normal 0 0 -1
    outer loop
      vertex -1.29 10.82 0
      vertex 0.8 9.82 0
      vertex -0.492893 9.82 0
    endloop
  endfacet
  facet normal 0 0 -1
    outer loop
      vertex 0.8 9.82 0
      vertex -1.29 10.82 0
      vertex 11.11 10.82 0
    endloop
  endfacet
  facet normal 0 0 -1
    outer loop
      vertex -0.492893 9.82 0
      vertex -1.58289 9.82 0
      vertex -1.29 10.82 0
    endloop
  endfacet
  facet normal 0 0 -1
    outer loop
      vertex 0.8 0 0
      vertex 1.52588e-07 0.8 0
      vertex 0.8 1.52588e-07 0
    endloop
  endfacet
  facet normal 0 0 -1
    outer loop
      vertex 0 0.8 0
      vertex 0.8 0 0
      vertex 0.507107 -1 0
    endloop
  endfacet
  facet normal 0 0 -1
    outer loop
      vertex 0.8 0 0
      vertex 0 0.8 0
      vertex 1.52588e-07 0.8 0
    endloop
  endfacet
  facet normal 0 0 -1
    outer loop
      vertex -1 9.31289 0
      vertex 0 9.02 0
      vertex 0 0.8 0
    endloop
  endfacet
  facet normal 0 0 -1
    outer loop
      vertex -1 0.507107 0
      vertex 0 0.8 0
      vertex 0.507107 -1 0
    endloop
  endfacet
  facet normal 0 0 -1
    outer loop
      vertex -1 9.31289 0
      vertex 0 0.8 0
      vertex -1 0.507107 0
    endloop
  endfacet
  facet normal 0 0 -1
    outer loop
      vertex 0 9.02 0
      vertex -1 9.31289 0
      vertex -0.492893 9.82 0
    endloop
  endfacet
  facet normal 0 0 -1
    outer loop
      vertex -1.58289 9.82 0
      vertex -1.59 11.12 0
      vertex -1.29 10.82 0
    endloop
  endfacet
  facet normal 0 0 -1
    outer loop
      vertex -2.59 10.8271 0
      vertex -1.59 11.12 0
      vertex -1.58289 9.82 0
    endloop
  endfacet
  facet normal 0 0 -1
    outer loop
      vertex -2.59 34.1629 0
      vertex -1.59 11.12 0
      vertex -2.59 10.8271 0
    endloop
  endfacet
  facet normal 0 0 -1
    outer loop
      vertex -1.59 11.12 0
      vertex -2.59 34.1629 0
      vertex -1.59 35.1629 0
    endloop
  endfacet
  facet normal -0.707107 0.707107 0
    outer loop
      vertex -0.492893 9.82 0
      vertex -1 9.31289 0
      vertex -0.492893 9.82 16.3
    endloop
  endfacet
  facet normal -0.707107 0.707107 0
    outer loop
      vertex -0.492893 9.82 16.3
      vertex 0.507107 10.82 20
      vertex 0.507107 10.82 16.3
    endloop
  endfacet
  facet normal -0.707107 0.707107 -3.42805e-08
    outer loop
      vertex -0.492893 9.82 16.3
      vertex -1 9.31289 20
      vertex 0.507107 10.82 20
    endloop
  endfacet
  facet normal -0.707107 0.707107 0
    outer loop
      vertex -1 9.31289 20
      vertex -0.492893 9.82 16.3
      vertex -1 9.31289 0
    endloop
  endfacet
  facet normal -0.707107 -0.707107 0
    outer loop
      vertex 0.507107 -1 0
      vertex -1 0.507107 20
      vertex -1 0.507107 0
    endloop
  endfacet
  facet normal -0.707107 -0.707107 0
    outer loop
      vertex -1 0.507107 20
      vertex 0.507107 -1 0
      vertex 0.507107 -1 20
    endloop
  endfacet
  facet normal 0.707107 -0.707107 0
    outer loop
      vertex 9.31289 -1 0
      vertex 10.82 0.507107 20
      vertex 9.31289 -1 20
    endloop
  endfacet
  facet normal 0.707107 -0.707107 0
    outer loop
      vertex 10.82 0.507107 20
      vertex 9.31289 -1 0
      vertex 10.82 0.507107 0
    endloop
  endfacet
  facet normal -1 0 0
    outer loop
      vertex -1 0.507107 0
      vertex -1 9.31289 20
      vertex -1 9.31289 0
    endloop
  endfacet
  facet normal -1 -0 0
    outer loop
      vertex -1 9.31289 20
      vertex -1 0.507107 0
      vertex -1 0.507107 20
    endloop
  endfacet
  facet normal 1 -0 0
    outer loop
      vertex 10.82 0.507107 20
      vertex 10.82 9.31289 0
      vertex 10.82 9.31289 20
    endloop
  endfacet
  facet normal 1 0 0
    outer loop
      vertex 10.82 9.31289 0
      vertex 10.82 0.507107 20
      vertex 10.82 0.507107 0
    endloop
  endfacet
  facet normal 0 1 -0
    outer loop
      vertex 9.31289 10.82 16.3
      vertex 0.507107 10.82 20
      vertex 9.31289 10.82 20
    endloop
  endfacet
  facet normal 0 1 0
    outer loop
      vertex 0.507107 10.82 20
      vertex 9.31289 10.82 16.3
      vertex 0.507107 10.82 16.3
    endloop
  endfacet
  facet normal 0 -1 0
    outer loop
      vertex 0.507107 -1 0
      vertex 9.31289 -1 20
      vertex 0.507107 -1 20
    endloop
  endfacet
  facet normal 0 -1 -0
    outer loop
      vertex 9.31289 -1 20
      vertex 0.507107 -1 0
      vertex 9.31289 -1 0
    endloop
  endfacet
  facet normal -0.707107 -0.707107 0
    outer loop
      vertex 9.82 9.02 0
      vertex 9.02 9.82 20
      vertex 9.02 9.82 0
    endloop
  endfacet
  facet normal -0.707107 -0.707107 0
    outer loop
      vertex 9.02 9.82 20
      vertex 9.82 9.02 0
      vertex 9.82 9.02 20
    endloop
  endfacet
  facet normal 0.707107 -0.707107 0
    outer loop
      vertex 1.52588e-07 9.02 20
      vertex 0.8 9.82 0
      vertex 0.8 9.82 20
    endloop
  endfacet
  facet normal 0.707107 -0.707107 0
    outer loop
      vertex 0.8 9.82 0
      vertex 1.52588e-07 9.02 20
      vertex 1.52588e-07 9.02 0
    endloop
  endfacet
  facet normal 0 -1 0
    outer loop
      vertex 0 9.02 0
      vertex 1.52588e-07 9.02 20
      vertex 0 9.02 20
    endloop
  endfacet
  facet normal 0 -1 -0
    outer loop
      vertex 1.52588e-07 9.02 20
      vertex 0 9.02 0
      vertex 1.52588e-07 9.02 0
    endloop
  endfacet
  facet normal -0.760687 0.649119 0
    outer loop
      vertex 0 0.8 0
      vertex 1.52588e-07 0.8 20
      vertex 1.52588e-07 0.8 0
    endloop
  endfacet
  facet normal -0.760687 0.649119 0
    outer loop
      vertex 1.52588e-07 0.8 20
      vertex 0 0.8 0
      vertex 0 0.8 20
    endloop
  endfacet
  facet normal 0.707107 0.707107 0
    outer loop
      vertex 0.8 1.52588e-07 20
      vertex 1.52588e-07 0.8 0
      vertex 1.52588e-07 0.8 20
    endloop
  endfacet
  facet normal 0.707107 0.707107 0
    outer loop
      vertex 1.52588e-07 0.8 0
      vertex 0.8 1.52588e-07 20
      vertex 0.8 1.52588e-07 0
    endloop
  endfacet
  facet normal 0.649119 -0.760687 0
    outer loop
      vertex 0.8 0 0
      vertex 0.8 1.52588e-07 20
      vertex 0.8 0 20
    endloop
  endfacet
  facet normal 0.649119 -0.760687 0
    outer loop
      vertex 0.8 1.52588e-07 20
      vertex 0.8 0 0
      vertex 0.8 1.52588e-07 0
    endloop
  endfacet
  facet normal -0.707107 0.707107 0
    outer loop
      vertex 9.82 0.8 0
      vertex 9.02 1.52588e-07 20
      vertex 9.82 0.8 20
    endloop
  endfacet
  facet normal -0.707107 0.707107 0
    outer loop
      vertex 9.02 1.52588e-07 20
      vertex 9.82 0.8 0
      vertex 9.02 1.52588e-07 0
    endloop
  endfacet
  facet normal -1 0 0
    outer loop
      vertex 9.02 0 0
      vertex 9.02 1.52588e-07 20
      vertex 9.02 1.52588e-07 0
    endloop
  endfacet
  facet normal -1 -0 0
    outer loop
      vertex 9.02 1.52588e-07 20
      vertex 9.02 0 0
      vertex 9.02 0 20
    endloop
  endfacet
  facet normal 1 -0 0
    outer loop
      vertex 0 0.8 20
      vertex 0 9.02 0
      vertex 0 9.02 20
    endloop
  endfacet
  facet normal 1 0 0
    outer loop
      vertex 0 9.02 0
      vertex 0 0.8 20
      vertex 0 0.8 0
    endloop
  endfacet
  facet normal -1 0 0
    outer loop
      vertex 9.82 0.8 0
      vertex 9.82 9.02 20
      vertex 9.82 9.02 0
    endloop
  endfacet
  facet normal -1 -0 0
    outer loop
      vertex 9.82 9.02 20
      vertex 9.82 0.8 0
      vertex 9.82 0.8 20
    endloop
  endfacet
  facet normal 0 1 -0
    outer loop
      vertex 9.02 0 0
      vertex 0.8 0 20
      vertex 9.02 0 20
    endloop
  endfacet
  facet normal 0 1 0
    outer loop
      vertex 0.8 0 20
      vertex 9.02 0 0
      vertex 0.8 0 0
    endloop
  endfacet
  facet normal 0 -1 0
    outer loop
      vertex 0.8 9.82 0
      vertex 9.02 9.82 20
      vertex 0.8 9.82 20
    endloop
  endfacet
  facet normal 0 -1 -0
    outer loop
      vertex 9.02 9.82 20
      vertex 0.8 9.82 0
      vertex 9.02 9.82 0
    endloop
  endfacet
  facet normal 0 0 1
    outer loop
      vertex -1.59 35.1629 16.3
      vertex -2.59 34.1629 16.3
      vertex -1.59 11.12 16.3
    endloop
  endfacet
  facet normal -0 0 1
    outer loop
      vertex -1.29 10.82 16.3
      vertex -0.492893 9.82 16.3
      vertex 0.507107 10.82 16.3
    endloop
  endfacet
  facet normal -0 0 1
    outer loop
      vertex -1.58289 9.82 16.3
      vertex -0.492893 9.82 16.3
      vertex -1.29 10.82 16.3
    endloop
  endfacet
  facet normal 0 0 1
    outer loop
      vertex 11.41 11.12 16.3
      vertex 12.41 34.1629 16.3
      vertex 11.41 35.1629 16.3
    endloop
  endfacet
  facet normal 0 0 1
    outer loop
      vertex 12.41 34.1629 16.3
      vertex 11.41 11.12 16.3
      vertex 12.41 10.8271 16.3
    endloop
  endfacet
  facet normal 0 0 1
    outer loop
      vertex 11.41 11.12 16.3
      vertex 11.4029 9.82 16.3
      vertex 12.41 10.8271 16.3
    endloop
  endfacet
  facet normal 0 0 1
    outer loop
      vertex 11.41 11.12 16.3
      vertex 11.11 10.82 16.3
      vertex 11.4029 9.82 16.3
    endloop
  endfacet
  facet normal 0 0 1
    outer loop
      vertex 11.11 10.82 16.3
      vertex 10.3129 9.82 16.3
      vertex 11.4029 9.82 16.3
    endloop
  endfacet
  facet normal 0 -0 1
    outer loop
      vertex 10.3129 9.82 16.3
      vertex 11.11 10.82 16.3
      vertex 9.31289 10.82 16.3
    endloop
  endfacet
  facet normal 0 0 1
    outer loop
      vertex -1.59 11.12 16.3
      vertex -1.58289 9.82 16.3
      vertex -1.29 10.82 16.3
    endloop
  endfacet
  facet normal 0 0 1
    outer loop
      vertex -2.59 10.8271 16.3
      vertex -1.59 11.12 16.3
      vertex -2.59 34.1629 16.3
    endloop
  endfacet
  facet normal 0 0 1
    outer loop
      vertex -1.59 11.12 16.3
      vertex -2.59 10.8271 16.3
      vertex -1.58289 9.82 16.3
    endloop
  endfacet
  facet normal 0 0 0
    outer loop
      vertex -1.29 10.82 16.3
      vertex 0.507107 10.82 16.3
      vertex 9.31289 10.82 16.3
    endloop
  endfacet
  facet normal 0 -0 0
    outer loop
      vertex 9.31289 10.82 16.3
      vertex 11.11 10.82 16.3
      vertex -1.29 10.82 16.3
    endloop
  endfacet
  facet normal 0.707107 0.707107 0
    outer loop
      vertex 12.41 34.1629 16.3
      vertex 11.41 35.1629 0
      vertex 11.41 35.1629 16.3
    endloop
  endfacet
  facet normal 0.707107 0.707107 0
    outer loop
      vertex 11.41 35.1629 0
      vertex 12.41 34.1629 16.3
      vertex 12.41 34.1629 0
    endloop
  endfacet
  facet normal -0.707107 0.707107 0
    outer loop
      vertex -2.59 34.1629 0
      vertex -1.59 35.1629 16.3
      vertex -1.59 35.1629 0
    endloop
  endfacet
  facet normal -0.707107 0.707107 0
    outer loop
      vertex -1.59 35.1629 16.3
      vertex -2.59 34.1629 0
      vertex -2.59 34.1629 16.3
    endloop
  endfacet
  facet normal -0.707106 -0.707107 0
    outer loop
      vertex -2.59 10.8271 0
      vertex -1.58289 9.82 16.3
      vertex -2.59 10.8271 16.3
    endloop
  endfacet
  facet normal -0.707106 -0.707107 -0
    outer loop
      vertex -1.58289 9.82 16.3
      vertex -2.59 10.8271 0
      vertex -1.58289 9.82 0
    endloop
  endfacet
  facet normal 0.707106 -0.707107 0
    outer loop
      vertex 11.4029 9.82 0
      vertex 12.41 10.8271 16.3
      vertex 11.4029 9.82 16.3
    endloop
  endfacet
  facet normal 0.707106 -0.707107 0
    outer loop
      vertex 12.41 10.8271 16.3
      vertex 11.4029 9.82 0
      vertex 12.41 10.8271 0
    endloop
  endfacet
  facet normal -1 0 0
    outer loop
      vertex -2.59 10.8271 0
      vertex -2.59 34.1629 16.3
      vertex -2.59 34.1629 0
    endloop
  endfacet
  facet normal -1 -0 0
    outer loop
      vertex -2.59 34.1629 16.3
      vertex -2.59 10.8271 0
      vertex -2.59 10.8271 16.3
    endloop
  endfacet
  facet normal 1 -0 0
    outer loop
      vertex 12.41 10.8271 16.3
      vertex 12.41 34.1629 0
      vertex 12.41 34.1629 16.3
    endloop
  endfacet
  facet normal 1 0 0
    outer loop
      vertex 12.41 34.1629 0
      vertex 12.41 10.8271 16.3
      vertex 12.41 10.8271 0
    endloop
  endfacet
  facet normal 0 -1 0
    outer loop
      vertex -1.58289 9.82 0
      vertex -0.492893 9.82 16.3
      vertex -1.58289 9.82 16.3
    endloop
  endfacet
  facet normal 0 -1 -0
    outer loop
      vertex -0.492893 9.82 16.3
      vertex -1.58289 9.82 0
      vertex -0.492893 9.82 0
    endloop
  endfacet
  facet normal 0 -1 0
    outer loop
      vertex 10.3129 9.82 0
      vertex 11.4029 9.82 16.3
      vertex 10.3129 9.82 16.3
    endloop
  endfacet
  facet normal 0 -1 -0
    outer loop
      vertex 11.4029 9.82 16.3
      vertex 10.3129 9.82 0
      vertex 11.4029 9.82 0
    endloop
  endfacet
  facet normal 0.707106 0.707108 -0
    outer loop
      vertex -1.29 10.82 0
      vertex -1.59 11.12 16.3
      vertex -1.29 10.82 16.3
    endloop
  endfacet
  facet normal 0.707106 0.707108 0
    outer loop
      vertex -1.59 11.12 16.3
      vertex -1.29 10.82 0
      vertex -1.59 11.12 0
    endloop
  endfacet
  facet normal -0.707106 0.707108 0
    outer loop
      vertex 11.41 11.12 0
      vertex 11.11 10.82 16.3
      vertex 11.41 11.12 16.3
    endloop
  endfacet
  facet normal -0.707106 0.707108 0
    outer loop
      vertex 11.11 10.82 16.3
      vertex 11.41 11.12 0
      vertex 11.11 10.82 0
    endloop
  endfacet
  facet normal 1 -0 0
    outer loop
      vertex -1.59 11.12 16.3
      vertex -1.59 35.1629 0
      vertex -1.59 35.1629 16.3
    endloop
  endfacet
  facet normal 1 0 0
    outer loop
      vertex -1.59 35.1629 0
      vertex -1.59 11.12 16.3
      vertex -1.59 11.12 0
    endloop
  endfacet
  facet normal -1 0 0
    outer loop
      vertex 11.41 11.12 0
      vertex 11.41 35.1629 16.3
      vertex 11.41 35.1629 0
    endloop
  endfacet
  facet normal -1 -0 0
    outer loop
      vertex 11.41 35.1629 16.3
      vertex 11.41 11.12 0
      vertex 11.41 11.12 16.3
    endloop
  endfacet
  facet normal 0 1 -0
    outer loop
      vertex 11.11 10.82 0
      vertex -1.29 10.82 16.3
      vertex 11.11 10.82 16.3
    endloop
  endfacet
  facet normal 0 1 0
    outer loop
      vertex -1.29 10.82 16.3
      vertex 11.11 10.82 0
      vertex -1.29 10.82 0
    endloop
  endfacet
endsolid OpenSCAD_Model
