solid OpenSCAD_Model
  facet normal 0 0 1
    outer loop
      vertex 10.82 9.31289 20
      vertex 9.82 9.02 20
      vertex 10.82 0.507107 20
    endloop
  endfacet
  facet normal 0 0 1
    outer loop
      vertex 9.31289 10.82 20
      vertex 9.82 9.02 20
      vertex 10.82 9.31289 20
    endloop
  endfacet
  facet normal 0 0 1
    outer loop
      vertex 9.31289 10.82 20
      vertex 9.02 9.82 20
      vertex 9.82 9.02 20
    endloop
  endfacet
  facet normal 0 0 1
    outer loop
      vertex 9.31289 10.82 20
      vertex 0.8 9.82 20
      vertex 9.02 9.82 20
    endloop
  endfacet
  facet normal -0 0 1
    outer loop
      vertex 0.507107 10.82 20
      vertex 0.8 9.82 20
      vertex 9.31289 10.82 20
    endloop
  endfacet
  facet normal 0 0 1
    outer loop
      vertex 0 9.02 20
      vertex 0.8 9.82 20
      vertex 0.507107 10.82 20
    endloop
  endfacet
  facet normal 0 0 1
    outer loop
      vertex 0.8 9.82 20
      vertex 0 9.02 20
      vertex 1.52588e-07 9.02 20
    endloop
  endfacet
  facet normal -0 0 1
    outer loop
      vertex -1 9.31289 20
      vertex 0 9.02 20
      vertex 0.507107 10.82 20
    endloop
  endfacet
  facet normal -0 0 1
    outer loop
      vertex 9.82 0.8 20
      vertex 10.82 0.507107 20
      vertex 9.82 9.02 20
    endloop
  endfacet
  facet normal 0 0 1
    outer loop
      vertex 9.82 0.8 20
      vertex 9.31289 -1 20
      vertex 10.82 0.507107 20
    endloop
  endfacet
  facet normal 0 0 1
    outer loop
      vertex 9.02 0 20
      vertex 9.82 0.8 20
      vertex 9.02 1.52588e-07 20
    endloop
  endfacet
  facet normal 0 0 1
    outer loop
      vertex 9.82 0.8 20
      vertex 9.02 0 20
      vertex 9.31289 -1 20
    endloop
  endfacet
  facet normal -0 0 1
    outer loop
      vertex 0.8 0 20
      vertex 9.31289 -1 20
      vertex 9.02 0 20
    endloop
  endfacet
  facet normal -0 0 1
    outer loop
      vertex 0.507107 -1 20
      vertex 9.31289 -1 20
      vertex 0.8 0 20
    endloop
  endfacet
  facet normal 0 0 1
    outer loop
      vertex 1.52588e-07 0.8 20
      vertex 0.8 0 20
      vertex 0.8 1.52588e-07 20
    endloop
  endfacet
  facet normal -0 0 1
    outer loop
      vertex 0 0.8 20
      vertex 0.8 0 20
      vertex 1.52588e-07 0.8 20
    endloop
  endfacet
  facet normal 0 0 1
    outer loop
      vertex 0.8 0 20
      vertex 0 0.8 20
      vertex 0.507107 -1 20
    endloop
  endfacet
  facet normal 0 0 1
    outer loop
      vertex 0 0.8 20
      vertex -1 0.507107 20
      vertex 0.507107 -1 20
    endloop
  endfacet
  facet normal 0 0 1
    outer loop
      vertex 0 9.02 20
      vertex -1 9.31289 20
      vertex 0 0.8 20
    endloop
  endfacet
  facet normal 0 0 1
    outer loop
      vertex 0 0.8 20
      vertex -1 9.31289 20
      vertex -1 0.507107 20
    endloop
  endfacet
  facet normal 0.707107 0.707107 0
    outer loop
      vertex 10.82 9.31289 20
      vertex 9.31289 10.82 0
      vertex 9.31289 10.82 20
    endloop
  endfacet
  facet normal 0.707107 0.707107 0
    outer loop
      vertex 9.31289 10.82 0
      vertex 10.82 9.31289 20
      vertex 10.82 9.31289 0
    endloop
  endfacet
  facet normal 0 0 -1
    outer loop
      vertex 9.31289 -1 0
      vertex 0.8 0 0
      vertex 9.02 0 0
    endloop
  endfacet
  facet normal 0 0 -1
    outer loop
      vertex 9.31289 -1 0
      vertex 0.507107 -1 0
      vertex 0.8 0 0
    endloop
  endfacet
  facet normal 0 0 -1
    outer loop
      vertex 10.82 0.507107 0
      vertex 9.82 0.8 0
      vertex 10.82 9.31289 0
    endloop
  endfacet
  facet normal 0 0 -1
    outer loop
      vertex 9.31289 -1 0
      vertex 9.82 0.8 0
      vertex 10.82 0.507107 0
    endloop
  endfacet
  facet normal 0 0 -1
    outer loop
      vertex 9.02 0 0
      vertex 9.82 0.8 0
      vertex 9.31289 -1 0
    endloop
  endfacet
  facet normal 0 0 -1
    outer loop
      vertex 9.82 0.8 0
      vertex 9.02 0 0
      vertex 9.02 1.52588e-07 0
    endloop
  endfacet
  facet normal 0 0 -1
    outer loop
      vertex 9.82 9.02 0
      vertex 10.82 9.31289 0
      vertex 9.82 0.8 0
    endloop
  endfacet
  facet normal 0 0 -1
    outer loop
      vertex 9.82 9.02 0
      vertex 9.31289 10.82 0
      vertex 10.82 9.31289 0
    endloop
  endfacet
  facet normal 0 0 -1
    outer loop
      vertex 9.02 9.82 0
      vertex 9.31289 10.82 0
      vertex 9.82 9.02 0
    endloop
  endfacet
  facet normal 0 0 -1
    outer loop
      vertex 0.8 9.82 0
      vertex 9.31289 10.82 0
      vertex 9.02 9.82 0
    endloop
  endfacet
  facet normal 0 0 -1
    outer loop
      vertex 0.8 9.82 0
      vertex 0.507107 10.82 0
      vertex 9.31289 10.82 0
    endloop
  endfacet
  facet normal 0 0 -1
    outer loop
      vertex 0 9.02 0
      vertex 0.8 9.82 0
      vertex 1.52588e-07 9.02 0
    endloop
  endfacet
  facet normal -0 0 -1
    outer loop
      vertex 0.8 9.82 0
      vertex 0 9.02 0
      vertex 0.507107 10.82 0
    endloop
  endfacet
  facet normal 0 0 -1
    outer loop
      vertex 0 9.02 0
      vertex -1 9.31289 0
      vertex 0.507107 10.82 0
    endloop
  endfacet
  facet normal 0 0 -1
    outer loop
      vertex -1 9.31289 0
      vertex 0 9.02 0
      vertex -1 0.507107 0
    endloop
  endfacet
  facet normal 0 0 -1
    outer loop
      vertex 0.8 0 0
      vertex 1.52588e-07 0.8 0
      vertex 0.8 1.52588e-07 0
    endloop
  endfacet
  facet normal 0 0 -1
    outer loop
      vertex 0 0.8 0
      vertex 0.8 0 0
      vertex 0.507107 -1 0
    endloop
  endfacet
  facet normal 0 0 -1
    outer loop
      vertex 0.8 0 0
      vertex 0 0.8 0
      vertex 1.52588e-07 0.8 0
    endloop
  endfacet
  facet normal -0 0 -1
    outer loop
      vertex 0 0.8 0
      vertex -1 0.507107 0
      vertex 0 9.02 0
    endloop
  endfacet
  facet normal 0 0 -1
    outer loop
      vertex -1 0.507107 0
      vertex 0 0.8 0
      vertex 0.507107 -1 0
    endloop
  endfacet
  facet normal -0.707107 0.707107 0
    outer loop
      vertex -1 9.31289 0
      vertex 0.507107 10.82 20
      vertex 0.507107 10.82 0
    endloop
  endfacet
  facet normal -0.707107 0.707107 0
    outer loop
      vertex 0.507107 10.82 20
      vertex -1 9.31289 0
      vertex -1 9.31289 20
    endloop
  endfacet
  facet normal -0.707107 -0.707107 0
    outer loop
      vertex 0.507107 -1 0
      vertex -1 0.507107 20
      vertex -1 0.507107 0
    endloop
  endfacet
  facet normal -0.707107 -0.707107 0
    outer loop
      vertex -1 0.507107 20
      vertex 0.507107 -1 0
      vertex 0.507107 -1 20
    endloop
  endfacet
  facet normal 0.707107 -0.707107 0
    outer loop
      vertex 9.31289 -1 0
      vertex 10.82 0.507107 20
      vertex 9.31289 -1 20
    endloop
  endfacet
  facet normal 0.707107 -0.707107 0
    outer loop
      vertex 10.82 0.507107 20
      vertex 9.31289 -1 0
      vertex 10.82 0.507107 0
    endloop
  endfacet
  facet normal -1 0 0
    outer loop
      vertex -1 0.507107 0
      vertex -1 9.31289 20
      vertex -1 9.31289 0
    endloop
  endfacet
  facet normal -1 -0 0
    outer loop
      vertex -1 9.31289 20
      vertex -1 0.507107 0
      vertex -1 0.507107 20
    endloop
  endfacet
  facet normal 1 -0 0
    outer loop
      vertex 10.82 0.507107 20
      vertex 10.82 9.31289 0
      vertex 10.82 9.31289 20
    endloop
  endfacet
  facet normal 1 0 0
    outer loop
      vertex 10.82 9.31289 0
      vertex 10.82 0.507107 20
      vertex 10.82 0.507107 0
    endloop
  endfacet
  facet normal 0 1 -0
    outer loop
      vertex 9.31289 10.82 0
      vertex 0.507107 10.82 20
      vertex 9.31289 10.82 20
    endloop
  endfacet
  facet normal 0 1 0
    outer loop
      vertex 0.507107 10.82 20
      vertex 9.31289 10.82 0
      vertex 0.507107 10.82 0
    endloop
  endfacet
  facet normal 0 -1 0
    outer loop
      vertex 0.507107 -1 0
      vertex 9.31289 -1 20
      vertex 0.507107 -1 20
    endloop
  endfacet
  facet normal 0 -1 -0
    outer loop
      vertex 9.31289 -1 20
      vertex 0.507107 -1 0
      vertex 9.31289 -1 0
    endloop
  endfacet
  facet normal -0.707107 -0.707107 0
    outer loop
      vertex 9.82 9.02 0
      vertex 9.02 9.82 20
      vertex 9.02 9.82 0
    endloop
  endfacet
  facet normal -0.707107 -0.707107 0
    outer loop
      vertex 9.02 9.82 20
      vertex 9.82 9.02 0
      vertex 9.82 9.02 20
    endloop
  endfacet
  facet normal 0.707107 -0.707107 0
    outer loop
      vertex 1.52588e-07 9.02 20
      vertex 0.8 9.82 0
      vertex 0.8 9.82 20
    endloop
  endfacet
  facet normal 0.707107 -0.707107 0
    outer loop
      vertex 0.8 9.82 0
      vertex 1.52588e-07 9.02 20
      vertex 1.52588e-07 9.02 0
    endloop
  endfacet
  facet normal 0 -1 0
    outer loop
      vertex 0 9.02 0
      vertex 1.52588e-07 9.02 20
      vertex 0 9.02 20
    endloop
  endfacet
  facet normal 0 -1 -0
    outer loop
      vertex 1.52588e-07 9.02 20
      vertex 0 9.02 0
      vertex 1.52588e-07 9.02 0
    endloop
  endfacet
  facet normal -0.760687 0.649119 0
    outer loop
      vertex 0 0.8 0
      vertex 1.52588e-07 0.8 20
      vertex 1.52588e-07 0.8 0
    endloop
  endfacet
  facet normal -0.760687 0.649119 0
    outer loop
      vertex 1.52588e-07 0.8 20
      vertex 0 0.8 0
      vertex 0 0.8 20
    endloop
  endfacet
  facet normal 0.707107 0.707107 0
    outer loop
      vertex 0.8 1.52588e-07 20
      vertex 1.52588e-07 0.8 0
      vertex 1.52588e-07 0.8 20
    endloop
  endfacet
  facet normal 0.707107 0.707107 0
    outer loop
      vertex 1.52588e-07 0.8 0
      vertex 0.8 1.52588e-07 20
      vertex 0.8 1.52588e-07 0
    endloop
  endfacet
  facet normal 0.649119 -0.760687 0
    outer loop
      vertex 0.8 0 0
      vertex 0.8 1.52588e-07 20
      vertex 0.8 0 20
    endloop
  endfacet
  facet normal 0.649119 -0.760687 0
    outer loop
      vertex 0.8 1.52588e-07 20
      vertex 0.8 0 0
      vertex 0.8 1.52588e-07 0
    endloop
  endfacet
  facet normal -0.707107 0.707107 0
    outer loop
      vertex 9.82 0.8 0
      vertex 9.02 1.52588e-07 20
      vertex 9.82 0.8 20
    endloop
  endfacet
  facet normal -0.707107 0.707107 0
    outer loop
      vertex 9.02 1.52588e-07 20
      vertex 9.82 0.8 0
      vertex 9.02 1.52588e-07 0
    endloop
  endfacet
  facet normal -1 0 0
    outer loop
      vertex 9.02 0 0
      vertex 9.02 1.52588e-07 20
      vertex 9.02 1.52588e-07 0
    endloop
  endfacet
  facet normal -1 -0 0
    outer loop
      vertex 9.02 1.52588e-07 20
      vertex 9.02 0 0
      vertex 9.02 0 20
    endloop
  endfacet
  facet normal 1 -0 0
    outer loop
      vertex 0 0.8 20
      vertex 0 9.02 0
      vertex 0 9.02 20
    endloop
  endfacet
  facet normal 1 0 0
    outer loop
      vertex 0 9.02 0
      vertex 0 0.8 20
      vertex 0 0.8 0
    endloop
  endfacet
  facet normal -1 0 0
    outer loop
      vertex 9.82 0.8 0
      vertex 9.82 9.02 20
      vertex 9.82 9.02 0
    endloop
  endfacet
  facet normal -1 -0 0
    outer loop
      vertex 9.82 9.02 20
      vertex 9.82 0.8 0
      vertex 9.82 0.8 20
    endloop
  endfacet
  facet normal 0 1 -0
    outer loop
      vertex 9.02 0 0
      vertex 0.8 0 20
      vertex 9.02 0 20
    endloop
  endfacet
  facet normal 0 1 0
    outer loop
      vertex 0.8 0 20
      vertex 9.02 0 0
      vertex 0.8 0 0
    endloop
  endfacet
  facet normal 0 -1 0
    outer loop
      vertex 0.8 9.82 0
      vertex 9.02 9.82 20
      vertex 0.8 9.82 20
    endloop
  endfacet
  facet normal 0 -1 -0
    outer loop
      vertex 9.02 9.82 20
      vertex 0.8 9.82 0
      vertex 9.02 9.82 0
    endloop
  endfacet
endsolid OpenSCAD_Model
