solid OpenSCAD_Model
  facet normal 0 0 1
    outer loop
      vertex 15.2 4.83345 8
      vertex 16 7.37157 8
      vertex 15.2 6.96655 8
    endloop
  endfacet
  facet normal -0 0 1
    outer loop
      vertex 12.8665 9.3 8
      vertex 16 7.37157 8
      vertex 13.1716 10.2 8
    endloop
  endfacet
  facet normal 0 0 1
    outer loop
      vertex 16 7.37157 8
      vertex 12.8665 9.3 8
      vertex 15.2 6.96655 8
    endloop
  endfacet
  facet normal 0 0 1
    outer loop
      vertex 13.1716 10.2 8
      vertex 8.8 9.3 8
      vertex 12.8665 9.3 8
    endloop
  endfacet
  facet normal 0 0 1
    outer loop
      vertex 8.8 9.3 8
      vertex 7 9.3 8
      vertex 8.8 8.3 8
    endloop
  endfacet
  facet normal 0 0 1
    outer loop
      vertex 13.1716 10.2 8
      vertex 7 9.3 8
      vertex 8.8 9.3 8
    endloop
  endfacet
  facet normal -0 0 1
    outer loop
      vertex 0 10.2 8
      vertex 7 9.3 8
      vertex 13.1716 10.2 8
    endloop
  endfacet
  facet normal 0 0 1
    outer loop
      vertex 1 9.3 8
      vertex 0 10.2 8
      vertex 1 2.5 8
    endloop
  endfacet
  facet normal 0 0 1
    outer loop
      vertex 7 9.3 8
      vertex 0 10.2 8
      vertex 1 9.3 8
    endloop
  endfacet
  facet normal 0 0 1
    outer loop
      vertex 16 7.37157 8
      vertex 15.2 4.83345 8
      vertex 16 1.5 8
    endloop
  endfacet
  facet normal -0 0 1
    outer loop
      vertex 12.8665 2.5 8
      vertex 16 1.5 8
      vertex 15.2 4.83345 8
    endloop
  endfacet
  facet normal 0 0 1
    outer loop
      vertex 0 1.5 8
      vertex 12.8665 2.5 8
      vertex 1 2.5 8
    endloop
  endfacet
  facet normal 0 0 1
    outer loop
      vertex 12.8665 2.5 8
      vertex 0 1.5 8
      vertex 16 1.5 8
    endloop
  endfacet
  facet normal 0 0 1
    outer loop
      vertex 0 1.5 8
      vertex 1 2.5 8
      vertex 0 10.2 8
    endloop
  endfacet
  facet normal 0 0 1
    outer loop
      vertex 8.8 8.3 8
      vertex 7 9.3 8
      vertex 7 8.3 8
    endloop
  endfacet
  facet normal -0.707107 0.707107 0
    outer loop
      vertex 15.2 4.83345 0
      vertex 12.8665 2.5 8
      vertex 15.2 4.83345 8
    endloop
  endfacet
  facet normal -0.707107 0.707107 0
    outer loop
      vertex 12.8665 2.5 8
      vertex 15.2 4.83345 0
      vertex 12.8665 2.5 0
    endloop
  endfacet
  facet normal 0 0 -1
    outer loop
      vertex 8.8 8.3 0
      vertex 7 8.3 0
      vertex 8.8 9.3 0
    endloop
  endfacet
  facet normal 0 0 -1
    outer loop
      vertex 17 0 0
      vertex 16 1.5 0
      vertex 17 1.5 0
    endloop
  endfacet
  facet normal 0 0 -1
    outer loop
      vertex 16 1.5 0
      vertex 15.2 4.83345 0
      vertex 16 7.37157 0
    endloop
  endfacet
  facet normal 0 0 -1
    outer loop
      vertex 16 1.5 0
      vertex 12.8665 2.5 0
      vertex 15.2 4.83345 0
    endloop
  endfacet
  facet normal 0 0 -1
    outer loop
      vertex 17 0 0
      vertex 12.8665 2.5 0
      vertex 16 1.5 0
    endloop
  endfacet
  facet normal 0 0 -1
    outer loop
      vertex -1 0 0
      vertex 12.8665 2.5 0
      vertex 17 0 0
    endloop
  endfacet
  facet normal 0 0 -1
    outer loop
      vertex 0 10.2 0
      vertex 1 2.5 0
      vertex 0 1.5 0
    endloop
  endfacet
  facet normal -0 0 -1
    outer loop
      vertex 12.8665 2.5 0
      vertex -1 0 0
      vertex 1 2.5 0
    endloop
  endfacet
  facet normal 0 0 -1
    outer loop
      vertex 1 2.5 0
      vertex -1 0 0
      vertex 0 1.5 0
    endloop
  endfacet
  facet normal -0 0 -1
    outer loop
      vertex 0 1.5 0
      vertex -1 0 0
      vertex -1 1.5 0
    endloop
  endfacet
  facet normal 0 0 -1
    outer loop
      vertex 15.2 6.96655 0
      vertex 16 7.37157 0
      vertex 15.2 4.83345 0
    endloop
  endfacet
  facet normal 0 0 -1
    outer loop
      vertex 12.8665 9.3 0
      vertex 16 7.37157 0
      vertex 15.2 6.96655 0
    endloop
  endfacet
  facet normal 0 0 -1
    outer loop
      vertex 16 7.37157 0
      vertex 12.8665 9.3 0
      vertex 13.1716 10.2 0
    endloop
  endfacet
  facet normal 0 0 -1
    outer loop
      vertex 8.8 9.3 0
      vertex 13.1716 10.2 0
      vertex 12.8665 9.3 0
    endloop
  endfacet
  facet normal 0 0 -1
    outer loop
      vertex 7 9.3 0
      vertex 8.8 9.3 0
      vertex 7 8.3 0
    endloop
  endfacet
  facet normal 0 0 -1
    outer loop
      vertex 7 9.3 0
      vertex 13.1716 10.2 0
      vertex 8.8 9.3 0
    endloop
  endfacet
  facet normal 0 0 -1
    outer loop
      vertex 0 10.2 0
      vertex 7 9.3 0
      vertex 1 9.3 0
    endloop
  endfacet
  facet normal 0 0 -1
    outer loop
      vertex 7 9.3 0
      vertex 0 10.2 0
      vertex 13.1716 10.2 0
    endloop
  endfacet
  facet normal 0 0 -1
    outer loop
      vertex 1 2.5 0
      vertex 0 10.2 0
      vertex 1 9.3 0
    endloop
  endfacet
  facet normal -0.707107 -0.707107 0
    outer loop
      vertex 12.8665 9.3 0
      vertex 15.2 6.96655 8
      vertex 12.8665 9.3 8
    endloop
  endfacet
  facet normal -0.707107 -0.707107 -0
    outer loop
      vertex 15.2 6.96655 8
      vertex 12.8665 9.3 0
      vertex 15.2 6.96655 0
    endloop
  endfacet
  facet normal 1 -0 0
    outer loop
      vertex 1 2.5 8
      vertex 1 9.3 0
      vertex 1 9.3 8
    endloop
  endfacet
  facet normal 1 0 0
    outer loop
      vertex 1 9.3 0
      vertex 1 2.5 8
      vertex 1 2.5 0
    endloop
  endfacet
  facet normal -1 0 0
    outer loop
      vertex 15.2 4.83345 0
      vertex 15.2 6.96655 8
      vertex 15.2 6.96655 0
    endloop
  endfacet
  facet normal -1 -0 0
    outer loop
      vertex 15.2 6.96655 8
      vertex 15.2 4.83345 0
      vertex 15.2 4.83345 8
    endloop
  endfacet
  facet normal 0 1 -0
    outer loop
      vertex 12.8665 2.5 0
      vertex 1 2.5 8
      vertex 12.8665 2.5 8
    endloop
  endfacet
  facet normal 0 1 0
    outer loop
      vertex 1 2.5 8
      vertex 12.8665 2.5 0
      vertex 1 2.5 0
    endloop
  endfacet
  facet normal 0 -1 0
    outer loop
      vertex 1 9.3 0
      vertex 7 9.3 8
      vertex 1 9.3 8
    endloop
  endfacet
  facet normal 0 -1 -0
    outer loop
      vertex 7 9.3 8
      vertex 1 9.3 0
      vertex 7 9.3 0
    endloop
  endfacet
  facet normal 0 -1 0
    outer loop
      vertex 8.8 9.3 0
      vertex 12.8665 9.3 8
      vertex 8.8 9.3 8
    endloop
  endfacet
  facet normal 0 -1 -0
    outer loop
      vertex 12.8665 9.3 8
      vertex 8.8 9.3 0
      vertex 12.8665 9.3 0
    endloop
  endfacet
  facet normal -1 0 0
    outer loop
      vertex 7 8.3 0
      vertex 7 9.3 8
      vertex 7 9.3 0
    endloop
  endfacet
  facet normal -1 -0 0
    outer loop
      vertex 7 9.3 8
      vertex 7 8.3 0
      vertex 7 8.3 8
    endloop
  endfacet
  facet normal 1 -0 0
    outer loop
      vertex 8.8 8.3 8
      vertex 8.8 9.3 0
      vertex 8.8 9.3 8
    endloop
  endfacet
  facet normal 1 0 0
    outer loop
      vertex 8.8 9.3 0
      vertex 8.8 8.3 8
      vertex 8.8 8.3 0
    endloop
  endfacet
  facet normal 0 -1 0
    outer loop
      vertex 7 8.3 0
      vertex 8.8 8.3 8
      vertex 7 8.3 8
    endloop
  endfacet
  facet normal 0 -1 -0
    outer loop
      vertex 8.8 8.3 8
      vertex 7 8.3 0
      vertex 8.8 8.3 0
    endloop
  endfacet
  facet normal -1 0 0
    outer loop
      vertex 0 1.5 0
      vertex 0 10.2 8
      vertex 0 10.2 0
    endloop
  endfacet
  facet normal -1 -0 0
    outer loop
      vertex 0 10.2 8
      vertex 0 1.5 0
      vertex 0 1.5 8
    endloop
  endfacet
  facet normal 1 -0 0
    outer loop
      vertex 16 1.5 8
      vertex 16 7.37157 0
      vertex 16 7.37157 8
    endloop
  endfacet
  facet normal 1 0 0
    outer loop
      vertex 16 7.37157 0
      vertex 16 1.5 8
      vertex 16 1.5 0
    endloop
  endfacet
  facet normal 0 1 -0
    outer loop
      vertex 13.1716 10.2 0
      vertex 0 10.2 8
      vertex 13.1716 10.2 8
    endloop
  endfacet
  facet normal 0 1 0
    outer loop
      vertex 0 10.2 8
      vertex 13.1716 10.2 0
      vertex 0 10.2 0
    endloop
  endfacet
  facet normal 0 1 0
    outer loop
      vertex 18 1.5 11
      vertex 17 1.5 12
      vertex 17.1045 1.5 11.9945
    endloop
  endfacet
  facet normal 0 1 0
    outer loop
      vertex 17 1.5 12
      vertex 16 1.5 8
      vertex -1 1.5 12
    endloop
  endfacet
  facet normal 0 1 0
    outer loop
      vertex 18 1.5 11
      vertex 17.1045 1.5 11.9945
      vertex 17.2079 1.5 11.9781
    endloop
  endfacet
  facet normal 0 1 -0
    outer loop
      vertex 0 1.5 8
      vertex -1 1.5 12
      vertex 16 1.5 8
    endloop
  endfacet
  facet normal 0 1 0
    outer loop
      vertex 18 1.5 11
      vertex 17.2079 1.5 11.9781
      vertex 17.309 1.5 11.9511
    endloop
  endfacet
  facet normal -0 1 0
    outer loop
      vertex -2 1.5 11
      vertex -1 1.5 12
      vertex 0 1.5 8
    endloop
  endfacet
  facet normal 0 1 0
    outer loop
      vertex 18 1.5 11
      vertex 17.309 1.5 11.9511
      vertex 17.4067 1.5 11.9135
    endloop
  endfacet
  facet normal 0 1 0
    outer loop
      vertex -1 1.5 12
      vertex -2 1.5 11
      vertex -1.10453 1.5 11.9945
    endloop
  endfacet
  facet normal 0 1 0
    outer loop
      vertex 18 1.5 11
      vertex 17.4067 1.5 11.9135
      vertex 17.5 1.5 11.866
    endloop
  endfacet
  facet normal 0 1 0
    outer loop
      vertex -1.10453 1.5 11.9945
      vertex -2 1.5 11
      vertex -1.20791 1.5 11.9781
    endloop
  endfacet
  facet normal 0 1 0
    outer loop
      vertex 18 1.5 11
      vertex 17.5 1.5 11.866
      vertex 17.5878 1.5 11.809
    endloop
  endfacet
  facet normal 0 1 0
    outer loop
      vertex -1.20791 1.5 11.9781
      vertex -2 1.5 11
      vertex -1.30902 1.5 11.9511
    endloop
  endfacet
  facet normal 0 1 0
    outer loop
      vertex 18 1.5 11
      vertex 17.5878 1.5 11.809
      vertex 17.6691 1.5 11.7431
    endloop
  endfacet
  facet normal 0 1 0
    outer loop
      vertex -1.30902 1.5 11.9511
      vertex -2 1.5 11
      vertex -1.40674 1.5 11.9135
    endloop
  endfacet
  facet normal 0 1 0
    outer loop
      vertex 18 1.5 11
      vertex 17.6691 1.5 11.7431
      vertex 17.7431 1.5 11.6691
    endloop
  endfacet
  facet normal 0 1 0
    outer loop
      vertex -1.40674 1.5 11.9135
      vertex -2 1.5 11
      vertex -1.5 1.5 11.866
    endloop
  endfacet
  facet normal 0 1 0
    outer loop
      vertex 18 1.5 11
      vertex 17.7431 1.5 11.6691
      vertex 17.809 1.5 11.5878
    endloop
  endfacet
  facet normal 0 1 0
    outer loop
      vertex -1.5 1.5 11.866
      vertex -2 1.5 11
      vertex -1.58778 1.5 11.809
    endloop
  endfacet
  facet normal 0 1 0
    outer loop
      vertex 18 1.5 11
      vertex 17.809 1.5 11.5878
      vertex 17.866 1.5 11.5
    endloop
  endfacet
  facet normal 0 1 0
    outer loop
      vertex -1.58778 1.5 11.809
      vertex -2 1.5 11
      vertex -1.66913 1.5 11.7431
    endloop
  endfacet
  facet normal 0 1 0
    outer loop
      vertex 18 1.5 11
      vertex 17.866 1.5 11.5
      vertex 17.9135 1.5 11.4067
    endloop
  endfacet
  facet normal 0 1 0
    outer loop
      vertex -1.66913 1.5 11.7431
      vertex -2 1.5 11
      vertex -1.74314 1.5 11.6691
    endloop
  endfacet
  facet normal 0 1 0
    outer loop
      vertex 18 1.5 11
      vertex 17.9135 1.5 11.4067
      vertex 17.9511 1.5 11.309
    endloop
  endfacet
  facet normal 0 1 0
    outer loop
      vertex -1.74314 1.5 11.6691
      vertex -2 1.5 11
      vertex -1.80902 1.5 11.5878
    endloop
  endfacet
  facet normal 0 1 0
    outer loop
      vertex 18 1.5 11
      vertex 17.9511 1.5 11.309
      vertex 17.9781 1.5 11.2079
    endloop
  endfacet
  facet normal 0 1 0
    outer loop
      vertex -1.80902 1.5 11.5878
      vertex -2 1.5 11
      vertex -1.86602 1.5 11.5
    endloop
  endfacet
  facet normal 0 1 0
    outer loop
      vertex 18 1.5 11
      vertex 17.9781 1.5 11.2079
      vertex 17.9945 1.5 11.1045
    endloop
  endfacet
  facet normal 0 1 0
    outer loop
      vertex -1.86602 1.5 11.5
      vertex -2 1.5 11
      vertex -1.91354 1.5 11.4067
    endloop
  endfacet
  facet normal 0 1 0
    outer loop
      vertex 17 1.5 12
      vertex 18 1.5 11
      vertex 16 1.5 8
    endloop
  endfacet
  facet normal 0 1 0
    outer loop
      vertex -1.91354 1.5 11.4067
      vertex -2 1.5 11
      vertex -1.95106 1.5 11.309
    endloop
  endfacet
  facet normal 0 1 0
    outer loop
      vertex -1.95106 1.5 11.309
      vertex -2 1.5 11
      vertex -1.97815 1.5 11.2079
    endloop
  endfacet
  facet normal 0 1 -0
    outer loop
      vertex 18 1.5 1
      vertex 16 1.5 8
      vertex 18 1.5 11
    endloop
  endfacet
  facet normal 0 1 0
    outer loop
      vertex 17 1.5 0
      vertex 18 1.5 1
      vertex 17.9945 1.5 0.895472
    endloop
  endfacet
  facet normal 0 1 0
    outer loop
      vertex 17 1.5 0
      vertex 17.9945 1.5 0.895472
      vertex 17.9781 1.5 0.792089
    endloop
  endfacet
  facet normal 0 1 0
    outer loop
      vertex 17 1.5 0
      vertex 17.9781 1.5 0.792089
      vertex 17.9511 1.5 0.690984
    endloop
  endfacet
  facet normal 0 1 0
    outer loop
      vertex 17 1.5 0
      vertex 17.9511 1.5 0.690984
      vertex 17.9135 1.5 0.593264
    endloop
  endfacet
  facet normal 0 1 0
    outer loop
      vertex 17 1.5 0
      vertex 17.9135 1.5 0.593264
      vertex 17.866 1.5 0.500001
    endloop
  endfacet
  facet normal 0 1 0
    outer loop
      vertex 17 1.5 0
      vertex 17.866 1.5 0.500001
      vertex 17.809 1.5 0.412215
    endloop
  endfacet
  facet normal 0 1 0
    outer loop
      vertex 17 1.5 0
      vertex 17.809 1.5 0.412215
      vertex 17.7431 1.5 0.33087
    endloop
  endfacet
  facet normal 0 1 0
    outer loop
      vertex 17 1.5 0
      vertex 17.7431 1.5 0.33087
      vertex 17.6691 1.5 0.256856
    endloop
  endfacet
  facet normal 0 1 0
    outer loop
      vertex 17 1.5 0
      vertex 17.6691 1.5 0.256856
      vertex 17.5878 1.5 0.190984
    endloop
  endfacet
  facet normal 0 1 0
    outer loop
      vertex 17 1.5 0
      vertex 17.5878 1.5 0.190984
      vertex 17.5 1.5 0.133975
    endloop
  endfacet
  facet normal 0 1 0
    outer loop
      vertex 17 1.5 0
      vertex 17.5 1.5 0.133975
      vertex 17.4067 1.5 0.0864553
    endloop
  endfacet
  facet normal 0 1 0
    outer loop
      vertex 17 1.5 0
      vertex 17.4067 1.5 0.0864553
      vertex 17.309 1.5 0.0489435
    endloop
  endfacet
  facet normal 0 1 0
    outer loop
      vertex 17 1.5 0
      vertex 17.309 1.5 0.0489435
      vertex 17.2079 1.5 0.0218525
    endloop
  endfacet
  facet normal 0 1 0
    outer loop
      vertex 17 1.5 0
      vertex 17.2079 1.5 0.0218525
      vertex 17.1045 1.5 0.00547886
    endloop
  endfacet
  facet normal 0 1 0
    outer loop
      vertex 18 1.5 1
      vertex 17 1.5 0
      vertex 16 1.5 0
    endloop
  endfacet
  facet normal 0 1 0
    outer loop
      vertex 18 1.5 1
      vertex 16 1.5 0
      vertex 16 1.5 8
    endloop
  endfacet
  facet normal 0 1 0
    outer loop
      vertex -1.97815 1.5 11.2079
      vertex -2 1.5 11
      vertex -1.99452 1.5 11.1045
    endloop
  endfacet
  facet normal 0 1 0
    outer loop
      vertex 0 1.5 8
      vertex -2 1.5 1
      vertex -2 1.5 11
    endloop
  endfacet
  facet normal 0 1 -0
    outer loop
      vertex 0 1.5 0
      vertex -2 1.5 1
      vertex 0 1.5 8
    endloop
  endfacet
  facet normal 0 1 -0
    outer loop
      vertex -1 1.5 0
      vertex -2 1.5 1
      vertex 0 1.5 0
    endloop
  endfacet
  facet normal 0 1 0
    outer loop
      vertex -2 1.5 1
      vertex -1 1.5 0
      vertex -1.99452 1.5 0.895472
    endloop
  endfacet
  facet normal 0 1 0
    outer loop
      vertex -1.99452 1.5 0.895472
      vertex -1 1.5 0
      vertex -1.97815 1.5 0.792089
    endloop
  endfacet
  facet normal 0 1 0
    outer loop
      vertex -1.97815 1.5 0.792089
      vertex -1 1.5 0
      vertex -1.95106 1.5 0.690984
    endloop
  endfacet
  facet normal 0 1 0
    outer loop
      vertex -1.95106 1.5 0.690984
      vertex -1 1.5 0
      vertex -1.91354 1.5 0.593264
    endloop
  endfacet
  facet normal 0 1 0
    outer loop
      vertex -1.91354 1.5 0.593264
      vertex -1 1.5 0
      vertex -1.86602 1.5 0.500001
    endloop
  endfacet
  facet normal 0 1 0
    outer loop
      vertex -1.86602 1.5 0.500001
      vertex -1 1.5 0
      vertex -1.80902 1.5 0.412215
    endloop
  endfacet
  facet normal 0 1 0
    outer loop
      vertex -1.80902 1.5 0.412215
      vertex -1 1.5 0
      vertex -1.74314 1.5 0.33087
    endloop
  endfacet
  facet normal 0 1 0
    outer loop
      vertex -1.74314 1.5 0.33087
      vertex -1 1.5 0
      vertex -1.66913 1.5 0.256856
    endloop
  endfacet
  facet normal 0 1 0
    outer loop
      vertex -1.66913 1.5 0.256856
      vertex -1 1.5 0
      vertex -1.58778 1.5 0.190984
    endloop
  endfacet
  facet normal 0 1 0
    outer loop
      vertex -1.58778 1.5 0.190984
      vertex -1 1.5 0
      vertex -1.5 1.5 0.133975
    endloop
  endfacet
  facet normal 0 1 0
    outer loop
      vertex -1.40674 1.5 0.0864553
      vertex -1 1.5 0
      vertex -1.30902 1.5 0.0489435
    endloop
  endfacet
  facet normal 0 1 0
    outer loop
      vertex -1.30902 1.5 0.0489435
      vertex -1 1.5 0
      vertex -1.20791 1.5 0.0218525
    endloop
  endfacet
  facet normal 0 1 0
    outer loop
      vertex -1.5 1.5 0.133975
      vertex -1 1.5 0
      vertex -1.40674 1.5 0.0864553
    endloop
  endfacet
  facet normal 0 1 0
    outer loop
      vertex -1.20791 1.5 0.0218525
      vertex -1 1.5 0
      vertex -1.10453 1.5 0.00547886
    endloop
  endfacet
  facet normal 0.707107 0.707107 0
    outer loop
      vertex 16 7.37157 8
      vertex 13.1716 10.2 0
      vertex 13.1716 10.2 8
    endloop
  endfacet
  facet normal 0.707107 0.707107 0
    outer loop
      vertex 13.1716 10.2 0
      vertex 16 7.37157 8
      vertex 16 7.37157 0
    endloop
  endfacet
  facet normal -0.998629 0 0.0523432
    outer loop
      vertex -2 0 11
      vertex -1.99452 1.5 11.1045
      vertex -2 1.5 11
    endloop
  endfacet
  facet normal -0.998629 0 0.0523432
    outer loop
      vertex -1.99452 1.5 11.1045
      vertex -2 0 11
      vertex -1.99452 0 11.1045
    endloop
  endfacet
  facet normal 0.987688 -0 0.156437
    outer loop
      vertex 17.9781 0 11.2079
      vertex 17.9945 1.5 11.1045
      vertex 17.9781 1.5 11.2079
    endloop
  endfacet
  facet normal 0.987688 0 0.156437
    outer loop
      vertex 17.9945 1.5 11.1045
      vertex 17.9781 0 11.2079
      vertex 17.9945 0 11.1045
    endloop
  endfacet
  facet normal 0.0523432 0 0.998629
    outer loop
      vertex 17 1.5 12
      vertex 17.1045 0 11.9945
      vertex 17.1045 1.5 11.9945
    endloop
  endfacet
  facet normal 0.0523432 0 0.998629
    outer loop
      vertex 17.1045 0 11.9945
      vertex 17 1.5 12
      vertex 17 0 12
    endloop
  endfacet
  facet normal -0 0 1
    outer loop
      vertex -1 1.5 12
      vertex 17 0 12
      vertex 17 1.5 12
    endloop
  endfacet
  facet normal 0 0 1
    outer loop
      vertex 17 0 12
      vertex -1 1.5 12
      vertex -1 0 12
    endloop
  endfacet
  facet normal -1 0 0
    outer loop
      vertex -2 0 1
      vertex -2 1.5 11
      vertex -2 1.5 1
    endloop
  endfacet
  facet normal -1 -0 0
    outer loop
      vertex -2 1.5 11
      vertex -2 0 1
      vertex -2 0 11
    endloop
  endfacet
  facet normal 1 -0 0
    outer loop
      vertex 18 0 11
      vertex 18 1.5 1
      vertex 18 1.5 11
    endloop
  endfacet
  facet normal 1 0 0
    outer loop
      vertex 18 1.5 1
      vertex 18 0 11
      vertex 18 0 1
    endloop
  endfacet
  facet normal -0.25882 0 0.965926
    outer loop
      vertex -1.30902 1.5 11.9511
      vertex -1.20791 0 11.9781
      vertex -1.20791 1.5 11.9781
    endloop
  endfacet
  facet normal -0.25882 0 0.965926
    outer loop
      vertex -1.20791 0 11.9781
      vertex -1.30902 1.5 11.9511
      vertex -1.30902 0 11.9511
    endloop
  endfacet
  facet normal -0.998629 0 -0.0523432
    outer loop
      vertex -1.99452 0 0.895472
      vertex -2 1.5 1
      vertex -1.99452 1.5 0.895472
    endloop
  endfacet
  facet normal -0.998629 -0 -0.0523432
    outer loop
      vertex -2 1.5 1
      vertex -1.99452 0 0.895472
      vertex -2 0 1
    endloop
  endfacet
  facet normal 0 -1 0
    outer loop
      vertex -2 0 11
      vertex -1 0 12
      vertex -1.10453 0 11.9945
    endloop
  endfacet
  facet normal 0 -1 0
    outer loop
      vertex -1 0 12
      vertex -1 0 0
      vertex 17 0 12
    endloop
  endfacet
  facet normal 0 -1 0
    outer loop
      vertex -2 0 11
      vertex -1.10453 0 11.9945
      vertex -1.20791 0 11.9781
    endloop
  endfacet
  facet normal 0 -1 0
    outer loop
      vertex 17 0 0
      vertex 17 0 12
      vertex -1 0 0
    endloop
  endfacet
  facet normal 0 -1 0
    outer loop
      vertex -2 0 11
      vertex -1.20791 0 11.9781
      vertex -1.30902 0 11.9511
    endloop
  endfacet
  facet normal -0 -1 0
    outer loop
      vertex 18 0 11
      vertex 17 0 12
      vertex 17 0 0
    endloop
  endfacet
  facet normal 0 -1 0
    outer loop
      vertex -2 0 11
      vertex -1.30902 0 11.9511
      vertex -1.40674 0 11.9135
    endloop
  endfacet
  facet normal 0 -1 0
    outer loop
      vertex 17 0 12
      vertex 18 0 11
      vertex 17.1045 0 11.9945
    endloop
  endfacet
  facet normal 0 -1 0
    outer loop
      vertex -2 0 11
      vertex -1.40674 0 11.9135
      vertex -1.5 0 11.866
    endloop
  endfacet
  facet normal 0 -1 0
    outer loop
      vertex 17.1045 0 11.9945
      vertex 18 0 11
      vertex 17.2079 0 11.9781
    endloop
  endfacet
  facet normal 0 -1 0
    outer loop
      vertex -2 0 11
      vertex -1.5 0 11.866
      vertex -1.58778 0 11.809
    endloop
  endfacet
  facet normal 0 -1 -0
    outer loop
      vertex -1 0 12
      vertex -2 0 11
      vertex -1 0 0
    endloop
  endfacet
  facet normal 0 -1 0
    outer loop
      vertex -2 0 11
      vertex -1.58778 0 11.809
      vertex -1.66913 0 11.7431
    endloop
  endfacet
  facet normal 0 -1 0
    outer loop
      vertex 17.2079 0 11.9781
      vertex 18 0 11
      vertex 17.309 0 11.9511
    endloop
  endfacet
  facet normal 0 -1 0
    outer loop
      vertex -2 0 11
      vertex -1.66913 0 11.7431
      vertex -1.74314 0 11.6691
    endloop
  endfacet
  facet normal 0 -1 0
    outer loop
      vertex 17.5 0 11.866
      vertex 18 0 11
      vertex 17.5878 0 11.809
    endloop
  endfacet
  facet normal 0 -1 0
    outer loop
      vertex -2 0 11
      vertex -1.74314 0 11.6691
      vertex -1.80902 0 11.5878
    endloop
  endfacet
  facet normal 0 -1 0
    outer loop
      vertex 17.5878 0 11.809
      vertex 18 0 11
      vertex 17.6691 0 11.7431
    endloop
  endfacet
  facet normal 0 -1 0
    outer loop
      vertex -2 0 11
      vertex -1.80902 0 11.5878
      vertex -1.86602 0 11.5
    endloop
  endfacet
  facet normal 0 -1 0
    outer loop
      vertex 17.6691 0 11.7431
      vertex 18 0 11
      vertex 17.7431 0 11.6691
    endloop
  endfacet
  facet normal 0 -1 0
    outer loop
      vertex -2 0 11
      vertex -1.86602 0 11.5
      vertex -1.91354 0 11.4067
    endloop
  endfacet
  facet normal 0 -1 0
    outer loop
      vertex 17.7431 0 11.6691
      vertex 18 0 11
      vertex 17.809 0 11.5878
    endloop
  endfacet
  facet normal 0 -1 0
    outer loop
      vertex -2 0 11
      vertex -1.91354 0 11.4067
      vertex -1.95106 0 11.309
    endloop
  endfacet
  facet normal 0 -1 0
    outer loop
      vertex 17.809 0 11.5878
      vertex 18 0 11
      vertex 17.866 0 11.5
    endloop
  endfacet
  facet normal 0 -1 0
    outer loop
      vertex -2 0 11
      vertex -1.95106 0 11.309
      vertex -1.97815 0 11.2079
    endloop
  endfacet
  facet normal 0 -1 0
    outer loop
      vertex 17.866 0 11.5
      vertex 18 0 11
      vertex 17.9135 0 11.4067
    endloop
  endfacet
  facet normal 0 -1 0
    outer loop
      vertex -2 0 11
      vertex -1.97815 0 11.2079
      vertex -1.99452 0 11.1045
    endloop
  endfacet
  facet normal 0 -1 0
    outer loop
      vertex 17.9135 0 11.4067
      vertex 18 0 11
      vertex 17.9511 0 11.309
    endloop
  endfacet
  facet normal 0 -1 0
    outer loop
      vertex 17.9511 0 11.309
      vertex 18 0 11
      vertex 17.9781 0 11.2079
    endloop
  endfacet
  facet normal 0 -1 0
    outer loop
      vertex 17.9781 0 11.2079
      vertex 18 0 11
      vertex 17.9945 0 11.1045
    endloop
  endfacet
  facet normal 0 -1 0
    outer loop
      vertex -1 0 0
      vertex -2 0 11
      vertex -2 0 1
    endloop
  endfacet
  facet normal 0 -1 0
    outer loop
      vertex 17.309 0 11.9511
      vertex 18 0 11
      vertex 17.4067 0 11.9135
    endloop
  endfacet
  facet normal 0 -1 0
    outer loop
      vertex -1 0 0
      vertex -2 0 1
      vertex -1.99452 0 0.895472
    endloop
  endfacet
  facet normal 0 -1 0
    outer loop
      vertex 17.4067 0 11.9135
      vertex 18 0 11
      vertex 17.5 0 11.866
    endloop
  endfacet
  facet normal 0 -1 0
    outer loop
      vertex -1 0 0
      vertex -1.99452 0 0.895472
      vertex -1.97815 0 0.792089
    endloop
  endfacet
  facet normal 0 -1 -0
    outer loop
      vertex 18 0 11
      vertex 17 0 0
      vertex 18 0 1
    endloop
  endfacet
  facet normal 0 -1 0
    outer loop
      vertex -1 0 0
      vertex -1.97815 0 0.792089
      vertex -1.95106 0 0.690984
    endloop
  endfacet
  facet normal 0 -1 0
    outer loop
      vertex 18 0 1
      vertex 17 0 0
      vertex 17.9945 0 0.895472
    endloop
  endfacet
  facet normal 0 -1 0
    outer loop
      vertex -1 0 0
      vertex -1.95106 0 0.690984
      vertex -1.91354 0 0.593264
    endloop
  endfacet
  facet normal 0 -1 0
    outer loop
      vertex 17.9945 0 0.895472
      vertex 17 0 0
      vertex 17.9781 0 0.792089
    endloop
  endfacet
  facet normal 0 -1 0
    outer loop
      vertex -1 0 0
      vertex -1.91354 0 0.593264
      vertex -1.86602 0 0.500001
    endloop
  endfacet
  facet normal 0 -1 0
    outer loop
      vertex 17.9781 0 0.792089
      vertex 17 0 0
      vertex 17.9511 0 0.690984
    endloop
  endfacet
  facet normal 0 -1 0
    outer loop
      vertex -1 0 0
      vertex -1.86602 0 0.500001
      vertex -1.80902 0 0.412215
    endloop
  endfacet
  facet normal 0 -1 0
    outer loop
      vertex 17.9511 0 0.690984
      vertex 17 0 0
      vertex 17.9135 0 0.593264
    endloop
  endfacet
  facet normal 0 -1 0
    outer loop
      vertex -1 0 0
      vertex -1.80902 0 0.412215
      vertex -1.74314 0 0.33087
    endloop
  endfacet
  facet normal 0 -1 0
    outer loop
      vertex 17.9135 0 0.593264
      vertex 17 0 0
      vertex 17.866 0 0.500001
    endloop
  endfacet
  facet normal 0 -1 0
    outer loop
      vertex -1 0 0
      vertex -1.74314 0 0.33087
      vertex -1.66913 0 0.256856
    endloop
  endfacet
  facet normal 0 -1 0
    outer loop
      vertex 17.866 0 0.500001
      vertex 17 0 0
      vertex 17.809 0 0.412215
    endloop
  endfacet
  facet normal 0 -1 0
    outer loop
      vertex -1 0 0
      vertex -1.66913 0 0.256856
      vertex -1.58778 0 0.190984
    endloop
  endfacet
  facet normal 0 -1 0
    outer loop
      vertex 17.809 0 0.412215
      vertex 17 0 0
      vertex 17.7431 0 0.33087
    endloop
  endfacet
  facet normal 0 -1 0
    outer loop
      vertex -1 0 0
      vertex -1.58778 0 0.190984
      vertex -1.5 0 0.133975
    endloop
  endfacet
  facet normal 0 -1 0
    outer loop
      vertex 17.7431 0 0.33087
      vertex 17 0 0
      vertex 17.6691 0 0.256856
    endloop
  endfacet
  facet normal 0 -1 0
    outer loop
      vertex -1 0 0
      vertex -1.5 0 0.133975
      vertex -1.40674 0 0.0864553
    endloop
  endfacet
  facet normal 0 -1 0
    outer loop
      vertex 17.6691 0 0.256856
      vertex 17 0 0
      vertex 17.5878 0 0.190984
    endloop
  endfacet
  facet normal 0 -1 0
    outer loop
      vertex -1 0 0
      vertex -1.40674 0 0.0864553
      vertex -1.30902 0 0.0489435
    endloop
  endfacet
  facet normal 0 -1 0
    outer loop
      vertex 17.5878 0 0.190984
      vertex 17 0 0
      vertex 17.5 0 0.133975
    endloop
  endfacet
  facet normal 0 -1 0
    outer loop
      vertex -1 0 0
      vertex -1.30902 0 0.0489435
      vertex -1.20791 0 0.0218525
    endloop
  endfacet
  facet normal 0 -1 0
    outer loop
      vertex 17.5 0 0.133975
      vertex 17 0 0
      vertex 17.4067 0 0.0864553
    endloop
  endfacet
  facet normal 0 -1 0
    outer loop
      vertex -1 0 0
      vertex -1.20791 0 0.0218525
      vertex -1.10453 0 0.00547886
    endloop
  endfacet
  facet normal 0 -1 0
    outer loop
      vertex 17.4067 0 0.0864553
      vertex 17 0 0
      vertex 17.309 0 0.0489435
    endloop
  endfacet
  facet normal 0 -1 0
    outer loop
      vertex 17.309 0 0.0489435
      vertex 17 0 0
      vertex 17.2079 0 0.0218525
    endloop
  endfacet
  facet normal 0 -1 0
    outer loop
      vertex 17.2079 0 0.0218525
      vertex 17 0 0
      vertex 17.1045 0 0.00547886
    endloop
  endfacet
  facet normal 0.453987 0 -0.891008
    outer loop
      vertex 17.4067 0 0.0864553
      vertex 17.5 1.5 0.133975
      vertex 17.5 0 0.133975
    endloop
  endfacet
  facet normal 0.453987 0 -0.891008
    outer loop
      vertex 17.5 1.5 0.133975
      vertex 17.4067 0 0.0864553
      vertex 17.4067 1.5 0.0864553
    endloop
  endfacet
  facet normal 0.777147 0 -0.62932
    outer loop
      vertex 17.809 0 0.412215
      vertex 17.7431 1.5 0.33087
      vertex 17.809 1.5 0.412215
    endloop
  endfacet
  facet normal 0.777147 0 -0.62932
    outer loop
      vertex 17.7431 1.5 0.33087
      vertex 17.809 0 0.412215
      vertex 17.7431 0 0.33087
    endloop
  endfacet
  facet normal 0.707102 0 -0.707111
    outer loop
      vertex 17.6691 0 0.256856
      vertex 17.7431 1.5 0.33087
      vertex 17.7431 0 0.33087
    endloop
  endfacet
  facet normal 0.707102 0 -0.707111
    outer loop
      vertex 17.7431 1.5 0.33087
      vertex 17.6691 0 0.256856
      vertex 17.6691 1.5 0.256856
    endloop
  endfacet
  facet normal 0.933572 0 -0.358389
    outer loop
      vertex 17.9511 0 0.690984
      vertex 17.9135 1.5 0.593264
      vertex 17.9511 1.5 0.690984
    endloop
  endfacet
  facet normal 0.933572 0 -0.358389
    outer loop
      vertex 17.9135 1.5 0.593264
      vertex 17.9511 0 0.690984
      vertex 17.9135 0 0.593264
    endloop
  endfacet
  facet normal 0.99863 -0 0.0523341
    outer loop
      vertex 17.9945 0 11.1045
      vertex 18 1.5 11
      vertex 17.9945 1.5 11.1045
    endloop
  endfacet
  facet normal 0.99863 0 0.0523341
    outer loop
      vertex 18 1.5 11
      vertex 17.9945 0 11.1045
      vertex 18 0 11
    endloop
  endfacet
  facet normal 0.965928 -0 0.258811
    outer loop
      vertex 17.9511 0 11.309
      vertex 17.9781 1.5 11.2079
      vertex 17.9511 1.5 11.309
    endloop
  endfacet
  facet normal 0.965928 0 0.258811
    outer loop
      vertex 17.9781 1.5 11.2079
      vertex 17.9511 0 11.309
      vertex 17.9781 0 11.2079
    endloop
  endfacet
  facet normal 0.25882 0 0.965926
    outer loop
      vertex 17.2079 1.5 11.9781
      vertex 17.309 0 11.9511
      vertex 17.309 1.5 11.9511
    endloop
  endfacet
  facet normal 0.25882 0 0.965926
    outer loop
      vertex 17.309 0 11.9511
      vertex 17.2079 1.5 11.9781
      vertex 17.2079 0 11.9781
    endloop
  endfacet
  facet normal -0.62932 0 0.777147
    outer loop
      vertex -1.66913 1.5 11.7431
      vertex -1.58778 0 11.809
      vertex -1.58778 1.5 11.809
    endloop
  endfacet
  facet normal -0.62932 0 0.777147
    outer loop
      vertex -1.58778 0 11.809
      vertex -1.66913 1.5 11.7431
      vertex -1.66913 0 11.7431
    endloop
  endfacet
  facet normal -0.156429 0 0.987689
    outer loop
      vertex -1.20791 1.5 11.9781
      vertex -1.10453 0 11.9945
      vertex -1.10453 1.5 11.9945
    endloop
  endfacet
  facet normal -0.156429 0 0.987689
    outer loop
      vertex -1.10453 0 11.9945
      vertex -1.20791 1.5 11.9781
      vertex -1.20791 0 11.9781
    endloop
  endfacet
  facet normal -0.83867 0 0.544639
    outer loop
      vertex -1.86602 0 11.5
      vertex -1.80902 1.5 11.5878
      vertex -1.86602 1.5 11.5
    endloop
  endfacet
  facet normal -0.83867 0 0.544639
    outer loop
      vertex -1.80902 1.5 11.5878
      vertex -1.86602 0 11.5
      vertex -1.80902 0 11.5878
    endloop
  endfacet
  facet normal -0.987689 0 0.156429
    outer loop
      vertex -1.99452 0 11.1045
      vertex -1.97815 1.5 11.2079
      vertex -1.99452 1.5 11.1045
    endloop
  endfacet
  facet normal -0.987689 0 0.156429
    outer loop
      vertex -1.97815 1.5 11.2079
      vertex -1.99452 0 11.1045
      vertex -1.97815 0 11.2079
    endloop
  endfacet
  facet normal 0.838679 0 -0.544626
    outer loop
      vertex 17.866 0 0.500001
      vertex 17.809 1.5 0.412215
      vertex 17.866 1.5 0.500001
    endloop
  endfacet
  facet normal 0.838679 0 -0.544626
    outer loop
      vertex 17.809 1.5 0.412215
      vertex 17.866 0 0.500001
      vertex 17.809 0 0.412215
    endloop
  endfacet
  facet normal 0.707102 0 0.707111
    outer loop
      vertex 17.6691 1.5 11.7431
      vertex 17.7431 0 11.6691
      vertex 17.7431 1.5 11.6691
    endloop
  endfacet
  facet normal 0.707102 0 0.707111
    outer loop
      vertex 17.7431 0 11.6691
      vertex 17.6691 1.5 11.7431
      vertex 17.6691 0 11.7431
    endloop
  endfacet
  facet normal 0.777147 -0 0.62932
    outer loop
      vertex 17.7431 0 11.6691
      vertex 17.809 1.5 11.5878
      vertex 17.7431 1.5 11.6691
    endloop
  endfacet
  facet normal 0.777147 0 0.62932
    outer loop
      vertex 17.809 1.5 11.5878
      vertex 17.7431 0 11.6691
      vertex 17.809 0 11.5878
    endloop
  endfacet
  facet normal 0.891007 -0 0.45399
    outer loop
      vertex 17.866 0 11.5
      vertex 17.9135 1.5 11.4067
      vertex 17.866 1.5 11.5
    endloop
  endfacet
  facet normal 0.891007 0 0.45399
    outer loop
      vertex 17.9135 1.5 11.4067
      vertex 17.866 0 11.5
      vertex 17.9135 0 11.4067
    endloop
  endfacet
  facet normal 0.838679 -0 0.544626
    outer loop
      vertex 17.809 0 11.5878
      vertex 17.866 1.5 11.5
      vertex 17.809 1.5 11.5878
    endloop
  endfacet
  facet normal 0.838679 0 0.544626
    outer loop
      vertex 17.866 1.5 11.5
      vertex 17.809 0 11.5878
      vertex 17.866 0 11.5
    endloop
  endfacet
  facet normal 0.358376 0 0.933577
    outer loop
      vertex 17.309 1.5 11.9511
      vertex 17.4067 0 11.9135
      vertex 17.4067 1.5 11.9135
    endloop
  endfacet
  facet normal 0.358376 0 0.933577
    outer loop
      vertex 17.4067 0 11.9135
      vertex 17.309 1.5 11.9511
      vertex 17.309 0 11.9511
    endloop
  endfacet
  facet normal -0.707107 0 0.707107
    outer loop
      vertex -1.74314 0 11.6691
      vertex -1.66913 1.5 11.7431
      vertex -1.74314 1.5 11.6691
    endloop
  endfacet
  facet normal -0.707107 0 0.707107
    outer loop
      vertex -1.66913 1.5 11.7431
      vertex -1.74314 0 11.6691
      vertex -1.66913 0 11.7431
    endloop
  endfacet
  facet normal -0.987689 0 -0.156429
    outer loop
      vertex -1.97815 0 0.792089
      vertex -1.99452 1.5 0.895472
      vertex -1.97815 1.5 0.792089
    endloop
  endfacet
  facet normal -0.987689 -0 -0.156429
    outer loop
      vertex -1.99452 1.5 0.895472
      vertex -1.97815 0 0.792089
      vertex -1.99452 0 0.895472
    endloop
  endfacet
  facet normal -0.707107 0 -0.707107
    outer loop
      vertex -1.66913 0 0.256856
      vertex -1.74314 1.5 0.33087
      vertex -1.66913 1.5 0.256856
    endloop
  endfacet
  facet normal -0.707107 -0 -0.707107
    outer loop
      vertex -1.74314 1.5 0.33087
      vertex -1.66913 0 0.256856
      vertex -1.74314 0 0.33087
    endloop
  endfacet
  facet normal -0.965926 0 -0.25882
    outer loop
      vertex -1.95106 0 0.690984
      vertex -1.97815 1.5 0.792089
      vertex -1.95106 1.5 0.690984
    endloop
  endfacet
  facet normal -0.965926 -0 -0.25882
    outer loop
      vertex -1.97815 1.5 0.792089
      vertex -1.95106 0 0.690984
      vertex -1.97815 0 0.792089
    endloop
  endfacet
  facet normal 0.0523432 0 -0.998629
    outer loop
      vertex 17 0 0
      vertex 17.1045 1.5 0.00547886
      vertex 17.1045 0 0.00547886
    endloop
  endfacet
  facet normal 0.0523432 0 -0.998629
    outer loop
      vertex 17.1045 1.5 0.00547886
      vertex 17 0 0
      vertex 17 1.5 0
    endloop
  endfacet
  facet normal -0.156429 0 -0.987689
    outer loop
      vertex -1.20791 0 0.0218525
      vertex -1.10453 1.5 0.00547886
      vertex -1.10453 0 0.00547886
    endloop
  endfacet
  facet normal -0.156429 0 -0.987689
    outer loop
      vertex -1.10453 1.5 0.00547886
      vertex -1.20791 0 0.0218525
      vertex -1.20791 1.5 0.0218525
    endloop
  endfacet
  facet normal 0.629315 0 -0.77715
    outer loop
      vertex 17.5878 0 0.190984
      vertex 17.6691 1.5 0.256856
      vertex 17.6691 0 0.256856
    endloop
  endfacet
  facet normal 0.629315 0 -0.77715
    outer loop
      vertex 17.6691 1.5 0.256856
      vertex 17.5878 0 0.190984
      vertex 17.5878 1.5 0.190984
    endloop
  endfacet
  facet normal 0.544648 0 -0.838665
    outer loop
      vertex 17.5 0 0.133975
      vertex 17.5878 1.5 0.190984
      vertex 17.5878 0 0.190984
    endloop
  endfacet
  facet normal 0.544648 0 -0.838665
    outer loop
      vertex 17.5878 1.5 0.190984
      vertex 17.5 0 0.133975
      vertex 17.5 1.5 0.133975
    endloop
  endfacet
  facet normal 0.965928 0 -0.258811
    outer loop
      vertex 17.9781 0 0.792089
      vertex 17.9511 1.5 0.690984
      vertex 17.9781 1.5 0.792089
    endloop
  endfacet
  facet normal 0.965928 0 -0.258811
    outer loop
      vertex 17.9511 1.5 0.690984
      vertex 17.9781 0 0.792089
      vertex 17.9511 0 0.690984
    endloop
  endfacet
  facet normal 0.987688 0 -0.156437
    outer loop
      vertex 17.9945 0 0.895472
      vertex 17.9781 1.5 0.792089
      vertex 17.9945 1.5 0.895472
    endloop
  endfacet
  facet normal 0.987688 0 -0.156437
    outer loop
      vertex 17.9781 1.5 0.792089
      vertex 17.9945 0 0.895472
      vertex 17.9781 0 0.792089
    endloop
  endfacet
  facet normal 0.99863 0 -0.0523341
    outer loop
      vertex 18 0 1
      vertex 17.9945 1.5 0.895472
      vertex 18 1.5 1
    endloop
  endfacet
  facet normal 0.99863 0 -0.0523341
    outer loop
      vertex 17.9945 1.5 0.895472
      vertex 18 0 1
      vertex 17.9945 0 0.895472
    endloop
  endfacet
  facet normal 0.933572 -0 0.358389
    outer loop
      vertex 17.9135 0 11.4067
      vertex 17.9511 1.5 11.309
      vertex 17.9135 1.5 11.4067
    endloop
  endfacet
  facet normal 0.933572 0 0.358389
    outer loop
      vertex 17.9511 1.5 11.309
      vertex 17.9135 0 11.4067
      vertex 17.9511 0 11.309
    endloop
  endfacet
  facet normal 0.156427 0 0.98769
    outer loop
      vertex 17.1045 1.5 11.9945
      vertex 17.2079 0 11.9781
      vertex 17.2079 1.5 11.9781
    endloop
  endfacet
  facet normal 0.156427 0 0.98769
    outer loop
      vertex 17.2079 0 11.9781
      vertex 17.1045 1.5 11.9945
      vertex 17.1045 0 11.9945
    endloop
  endfacet
  facet normal -0.45399 0 0.891007
    outer loop
      vertex -1.5 1.5 11.866
      vertex -1.40674 0 11.9135
      vertex -1.40674 1.5 11.9135
    endloop
  endfacet
  facet normal -0.45399 0 0.891007
    outer loop
      vertex -1.40674 0 11.9135
      vertex -1.5 1.5 11.866
      vertex -1.5 0 11.866
    endloop
  endfacet
  facet normal -0.358373 0 0.933579
    outer loop
      vertex -1.40674 1.5 11.9135
      vertex -1.30902 0 11.9511
      vertex -1.30902 1.5 11.9511
    endloop
  endfacet
  facet normal -0.358373 0 0.933579
    outer loop
      vertex -1.30902 0 11.9511
      vertex -1.40674 1.5 11.9135
      vertex -1.40674 0 11.9135
    endloop
  endfacet
  facet normal -0.777147 0 0.62932
    outer loop
      vertex -1.80902 0 11.5878
      vertex -1.74314 1.5 11.6691
      vertex -1.80902 1.5 11.5878
    endloop
  endfacet
  facet normal -0.777147 0 0.62932
    outer loop
      vertex -1.74314 1.5 11.6691
      vertex -1.80902 0 11.5878
      vertex -1.74314 0 11.6691
    endloop
  endfacet
  facet normal -0.0523432 0 0.998629
    outer loop
      vertex -1.10453 1.5 11.9945
      vertex -1 0 12
      vertex -1 1.5 12
    endloop
  endfacet
  facet normal -0.0523432 0 0.998629
    outer loop
      vertex -1 0 12
      vertex -1.10453 1.5 11.9945
      vertex -1.10453 0 11.9945
    endloop
  endfacet
  facet normal -0.965926 0 0.25882
    outer loop
      vertex -1.97815 0 11.2079
      vertex -1.95106 1.5 11.309
      vertex -1.97815 1.5 11.2079
    endloop
  endfacet
  facet normal -0.965926 0 0.25882
    outer loop
      vertex -1.95106 1.5 11.309
      vertex -1.97815 0 11.2079
      vertex -1.95106 0 11.309
    endloop
  endfacet
  facet normal -0.891007 0 -0.45399
    outer loop
      vertex -1.86602 0 0.500001
      vertex -1.91354 1.5 0.593264
      vertex -1.86602 1.5 0.500001
    endloop
  endfacet
  facet normal -0.891007 -0 -0.45399
    outer loop
      vertex -1.91354 1.5 0.593264
      vertex -1.86602 0 0.500001
      vertex -1.91354 0 0.593264
    endloop
  endfacet
  facet normal -0.933579 0 -0.358373
    outer loop
      vertex -1.91354 0 0.593264
      vertex -1.95106 1.5 0.690984
      vertex -1.91354 1.5 0.593264
    endloop
  endfacet
  facet normal -0.933579 -0 -0.358373
    outer loop
      vertex -1.95106 1.5 0.690984
      vertex -1.91354 0 0.593264
      vertex -1.95106 0 0.690984
    endloop
  endfacet
  facet normal -0.25882 0 -0.965926
    outer loop
      vertex -1.30902 0 0.0489435
      vertex -1.20791 1.5 0.0218525
      vertex -1.20791 0 0.0218525
    endloop
  endfacet
  facet normal -0.25882 0 -0.965926
    outer loop
      vertex -1.20791 1.5 0.0218525
      vertex -1.30902 0 0.0489435
      vertex -1.30902 1.5 0.0489435
    endloop
  endfacet
  facet normal -0.453987 0 -0.891008
    outer loop
      vertex -1.5 0 0.133975
      vertex -1.40674 1.5 0.0864553
      vertex -1.40674 0 0.0864553
    endloop
  endfacet
  facet normal -0.453987 0 -0.891008
    outer loop
      vertex -1.40674 1.5 0.0864553
      vertex -1.5 0 0.133975
      vertex -1.5 1.5 0.133975
    endloop
  endfacet
  facet normal 0.156427 0 -0.98769
    outer loop
      vertex 17.1045 0 0.00547886
      vertex 17.2079 1.5 0.0218525
      vertex 17.2079 0 0.0218525
    endloop
  endfacet
  facet normal 0.156427 0 -0.98769
    outer loop
      vertex 17.2079 1.5 0.0218525
      vertex 17.1045 0 0.00547886
      vertex 17.1045 1.5 0.00547886
    endloop
  endfacet
  facet normal 0.25882 0 -0.965926
    outer loop
      vertex 17.2079 0 0.0218525
      vertex 17.309 1.5 0.0489435
      vertex 17.309 0 0.0489435
    endloop
  endfacet
  facet normal 0.25882 0 -0.965926
    outer loop
      vertex 17.309 1.5 0.0489435
      vertex 17.2079 0 0.0218525
      vertex 17.2079 1.5 0.0218525
    endloop
  endfacet
  facet normal 0.358376 0 -0.933577
    outer loop
      vertex 17.309 0 0.0489435
      vertex 17.4067 1.5 0.0864553
      vertex 17.4067 0 0.0864553
    endloop
  endfacet
  facet normal 0.358376 0 -0.933577
    outer loop
      vertex 17.4067 1.5 0.0864553
      vertex 17.309 0 0.0489435
      vertex 17.309 1.5 0.0489435
    endloop
  endfacet
  facet normal -0.0523432 0 -0.998629
    outer loop
      vertex -1.10453 0 0.00547886
      vertex -1 1.5 0
      vertex -1 0 0
    endloop
  endfacet
  facet normal -0.0523432 0 -0.998629
    outer loop
      vertex -1 1.5 0
      vertex -1.10453 0 0.00547886
      vertex -1.10453 1.5 0.00547886
    endloop
  endfacet
  facet normal 0.891007 0 -0.45399
    outer loop
      vertex 17.9135 0 0.593264
      vertex 17.866 1.5 0.500001
      vertex 17.9135 1.5 0.593264
    endloop
  endfacet
  facet normal 0.891007 0 -0.45399
    outer loop
      vertex 17.866 1.5 0.500001
      vertex 17.9135 0 0.593264
      vertex 17.866 0 0.500001
    endloop
  endfacet
  facet normal 0.629315 0 0.77715
    outer loop
      vertex 17.5878 1.5 11.809
      vertex 17.6691 0 11.7431
      vertex 17.6691 1.5 11.7431
    endloop
  endfacet
  facet normal 0.629315 0 0.77715
    outer loop
      vertex 17.6691 0 11.7431
      vertex 17.5878 1.5 11.809
      vertex 17.5878 0 11.809
    endloop
  endfacet
  facet normal 0.544648 0 0.838665
    outer loop
      vertex 17.5 1.5 11.866
      vertex 17.5878 0 11.809
      vertex 17.5878 1.5 11.809
    endloop
  endfacet
  facet normal 0.544648 0 0.838665
    outer loop
      vertex 17.5878 0 11.809
      vertex 17.5 1.5 11.866
      vertex 17.5 0 11.866
    endloop
  endfacet
  facet normal 0.453987 0 0.891008
    outer loop
      vertex 17.4067 1.5 11.9135
      vertex 17.5 0 11.866
      vertex 17.5 1.5 11.866
    endloop
  endfacet
  facet normal 0.453987 0 0.891008
    outer loop
      vertex 17.5 0 11.866
      vertex 17.4067 1.5 11.9135
      vertex 17.4067 0 11.9135
    endloop
  endfacet
  facet normal -0.544639 0 0.83867
    outer loop
      vertex -1.58778 1.5 11.809
      vertex -1.5 0 11.866
      vertex -1.5 1.5 11.866
    endloop
  endfacet
  facet normal -0.544639 0 0.83867
    outer loop
      vertex -1.5 0 11.866
      vertex -1.58778 1.5 11.809
      vertex -1.58778 0 11.809
    endloop
  endfacet
  facet normal -0.891007 0 0.45399
    outer loop
      vertex -1.91354 0 11.4067
      vertex -1.86602 1.5 11.5
      vertex -1.91354 1.5 11.4067
    endloop
  endfacet
  facet normal -0.891007 0 0.45399
    outer loop
      vertex -1.86602 1.5 11.5
      vertex -1.91354 0 11.4067
      vertex -1.86602 0 11.5
    endloop
  endfacet
  facet normal -0.933579 0 0.358373
    outer loop
      vertex -1.95106 0 11.309
      vertex -1.91354 1.5 11.4067
      vertex -1.95106 1.5 11.309
    endloop
  endfacet
  facet normal -0.933579 0 0.358373
    outer loop
      vertex -1.91354 1.5 11.4067
      vertex -1.95106 0 11.309
      vertex -1.91354 0 11.4067
    endloop
  endfacet
  facet normal -0.83867 0 -0.544639
    outer loop
      vertex -1.80902 0 0.412215
      vertex -1.86602 1.5 0.500001
      vertex -1.80902 1.5 0.412215
    endloop
  endfacet
  facet normal -0.83867 -0 -0.544639
    outer loop
      vertex -1.86602 1.5 0.500001
      vertex -1.80902 0 0.412215
      vertex -1.86602 0 0.500001
    endloop
  endfacet
  facet normal -0.777147 0 -0.62932
    outer loop
      vertex -1.74314 0 0.33087
      vertex -1.80902 1.5 0.412215
      vertex -1.74314 1.5 0.33087
    endloop
  endfacet
  facet normal -0.777147 -0 -0.62932
    outer loop
      vertex -1.80902 1.5 0.412215
      vertex -1.74314 0 0.33087
      vertex -1.80902 0 0.412215
    endloop
  endfacet
  facet normal -0.358373 0 -0.933579
    outer loop
      vertex -1.40674 0 0.0864553
      vertex -1.30902 1.5 0.0489435
      vertex -1.30902 0 0.0489435
    endloop
  endfacet
  facet normal -0.358373 0 -0.933579
    outer loop
      vertex -1.30902 1.5 0.0489435
      vertex -1.40674 0 0.0864553
      vertex -1.40674 1.5 0.0864553
    endloop
  endfacet
  facet normal -0.62932 0 -0.777147
    outer loop
      vertex -1.66913 0 0.256856
      vertex -1.58778 1.5 0.190984
      vertex -1.58778 0 0.190984
    endloop
  endfacet
  facet normal -0.62932 0 -0.777147
    outer loop
      vertex -1.58778 1.5 0.190984
      vertex -1.66913 0 0.256856
      vertex -1.66913 1.5 0.256856
    endloop
  endfacet
  facet normal -0.544643 0 -0.838668
    outer loop
      vertex -1.58778 0 0.190984
      vertex -1.5 1.5 0.133975
      vertex -1.5 0 0.133975
    endloop
  endfacet
  facet normal -0.544643 0 -0.838668
    outer loop
      vertex -1.5 1.5 0.133975
      vertex -1.58778 0 0.190984
      vertex -1.58778 1.5 0.190984
    endloop
  endfacet
endsolid OpenSCAD_Model
